<svg width="419" height="143" viewBox="0 0 419 143" fill="none" xmlns="http://www.w3.org/2000/svg">
<path d="M85.4584 61.0793C82.9752 61.0544 81.4802 60.6108 79.9652 59.8532C78.6508 59.1754 77.2864 58.1437 75.7814 56.5388C73.1376 53.7677 70.2681 49.2272 67.2632 43.7448C62.6629 35.5511 57.8519 25.3439 49.6497 16.2879C45.536 11.7873 40.4342 7.60074 34.1533 4.63026C27.8875 1.63985 20.5481 -0.0148516 12.5416 0.000100454C5.61362 0.000100454 0 5.57722 0 12.4602C0 19.3431 5.61362 24.9202 12.5416 24.9202C16.6251 24.9302 19.6502 25.5931 22.2287 26.6297C24.4862 27.5418 26.4428 28.7679 28.3642 30.4027C31.7153 33.2386 34.8857 37.47 37.976 42.6334C42.6866 50.3686 46.8855 59.9429 53.4573 68.7846C56.7733 73.1854 60.8468 77.4916 66.2598 80.7711C71.6376 84.0656 78.3549 86.0393 85.4584 85.9994C92.3864 85.9994 98 80.4173 98 73.5394C98 66.6564 92.3864 61.0793 85.4584 61.0793Z" fill="black"/>
<path d="M231.459 61.0779C228.971 61.0529 227.476 60.6093 225.961 59.8517C224.647 59.1739 223.287 58.1421 221.777 56.5371C219.134 53.7658 216.264 49.2252 213.26 43.7474C208.66 35.5532 203.854 25.3453 195.647 16.2888C191.534 11.788 186.432 7.60117 180.157 4.63053C173.886 1.63994 166.552 -0.0148525 158.541 0.00010046C151.618 0.00010046 146 5.57754 146 12.4609C146 19.3442 151.618 24.9216 158.541 24.9216C162.624 24.9316 165.654 25.5946 168.232 26.6263C170.485 27.5434 172.441 28.7696 174.363 30.4044C177.714 33.2405 180.884 37.4671 183.974 42.6359C188.684 50.3665 192.888 59.9414 199.454 68.7886C202.775 73.1847 206.844 77.4911 212.256 80.7708C217.639 84.0654 224.356 86.0393 231.459 85.9994C238.382 85.9994 244 80.417 244 73.5386C244 66.6553 238.382 61.0779 231.459 61.0779Z" fill="black"/>
<path d="M85.5403 85.9998C91.7202 86.0197 97.6242 84.5593 102.585 81.9724C106.944 79.7294 110.551 76.7438 113.55 73.5489C118.797 67.9315 122.399 61.7061 125.719 55.7548C130.61 46.798 134.969 38.3595 139.91 33.0562C142.368 30.3796 144.831 28.4606 147.65 27.1199C150.479 25.794 153.77 24.9367 158.46 24.9217C165.387 24.9217 171 19.3443 171 12.4609C171 5.57753 165.387 5.95838e-05 158.46 5.95838e-05C151.487 -0.00990908 145.026 1.23122 139.333 3.53897C134.347 5.54766 129.993 8.33888 126.296 11.4989C119.815 17.0565 115.271 23.596 111.494 29.8613C105.896 39.2767 101.692 48.3481 97.4586 53.8608C95.3719 56.637 93.4408 58.4414 91.7152 59.4732C89.9496 60.4949 88.3895 61.0383 85.5403 61.0781C78.6181 61.0781 73 66.6556 73 73.539C73 80.4174 78.6181 85.9998 85.5403 85.9998Z" fill="black"/>
<path d="M232.545 85.9998C238.724 86.0197 244.623 84.5543 249.589 81.9724C253.942 79.7245 257.554 76.7388 260.548 73.5489C265.795 67.9265 269.396 61.7062 272.712 55.7499C277.602 46.798 281.961 38.3595 286.902 33.0562C289.359 30.3796 291.822 28.4606 294.641 27.1199C297.47 25.794 300.76 24.9367 305.46 24.9217C312.382 24.9217 318 19.3393 318 12.4609C318 5.57753 312.382 5.95838e-05 305.46 5.95838e-05C298.483 -0.00990908 292.023 1.23122 286.33 3.53897C281.344 5.54766 276.99 8.33888 273.294 11.4989C266.808 17.0515 262.269 23.5909 258.487 29.8562C252.894 39.2766 248.691 48.3481 244.452 53.8608C242.371 56.637 240.44 58.4414 238.709 59.4732C236.949 60.49 235.389 61.0383 232.54 61.0781C225.613 61.0781 220 66.6556 220 73.539C220.005 80.4223 225.618 85.9998 232.545 85.9998Z" fill="black"/>
<path d="M200.913 143C193.786 143 187.973 140.58 183.33 136.796C178.651 133.002 175.062 127.933 171.769 122.465C165.217 111.521 159.719 98.8887 150.82 90.8472C144.884 85.4895 137.63 82.0091 127 81.9793V77C127.02 77 127.041 77 127.061 77C135.889 77 143.062 79.3003 148.88 83.0397C154.714 86.7792 159.184 91.888 162.977 97.4099C170.521 108.459 175.622 121.29 182.831 129.342C187.657 134.714 192.997 137.981 201 138.021V143C200.969 143 200.944 143 200.913 143Z" fill="#ADADAD"/>
<path d="M345.914 143C338.883 143 333.148 140.58 328.567 136.795C323.957 133.001 320.406 127.932 317.162 122.469C310.698 111.519 305.274 98.8904 296.495 90.8483C290.638 85.4903 283.482 82.0095 273 81.9796V77C273.02 77 273.035 77 273.055 77C281.769 77 288.841 79.3006 294.581 83.0403C300.337 86.78 304.746 91.8891 308.488 97.4114C315.931 108.461 320.963 121.289 328.075 129.346C332.841 134.714 338.105 137.981 346 138.02V143C345.97 143 345.945 143 345.914 143Z" fill="#ADADAD"/>
<path d="M200.126 143C200.08 143 200.04 143 200 143V138.02C205.941 138 210.329 136.133 214.226 132.961C218.103 129.784 221.392 125.203 224.506 119.939C230.783 109.432 236.241 96.321 246.084 87.2033C252.622 81.1381 261.284 77 272.874 77C272.915 77 272.955 77 273 77V81.9796C265.131 81.9896 259.155 83.9815 254.174 87.2033C249.192 90.4351 245.2 94.9814 241.68 100.185C234.594 110.588 229.638 123.5 221.714 132.608C216.476 138.653 209.521 143 200.126 143Z" fill="#ADADAD"/>
<path d="M346.12 143C346.08 143 346.04 143 346 143V140.51V138.02C351.941 138 356.33 136.133 360.226 132.961C364.103 129.784 367.387 125.198 370.506 119.939C376.778 109.432 382.236 96.3209 392.084 87.1983C398.622 81.1381 407.285 77 418.88 77C418.92 77 418.96 77 419 77V81.9796C411.131 81.9896 405.155 83.9815 400.169 87.2033C395.192 90.4351 391.2 94.9814 387.675 100.185C380.589 110.588 375.633 123.5 367.714 132.608C362.476 138.653 355.516 143 346.12 143Z" fill="#ADADAD"/>
</svg>
