<svg width="388" height="334" viewBox="0 0 388 334" fill="none" xmlns="http://www.w3.org/2000/svg">
<path d="M218.895 132.503L232.962 136.263L264.508 18.308C265.847 13.2855 264.409 7.92547 260.729 4.2532C257.05 0.580935 251.681 -0.850662 246.662 0.499523L128.748 32.1997L10.7802 63.8709C5.76129 65.2211 1.83702 69.1435 0.492049 74.166C-0.847099 79.1885 0.59113 84.5427 4.27087 88.2208L90.6865 174.458L177.085 260.742C180.765 264.414 186.127 265.852 191.152 264.501C196.171 263.151 200.095 259.229 201.44 254.206L232.962 136.263L218.895 132.503L204.834 128.75L179.821 222.337L111.257 153.874L42.6869 85.4331L136.305 60.3034L229.865 35.1504L204.834 128.75L218.895 132.503Z" fill="black"/>
<path d="M322.223 334L232.123 244.023L210.308 222.254L212.046 215.75L236.24 239.897L319.202 322.74L349.473 209.502L379.76 96.2528L266.54 126.688L233.482 135.564L235.22 129.066L265.029 121.064L388 88L355.1 211.006L322.223 334ZM186.481 198.481L142 154.087L202.704 137.791L200.966 144.295L153.266 157.094L188.219 191.977L186.481 198.481Z" fill="#ADADAD"/>
<path d="M209.955 222L186 198.275L187.747 191.783L211.702 215.509L209.955 222ZM200.563 144.199L202.31 137.707L235 129L233.253 135.485L200.563 144.199Z" fill="black"/>
</svg>
