<svg width="345" height="345" viewBox="0 0 345 345" fill="none" xmlns="http://www.w3.org/2000/svg">
<path d="M343.361 121.591L327.747 106.947C326.716 105.98 325.097 106.032 324.13 107.062C323.163 108.093 323.215 109.713 324.246 110.68L339.86 125.325C340.891 126.291 342.511 126.24 343.478 125.208C344.444 124.177 344.392 122.558 343.361 121.591Z" fill="black"/>
<path d="M328.2 125.715L342.847 110.101C343.813 109.07 343.762 107.451 342.731 106.483C341.7 105.517 340.081 105.568 339.113 106.6L324.467 122.213C323.5 123.244 323.552 124.865 324.583 125.831C325.614 126.798 327.234 126.746 328.2 125.715Z" fill="black"/>
<path d="M159.07 201.271L143.456 186.627C142.425 185.66 140.805 185.712 139.838 186.743C138.872 187.774 138.923 189.393 139.954 190.361L155.568 205.004C156.6 205.972 158.219 205.92 159.186 204.889C160.153 203.858 160.101 202.238 159.07 201.271Z" fill="black"/>
<path d="M144.245 205.354L158.891 189.739C159.858 188.709 159.806 187.089 158.775 186.122C157.744 185.155 156.125 185.206 155.158 186.237L140.512 201.851C139.544 202.882 139.596 204.502 140.627 205.469C141.658 206.436 143.278 206.384 144.245 205.354Z" fill="black"/>
<path d="M81.2489 147.285L83.4643 146.003L72.713 127.41C72.2554 126.618 71.4098 126.131 70.4956 126.132C69.5803 126.132 68.7358 126.622 68.2802 127.414L57.5627 146.017L46.836 164.624C46.3794 165.416 46.3804 166.392 46.838 167.183C47.2956 167.974 48.1412 168.462 49.0554 168.461L70.5253 168.443L91.9992 168.433C92.9134 168.433 93.758 167.944 94.2146 167.152C94.6722 166.36 94.6712 165.384 94.2136 164.593L83.4643 146.003L81.2489 147.285L79.0325 148.565L87.5623 163.316L70.5222 163.325L53.4851 163.339L61.9975 148.573L70.5017 133.811L79.0325 148.565L81.2489 147.285Z" fill="black"/>
<path d="M239.626 301.599L242.099 302.261L247.646 281.512C247.881 280.628 247.628 279.685 246.981 279.039C246.334 278.393 245.39 278.141 244.508 278.379L223.775 283.955L203.033 289.526C202.151 289.764 201.461 290.454 201.224 291.337C200.989 292.221 201.242 293.163 201.889 293.81L217.083 308.979L232.274 324.157C232.921 324.803 233.864 325.056 234.748 324.819C235.63 324.581 236.32 323.891 236.557 323.008L242.099 302.261L239.626 301.599L237.153 300.939L232.755 317.402L220.7 305.359L208.643 293.319L225.104 288.899L241.554 284.474L237.153 300.939L239.626 301.599Z" fill="black"/>
<path d="M261.396 83.9015L262.678 86.1168L281.271 75.3666C282.062 74.909 282.549 74.0633 282.548 73.1492C282.548 72.235 282.059 71.3904 281.267 70.9338L262.662 60.2163H262.664L244.057 49.4895C243.265 49.0329 242.289 49.0329 241.497 49.4916C240.706 49.9492 240.219 50.7948 240.22 51.709L240.237 73.1788L240.247 94.6538C240.247 95.568 240.737 96.4126 241.529 96.8692C242.32 97.3258 243.297 97.3258 244.088 96.8682L262.678 86.1168L261.396 83.9015L260.115 81.6851L245.364 90.2169L245.356 73.1758V73.1747L245.341 56.1387L260.108 64.6511V64.6521L274.869 73.1553L260.115 81.6851L261.396 83.9015Z" fill="black"/>
<path d="M117.348 263.282H114.789C114.788 267.082 113.255 270.499 110.766 272.991C108.273 275.48 104.857 277.012 101.058 277.014C97.258 277.012 93.8408 275.48 91.347 272.991C88.8583 270.499 87.3268 267.082 87.3257 263.282C87.3268 259.481 88.8583 256.065 91.347 253.572C93.8408 251.083 97.258 249.552 101.058 249.55C104.857 249.552 108.273 251.083 110.766 253.572C113.255 256.065 114.788 259.481 114.789 263.282H119.907C119.905 252.87 111.469 244.433 101.058 244.431C90.6457 244.433 82.2081 252.87 82.207 263.282C82.2081 273.694 90.6457 282.13 101.058 282.132C111.469 282.13 119.905 273.694 119.907 263.282H117.348Z" fill="black"/>
<path d="M35.1419 81.473H32.5825C32.5815 85.2741 31.05 88.6903 28.5603 91.1831C26.0675 93.6719 22.6512 95.2034 18.8511 95.2054C15.051 95.2034 11.6348 93.6719 9.14095 91.1831C6.65224 88.6903 5.11972 85.2731 5.11869 81.473C5.11972 77.6739 6.65224 74.2577 9.14095 71.7638C11.6348 69.2751 15.051 67.7436 18.8511 67.7426C22.6512 67.7436 26.0675 69.2751 28.5603 71.7638C31.05 74.2566 32.5815 77.6739 32.5825 81.473H37.7012C37.6992 71.0616 29.2626 62.6249 18.8511 62.6239C8.4397 62.6249 0.00204748 71.0616 0 81.473C0.00204748 91.8865 8.4397 100.322 18.8511 100.324C29.2626 100.322 37.6992 91.8854 37.7012 81.473H35.1419Z" fill="black"/>
<path d="M198.426 179.581C194.623 179.58 191.204 178.053 188.712 175.576C186.223 173.095 184.695 169.698 184.694 165.923C184.695 162.147 186.223 158.751 188.712 156.27C191.204 153.793 194.622 152.267 198.426 152.265C199.84 152.265 200.986 151.119 200.986 149.707C200.986 148.293 199.84 147.147 198.426 147.147C193.232 147.145 188.505 149.249 185.1 152.643C181.692 156.03 179.573 160.742 179.575 165.923C179.573 171.103 181.692 175.815 185.1 179.204C188.505 182.597 193.232 184.701 198.426 184.7C199.84 184.7 200.986 183.554 200.986 182.141C200.986 180.727 199.84 179.581 198.426 179.581Z" fill="black"/>
<path d="M271.417 149.707V152.266H301.264V179.553H273.976V149.707H271.417V152.266V149.707H268.857V182.112C268.857 182.787 269.131 183.446 269.607 183.922C270.084 184.399 270.743 184.671 271.417 184.671H303.823C304.497 184.671 305.156 184.399 305.632 183.922C306.109 183.446 306.383 182.787 306.383 182.112V149.707C306.383 149.033 306.109 148.374 305.632 147.897C305.156 147.421 304.497 147.147 303.823 147.147H271.417C270.743 147.147 270.084 147.421 269.607 147.897C269.131 148.374 268.857 149.033 268.857 149.707H271.417Z" fill="black"/>
<path d="M136.988 11.6981V14.2575H166.832V41.5453H139.547V11.6981H136.988V14.2575V11.6981H134.429V44.1046C134.429 44.7782 134.701 45.4375 135.178 45.9135C135.654 46.3906 136.313 46.6639 136.988 46.6639H169.391C170.065 46.6639 170.724 46.3906 171.201 45.9135C171.677 45.4375 171.951 44.7782 171.951 44.1046V11.6981C171.951 11.0245 171.677 10.3652 171.201 9.88919C170.724 9.41213 170.065 9.13879 169.391 9.13879H136.988C136.313 9.13879 135.654 9.41213 135.178 9.88919C134.701 10.3652 134.429 11.0245 134.429 11.6981H136.988Z" fill="black"/>
<path d="M215.882 235.415C215.375 235.409 215.07 235.318 214.761 235.163C214.493 235.024 214.214 234.812 213.907 234.482C213.367 233.913 212.782 232.98 212.169 231.854C211.23 230.171 210.248 228.074 208.574 226.214C207.735 225.29 206.694 224.43 205.412 223.82C204.133 223.205 202.636 222.866 201.002 222.869C199.588 222.869 198.442 224.014 198.442 225.428C198.442 226.842 199.588 227.987 201.002 227.987C201.835 227.989 202.452 228.126 202.979 228.339C203.439 228.526 203.839 228.778 204.231 229.113C204.914 229.696 205.561 230.565 206.192 231.626C207.153 233.215 208.01 235.181 209.351 236.997C210.028 237.901 210.859 238.786 211.964 239.459C213.061 240.136 214.432 240.541 215.882 240.533C217.296 240.533 218.441 239.387 218.441 237.974C218.441 236.56 217.296 235.415 215.882 235.415Z" fill="black"/>
<path d="M245.531 235.414C245.023 235.408 244.718 235.317 244.409 235.162C244.141 235.023 243.864 234.811 243.555 234.481C243.016 233.912 242.43 232.979 241.817 231.854C240.878 230.171 239.898 228.074 238.223 226.214C237.383 225.29 236.342 224.43 235.061 223.82C233.782 223.205 232.285 222.866 230.65 222.869C229.237 222.869 228.091 224.014 228.091 225.428C228.091 226.842 229.237 227.987 230.65 227.987C231.483 227.989 232.102 228.126 232.628 228.337C233.088 228.526 233.487 228.778 233.879 229.113C234.563 229.696 235.21 230.564 235.84 231.626C236.802 233.214 237.66 235.18 239 236.997C239.677 237.9 240.508 238.785 241.612 239.458C242.711 240.135 244.082 240.54 245.531 240.532C246.944 240.532 248.091 239.386 248.091 237.973C248.091 236.559 246.944 235.414 245.531 235.414Z" fill="black"/>
<path d="M215.826 240.532C217.087 240.536 218.292 240.236 219.305 239.705C220.194 239.244 220.93 238.631 221.543 237.975C222.613 236.821 223.348 235.543 224.026 234.32C225.024 232.481 225.914 230.747 226.922 229.658C227.424 229.108 227.927 228.714 228.502 228.439C229.079 228.167 229.751 227.99 230.708 227.987C232.122 227.987 233.267 226.842 233.267 225.428C233.267 224.014 232.122 222.869 230.708 222.869C229.285 222.867 227.966 223.122 226.805 223.596C225.787 224.008 224.898 224.581 224.144 225.23C222.821 226.372 221.894 227.715 221.123 229.002C219.98 230.936 219.122 232.799 218.258 233.931C217.832 234.501 217.438 234.872 217.086 235.084C216.726 235.294 216.407 235.405 215.826 235.414C214.413 235.414 213.267 236.559 213.267 237.973C213.267 239.386 214.413 240.532 215.826 240.532Z" fill="black"/>
<path d="M245.812 240.532C247.073 240.536 248.277 240.235 249.291 239.705C250.179 239.243 250.916 238.63 251.527 237.975C252.598 236.82 253.333 235.543 254.01 234.319C255.008 232.481 255.898 230.747 256.906 229.658C257.408 229.108 257.91 228.714 258.486 228.439C259.063 228.167 259.735 227.99 260.694 227.987C262.107 227.987 263.253 226.841 263.253 225.428C263.253 224.014 262.107 222.869 260.694 222.869C259.27 222.867 257.951 223.122 256.789 223.596C255.772 224.008 254.883 224.581 254.129 225.23C252.805 226.371 251.879 227.714 251.107 229.001C249.965 230.936 249.107 232.799 248.242 233.931C247.817 234.501 247.423 234.872 247.07 235.084C246.711 235.293 246.392 235.405 245.811 235.414C244.397 235.414 243.251 236.559 243.251 237.973C243.252 239.387 244.398 240.532 245.812 240.532Z" fill="black"/>
<path d="M90.3721 54.8653C90.367 55.372 90.2759 55.6771 90.1202 55.9873C89.981 56.2545 89.7691 56.5329 89.4394 56.8411C88.8702 57.3806 87.9376 57.9651 86.8115 58.5794C85.1285 59.5171 83.0318 60.4989 81.1727 62.1737C80.2483 63.0132 79.3873 64.0543 78.7772 65.3361C78.164 66.6147 77.8231 68.1124 77.8272 69.7463C77.8272 71.1601 78.9727 72.3057 80.3865 72.3057C81.7993 72.3057 82.9459 71.1601 82.9459 69.7463C82.9469 68.913 83.0841 68.2947 83.296 67.7685C83.4843 67.3088 83.7362 66.9095 84.072 66.5164C84.6545 65.8336 85.5226 65.1856 86.5842 64.5549C88.1721 63.5937 90.1387 62.7368 91.9548 61.3957C92.8587 60.719 93.7432 59.8877 94.4169 58.7831C95.0936 57.6857 95.4979 56.3149 95.4908 54.8653C95.4908 53.4515 94.3442 52.3059 92.9314 52.3059C91.5176 52.3059 90.3721 53.4515 90.3721 54.8653Z" fill="black"/>
<path d="M90.3721 25.0905C90.367 25.5972 90.2759 25.9023 90.1202 26.2115C89.981 26.4797 89.7691 26.7581 89.4394 27.0653C88.8702 27.6048 87.9376 28.1904 86.8115 28.8036C85.1285 29.7423 83.0318 30.7241 81.1727 32.3979C80.2483 33.2374 79.3884 34.2785 78.7772 35.5603C78.164 36.8389 77.8231 38.3356 77.8272 39.9705C77.8272 41.3843 78.9727 42.5299 80.3865 42.5299C81.7993 42.5299 82.9459 41.3843 82.9459 39.9705C82.9469 39.1372 83.0841 38.5199 83.296 37.9927C83.4843 37.533 83.7362 37.1337 84.072 36.7416C84.6545 36.0578 85.5226 35.4108 86.5842 34.7802C88.1721 33.8189 90.1387 32.961 91.9548 31.6209C92.8587 30.9442 93.7432 30.1129 94.4169 29.0083C95.0936 27.9109 95.4979 26.5391 95.4908 25.0905C95.4908 23.6767 94.3442 22.5311 92.9314 22.5311C91.5176 22.5311 90.3721 23.6767 90.3721 25.0905Z" fill="black"/>
<path d="M95.4908 54.881C95.4948 53.6198 95.1949 52.4148 94.6636 51.4024C94.2029 50.5127 93.5897 49.7766 92.9334 49.1645C91.7797 48.0946 90.501 47.3586 89.2777 46.6809C87.439 45.6827 85.7058 44.7941 84.6166 43.7857C84.0668 43.2841 83.6727 42.7804 83.3973 42.2061C83.125 41.6277 82.9489 40.9561 82.9459 39.9989C82.9459 38.5851 81.7993 37.4396 80.3865 37.4396C78.9727 37.4396 77.8272 38.5851 77.8272 39.9989C77.8251 41.4219 78.08 42.7405 78.554 43.9024C78.9666 44.92 79.5399 45.8086 80.1889 46.5631C81.3293 47.8868 82.6735 48.8133 83.9604 49.5852C85.8942 50.7267 87.7574 51.5846 88.8897 52.4496C89.4599 52.8745 89.8305 53.2686 90.0424 53.6218C90.2512 53.9811 90.3639 54.2995 90.3721 54.881C90.3721 56.2948 91.5176 57.4404 92.9314 57.4404C94.3442 57.4404 95.4908 56.2948 95.4908 54.881Z" fill="black"/>
<path d="M95.4908 25.1062C95.4948 23.844 95.1949 22.64 94.6636 21.6276C94.2029 20.7379 93.5897 20.0019 92.9334 19.3897C91.7797 18.3199 90.501 17.5848 89.2777 16.9071C87.439 15.909 85.7058 15.0193 84.6166 14.012C84.0668 13.5093 83.6727 13.0067 83.3973 12.4313C83.125 11.8539 82.9489 11.1824 82.9459 10.2241C82.9459 8.81138 81.7993 7.66479 80.3865 7.66479C78.9727 7.66479 77.8272 8.81138 77.8272 10.2241C77.8251 11.6482 78.08 12.9667 78.554 14.1287C78.9666 15.1463 79.5399 16.0349 80.1889 16.7894C81.3293 18.1131 82.6735 19.0396 83.9604 19.8115C85.8942 20.9529 87.7574 21.8108 88.8897 22.6749C89.4609 23.1007 89.8305 23.4949 90.0424 23.847C90.2523 24.2064 90.3639 24.5248 90.3721 25.1062C90.3721 26.519 91.5176 27.6656 92.9314 27.6656C94.3442 27.6656 95.4908 26.519 95.4908 25.1062Z" fill="black"/>
<path d="M128.902 100.339H165.623C167.036 100.339 168.182 99.1924 168.182 97.7797C168.182 96.3659 167.036 95.2203 165.623 95.2203H128.902C127.488 95.2203 126.343 96.3659 126.343 97.7797C126.343 99.1924 127.488 100.339 128.902 100.339Z" fill="black"/>
<path d="M273.775 17.4582H310.496C311.908 17.4582 313.055 16.3126 313.055 14.8988C313.055 13.485 311.908 12.3395 310.496 12.3395H273.775C272.361 12.3395 271.216 13.485 271.216 14.8988C271.216 16.3126 272.361 17.4582 273.775 17.4582Z" fill="black"/>
<path d="M293.779 308.878L319.744 282.913C320.744 281.914 320.744 280.293 319.744 279.293C318.744 278.294 317.124 278.294 316.125 279.293L290.159 305.259C289.159 306.258 289.159 307.879 290.159 308.878C291.159 309.877 292.779 309.877 293.779 308.878Z" fill="black"/>
<path d="M71.4258 180.082L78.1425 168.431H79.325L73.1989 179.057L93.7822 179.04L114.371 179.031L104.065 161.208L104.508 160.952L104.951 160.696L116.145 180.053L93.7832 180.063L71.4258 180.082ZM81.095 163.311L82.5958 160.707L84.2747 157.793L84.8664 158.816L83.4834 161.219L82.2764 163.31L81.095 163.311ZM104.065 161.208L93.7576 143.383L87.8179 153.694L87.2262 152.67L93.7556 141.335L104.951 160.696L104.508 160.952L104.065 161.208Z" fill="#ADADAD"/>
<path d="M78.1641 168.425L81.1165 163.305L82.2979 163.304L79.3465 168.425H78.1641ZM84.888 158.81L84.2962 157.787L87.2477 152.664L87.8394 153.688L84.888 158.81Z" fill="black"/>
<path d="M257.709 337.041L241.891 321.237L238.061 317.413L238.366 316.27L242.614 320.512L257.179 335.063L262.493 315.173L267.81 295.281L247.933 300.627L242.13 302.186L242.435 301.044L247.668 299.639L269.257 293.831L263.481 315.437L257.709 337.041ZM233.878 313.237L226.069 305.439L236.726 302.577L236.421 303.719L228.047 305.968L234.184 312.095L233.878 313.237Z" fill="#ADADAD"/>
<path d="M238.001 317.401L233.818 313.225L234.123 312.083L238.306 316.259L238.001 317.401ZM236.361 303.708L236.666 302.565L242.375 301.033L242.07 302.174L236.361 303.708Z" fill="black"/>
<path d="M265.851 109.231L265.841 86.8692L265.839 84.4183L266.862 83.8266L266.865 86.8682L266.874 107.457L284.695 97.1496L302.522 86.8436L284.686 76.5693L281.97 75.003C282.219 74.7614 282.414 74.4727 282.548 74.1543L285.197 75.6818L304.569 86.8415L285.208 98.0361L265.851 109.231ZM265.834 78.5083L265.825 67.8461L266.85 68.4357L266.857 77.9166L265.834 78.5083Z" fill="#ADADAD"/>
<path d="M265.842 84.4257L265.837 78.5156L266.86 77.9239L266.865 83.8339L265.842 84.4257ZM281.973 75.0103L266.851 66.2922L266.853 68.443L265.828 67.8534L265.825 64.519L282.551 74.1616C282.417 74.48 282.222 74.7687 281.973 75.0103Z" fill="black"/>
<path d="M124.536 293.745C116.575 293.745 109.906 288.209 108.172 280.775C108.495 280.646 108.814 280.508 109.128 280.362C109.787 283.347 111.291 286.013 113.379 288.1C116.236 290.956 120.177 292.721 124.536 292.721C128.894 292.721 132.836 290.956 135.693 288.1C138.549 285.243 140.314 281.301 140.314 276.942C140.314 272.583 138.549 268.642 135.693 265.785C132.836 262.928 128.894 261.164 124.536 261.164C122.95 261.164 121.418 261.397 119.973 261.833C119.948 261.485 119.912 261.139 119.867 260.797C121.349 260.369 122.917 260.14 124.536 260.14C133.815 260.14 141.338 267.662 141.338 276.942C141.338 286.223 133.815 293.745 124.536 293.745ZM107.812 275.291C108.302 270.278 110.994 265.911 114.909 263.169C114.909 263.202 114.909 263.233 114.909 263.266C114.909 263.676 114.891 264.08 114.856 264.48C114.337 264.885 113.843 265.32 113.379 265.785C111.043 268.12 109.437 271.181 108.928 274.602C108.569 274.849 108.196 275.079 107.812 275.291Z" fill="#ADADAD"/>
<path d="M108.252 280.792C107.965 279.56 107.812 278.278 107.812 276.959C107.812 276.401 107.84 275.851 107.892 275.308C108.276 275.096 108.649 274.865 109.008 274.619C108.896 275.382 108.836 276.164 108.836 276.959C108.836 278.133 108.964 279.278 109.208 280.378C108.894 280.525 108.575 280.663 108.252 280.792ZM114.936 264.497C114.97 264.097 114.989 263.692 114.989 263.283C114.989 263.25 114.989 263.218 114.989 263.186C116.481 262.14 118.152 261.332 119.947 260.814C119.992 261.156 120.028 261.502 120.053 261.85C118.176 262.416 116.447 263.322 114.936 264.497Z" fill="black"/>
<path d="M42.3283 111.98C34.3677 111.98 27.699 106.444 25.9648 99.0101C26.2873 98.8811 26.6067 98.7429 26.9199 98.5965C27.5792 101.582 29.0841 104.248 31.1705 106.335C34.0278 109.191 37.9702 110.956 42.3283 110.956C46.6873 110.956 50.6287 109.191 53.486 106.335C56.3422 103.478 58.1071 99.5363 58.1071 95.1773C58.1071 90.8182 56.3422 86.8768 53.486 84.0195C50.6287 81.1633 46.6873 79.3984 42.3283 79.3984C40.7425 79.3984 39.211 79.6318 37.7665 80.0679C37.7409 79.7198 37.7051 79.3738 37.66 79.0319C39.1424 78.6039 40.7087 78.3746 42.3283 78.3746C51.6085 78.3746 59.1309 85.896 59.1309 95.1773C59.1309 104.457 51.6085 111.98 42.3283 111.98ZM25.6055 93.526C26.0938 88.5117 28.7862 84.1454 32.702 81.4039C32.702 81.4356 32.702 81.4684 32.702 81.5001C32.702 81.9096 32.6846 82.315 32.6488 82.7143C32.1298 83.1186 31.6363 83.5548 31.1705 84.0195C28.8354 86.3557 27.2291 89.4157 26.7214 92.837C26.361 93.0837 25.9883 93.3141 25.6055 93.526Z" fill="#ADADAD"/>
<path d="M25.7092 98.9846C25.4216 97.7541 25.269 96.4703 25.269 95.1517C25.269 94.5948 25.2967 94.044 25.3499 93.5004C25.7328 93.2885 26.1054 93.0582 26.4658 92.8115C26.3522 93.5752 26.2928 94.3563 26.2928 95.1517C26.2928 96.326 26.4217 97.4705 26.6644 98.571C26.3511 98.7174 26.0317 98.8556 25.7092 98.9846ZM32.3932 82.6887C32.4291 82.2895 32.4465 81.8841 32.4465 81.4746C32.4465 81.4428 32.4465 81.4101 32.4465 81.3784C33.9391 80.3331 35.6109 79.5244 37.4044 79.0063C37.4495 79.3483 37.4853 79.6943 37.5109 80.0424C35.6344 80.6075 33.9043 81.5135 32.3932 82.6887Z" fill="black"/>
<path d="M221.647 196.314C212.369 196.314 204.845 188.825 204.844 179.585C204.845 170.344 212.369 162.856 221.647 162.856V163.88C217.287 163.88 213.346 165.637 210.489 168.48C207.632 171.324 205.867 175.247 205.867 179.585C205.867 183.922 207.632 187.844 210.489 190.689C213.346 193.532 217.288 195.29 221.647 195.29V196.314Z" fill="#ADADAD"/>
<path d="M327.892 196.285H294.463V184.655H295.487V195.261H326.868V163.88H306.582V162.856H327.892V196.285ZM295.487 179.537H294.463V163.367V162.856H301.463V163.88H295.487V179.537Z" fill="#ADADAD"/>
<path d="M295.487 184.655H294.463V179.537H295.487V184.655ZM306.582 163.88H301.463V162.856H306.582V163.88Z" fill="black"/>
<path d="M193.461 58.2766H160.034V46.6479H161.058V57.2528H192.438V25.8712H172.151V24.8474H193.461V58.2766ZM161.058 41.5292H160.034V25.3593V24.8474H167.032V25.8712H161.058V41.5292Z" fill="#ADADAD"/>
<path d="M161.058 46.6479H160.034V41.5292H161.058V46.6479ZM172.151 25.8712H167.032V24.8474H172.151V25.8712Z" fill="black"/>
<path d="M239.248 252.147C237.815 252.147 236.646 251.65 235.712 250.872C234.772 250.091 234.05 249.049 233.388 247.925C232.07 245.675 230.964 243.078 229.175 241.424C227.981 240.323 226.522 239.607 224.385 239.601V238.577C224.389 238.577 224.393 238.577 224.397 238.577C226.172 238.577 227.615 239.05 228.785 239.819C229.958 240.588 230.857 241.638 231.62 242.774C233.137 245.045 234.163 247.684 235.612 249.339C236.583 250.444 237.657 251.115 239.266 251.123V252.147C239.26 252.147 239.255 252.147 239.248 252.147Z" fill="#ADADAD"/>
<path d="M268.896 252.146C267.463 252.146 266.293 251.649 265.36 250.87C264.42 250.09 263.696 249.048 263.035 247.925C261.717 245.674 260.612 243.078 258.822 241.424C257.629 240.323 256.17 239.607 254.033 239.601V238.577C254.037 238.577 254.04 238.577 254.044 238.577C255.821 238.577 257.262 239.05 258.432 239.819C259.605 240.588 260.504 241.638 261.267 242.774C262.784 245.045 263.81 247.683 265.259 249.339C266.231 250.443 267.304 251.114 268.913 251.122V252.146C268.907 252.146 268.902 252.146 268.896 252.146Z" fill="#ADADAD"/>
<path d="M239.235 252.146C239.225 252.146 239.217 252.146 239.209 252.146V251.122C240.42 251.118 241.315 250.734 242.109 250.082C242.9 249.429 243.57 248.487 244.205 247.405C245.484 245.245 246.597 242.55 248.604 240.675C249.937 239.428 251.703 238.577 254.065 238.577C254.074 238.577 254.082 238.577 254.091 238.577V239.601C252.487 239.603 251.269 240.013 250.253 240.675C249.238 241.339 248.424 242.274 247.706 243.344C246.262 245.483 245.251 248.137 243.636 250.01C242.568 251.252 241.15 252.146 239.235 252.146Z" fill="#ADADAD"/>
<path d="M268.882 252.146C268.874 252.146 268.866 252.146 268.858 252.146V251.634V251.122C270.069 251.118 270.964 250.734 271.758 250.082C272.548 249.429 273.218 248.486 273.854 247.405C275.132 245.245 276.245 242.55 278.253 240.674C279.586 239.428 281.352 238.577 283.715 238.577C283.724 238.577 283.732 238.577 283.74 238.577V239.601C282.136 239.603 280.918 240.013 279.901 240.675C278.886 241.339 278.073 242.274 277.354 243.344C275.909 245.483 274.899 248.137 273.285 250.01C272.217 251.252 270.798 252.146 268.882 252.146Z" fill="#ADADAD"/>
<path d="M104.456 83.4431H103.432C103.43 81.6618 103.903 80.2163 104.674 79.0441C105.443 77.8698 106.493 76.971 107.627 76.2083C109.9 74.6911 112.537 73.6654 114.193 72.2157C115.297 71.2452 115.969 70.1713 115.977 68.562H117.001C117.005 70.0034 116.506 71.1787 115.725 72.1154C114.945 73.0562 113.903 73.778 112.779 74.4403C110.529 75.7579 107.932 76.8635 106.279 78.653C105.178 79.8467 104.462 81.3055 104.456 83.4431Z" fill="#ADADAD"/>
<path d="M104.456 53.6673H103.432C103.43 51.887 103.903 50.4404 104.674 49.2683C105.443 48.094 106.493 47.1962 107.627 46.4335C109.9 44.9153 112.537 43.8906 114.193 42.441C115.297 41.4694 115.969 40.3965 115.977 38.7872H117.001C117.005 40.2287 116.506 41.4039 115.725 42.3406C114.945 43.2804 113.903 44.0032 112.779 44.6655C110.529 45.9821 107.932 47.0887 106.279 48.8782C105.178 50.0719 104.462 51.5307 104.456 53.6673Z" fill="#ADADAD"/>
<path d="M117.001 68.5357H115.977C115.973 67.3246 115.589 66.4298 114.937 65.6354C114.284 64.8451 113.341 64.1745 112.26 63.5398C110.1 62.2601 107.404 61.1484 105.53 59.1408C104.279 57.8038 103.426 56.0297 103.432 53.6536H104.456C104.458 55.2578 104.866 56.476 105.53 57.4926C106.194 58.5071 107.129 59.321 108.199 60.0397C110.337 61.4831 112.992 62.4936 114.864 64.109C116.112 65.1809 117.009 66.608 117.001 68.5357Z" fill="#ADADAD"/>
<path d="M117.001 38.802H115.977C115.973 37.5909 115.589 36.6961 114.937 35.9017C114.284 35.1114 113.341 34.4419 112.26 33.8061C110.1 32.5275 107.404 31.4147 105.53 29.4081C104.279 28.0711 103.426 26.297 103.432 23.9209H104.456C104.458 25.5251 104.866 26.7433 105.53 27.7599C106.194 28.7744 107.129 29.5873 108.199 30.306C110.337 31.7505 112.992 32.7609 114.864 34.3753C116.112 35.4472 117.009 36.8743 117.001 38.802Z" fill="#ADADAD"/>
<path d="M13.1527 239.097H12.1289C12.1269 237.317 12.5998 235.871 13.3697 234.698C14.1395 233.524 15.1899 232.625 16.3242 231.863C18.5959 230.344 21.234 229.32 22.8894 227.87C23.994 226.899 24.6656 225.826 24.6738 224.216H25.6975C25.7016 225.658 25.2031 226.833 24.422 227.77C23.6419 228.71 22.5997 229.432 21.4757 230.095C19.2255 231.412 16.6293 232.518 14.9759 234.307C13.8744 235.501 13.1588 236.961 13.1527 239.097Z" fill="#ADADAD"/>
<path d="M13.1527 209.364H12.1289C12.1269 207.582 12.5998 206.137 13.3697 204.965C14.1395 203.79 15.1899 202.892 16.3242 202.129C18.5959 200.612 21.234 199.587 22.8894 198.137C23.994 197.166 24.6656 196.092 24.6738 194.484H25.6975C25.7016 195.925 25.2031 197.099 24.422 198.037C23.6419 198.977 22.5997 199.7 21.4757 200.362C19.2255 201.678 16.6293 202.785 14.9759 204.575C13.8744 205.768 13.1588 207.227 13.1527 209.364Z" fill="#ADADAD"/>
<path d="M25.6976 224.232H24.6738C24.6697 223.021 24.2858 222.126 23.6337 221.332C22.9806 220.541 22.0377 219.871 20.9566 219.236C18.7965 217.957 16.1011 216.844 14.2256 214.837C12.9756 213.5 12.1228 211.726 12.1289 209.35H13.1527C13.1547 210.954 13.5632 212.172 14.2266 213.189C14.891 214.204 15.8257 215.017 16.8955 215.735C19.0341 217.18 21.6886 218.19 23.561 219.805C24.809 220.877 25.7058 222.304 25.6976 224.232Z" fill="#ADADAD"/>
<path d="M25.6976 194.456H24.6738C24.6697 193.245 24.2858 192.35 23.6337 191.556C22.9806 190.766 22.0377 190.096 20.9566 189.46C18.7965 188.182 16.1011 187.069 14.2256 185.062C12.9756 183.724 12.1228 181.951 12.1289 179.575H13.1527C13.1547 181.179 13.5632 182.398 14.2266 183.413C14.891 184.428 15.8257 185.242 16.8955 185.96C19.0341 187.405 21.6886 188.415 23.561 190.03C24.809 191.101 25.7058 192.529 25.6976 194.456Z" fill="#ADADAD"/>
<path d="M189.006 110.929H152.285V111.953H189.006V110.929Z" fill="#ADADAD"/>
<path d="M333.879 28.0481H297.158V29.0718H333.879V28.0481Z" fill="#ADADAD"/>
<path d="M315.738 321.069L315.015 320.345L340.98 294.379L341.704 295.103L315.738 321.069Z" fill="#ADADAD"/>
<path d="M49.1155 284.988L47.7539 282.821C47.1069 283.226 46.4077 283.414 45.7044 283.415C45.0625 283.415 44.4247 283.254 43.8606 282.949C43.2966 282.643 42.8083 282.202 42.4377 281.612L42.4356 281.61C42.0302 280.963 41.8429 280.264 41.8418 279.56C41.8418 278.921 42.0025 278.283 42.3066 277.719C42.6127 277.155 43.055 276.666 43.6436 276.295C44.2875 275.891 44.9857 275.704 45.689 275.703C46.3309 275.703 46.9708 275.864 47.5349 276.169C48.1 276.475 48.5883 276.917 48.9589 277.506L48.9609 277.508C49.3653 278.152 49.5516 278.85 49.5526 279.553C49.5536 280.194 49.3919 280.833 49.0868 281.398C48.7807 281.963 48.3395 282.452 47.7519 282.823L47.7539 282.821L49.1155 284.988L50.4791 287.154C51.8274 286.307 52.8829 285.144 53.5923 283.828C54.3018 282.513 54.6713 281.044 54.6713 279.553C54.6734 277.921 54.2229 276.257 53.2924 274.78L53.2934 274.783C52.4457 273.432 51.2828 272.374 49.9662 271.664C48.6497 270.954 47.1806 270.584 45.689 270.584C44.0582 270.583 42.3947 271.033 40.9184 271.962C39.5702 272.809 38.5126 273.971 37.8042 275.285C37.0937 276.601 36.7231 278.07 36.7231 279.56C36.7221 281.193 37.1726 282.859 38.1042 284.336L38.1021 284.334C38.9487 285.684 40.1117 286.743 41.4272 287.452C42.7438 288.163 44.2128 288.533 45.7044 288.533C47.3352 288.534 48.9998 288.085 50.4771 287.155L50.4791 287.154L49.1155 284.988Z" fill="black"/>
<path d="M236.44 134.135L235.079 131.968C234.432 132.374 233.732 132.56 233.029 132.561C232.388 132.561 231.749 132.401 231.186 132.096C230.621 131.789 230.133 131.348 229.761 130.759V130.756C229.355 130.109 229.168 129.41 229.167 128.707C229.167 128.067 229.327 127.429 229.632 126.865C229.937 126.301 230.38 125.813 230.968 125.441C231.613 125.038 232.31 124.851 233.015 124.85C233.656 124.85 234.295 125.01 234.86 125.315C235.425 125.621 235.914 126.064 236.286 126.652L236.287 126.654C236.691 127.298 236.877 127.996 236.878 128.7C236.879 129.341 236.718 129.979 236.413 130.545C236.106 131.11 235.664 131.599 235.077 131.97L235.079 131.968L236.44 134.135L237.804 136.301C239.152 135.453 240.209 134.29 240.917 132.976C241.627 131.659 241.997 130.19 241.997 128.7C241.999 127.068 241.549 125.403 240.617 123.927L240.618 123.928C239.77 122.579 238.607 121.52 237.292 120.812C235.975 120.101 234.505 119.731 233.015 119.731C231.384 119.73 229.719 120.179 228.244 121.109C226.895 121.955 225.837 123.117 225.129 124.433C224.418 125.748 224.048 127.216 224.048 128.707C224.047 130.34 224.497 132.005 225.428 133.483V133.482C226.274 134.831 227.437 135.89 228.752 136.599C230.068 137.309 231.538 137.68 233.029 137.68C234.66 137.681 236.325 137.232 237.802 136.302L237.804 136.301L236.44 134.135Z" fill="black"/>
</svg>
