<?xml version="1.0" encoding="UTF-8" standalone="no"?>
<!DOCTYPE svg PUBLIC "-//W3C//DTD SVG 1.1//EN" "http://www.w3.org/Graphics/SVG/1.1/DTD/svg11.dtd">
<svg width="100%" height="100%" viewBox="0 0 1104 708" version="1.1" xmlns="http://www.w3.org/2000/svg" xmlns:xlink="http://www.w3.org/1999/xlink" xml:space="preserve" xmlns:serif="http://www.serif.com/" style="fill-rule:evenodd;clip-rule:evenodd;stroke-miterlimit:10;">
    <g transform="matrix(1,0,0,1,0.0346241,2.55122e-05)">
        <ellipse cx="843.39" cy="664.8" rx="192" ry="43" style="fill:rgb(15,121,209);fill-opacity:0.1;"/>
        <g transform="matrix(1,0,0,1,-48.1,-96.1)">
            <path d="M673.12,122.89C673.12,278.99 771.05,405.3 892.12,405.3" style="fill:rgb(15,121,209);fill-opacity:0.1;fill-rule:nonzero;"/>
        </g>
        <g transform="matrix(1,0,0,1,-48.1,-96.1)">
            <path d="M675.52,226.13C604.77,226.67 536.79,210.68 471.79,192.86C406.79,175.04 342.32,155 273,146.82C228.38,141.55 177.6,142.38 142.53,162.82C108.78,182.48 98.79,214.71 93.86,244.45C90.15,266.83 88.34,290.31 101.4,310.67C110.42,324.8 126,336.4 137,349.86C175.26,396.69 151.53,456.96 113.59,505.37C95.8,528.08 74.99,549.87 61.49,573.85C47.99,597.83 42.31,624.95 55.7,648.45C68.98,671.73 99.24,688.45 131.79,699.9C197.92,723 275,727.6 350.05,729.06C516.19,732.31 682.76,722.43 848.88,712.56C910.35,708.9 972.1,705.22 1032.36,695.41C1065.82,689.96 1100.28,681.97 1124.1,664.8C1154.35,643 1160.78,607.69 1139.1,582.47C1102.73,540.18 1006.1,532.79 980.1,486.94C965.79,461.7 978.53,432.57 997.1,408.02C1037.04,355.38 1105.45,308.02 1107.1,249.4C1108.2,209.15 1073.1,170.12 1020.42,152.97C965.17,134.97 889.63,140.18 850.57,174.58C810.34,210 738,225.66 675.52,226.13Z" style="fill:white;fill-opacity:0.1;fill-rule:nonzero;"/>
        </g>
        <g transform="matrix(1,0,0,1,-48.1,-96.1)">
            <path d="M995,127.29L995,645.7C995,661.12 980.12,673.7 961.76,673.7L258.34,673.7C239.98,673.7 225.11,661.16 225.11,645.7L225.11,127.29C225.11,111.84 239.98,96.1 258.34,96.1L961.67,97.81C980,97.81 995,111.84 995,127.29Z" style="fill:white;fill-rule:nonzero;"/>
        </g>
        <g transform="matrix(1,0,0,1,-48.1,-96.1)">
            <path d="M995,127.45L995,151.45L225.11,151.45L225.11,127.45C225.11,110.256 239.256,96.105 256.45,96.1L963.6,96.1C963.613,96.1 963.627,96.1 963.64,96.1C980.84,96.1 994.995,110.25 995,127.45Z" style="fill:rgb(63,61,86);fill-rule:nonzero;"/>
        </g>
        <circle cx="214.3" cy="27.67" r="11.08" style="fill:rgb(250,89,89);fill-opacity:0.8;"/>
        <circle cx="246.53" cy="27.67" r="11.08" style="fill:rgb(254,210,83);fill-opacity:0.8;"/>
        <circle cx="278.76" cy="27.67" r="11.08" style="fill:rgb(140,207,77);fill-opacity:0.8;"/>
        <path d="M527.01,179.27C527.01,174.54 523.17,170.7 518.44,170.7L465.57,170.7C460.84,170.7 457,174.54 457,179.27L457,195.35C457,200.08 460.84,203.92 465.57,203.92L518.44,203.92C523.17,203.92 527.01,200.08 527.01,195.35L527.01,179.27Z" style="fill:rgb(15,121,209);fill-opacity:0.2;"/>
        <path d="M668.85,179.27C668.85,174.54 665.01,170.7 660.28,170.7L607.41,170.7C602.68,170.7 598.84,174.54 598.84,179.27L598.84,195.35C598.84,200.08 602.68,203.92 607.41,203.92L660.28,203.92C665.01,203.92 668.85,200.08 668.85,195.35L668.85,179.27Z" style="fill:rgb(15,121,209);fill-opacity:0.2;"/>
        <path d="M491.81,203.17L561.89,294.68L634.08,202.74" style="fill:none;stroke:rgb(63,61,86);stroke-width:1px;"/>
        <path d="M615.4,300.32C615.4,295.59 611.56,291.75 606.83,291.75L516.94,291.75C512.21,291.75 508.37,295.59 508.37,300.32L508.37,333.97C508.37,338.7 512.21,342.54 516.94,342.54L606.83,342.54C611.56,342.54 615.4,338.7 615.4,333.97L615.4,300.32Z" style="fill-opacity:0.1;"/>
        <path d="M613.23,301.36C613.23,296.63 609.39,292.79 604.66,292.79L519.12,292.79C514.39,292.79 510.55,296.63 510.55,301.36L510.55,332.95C510.55,337.68 514.39,341.52 519.12,341.52L604.66,341.52C609.39,341.52 613.23,337.68 613.23,332.95L613.23,301.36Z" style="fill:rgb(15,121,209);"/>
        <path d="M492.29,170.7L491.38,138.35" style="fill:none;stroke:rgb(63,61,86);stroke-width:1px;"/>
        <path d="M675.22,139.93L634.08,170.7L590.81,139.93" style="fill:none;stroke:rgb(63,61,86);stroke-width:1px;"/>
        <path d="M526.62,115.27C526.62,110.54 522.78,106.7 518.05,106.7L465.18,106.7C460.45,106.7 456.61,110.54 456.61,115.27L456.61,131.35C456.61,136.08 460.45,139.92 465.18,139.92L518.05,139.92C522.78,139.92 526.62,136.08 526.62,131.35L526.62,115.27Z" style="fill:rgb(15,121,209);fill-opacity:0.2;"/>
        <path d="M710.22,115.27C710.22,110.54 706.38,106.7 701.65,106.7L648.78,106.7C644.05,106.7 640.21,110.54 640.21,115.27L640.21,131.35C640.21,136.08 644.05,139.92 648.78,139.92L701.65,139.92C706.38,139.92 710.22,136.08 710.22,131.35L710.22,115.27Z" style="fill:rgb(15,121,209);fill-opacity:0.2;"/>
        <path d="M625.82,115.27C625.82,110.54 621.98,106.7 617.25,106.7L564.38,106.7C559.65,106.7 555.81,110.54 555.81,115.27L555.81,131.35C555.81,136.08 559.65,139.92 564.38,139.92L617.25,139.92C621.98,139.92 625.82,136.08 625.82,131.35L625.82,115.27Z" style="fill:rgb(15,121,209);fill-opacity:0.2;"/>
        <path d="M561.89,341.51L561.62,430.01" style="fill:none;stroke:rgb(63,61,86);stroke-width:1px;"/>
        <path d="M462.42,493.11L561.42,462.48L660.82,492.89" style="fill:none;stroke:rgb(63,61,86);stroke-width:1px;"/>
        <path d="M596.63,438.58C596.63,433.85 592.79,430.01 588.06,430.01L535.19,430.01C530.46,430.01 526.62,433.85 526.62,438.58L526.62,454.66C526.62,459.39 530.46,463.23 535.19,463.23L588.06,463.23C592.79,463.23 596.63,459.39 596.63,454.66L596.63,438.58Z" style="fill:rgb(15,121,209);fill-opacity:0.2;"/>
        <g transform="matrix(-3.82857e-16,1,-1,-3.82857e-16,1210.51,-631.25)">
            <path d="M931.89,353.69C931.89,348.96 928.05,345.12 923.32,345.12L870.45,345.12C865.72,345.12 861.88,348.96 861.88,353.69L861.88,369.77C861.88,374.5 865.72,378.34 870.45,378.34L923.32,378.34C928.05,378.34 931.89,374.5 931.89,369.77L931.89,353.69Z" style="fill:rgb(15,121,209);fill-opacity:0.2;"/>
        </g>
        <g transform="matrix(-3.82857e-16,-1,1,-3.82857e-16,377.41,1272.15)">
            <path d="M931.89,463.33C931.89,458.6 928.05,454.76 923.32,454.76L870.45,454.76C865.72,454.76 861.88,458.6 861.88,463.33L861.88,479.41C861.88,484.14 865.72,487.98 870.45,487.98L923.32,487.98C928.05,487.98 931.89,484.14 931.89,479.41L931.89,463.33Z" style="fill:rgb(15,121,209);fill-opacity:0.2;"/>
        </g>
        <path d="M695.83,501.23C695.83,496.5 691.99,492.66 687.26,492.66L634.39,492.66C629.66,492.66 625.82,496.5 625.82,501.23L625.82,517.31C625.82,522.04 629.66,525.88 634.39,525.88L687.26,525.88C691.99,525.88 695.83,522.04 695.83,517.31L695.83,501.23Z" style="fill:rgb(15,121,209);fill-opacity:0.2;"/>
        <g transform="matrix(-1,7.65714e-16,-7.65714e-16,-1,972.95,1114.65)">
            <path d="M545.53,597.33C545.53,592.6 541.69,588.76 536.96,588.76L484.09,588.76C479.36,588.76 475.52,592.6 475.52,597.33L475.52,613.41C475.52,618.14 479.36,621.98 484.09,621.98L536.96,621.98C541.69,621.98 545.53,618.14 545.53,613.41L545.53,597.33Z" style="fill:rgb(15,121,209);fill-opacity:0.2;"/>
        </g>
        <g transform="matrix(-1,7.65714e-16,-7.65714e-16,-1,1174.83,1114.65)">
            <path d="M646.47,597.33C646.47,592.6 642.63,588.76 637.9,588.76L585.03,588.76C580.3,588.76 576.46,592.6 576.46,597.33L576.46,613.41C576.46,618.14 580.3,621.98 585.03,621.98L637.9,621.98C642.63,621.98 646.47,618.14 646.47,613.41L646.47,597.33Z" style="fill:rgb(15,121,209);fill-opacity:0.2;"/>
        </g>
        <path d="M801,320.45L832.16,374.94" style="fill:none;stroke:rgb(63,61,86);stroke-width:1px;"/>
        <path d="M735.11,319.78L767.82,319.78" style="fill:none;stroke:rgb(63,61,86);stroke-width:1px;"/>
        <path d="M613.23,317.15L702.51,319.78" style="fill:none;stroke:rgb(63,61,86);stroke-width:1px;"/>
        <path d="M832.16,265.63L801.15,320.21" style="fill:none;stroke:rgb(63,61,86);stroke-width:1px;"/>
        <g transform="matrix(-3.82857e-16,1,-1,-3.82857e-16,1134.8,-447.65)">
            <path d="M802.23,407.64C802.23,402.91 798.39,399.07 793.66,399.07L740.79,399.07C736.06,399.07 732.22,402.91 732.22,407.64L732.22,423.72C732.22,428.45 736.06,432.29 740.79,432.29L793.66,432.29C798.39,432.29 802.23,428.45 802.23,423.72L802.23,407.64Z" style="fill:rgb(15,121,209);fill-opacity:0.2;"/>
        </g>
        <g transform="matrix(-3.82857e-16,1,-1,-3.82857e-16,1200.94,-512.04)">
            <path d="M867.49,408.51C867.49,403.78 863.65,399.94 858.92,399.94L806.05,399.94C801.32,399.94 797.48,403.78 797.48,408.51L797.48,424.59C797.48,429.32 801.32,433.16 806.05,433.16L858.92,433.16C863.65,433.16 867.49,429.32 867.49,424.59L867.49,408.51Z" style="fill:rgb(15,121,209);fill-opacity:0.2;"/>
        </g>
        <g transform="matrix(-3.82857e-16,1,-1,-3.82857e-16,636.73,-57.48)">
            <path d="M358.11,353.69C358.11,348.96 354.27,345.12 349.54,345.12L296.67,345.12C291.94,345.12 288.1,348.96 288.1,353.69L288.1,369.77C288.1,374.5 291.94,378.34 296.67,378.34L349.54,378.34C354.27,378.34 358.11,374.5 358.11,369.77L358.11,353.69Z" style="fill:rgb(15,121,209);fill-opacity:0.2;"/>
        </g>
        <g transform="matrix(-3.82857e-16,-1,1,-3.82857e-16,-196.37,698.37)">
            <path d="M358.11,463.33C358.11,458.6 354.27,454.76 349.54,454.76L296.67,454.76C291.94,454.76 288.1,458.6 288.1,463.33L288.1,479.41C288.1,484.14 291.94,487.98 296.67,487.98L349.54,487.98C354.27,487.98 358.11,484.14 358.11,479.41L358.11,463.33Z" style="fill:rgb(15,121,209);fill-opacity:0.2;"/>
        </g>
        <path d="M322.78,320.45L291.61,374.94" style="fill:none;stroke:rgb(63,61,86);stroke-width:1px;"/>
        <path d="M388.66,319.78L355.96,319.78" style="fill:none;stroke:rgb(63,61,86);stroke-width:1px;"/>
        <path d="M510.55,317.15L421.27,319.78" style="fill:none;stroke:rgb(63,61,86);stroke-width:1px;"/>
        <path d="M291.61,265.63L322.62,320.21" style="fill:none;stroke:rgb(63,61,86);stroke-width:1px;"/>
        <g transform="matrix(-3.82857e-16,1,-1,-3.82857e-16,820.34,-133.18)">
            <path d="M487.77,407.64C487.77,402.91 483.93,399.07 479.2,399.07L426.33,399.07C421.6,399.07 417.76,402.91 417.76,407.64L417.76,423.72C417.76,428.45 421.6,432.29 426.33,432.29L479.2,432.29C483.93,432.29 487.77,428.45 487.77,423.72L487.77,407.64Z" style="fill:rgb(15,121,209);fill-opacity:0.2;"/>
        </g>
        <g transform="matrix(-3.82857e-16,1,-1,-3.82857e-16,755.94,-67.05)">
            <path d="M422.5,408.51C422.5,403.78 418.66,399.94 413.93,399.94L361.06,399.94C356.33,399.94 352.49,403.78 352.49,408.51L352.49,424.59C352.49,429.32 356.33,433.16 361.06,433.16L413.93,433.16C418.66,433.16 422.5,429.32 422.5,424.59L422.5,408.51Z" style="fill:rgb(15,121,209);fill-opacity:0.2;"/>
        </g>
        <g transform="matrix(1,0,0,1,-48.1,-96.1)">
            <path d="M156.12,598C156.12,648.24 187.64,688.9 226.59,688.9" style="fill:rgb(63,61,86);fill-rule:nonzero;"/>
        </g>
        <g transform="matrix(1,0,0,1,-48.1,-96.1)">
            <path d="M226.59,688.89C226.59,638.08 261.77,596.97 305.24,596.97" style="fill:rgb(15,121,209);fill-rule:nonzero;"/>
        </g>
        <g transform="matrix(1,0,0,1,-48.1,-96.1)">
            <path d="M181.66,602.55C181.66,650.27 201.76,688.89 226.59,688.89" style="fill:rgb(15,121,209);fill-rule:nonzero;"/>
        </g>
        <g transform="matrix(1,0,0,1,-48.1,-96.1)">
            <path d="M226.59,688.89C226.59,623.97 267.25,571.44 317.49,571.44" style="fill:rgb(63,61,86);fill-rule:nonzero;"/>
        </g>
        <ellipse cx="175.43" cy="607.19" rx="17.52" ry="2.96" style="fill:rgb(15,121,209);fill-opacity:0.1;"/>
        <g transform="matrix(1,0,0,1,-48.1,-96.1)">
            <path d="M211.77,689.53C211.77,689.53 221.77,689.22 224.77,687.08C227.77,684.94 240.14,682.37 240.89,685.81C241.64,689.25 255.89,702.92 244.62,703.01C233.35,703.1 218.4,701.25 215.4,699.42C212.4,697.59 211.77,689.53 211.77,689.53Z" style="fill:rgb(168,168,168);fill-rule:nonzero;"/>
        </g>
        <g transform="matrix(1,0,0,1,-48.1,-96.1)">
            <path d="M244.83,701.81C233.55,701.9 218.62,700.06 215.61,698.22C213.32,696.83 212.41,691.83 212.1,689.52L211.77,689.52C211.77,689.52 212.4,697.58 215.41,699.41C218.42,701.24 233.35,703.09 244.63,703C247.89,703 249.01,701.81 248.95,700.1C248.5,701.15 247.26,701.79 244.83,701.81Z" style="fill-opacity:0.2;fill-rule:nonzero;"/>
        </g>
        <g transform="matrix(1,0,0,1,-48.1,-96.1)">
            <path d="M1004.32,744.89L976.65,704.77C976.65,704.77 976.13,694.84 974.32,692.51C972.51,690.18 973.93,685.03 973.93,685.03C973.93,685.03 975.87,682.19 974.19,681.94C972.51,681.69 973.93,675.36 973.93,675.36L973.8,665.29C973.8,665.29 975.35,655.62 974.06,653.29C973.292,652.009 973.343,650.39 974.19,649.16C975.037,647.93 975.74,643.61 974.19,642.16C972.64,640.71 973.02,632.1 973.41,625.27C973.8,618.44 970.7,614.56 970.7,613.53C970.7,612.5 960.48,602.43 960.48,601.53C960.48,600.63 954.02,596.89 950.14,595.85C946.26,594.81 944.32,594.05 944.45,593.53C944.58,593.01 938.37,590.95 938.37,590.95C938.37,590.95 932.94,590.57 930.87,587.86C928.8,585.15 922.47,584.36 922.3,584.34C922.3,584.16 922.21,583.98 922.18,583.8L922.06,583.22C922.55,582.4 923,581.56 923.41,580.69L923.77,579.9C926.046,579.907 928.268,579.208 930.13,577.9C931.974,576.355 933.097,574.112 933.23,571.71C933.338,569.327 932.817,566.958 931.72,564.84C930.58,562.51 928.92,560.11 929.49,557.59C929.74,556.5 930.39,555.59 930.73,554.48C931.23,552.401 930.896,550.206 929.8,548.37C928.8,546.5 927.46,544.85 926.37,543.03C924.978,540.718 924.051,538.157 923.64,535.49C923.555,534.071 923.216,532.679 922.64,531.38C922.055,530.464 921.281,529.683 920.37,529.09C916.325,526.199 911.439,524.72 906.47,524.88C902.95,525 899.47,525.95 895.95,525.52C893.86,525.152 891.803,524.613 889.8,523.91C885.47,522.63 880.46,522.1 876.69,524.58C872.92,527.06 871.41,531.94 868.85,535.76C866.58,539.14 863.27,541.97 861.55,545.55C861.55,545.48 861.55,545.41 861.6,545.34C861.169,546.169 860.833,547.045 860.6,547.95C859.94,550.76 860.49,553.7 861.17,556.5C861.53,557.95 862.01,559.5 863.26,560.32C864.51,561.14 866.26,560.95 867.78,561.21C867.72,561.46 867.66,561.7 867.61,561.95C864.41,576.944 873.406,592.06 888.11,596.4C888.11,596.66 888.11,596.93 888.11,597.18C888.11,597.95 888.05,598.69 887.97,599.4C887.89,600.11 874.97,596.73 871.48,598.53C867.99,600.33 861.13,601.76 860.1,602.79C859.07,603.82 856.48,603.05 854.15,609.11C851.82,615.17 851.57,621.37 848.59,624.2C845.61,627.03 844.07,628.98 843.94,631.04C843.81,633.1 844.32,633.62 843.16,634.27C842,634.92 840.32,637.62 840.83,638.65C840.83,638.65 841.48,641.23 839.41,642.52C838.166,643.398 837.477,644.873 837.6,646.39C837.723,647.907 836.82,649.23 835.01,649.87C833.2,650.51 832.01,654.78 832.01,654.78L826.15,661.52L814.52,648.66C812.719,646.673 809.603,646.515 807.61,648.31L802,653.51C799.798,654.042 797.807,655.227 796.29,656.91C795.036,658.186 794.02,659.676 793.29,661.31L790.17,664.13C789.184,665.006 788.601,666.251 788.56,667.57C787.733,669.341 788.053,671.446 789.37,672.89L796.81,681.13L796.81,681.2C794.168,681.419 791.655,682.442 789.61,684.13C778.49,693.93 778.36,702.96 780.04,707.13C781.72,711.3 795.81,727.13 795.81,727.13C795.81,727.13 804,737.78 815.81,743.44L815.73,743.53C815.49,743.78 815.26,744.05 815.03,744.34L814.84,744.59L814.66,744.84L814.45,745.15L814.29,745.4L814.06,745.77C814.019,745.857 813.973,745.94 813.92,746.02C813.83,746.18 813.74,746.35 813.66,746.52L813.57,746.69C813.46,746.91 813.36,747.15 813.25,747.39C813.14,747.63 813.18,747.57 813.15,747.65C813.12,747.73 813.01,747.99 812.95,748.17L812.83,748.5C812.77,748.66 812.72,748.83 812.66,749C812.6,749.17 812.59,749.24 812.55,749.37L812.4,749.93L812.31,750.28C812.23,750.58 812.17,750.89 812.1,751.21L812.04,751.58C812.04,751.79 811.96,752.01 811.93,752.24C811.9,752.47 811.88,752.55 811.86,752.71C811.84,752.87 811.86,753.13 811.78,753.35C811.7,753.57 811.78,753.68 811.73,753.84C811.68,754 811.73,754.33 811.73,754.58C811.73,754.83 811.73,754.87 811.73,755.03C811.73,755.43 811.73,755.85 811.68,756.28C811.42,771.37 812.3,773.56 812.3,773.56C812.3,773.56 814.13,778.37 819.17,778.71C819.909,778.762 820.651,778.721 821.38,778.59C828.1,777.43 843.88,774.72 849.44,775.76C852.78,776.38 858.97,775.46 863.37,774.63L864.54,774.4L865.34,776.97L867.9,776.27L870.07,777.52L871.44,778.31C873.99,786.96 884.35,784.01 884.35,784.01L886.81,785.43L911.81,786.07C914.612,787.77 917.572,789.193 920.65,790.32C921.06,790.44 921.477,790.53 921.9,790.59C924.212,790.774 926.533,790.817 928.85,790.72C930.77,790.72 932.25,790.59 932.25,790.59C932.25,790.59 931.99,783.82 931.63,776.23C941.16,775.83 949.63,775.23 954.74,774.34C968,772 973.55,759.84 975.6,753.36C976.211,755.995 976.646,758.667 976.9,761.36C977.444,763.734 978.135,766.072 978.97,768.36C979.701,770.192 980.659,771.925 981.82,773.52C991.65,770.17 985.7,765.14 983.63,762.95C981.56,760.76 985.05,758.95 985.05,758.95C985.05,758.95 987.77,757.14 987.51,755.46C987.25,753.78 987.12,751.98 995.91,752.11C1004.7,752.24 1004.32,744.89 1004.32,744.89ZM867.78,662.52C867.89,663.26 869.12,671.2 870.23,673.29C870.537,674.684 870.635,676.117 870.52,677.54C865.31,677.13 859.88,676.9 859.88,676.9C860.038,677.09 860.136,677.324 860.16,677.57L859.34,677.38C858.96,677.29 858.56,677.2 858.15,677.09L867.75,662.5L867.78,662.52ZM848.78,692.77L857.78,694.2L858.54,694.32C858.283,695.727 858.126,697.151 858.07,698.58C858.07,698.71 858.27,698.87 858.56,699.06C858.438,699.763 858.381,700.476 858.39,701.19C858.53,701.91 862.75,703.45 867.59,704.73C867.52,704.99 867.45,705.23 867.39,705.47C863.12,703.22 856.39,702.17 855.61,700.47C854.83,698.77 832,690.84 832,690.84C832,690.84 831.16,690.39 829.72,689.7L835.72,690.84L837.38,690.67C841.124,691.614 844.926,692.315 848.76,692.77L848.78,692.77Z" style="fill:url(#_Linear1);fill-rule:nonzero;"/>
        </g>
        <g transform="matrix(1,0,0,1,-48.1,-96.1)">
            <path d="M974.89,750.5C974.89,750.5 971.3,772.15 953.1,775.36C934.9,778.57 874.16,777.92 874.16,777.92C874.16,777.92 839.43,772.92 826.87,743.58C814.31,714.24 806.24,702.58 817,702.05C827.76,701.52 885.82,721.66 889.15,721.92C892.48,722.18 978.09,677.32 974.89,750.5Z" style="fill:rgb(101,97,125);fill-rule:nonzero;"/>
        </g>
        <g transform="matrix(1,0,0,1,-48.1,-96.1)">
            <path d="M974.89,750.5C974.89,750.5 971.3,772.15 953.1,775.36C934.9,778.57 874.16,777.92 874.16,777.92C874.16,777.92 839.43,772.92 826.87,743.58C814.31,714.24 806.24,702.58 817,702.05C827.76,701.52 885.82,721.66 889.15,721.92C892.48,722.18 978.09,677.32 974.89,750.5Z" style="fill-opacity:0.05;fill-rule:nonzero;"/>
        </g>
        <g transform="matrix(1,0,0,1,-48.1,-96.1)">
            <path d="M812,774.59C812,774.59 813.81,779.36 818.8,779.71C819.532,779.762 820.268,779.721 820.99,779.59C827.66,778.43 843.29,775.74 848.8,776.77C852.12,777.38 858.25,776.47 862.62,775.65C865.52,775.1 867.62,774.59 867.62,774.59C867.62,774.59 862.5,757.59 861.85,757.03C861.2,756.47 838.79,743.03 838.79,743.03L821,741.79C818.621,742.157 816.472,743.425 815,745.33C813.13,747.6 811.52,751.33 811.41,757.43C811.1,772.41 812,774.59 812,774.59Z" style="fill:rgb(63,61,86);fill-rule:nonzero;"/>
        </g>
        <g transform="matrix(1,0,0,1,-48.1,-96.1)">
            <path d="M812,774.59C812,774.59 813.81,779.36 818.8,779.71C817.06,777.471 815.451,775.134 813.98,772.71L814.07,760.28C813.342,753.373 815.944,746.516 821.07,741.83L821,741.83C821,741.83 811.65,742.47 811.39,757.47C811.13,772.47 812,774.59 812,774.59Z" style="fill-opacity:0.05;fill-rule:nonzero;"/>
        </g>
        <g transform="matrix(1,0,0,1,-48.1,-96.1)">
            <path d="M889,747.42L905.53,734.48L931.53,708.85C931.53,708.85 928.72,708.71 924.48,708.53C923.48,709.2 920.48,711.31 920.36,713.88C920.24,717.02 913.36,714.1 909.74,715.88C906.12,717.66 888.64,740.16 885.56,740C882.48,739.84 880.05,738.44 878.77,740.62L878.68,740.76L889,747.42Z" style="fill-opacity:0.1;fill-rule:nonzero;"/>
        </g>
        <g transform="matrix(1,0,0,1,-48.1,-96.1)">
            <path d="M815,745.32C815.59,745.6 816.19,745.88 816.79,746.14C829.35,751.52 844.86,762.8 846.01,764.85C846.72,766.1 855.71,771.56 862.65,775.65C865.55,775.1 867.65,774.59 867.65,774.59C867.65,774.59 862.53,757.59 861.88,757.03C861.23,756.47 838.82,743.03 838.82,743.03L821,741.79C818.622,742.154 816.473,743.419 815,745.32Z" style="fill-opacity:0.1;fill-rule:nonzero;"/>
        </g>
        <g transform="matrix(1,0,0,1,-48.1,-96.1)">
            <path d="M780.09,708.59C781.76,712.69 795.73,728.45 795.73,728.45C795.73,728.45 804.57,739.99 817.13,745.37C829.69,750.75 845.19,762.03 846.35,764.08C847.09,765.4 857.1,771.43 864.15,775.57L865.73,776.49L869.23,778.49L871.08,779.56C871.08,779.56 875.37,776.11 879.65,772.64C883.93,769.17 888.06,765.78 888.13,765.64C888.25,765.26 889.92,760.9 889.53,760.64C889.33,760.51 888.45,758.73 886.84,756.64C885.117,754.353 882.88,752.503 880.31,751.24C874.41,748.55 871.85,742.42 871.85,742.42C871.85,742.42 871.29,742.02 870.44,741.48C868.693,740.272 866.736,739.401 864.67,738.91C861.85,738.56 856.6,732.79 856.6,732.79C856.6,732.79 853.01,730.48 851.6,727.54C850.19,724.6 830.38,711.08 828.54,709.81L876.72,740.76L888.25,748.17L904.79,735.23L930.79,709.6C930.79,709.6 927.29,709.43 922.21,709.21C909.56,708.66 887.11,707.8 884.27,708.44C881.978,708.976 879.613,709.132 877.27,708.9C874.927,708.668 870.87,709.19 866.64,706.96C862.41,704.73 855.74,703.68 854.97,702.03C854.2,700.38 831.52,692.42 831.52,692.42C831.52,692.42 800.64,676.02 789.61,685.76C778.58,695.5 778.43,704.49 780.09,708.59Z" style="fill:rgb(101,97,125);fill-rule:nonzero;"/>
        </g>
        <g transform="matrix(1,0,0,1,-48.1,-96.1)">
            <path d="M879.67,614.53L883.67,627.72L888.8,657.46L907.63,658.74L913.09,649.74L918.53,640.74C918.53,640.74 921.92,628.74 924.36,617.1C926.51,606.82 927.92,596.84 925.58,595.76C923.5,594.76 922.13,591.33 921.24,587.61C921.13,587.15 921.02,586.68 920.93,586.22C920.306,583.064 919.888,579.87 919.68,576.66C919.472,573.45 880.21,574.61 885.68,590.89C886.667,593.667 887.171,596.593 887.17,599.54C887.16,600.275 887.114,601.009 887.03,601.74C886.463,606.839 883.794,611.478 879.67,614.53Z" style="fill:rgb(238,142,158);fill-rule:nonzero;"/>
        </g>
        <g transform="matrix(1,0,0,1,-48.1,-96.1)">
            <path d="M871.46,612.35L872.88,634.77L876.08,653.87L879.67,662.71L882.87,711.09C882.87,711.09 913.77,714.66 921.29,711.03C921.83,710.799 922.299,710.43 922.65,709.96C931.72,696.26 928.75,656.56 928.75,656.56L932.21,630.93L929.9,617.63L924.33,617.03L920.04,616.58C920.04,616.58 919.04,617.77 917.67,619.58C913.87,624.58 906.88,634.46 907.35,638.58C907.99,644.22 906.58,649.98 904.35,650.88C902.12,651.78 900.35,653.32 900,651.78C899.65,650.24 899.23,649.86 899.61,647.68C899.99,645.5 897.94,638.83 897.94,638.83C897.94,638.83 894.48,631.02 894.74,627.68C895,624.34 894.36,620.51 893.33,619.61C892.3,618.71 890.9,617.82 892.05,613.72C893.2,609.62 887,601.67 887,601.67L871.46,612.35Z" style="fill:rgb(227,232,244);fill-rule:nonzero;"/>
        </g>
        <g transform="matrix(1,0,0,1,-48.1,-96.1)">
            <path d="M912.28,668.36L913.57,706.68L920.97,710.78C921.507,710.549 921.975,710.184 922.33,709.72C931.4,696.01 928.43,656.31 928.43,656.31L931.89,630.68L929.58,617.38L924.01,616.78C926.16,606.5 927.57,596.52 925.23,595.44C923.15,594.44 921.78,591.01 920.89,587.29L916.89,614.4C916.89,614.4 917.22,616.85 917.34,619.4C917.503,620.997 917.394,622.609 917.02,624.17C916.12,626.48 916.76,630.58 916.76,630.58C914.45,634.65 913.29,642.19 912.76,649.47C912,659.13 912.28,668.36 912.28,668.36Z" style="fill-opacity:0.1;fill-rule:nonzero;"/>
        </g>
        <g transform="matrix(1,0,0,1,-48.1,-96.1)">
            <path d="M921,586.68C921,586.68 927.46,587.48 929.51,590.18C931.56,592.88 936.94,593.25 936.94,593.25C936.94,593.25 943.09,595.25 942.94,595.81C942.79,596.37 944.73,597.1 948.57,598.12C952.41,599.14 958.83,602.86 958.83,603.76C958.83,604.66 969,614.65 969,615.68C969,616.71 972.08,620.55 971.69,627.34C971.3,634.13 970.92,642.72 972.46,644.13C974,645.54 972.46,651.05 972.46,651.05C971.616,652.27 971.565,653.879 972.33,655.15C973.61,657.46 972.08,667.07 972.08,667.07L972.2,677.07C972.2,677.07 970.79,683.35 972.46,683.61C974.13,683.87 972.2,686.69 972.2,686.69C972.2,686.69 970.79,691.81 972.59,694.12C974.39,696.43 974.9,706.29 974.9,706.29L1002.32,746.15C1002.32,746.15 1002.71,753.45 993.99,753.33C985.27,753.21 985.4,754.99 985.66,756.66C985.92,758.33 983.23,760.12 983.23,760.12C983.23,760.12 979.77,761.91 981.82,764.12C983.87,766.33 989.76,771.3 980.02,774.63C978.872,773.043 977.925,771.32 977.2,769.5C976.374,767.238 975.689,764.927 975.15,762.58C974.611,760.233 974.25,752.84 972.46,751.58C970.67,750.32 970.92,744.15 970.92,744.15C970.92,744.15 973.49,739.15 969.92,737.1C966.35,735.05 914.3,706.21 914.3,706.21L913,667.84C913,667.84 912.1,639.52 917.48,630.03C917.48,630.03 916.84,625.93 917.74,623.62C918.64,621.31 917.61,613.88 917.61,613.88L921,586.68Z" style="fill:rgb(63,61,86);fill-rule:nonzero;"/>
        </g>
        <g transform="matrix(1,0,0,1,-48.1,-96.1)">
            <path d="M887.43,602.06C887.43,602.06 874.54,599.4 871.08,601.2C867.62,603 860.83,604.4 859.8,605.43C858.77,606.46 856.22,605.68 853.91,611.71C851.6,617.74 851.35,623.88 848.4,626.71C845.45,629.54 843.91,631.45 843.78,633.5C843.65,635.55 844.17,636.06 843.02,636.71C841.87,637.36 840.2,640.04 840.71,641.06C841.22,642.08 867.36,664.64 867.36,664.64C867.36,664.64 868.65,673.23 869.8,675.41C870.95,677.59 868.52,707.57 865.96,709.63C863.4,711.69 883.26,711.49 883.26,711.49C883.26,711.49 884.15,691.81 884.92,690.79C885.69,689.77 884.41,668.79 884.41,668.79C884.41,668.79 884.28,650.85 885.95,646.11C887.62,641.37 887.43,625.61 887.43,625.61C887.43,625.61 888.9,616.15 890.69,613.94C892.48,611.73 887.43,602.06 887.43,602.06Z" style="fill-opacity:0.1;fill-rule:nonzero;"/>
        </g>
        <g transform="matrix(1,0,0,1,-48.1,-96.1)">
            <path d="M887,601.67C887,601.67 874.12,599.02 870.66,600.81C867.2,602.6 860.44,604 859.42,605C858.4,606 855.83,605.26 853.52,611.28C851.21,617.3 850.96,623.46 848.01,626.28C845.06,629.1 843.53,631.02 843.4,633.07C843.27,635.12 843.78,635.63 842.63,636.27C841.48,636.91 839.81,639.6 840.32,640.63C840.83,641.66 867,664.25 867,664.25C867,664.25 868.28,672.83 869.44,675.01C870.6,677.19 868.15,707.18 865.59,709.23C863.03,711.28 882.89,711.09 882.89,711.09C882.89,711.09 883.79,691.42 884.56,690.39C885.33,689.36 884.04,668.39 884.04,668.39C884.04,668.39 883.92,650.45 885.58,645.71C887.24,640.97 887,625.16 887,625.16C887,625.16 888.47,615.7 890.26,613.5C892.05,611.3 887,601.67 887,601.67Z" style="fill:rgb(63,61,86);fill-rule:nonzero;"/>
        </g>
        <g transform="matrix(1,0,0,1,-48.1,-96.1)">
            <path d="M885.69,590.82C886.677,593.597 887.181,596.523 887.18,599.47C900.103,603.316 914.094,597.789 920.9,586.15C920.276,582.994 919.858,579.8 919.65,576.59C919.442,573.38 880.18,574.54 885.69,590.82Z" style="fill-opacity:0.1;fill-rule:nonzero;"/>
        </g>
        <g transform="matrix(1,0,0,1,-48.1,-96.1)">
            <path d="M866.21,570.57C866.212,586.669 879.461,599.916 895.56,599.916C911.661,599.916 924.91,586.667 924.91,570.566C924.91,554.465 911.661,541.216 895.56,541.216C881.751,541.216 869.718,550.962 866.85,564.47C866.424,566.475 866.21,568.52 866.21,570.57Z" style="fill:rgb(238,142,158);fill-rule:nonzero;"/>
        </g>
        <g transform="matrix(1,0,0,1,-48.1,-96.1)">
            <path d="M847.37,638.49L840.37,640.67C840.37,640.67 841.02,643.23 838.96,644.51C837.727,645.386 837.045,646.852 837.17,648.36C837.295,649.868 836.4,651.18 834.61,651.82C832.82,652.46 831.66,656.69 831.66,656.69L825.76,663.48C825.76,663.48 823.59,665.27 823.97,666.17C824.35,667.07 821.66,667.32 821.66,667.32L823,690.14L835.18,692.44L842.74,691.67L848.89,689.37L854.27,686.16L856.71,679.88L867.47,663.48L847.37,638.49Z" style="fill:rgb(63,61,86);fill-rule:nonzero;"/>
        </g>
        <g transform="matrix(1,0,0,1,-48.1,-96.1)">
            <path d="M823.41,669.12C823.41,669.12 807.77,646.56 796.11,658.74C784.45,670.92 800.85,690.65 804.7,690.01C808.55,689.37 826.87,688.34 826.87,688.34L823.41,669.12Z" style="fill:rgb(238,142,158);fill-rule:nonzero;"/>
        </g>
        <g transform="matrix(0.890689,0.454612,-0.454612,0.890689,345.12,-391.66)">
            <path d="M852.23,639.8C852.23,638.95 851.54,638.26 850.69,638.26L771.94,638.26C771.09,638.26 770.4,638.95 770.4,639.8L770.4,700.26C770.4,701.11 771.09,701.8 771.94,701.8L850.69,701.8C851.54,701.8 852.23,701.11 852.23,700.26L852.23,639.8Z" style="fill:rgb(63,61,86);"/>
        </g>
        <g transform="matrix(0.890689,0.454612,-0.454612,0.890689,345.09,-391.72)">
            <rect x="777.03" y="644.03" width="68.78" height="51.83" style="fill:rgb(15,121,209);"/>
        </g>
        <circle cx="730.3" cy="557" r="1.13" style="fill:rgb(230,232,236);"/>
        <circle cx="796.61" cy="590.97" r="1.86" style="fill:rgb(230,232,236);"/>
        <g transform="matrix(1,0,0,1,-48.1,-96.1)">
            <path d="M813.28,673.86C813.16,690.78 848.14,694.36 848.14,694.36L857.08,695.78L861.08,696.42L862.75,679.88C862.75,679.88 860.92,679.61 858.63,679.08C855.24,678.29 850.85,676.92 849.93,675.01C848.4,671.81 813.41,656.94 813.28,673.86Z" style="fill:rgb(238,142,158);fill-rule:nonzero;"/>
        </g>
        <g transform="matrix(1,0,0,1,-48.1,-96.1)">
            <path d="M866.85,564.47C867.663,564.535 868.426,564.89 869,565.47C870,566.52 870,568.38 871.33,569.02C871.81,569.234 872.344,569.297 872.86,569.2C876.27,568.72 878.24,564.87 881.51,563.81C883.421,563.32 885.443,563.496 887.24,564.31C887.972,564.532 888.629,564.95 889.14,565.52C890.24,566.94 889.47,569.03 889.98,570.74C890.68,573.12 893.52,574.07 895.98,574.38C898.44,574.69 901.21,574.86 902.86,576.72C903.963,578.135 904.407,579.956 904.08,581.72C903.935,582.321 903.935,582.949 904.08,583.55C904.76,585.48 908.08,585.19 908.95,583.67C909.59,582.57 909.4,581.67 910.89,581.35C911.966,581.259 913.047,581.445 914.03,581.89C916.638,582.784 919.384,583.204 922.14,583.13C923.979,579.222 924.932,574.955 924.932,570.636C924.932,554.535 911.683,541.286 895.582,541.286C881.769,541.286 869.734,551.037 866.87,564.55L866.85,564.47Z" style="fill-opacity:0.1;fill-rule:nonzero;"/>
        </g>
        <g transform="matrix(1,0,0,1,-48.1,-96.1)">
            <path d="M904.06,582.71C903.917,582.105 903.917,581.475 904.06,580.87C904.387,579.106 903.943,577.285 902.84,575.87C901.19,574.01 898.42,573.87 895.96,573.53C893.5,573.19 890.66,572.27 889.96,569.89C889.45,568.18 890.22,566.09 889.12,564.68C888.612,564.105 887.954,563.683 887.22,563.46C885.423,562.646 883.401,562.47 881.49,562.96C878.22,564.02 876.25,567.87 872.84,568.35C872.324,568.447 871.79,568.384 871.31,568.17C870.02,567.53 869.97,565.67 868.98,564.62C867.42,562.97 864.47,564.04 862.56,562.81C861.32,562.01 860.84,560.45 860.49,559.02C859.82,556.23 859.27,553.31 859.93,550.52C861.04,545.75 865.3,542.52 868.02,538.41C870.56,534.62 872.02,529.82 875.79,527.3C879.56,524.78 884.49,525.36 888.79,526.64C890.772,527.338 892.809,527.87 894.88,528.23C898.34,528.66 901.82,527.72 905.31,527.6C910.233,527.445 915.073,528.915 919.08,531.78C919.983,532.372 920.75,533.15 921.33,534.06C921.911,535.347 922.25,536.73 922.33,538.14C922.742,540.791 923.662,543.338 925.04,545.64C926.11,547.44 927.47,549.07 928.44,550.94C929.523,552.767 929.853,554.945 929.36,557.01C929.03,558.06 928.36,559.01 928.13,560.1C927.56,562.6 929.21,564.99 930.34,567.3C931.429,569.406 931.946,571.761 931.84,574.13C931.71,576.514 930.593,578.74 928.76,580.27C926.862,581.604 924.59,582.305 922.27,582.27C919.459,582.356 916.656,581.925 914,581C913.017,580.555 911.936,580.369 910.86,580.46C909.37,580.76 909.56,581.68 908.92,582.78C908.06,584.34 904.74,584.63 904.06,582.71Z" style="fill:rgb(63,61,86);fill-rule:nonzero;"/>
        </g>
        <g transform="matrix(1,0,0,1,-48.1,-96.1)">
            <path d="M888.25,748.19L904.79,735.25L930.79,709.62C930.79,709.62 927.29,709.45 922.21,709.23C921.201,710.139 920.555,711.382 920.39,712.73C920.27,715.86 913.39,712.95 909.77,714.73C906.15,716.51 888.64,739 885.56,738.86C882.48,738.72 880.05,737.3 878.77,739.48L878.68,739.62C878.155,740.211 877.454,740.618 876.68,740.78L888.25,748.19Z" style="fill-opacity:0.1;fill-rule:nonzero;"/>
        </g>
        <g transform="matrix(1,0,0,1,-48.1,-96.1)">
            <path d="M854.93,747.29L863.24,773.81L864.54,777.97L868.54,776.89L877.26,774.49L916.1,763.82C920.982,763.609 925.76,762.336 930.1,760.09C937.446,755.982 945.851,754.151 954.24,754.83C959.37,755.31 965.08,753.1 969.82,744.34C969.82,744.34 980.58,712.56 953.41,703.46C926.24,694.36 924.95,708.3 924.95,708.3L924.58,708.53C923.58,709.2 920.58,711.31 920.46,713.88C920.34,717.02 913.46,714.1 909.84,715.88C906.22,717.66 888.64,740.16 885.56,740C882.48,739.84 880.05,738.44 878.77,740.62L878.68,740.76C877.73,742.07 874.87,742.37 872.99,742.43C871.99,742.43 871.21,742.43 871.21,742.43L870.97,742.5L868.97,743.09L854.93,747.29Z" style="fill:rgb(101,97,125);fill-rule:nonzero;"/>
        </g>
        <g transform="matrix(1,0,0,1,-48.1,-96.1)">
            <path d="M857.08,695.78L861.08,696.42L862.75,679.88C862.75,679.88 860.92,679.61 858.63,679.08C859.23,681.38 857.86,690.3 857.08,695.78Z" style="fill-opacity:0.1;fill-rule:nonzero;"/>
        </g>
        <g transform="matrix(1,0,0,1,-48.1,-96.1)">
            <path d="M961.87,618.53C961.87,618.53 973.79,615.07 970.87,648.91C967.95,682.75 945.87,704.14 945.87,704.14C945.87,704.14 920.5,715.29 909.09,713.5C902.554,712.444 895.969,711.717 889.36,711.32C885.769,709.504 881.839,708.455 877.82,708.24C871.42,707.99 857.96,704.01 857.7,702.73C857.44,701.45 861.04,682.61 859.5,681.2C859.5,681.2 877.44,681.94 879.23,683.2C881.02,684.46 883.59,683.57 885.51,683.2C887.43,682.83 893.33,677.71 904.99,682.2C904.99,682.2 908.99,682.58 910.5,681.56C912.01,680.54 914.5,681.3 914.5,681.3C915.49,680.959 916.429,680.485 917.29,679.89C917.67,679.38 920.75,679.89 920.75,679.89C920.936,679.981 921.141,680.029 921.348,680.029C921.974,680.029 922.522,679.598 922.67,678.99C923.07,677.939 923.679,676.98 924.46,676.17C925.241,675.36 927.92,656.69 934.46,649.39C934.46,649.39 936.38,647.72 935.87,645.67C935.36,643.62 946.49,614.43 961.87,618.53Z" style="fill-opacity:0.1;fill-rule:nonzero;"/>
        </g>
        <g transform="matrix(1,0,0,1,-48.1,-96.1)">
            <path d="M961.56,615.93C961.56,615.93 973.48,612.47 970.56,646.31C967.64,680.15 945.56,701.54 945.56,701.54C945.56,701.54 920.18,712.69 908.78,710.9C897.38,709.11 889,708.72 889,708.72C885.412,706.905 881.485,705.856 877.47,705.64C871.06,705.39 857.61,701.41 857.35,700.13C857.09,698.85 860.68,680.01 859.14,678.6C859.14,678.6 877.08,679.34 878.88,680.6C880.68,681.86 883.24,680.96 885.16,680.6C887.08,680.24 892.98,675.1 904.64,679.6C904.64,679.6 908.64,679.98 910.15,678.96C911.66,677.94 914.15,678.7 914.15,678.7C915.137,678.361 916.073,677.886 916.93,677.29C917.31,676.78 920.39,677.29 920.39,677.29C920.576,677.381 920.781,677.429 920.988,677.429C921.614,677.429 922.162,676.998 922.31,676.39C922.719,675.341 923.331,674.383 924.11,673.57C924.889,672.757 927.57,654.09 934.11,646.79C934.11,646.79 936.04,645.12 935.52,643.07C935,641.02 946.18,611.83 961.56,615.93Z" style="fill:rgb(63,61,86);fill-rule:nonzero;"/>
        </g>
        <g transform="matrix(1,0,0,1,-48.1,-96.1)">
            <path d="M869,743.08L885.92,763.56C885.99,763.5 886.03,763.46 886.03,763.44C886.16,763.06 887.82,758.7 887.44,758.44C887.06,758.18 884.11,751.77 878.21,749.08C875.218,747.615 872.705,745.324 870.97,742.48L869,743.08Z" style="fill-opacity:0.1;fill-rule:nonzero;"/>
        </g>
        <g transform="matrix(1,0,0,1,-48.1,-96.1)">
            <path d="M869.23,778.52L871.08,779.59C871.08,779.59 875.37,776.14 879.65,772.67C883.93,769.2 888.06,765.81 888.13,765.67C888.25,765.29 889.92,760.93 889.53,760.67C889.33,760.54 888.45,758.76 886.84,756.67C875.36,753.45 882.67,761.42 883.64,761.78C883.64,761.78 869.64,758.58 868.9,773.78C868.8,775.368 868.911,776.962 869.23,778.52Z" style="fill-opacity:0.1;fill-rule:nonzero;"/>
        </g>
        <g transform="matrix(1,0,0,1,-48.1,-96.1)">
            <path d="M883.38,785L885.82,786.41L910.55,787.05C913.326,788.734 916.26,790.144 919.31,791.26C919.715,791.388 920.13,791.481 920.55,791.54C922.842,791.719 925.143,791.762 927.44,791.67C929.34,791.67 930.8,791.54 930.8,791.54C930.8,791.54 929.63,760.34 928.8,757.06C928.38,755.49 926.3,755.84 924.26,756.62C922.724,757.243 921.242,757.992 919.83,758.86C918.418,759.728 909.32,759.86 907.65,760.79C905.98,761.72 901.25,760.27 898.3,760.79C895.35,761.31 890.1,757.32 890.1,757.32C875.74,752.58 883.82,761.42 884.84,761.8C884.84,761.8 870.84,758.6 870.11,773.8C869.38,789 883.38,785 883.38,785Z" style="fill:rgb(63,61,86);fill-rule:nonzero;"/>
        </g>
        <g transform="matrix(1,0,0,1,-48.1,-96.1)">
            <path d="M919.14,772.92C919.41,779.38 924.44,787.4 927.44,791.64C929.34,791.64 930.8,791.51 930.8,791.51C930.8,791.51 929.63,760.31 928.8,757.03C928.38,755.46 926.3,755.81 924.26,756.59C921.73,761.24 918.92,767.72 919.14,772.92Z" style="fill:rgb(86,83,135);fill-rule:nonzero;"/>
        </g>
        <g transform="matrix(1,0,0,1,-48.1,-96.1)">
            <path d="M919.14,772.92C919.41,779.38 924.44,787.4 927.44,791.64C929.34,791.64 930.8,791.51 930.8,791.51C930.8,791.51 929.63,760.31 928.8,757.03C928.38,755.46 926.3,755.81 924.26,756.59C921.73,761.24 918.92,767.72 919.14,772.92Z" style="fill-opacity:0.1;fill-rule:nonzero;"/>
        </g>
        <g transform="matrix(1,0,0,1,-48.1,-96.1)">
            <path d="M914.91,773.78C916.61,780.01 916.59,787 919.31,791.23C919.715,791.358 920.13,791.451 920.55,791.51C922.842,791.689 925.143,791.732 927.44,791.64C929.34,791.64 930.8,791.51 930.8,791.51C930.8,791.51 929.63,760.31 928.8,757.03C928.38,755.46 926.3,755.81 924.26,756.59C922.724,757.213 921.242,757.962 919.83,758.83C918.418,759.698 912.73,765.8 914.91,773.78Z" style="fill-opacity:0.05;fill-rule:nonzero;"/>
        </g>
        <g transform="matrix(1,0,0,1,-48.1,-96.1)">
            <path d="M829.58,710.55C829.58,710.55 841.87,714.55 852.28,728.71L829.58,710.55Z" style="fill-opacity:0.1;fill-rule:nonzero;"/>
        </g>
        <g transform="matrix(1,0,0,1,-48.1,-96.1)">
            <path d="M929.41,556.77C929.41,556.87 929.41,556.96 929.34,557.05C929.216,557.414 929.072,557.771 928.91,558.12C929.036,557.656 929.204,557.204 929.41,556.77Z" style="fill-rule:nonzero;"/>
        </g>
        <g transform="matrix(1,0,0,1,-48.1,-96.1)">
            <path d="M859.9,550.56C860.132,549.661 860.468,548.792 860.9,547.97C860.83,548.19 860.77,548.41 860.71,548.64C860.06,551.43 860.6,554.35 861.28,557.13C861.63,558.57 862.11,560.13 863.35,560.93C865.26,562.15 868.21,561.09 869.77,562.74C870.77,563.74 870.77,565.65 872.1,566.29C872.58,566.504 873.114,566.567 873.63,566.47C877.03,565.99 879.01,562.14 882.28,561.08C884.191,560.59 886.213,560.766 888.01,561.58C888.743,561.804 889.401,562.226 889.91,562.8C891,564.21 890.24,566.3 890.74,568.01C891.45,570.39 894.29,571.33 896.74,571.65C899.19,571.97 901.97,572.13 903.62,573.99C904.723,575.405 905.167,577.226 904.84,578.99C904.69,579.591 904.69,580.219 904.84,580.82C905.52,582.74 908.84,582.46 909.71,580.94C910.35,579.84 910.15,578.94 911.65,578.61C912.726,578.527 913.806,578.716 914.79,579.16C917.452,580.071 920.258,580.491 923.07,580.4C925.39,580.435 927.662,579.734 929.56,578.4C930.389,577.743 931.071,576.918 931.56,575.98C931.126,577.686 930.155,579.208 928.79,580.32C926.892,581.654 924.62,582.355 922.3,582.32C919.476,582.393 916.662,581.946 914,581C913.017,580.555 911.936,580.369 910.86,580.46C909.37,580.76 909.56,581.68 908.92,582.78C908.05,584.3 904.73,584.59 904.05,582.67C903.907,582.065 903.907,581.435 904.05,580.83C904.377,579.066 903.933,577.245 902.83,575.83C901.18,573.97 898.41,573.83 895.95,573.49C893.49,573.15 890.65,572.23 889.95,569.85C889.44,568.14 890.21,566.05 889.11,564.64C888.6,564.067 887.943,563.645 887.21,563.42C885.413,562.606 883.391,562.43 881.48,562.92C878.21,563.98 876.23,567.83 872.83,568.31C872.314,568.407 871.78,568.344 871.3,568.13C870.01,567.49 869.96,565.63 868.97,564.58C867.41,562.93 864.46,564 862.55,562.77C861.31,561.97 860.83,560.41 860.48,558.98C859.79,556.27 859.25,553.35 859.9,550.56Z" style="fill-rule:nonzero;"/>
        </g>
        <g transform="matrix(1,0,0,1,-48.1,-96.1)">
            <path d="M931.4,653.13C929.05,656.3 926.4,659.23 924.29,662.58C922.18,665.93 920.75,669.85 921.18,673.77C923.33,671.57 924.31,668.52 925.67,665.77C927.96,661.09 931.39,657.12 934.29,652.77C934.84,651.95 938.38,647.2 936.59,646.97C935.11,646.8 932.2,652.05 931.4,653.13Z" style="fill-opacity:0.1;fill-rule:nonzero;"/>
        </g>
    </g>
    <defs>
        <linearGradient id="_Linear1" x1="0" y1="0" x2="1" y2="0" gradientUnits="userSpaceOnUse" gradientTransform="matrix(1.63992e-14,-267.82,267.82,1.63992e-14,891.82,790.72)"><stop offset="0" style="stop-color:rgb(128,128,128);stop-opacity:0.247059"/><stop offset="0.54" style="stop-color:rgb(128,128,128);stop-opacity:0.117647"/><stop offset="1" style="stop-color:rgb(128,128,128);stop-opacity:0.0980392"/></linearGradient>
    </defs>
</svg>
