<?xml version="1.0" encoding="UTF-8" standalone="no"?>
<!DOCTYPE svg PUBLIC "-//W3C//DTD SVG 1.1//EN" "http://www.w3.org/Graphics/SVG/1.1/DTD/svg11.dtd">
<svg width="100%" height="100%" viewBox="0 0 153 75" version="1.1" xmlns="http://www.w3.org/2000/svg" xmlns:xlink="http://www.w3.org/1999/xlink" xml:space="preserve" xmlns:serif="http://www.serif.com/" style="fill-rule:evenodd;clip-rule:evenodd;stroke-linejoin:round;stroke-miterlimit:1.41421;">
    <g transform="matrix(1,0,0,1,-209.978,-247.7)">
        <rect x="350.43" y="263.72" width="10.18" height="38.2" style="fill:rgb(15,121,209);"/>
        <rect x="303.27" y="263.72" width="10.21" height="38.2" style="fill:rgb(15,121,209);"/>
        <rect x="326.85" y="263.72" width="10.21" height="38.2" style="fill:rgb(15,121,209);"/>
        <path d="M250.97,291.81L250.97,301.87L210.42,301.87L210.42,291.85L223.13,291.85L223.13,291.81L250.97,291.81Z" style="fill:rgb(15,121,209);fill-rule:nonzero;"/>
        <path d="M249.88,270.07L249.88,279.59L223.13,279.59L223.13,279.57L210.42,279.57L210.42,270.08L220.55,270.08L220.55,270.07L249.88,270.07Z" style="fill:rgb(15,121,209);fill-rule:nonzero;"/>
        <rect x="210.42" y="247.7" width="150.19" height="9.91" style="fill:rgb(15,121,209);"/>
        <path d="M284.08,263.72L295.38,263.72L295.38,264L282.84,282.5L296.15,301.61L296.15,301.84L284.86,301.84L276.58,289.07L268.29,301.84L257,301.84L257,301.61L270.31,282.5L257.77,264L257.77,263.69L269.07,263.69L276.58,276.62L284.08,263.72Z" style="fill:rgb(76,76,76);fill-rule:nonzero;"/>
        <g transform="matrix(1,0,0,1,208.88,321.71)">
            <text x="0px" y="0px" style="font-family:'Arial-BoldMT', 'Arial', sans-serif;font-weight:700;font-size:15.19px;fill:rgb(76,76,76);">D</text>
        </g>
        <g transform="matrix(1,0,0,1,208.88,321.71)">
            <g transform="matrix(1,0,0,1,12.79,0)">
                <text x="0px" y="0px" style="font-family:'Arial-BoldMT', 'Arial', sans-serif;font-weight:700;font-size:15.19px;fill:rgb(76,76,76);">I</text>
            </g>
        </g>
        <g transform="matrix(1,0,0,1,208.88,321.71)">
            <g transform="matrix(1,0,0,1,18.61,0)">
                <text x="0px" y="0px" style="font-family:'Arial-BoldMT', 'Arial', sans-serif;font-weight:700;font-size:15.19px;fill:rgb(76,76,76);">G</text>
            </g>
        </g>
        <g transform="matrix(1,0,0,1,208.88,321.71)">
            <g transform="matrix(1,0,0,1,32.25,0)">
                <text x="0px" y="0px" style="font-family:'Arial-BoldMT', 'Arial', sans-serif;font-weight:700;font-size:15.19px;fill:rgb(76,76,76);">I</text>
            </g>
        </g>
        <g transform="matrix(1,0,0,1,208.88,321.71)">
            <g transform="matrix(1,0,0,1,38.59,0)">
                <text x="0px" y="0px" style="font-family:'Arial-BoldMT', 'Arial', sans-serif;font-weight:700;font-size:15.19px;fill:rgb(76,76,76);">T<tspan x="8.334px " y="0px ">A</tspan></text>
            </g>
        </g>
        <g transform="matrix(1,0,0,1,208.88,321.71)">
            <g transform="matrix(1,0,0,1,61.88,0)">
                <text x="0px" y="0px" style="font-family:'Arial-BoldMT', 'Arial', sans-serif;font-weight:700;font-size:15.19px;fill:rgb(76,76,76);">L</text>
            </g>
        </g>
        <g transform="matrix(1,0,0,1,208.88,321.71)">
            <g transform="matrix(1,0,0,1,79.94,0)">
                <text x="0px" y="0px" style="font-family:'Arial-BoldMT', 'Arial', sans-serif;font-weight:700;font-size:15.19px;fill:rgb(76,76,76);">A</text>
            </g>
        </g>
        <g transform="matrix(1,0,0,1,208.88,321.71)">
            <g transform="matrix(1,0,0,1,92.58,0)">
                <text x="0px" y="0px" style="font-family:'Arial-BoldMT', 'Arial', sans-serif;font-weight:700;font-size:15.19px;fill:rgb(76,76,76);">G</text>
            </g>
        </g>
        <g transform="matrix(1,0,0,1,208.88,321.71)">
            <g transform="matrix(1,0,0,1,105.99,0)">
                <text x="0px" y="0px" style="font-family:'Arial-BoldMT', 'Arial', sans-serif;font-weight:700;font-size:15.19px;fill:rgb(76,76,76);">E</text>
            </g>
        </g>
        <g transform="matrix(1,0,0,1,208.88,321.71)">
            <g transform="matrix(1,0,0,1,117.79,0)">
                <text x="0px" y="0px" style="font-family:'Arial-BoldMT', 'Arial', sans-serif;font-weight:700;font-size:15.19px;fill:rgb(76,76,76);">N</text>
            </g>
        </g>
        <g transform="matrix(1,0,0,1,208.88,321.71)">
            <g transform="matrix(1,0,0,1,130.73,0)">
                <text x="0px" y="0px" style="font-family:'Arial-BoldMT', 'Arial', sans-serif;font-weight:700;font-size:15.19px;fill:rgb(76,76,76);">C</text>
            </g>
        </g>
        <g transform="matrix(1,0,0,1,208.88,321.71)">
            <g transform="matrix(1,0,0,1,143.21,0)">
                <text x="0px" y="0px" style="font-family:'Arial-BoldMT', 'Arial', sans-serif;font-weight:700;font-size:15.19px;fill:rgb(76,76,76);">Y</text>
            </g>
        </g>
    </g>
</svg>
