<svg width="36" height="36" viewBox="0 0 36 36" fill="none" xmlns="http://www.w3.org/2000/svg">
<path d="M5.27344 36H17.0156V23.2031H12.7969V18.9844H17.0156V13.7109C17.0156 10.8031 19.3813 8.4375 22.2891 8.4375H27.5625V12.6562H23.3438C22.1806 12.6562 21.2344 13.6024 21.2344 14.7656V18.9844H27.3722L26.669 23.2031H21.2344V36H30.7266C33.6344 36 36 33.6344 36 30.7266V5.27344C36 2.36563 33.6344 0 30.7266 0H5.27344C2.36563 0 0 2.36563 0 5.27344V30.7266C0 33.6344 2.36563 36 5.27344 36ZM2.10938 5.27344C2.10938 3.52881 3.52881 2.10938 5.27344 2.10938H30.7266C32.4712 2.10938 33.8906 3.52881 33.8906 5.27344V30.7266C33.8906 32.4712 32.4712 33.8906 30.7266 33.8906H23.3438V25.3125H28.456L29.8622 16.875H23.3438V14.7656H29.6719V6.32812H22.2891C18.2181 6.32812 14.9062 9.63995 14.9062 13.7109V16.875H10.6875V25.3125H14.9062V33.8906H5.27344C3.52881 33.8906 2.10938 32.4712 2.10938 30.7266V5.27344Z" fill="#CCCCCC"/>
</svg>
