<svg width="37" height="36" viewBox="0 0 37 36" fill="none" xmlns="http://www.w3.org/2000/svg">
<path d="M5.41992 36H31.5801C34.5687 36 37 33.6344 37 30.7266V5.27344C37 2.36563 34.5687 0 31.5801 0H5.41992C2.43134 0 0 2.36563 0 5.27344V30.7266C0 33.6344 2.43134 36 5.41992 36ZM2.16797 5.27344C2.16797 3.52881 3.62683 2.10938 5.41992 2.10938H31.5801C33.3732 2.10938 34.832 3.52881 34.832 5.27344V30.7266C34.832 32.4712 33.3732 33.8906 31.5801 33.8906H5.41992C3.62683 33.8906 2.16797 32.4712 2.16797 30.7266V5.27344Z" fill="#CCCCCC"/>
</svg>
