<svg width="534" height="771" viewBox="0 0 534 771" fill="none" xmlns="http://www.w3.org/2000/svg">
<g filter="url(#filter0_d)">
<rect x="35" y="35" width="464" height="701" rx="20" fill="white"/>
</g>
<path d="M374.531 493.805V517.789L356.543 529.781L374.531 541.773V565.757H446.483V493.805H374.531Z" fill="#F4F4F4"/>
<path d="M312.976 291.151C310.254 282.985 303.365 276.905 294.928 275.22L278.595 271.952V265.956H254.611V271.952L238.278 275.22C229.835 276.905 222.952 282.991 220.23 291.151L212.639 313.924H320.567L312.976 291.151Z" fill="#92E0C0"/>
<path d="M312.976 291.151C310.254 282.985 303.365 276.905 294.928 275.22L278.595 271.952V265.956H260.607V271.952L276.94 275.22C285.382 276.905 292.266 282.991 294.988 291.151L302.579 313.924H320.567L312.976 291.151Z" fill="#48C397"/>
<path d="M254.611 271.952C254.611 278.578 259.978 283.944 266.603 283.944C273.229 283.944 278.595 278.578 278.595 271.952V259.96H254.611V271.952Z" fill="#F9E0A6"/>
<path d="M266.603 265.956C253.358 265.956 242.619 255.217 242.619 241.972V229.98C242.619 216.735 253.358 205.996 266.603 205.996C279.848 205.996 290.587 216.735 290.587 229.98V241.972C290.587 255.217 279.848 265.956 266.603 265.956Z" fill="#F9E0A6"/>
<path d="M266.603 205.996C263.419 205.996 260.391 206.65 257.609 207.777C266.393 211.338 272.599 219.919 272.599 229.98V241.972C272.599 252.033 266.393 260.614 257.609 264.175C260.391 265.303 263.419 265.956 266.603 265.956C279.848 265.956 290.587 255.217 290.587 241.972V229.98C290.587 216.735 279.848 205.996 266.603 205.996Z" fill="#EABD8C"/>
<path d="M438.893 291.151C436.17 282.985 429.281 276.905 420.845 275.22L404.511 271.952V265.956H380.527V271.952L364.194 275.22C355.752 276.905 348.868 282.991 346.146 291.151L338.555 313.924H446.483L438.893 291.151Z" fill="#92E0C0"/>
<path d="M438.892 291.151C436.17 282.985 429.281 276.905 420.844 275.22L404.511 271.952V265.956H386.523V271.952L402.856 275.22C411.299 276.905 418.182 282.991 420.904 291.151L428.495 313.924H446.483L438.892 291.151Z" fill="#48C397"/>
<path d="M380.527 271.952C380.527 278.578 385.894 283.944 392.519 283.944C399.145 283.944 404.511 278.578 404.511 271.952V259.96H380.527V271.952Z" fill="#F9E0A6"/>
<path d="M392.519 265.956C379.274 265.956 368.535 255.217 368.535 241.972V229.98C368.535 216.735 379.274 205.996 392.519 205.996C405.764 205.996 416.503 216.735 416.503 229.98V241.972C416.503 255.217 405.764 265.956 392.519 265.956Z" fill="#F9E0A6"/>
<path d="M392.519 205.996C389.335 205.996 386.307 206.65 383.525 207.777C392.309 211.338 398.515 219.919 398.515 229.98V241.972C398.515 252.033 392.309 260.614 383.525 264.175C386.307 265.303 389.335 265.956 392.519 265.956C405.764 265.956 416.503 255.217 416.503 241.972V229.98C416.503 216.735 405.764 205.996 392.519 205.996Z" fill="#EABD8C"/>
<path d="M320.567 565.757H212.639C202.703 565.757 194.651 557.704 194.651 547.769V355.896C194.651 345.961 202.703 337.908 212.639 337.908H320.567C330.502 337.908 338.555 345.961 338.555 355.896V547.769C338.555 557.704 330.502 565.757 320.567 565.757Z" fill="#8C95A4"/>
<path d="M338.555 373.884H194.651V517.789H338.555V373.884Z" fill="#39C3FC"/>
<path d="M338.555 499.801H194.651V517.789H338.555V499.801Z" fill="#148CE0"/>
<path d="M266.603 445.837C276.538 445.837 284.591 437.783 284.591 427.849C284.591 417.914 276.538 409.861 266.603 409.861C256.669 409.861 248.615 417.914 248.615 427.849C248.615 437.783 256.669 445.837 266.603 445.837Z" fill="#F9E0A6"/>
<path d="M296.583 481.813H236.623V475.817C236.623 459.262 250.048 445.837 266.603 445.837C283.158 445.837 296.583 459.262 296.583 475.817V481.813Z" fill="#FCD770"/>
<path d="M158.675 349.9V373.884L176.663 385.876L158.675 397.868V421.853H86.7224V349.9H158.675Z" fill="#F4F4F4"/>
<path d="M158.675 403.865H86.7224V421.853H158.675V403.865Z" fill="#E2E2E2"/>
<path d="M187.06 291.151C184.338 282.985 177.448 276.905 169.012 275.22L152.679 271.952V265.956H128.695V271.952L112.361 275.22C103.919 276.905 97.0356 282.991 94.3134 291.151L86.7224 313.924H194.651L187.06 291.151Z" fill="#92E0C0"/>
<path d="M187.06 291.151C184.337 282.985 177.448 276.905 169.012 275.22L152.678 271.952V265.956H134.69V271.952L151.024 275.22C159.466 276.905 166.349 282.991 169.072 291.151L176.663 313.924H194.651L187.06 291.151Z" fill="#48C397"/>
<path d="M128.695 271.952C128.695 278.578 134.061 283.944 140.687 283.944C147.312 283.944 152.679 278.578 152.679 271.952V259.96H128.695V271.952Z" fill="#F9E0A6"/>
<path d="M140.687 265.956C127.442 265.956 116.703 255.217 116.703 241.972V229.98C116.703 216.735 127.442 205.996 140.687 205.996C153.932 205.996 164.671 216.735 164.671 229.98V241.972C164.671 255.217 153.932 265.956 140.687 265.956Z" fill="#F9E0A6"/>
<path d="M140.686 205.996C137.503 205.996 134.475 206.65 131.692 207.777C140.477 211.338 146.682 219.919 146.682 229.98V241.972C146.682 252.033 140.477 260.614 131.692 264.175C134.475 265.303 137.503 265.956 140.686 265.956C153.932 265.956 164.67 255.217 164.67 241.972V229.98C164.67 216.735 153.932 205.996 140.686 205.996Z" fill="#EABD8C"/>
<path d="M320.567 331.912H212.639C199.411 331.912 188.655 342.669 188.655 355.896V547.769C188.655 560.996 199.411 571.753 212.639 571.753H320.567C333.794 571.753 344.551 560.996 344.551 547.769V355.896C344.551 342.669 333.794 331.912 320.567 331.912ZM212.639 343.904H320.567C327.181 343.904 332.559 349.283 332.559 355.896V367.888H200.647V355.896C200.647 349.283 206.025 343.904 212.639 343.904ZM332.559 379.88V511.793H200.647V379.88H332.559ZM320.567 559.761H212.639C206.025 559.761 200.647 554.383 200.647 547.769V523.785H332.559V547.769C332.559 554.383 327.181 559.761 320.567 559.761Z" fill="black"/>
<path d="M302.579 487.809V475.817C302.579 462.266 295.042 450.454 283.949 444.32C288.039 440.014 290.587 434.24 290.587 427.849C290.587 414.621 279.83 403.865 266.603 403.865C253.376 403.865 242.619 414.621 242.619 427.849C242.619 434.24 245.167 440.014 249.256 444.32C238.164 450.454 230.627 462.266 230.627 475.817V487.809H302.579ZM254.611 427.849C254.611 421.235 259.989 415.857 266.603 415.857C273.216 415.857 278.595 421.235 278.595 427.849C278.595 434.462 273.216 439.841 266.603 439.841C259.989 439.841 254.611 434.462 254.611 427.849ZM266.603 451.833C279.83 451.833 290.587 462.589 290.587 475.817H242.619C242.619 462.589 253.376 451.833 266.603 451.833Z" fill="black"/>
<path d="M368.535 514.581L345.732 529.781L368.535 544.981V571.753H452.479V487.809H368.535V514.581ZM380.527 499.801H440.487V559.761H380.527V538.565L367.354 529.781L380.527 520.997V499.801Z" fill="black"/>
<path d="M164.671 343.904H80.7263V427.849H164.671V401.076L187.473 385.876L164.671 370.677V343.904ZM165.852 385.876L152.679 394.661V415.857H92.7184V355.896H152.679V377.092L165.852 385.876Z" fill="black"/>
<path d="M318.666 289.257C315.272 279.075 306.626 271.443 296.103 269.344L284.591 267.041V265.962H284.399C291.75 260.494 296.583 251.818 296.583 241.972V229.98C296.583 213.449 283.134 200 266.603 200C250.072 200 236.623 213.449 236.623 229.98V241.972C236.623 251.818 241.455 260.494 248.807 265.962H248.609V267.041L237.102 269.344C226.579 271.449 217.933 279.075 214.539 289.257L204.316 319.92H328.883L318.666 289.257ZM248.615 229.98C248.615 220.063 256.685 211.992 266.603 211.992C276.52 211.992 284.591 220.063 284.591 229.98V241.972C284.591 251.89 276.52 259.96 266.603 259.96C256.685 259.96 248.615 251.89 248.615 241.972V229.98ZM266.603 271.952C268.653 271.952 270.656 271.742 272.599 271.347V271.97C272.587 275.268 269.901 277.948 266.603 277.948C263.299 277.948 260.607 275.262 260.607 271.952V271.347C262.543 271.742 264.552 271.952 266.603 271.952ZM220.961 307.928L225.92 293.052C227.952 286.936 233.145 282.367 239.459 281.102L250.048 278.98C252.788 285.413 259.174 289.94 266.603 289.94C274.032 289.94 280.418 285.413 283.158 278.98L293.753 281.102C300.067 282.367 305.253 286.942 307.286 293.052L312.244 307.928H220.961Z" fill="black"/>
<path d="M444.583 289.257C441.189 279.075 432.543 271.443 422.02 269.344L410.507 267.041V265.962H410.315C417.667 260.494 422.499 251.818 422.499 241.972V229.98C422.499 213.449 409.05 200 392.519 200C375.988 200 362.539 213.449 362.539 229.98V241.972C362.539 251.818 367.372 260.494 374.723 265.962H374.525V267.041L363.019 269.344C352.496 271.449 343.85 279.075 340.456 289.257L330.233 319.92H454.8L444.583 289.257ZM374.531 229.98C374.531 220.063 382.602 211.992 392.519 211.992C402.437 211.992 410.507 220.063 410.507 229.98V241.972C410.507 251.89 402.437 259.96 392.519 259.96C382.602 259.96 374.531 251.89 374.531 241.972V229.98ZM392.519 271.952C394.57 271.952 396.573 271.742 398.515 271.347V271.97C398.503 275.268 395.817 277.948 392.519 277.948C389.215 277.948 386.523 275.262 386.523 271.952V271.347C388.46 271.742 390.469 271.952 392.519 271.952ZM346.878 307.928L351.836 293.052C353.869 286.936 359.062 282.367 365.375 281.102L375.964 278.98C378.704 285.413 385.09 289.94 392.519 289.94C399.948 289.94 406.334 285.413 409.074 278.98L419.669 281.102C425.983 282.367 431.17 286.942 433.202 293.052L438.161 307.928H346.878Z" fill="black"/>
<path d="M192.75 289.257C189.356 279.075 180.71 271.443 170.187 269.344L158.675 267.041V265.962H158.483C165.834 260.494 170.667 251.818 170.667 241.972V229.98C170.667 213.449 157.218 200 140.687 200C124.156 200 110.706 213.449 110.706 229.98V241.972C110.706 251.818 115.539 260.494 122.89 265.962H122.692V267.041L111.186 269.344C100.663 271.449 92.0169 279.075 88.6231 289.257L78.3999 319.92H202.967L192.75 289.257ZM122.698 229.98C122.698 220.063 130.769 211.992 140.687 211.992C150.604 211.992 158.675 220.063 158.675 229.98V241.972C158.675 251.89 150.604 259.96 140.687 259.96C130.769 259.96 122.698 251.89 122.698 241.972V229.98ZM140.687 271.952C142.737 271.952 144.74 271.742 146.683 271.347V271.97C146.671 275.268 143.984 277.948 140.687 277.948C137.383 277.948 134.691 275.262 134.691 271.952V271.347C136.627 271.742 138.636 271.952 140.687 271.952ZM95.0448 307.928L100.004 293.052C102.036 286.936 107.229 282.367 113.543 281.102L124.132 278.98C126.872 285.413 133.257 289.94 140.687 289.94C148.116 289.94 154.501 285.413 157.242 278.98L167.837 281.102C174.15 282.367 179.337 286.942 181.37 293.052L186.328 307.928H95.0448Z" fill="black"/>
<path d="M116.702 379.88H104.71V391.872H116.702V379.88Z" fill="black"/>
<path d="M140.686 379.88H128.694V391.872H140.686V379.88Z" fill="black"/>
<path d="M404.433 523.785H392.441V535.777H404.433V523.785Z" fill="black"/>
<path d="M428.417 523.785H416.425V535.777H428.417V523.785Z" fill="black"/>
<defs>
<filter id="filter0_d" x="0" y="0" width="534" height="771" filterUnits="userSpaceOnUse" color-interpolation-filters="sRGB">
<feFlood flood-opacity="0" result="BackgroundImageFix"/>
<feColorMatrix in="SourceAlpha" type="matrix" values="0 0 0 0 0 0 0 0 0 0 0 0 0 0 0 0 0 0 127 0"/>
<feOffset/>
<feGaussianBlur stdDeviation="17.5"/>
<feColorMatrix type="matrix" values="0 0 0 0 0.629167 0 0 0 0 0.629167 0 0 0 0 0.629167 0 0 0 1 0"/>
<feBlend mode="normal" in2="BackgroundImageFix" result="effect1_dropShadow"/>
<feBlend mode="normal" in="SourceGraphic" in2="effect1_dropShadow" result="shape"/>
</filter>
</defs>
</svg>
