<svg width="286" height="448" viewBox="0 0 286 448" fill="none" xmlns="http://www.w3.org/2000/svg">
<path opacity="0.1" d="M194.197 444.091C222.828 444.091 246.038 438.88 246.038 432.452C246.038 426.024 222.828 420.813 194.197 420.813C165.566 420.813 142.355 426.024 142.355 432.452C142.355 438.88 165.566 444.091 194.197 444.091Z" fill="#0F79D1"/>
<path opacity="0.1" d="M81.7422 411.152C120.607 411.152 152.113 405.941 152.113 399.513C152.113 393.085 120.607 387.874 81.7422 387.874C42.8773 387.874 11.3711 393.085 11.3711 399.513C11.3711 405.941 42.8773 411.152 81.7422 411.152Z" fill="#0F79D1"/>
<path d="M37.047 222.469C34.1045 235.403 22.4035 215.847 19.7367 211.154C19.3922 210.54 19.1992 210.182 19.1992 210.182L20.4672 204.235L27.1721 201.479C28.2339 202.034 29.24 202.689 30.1766 203.436C33.8496 206.323 39.3141 212.449 37.047 222.469Z" fill="#D38884"/>
<path d="M127.822 201.307C127.822 201.307 127.822 201.403 127.747 201.596C127.747 201.679 127.692 201.789 127.657 201.906C126.506 205.944 119.684 228.678 113.096 222.366C105.888 215.475 109.389 199.543 109.389 199.543H109.437L124.597 197.992L127.602 201.079L127.822 201.307Z" fill="#D38884"/>
<path d="M119.05 313.182L119.436 356.596C113.489 366.45 113.979 375.202 113.979 375.202L94.3805 375.974C89.5982 372.755 93.0023 363.79 93.0023 363.79V341.436C93.0023 341.436 89.9772 319.598 91.4381 313.548C92.899 307.497 85.2981 296.32 85.2981 296.32L84.2231 284.13C80.5158 279.258 78.7586 252.349 78.7586 252.349L74.7825 238.759C74.8927 239.345 76.96 250.688 74.7825 252.776C72.6049 254.864 71.7573 264.084 71.7573 264.084C71.7573 264.084 73.9004 289.636 71.7573 294.797C69.6142 299.959 72.3361 302.894 72.3361 302.894L72.7289 329.418C72.7289 329.418 70.8752 336.536 72.9219 346.576C74.9685 356.617 72.9219 372.128 72.9219 372.128H51.8974L51.9938 361.303L48.5897 352.137C48.5897 352.137 46.2467 314.306 44.393 306.112C43.2835 301.257 43.974 296.164 46.3363 291.779C46.3363 291.779 42.4429 285.543 42.6358 281.153C42.8288 276.763 39.6313 268.391 39.6313 268.391L35.097 237.581C35.2219 231.652 34.4648 225.736 32.8505 220.03C30.2182 211.25 26.3179 199.742 26.3179 199.742L30.7212 200.135L52.9379 202.113C52.9379 202.113 106.957 198.481 109.375 201.5C109.886 202.486 110.23 203.55 110.395 204.649C112.821 215.544 116.025 249.675 116.025 249.675C116.025 249.675 122.558 276.295 119.753 278.927C116.949 281.56 117.293 290.132 117.293 290.132C121.497 298.229 119.05 313.182 119.05 313.182Z" fill="#444053"/>
<path d="M73.3835 388.591C73.2319 391.009 70.5375 391.154 70.5375 391.154C62.6404 392.395 60.959 395.468 60.959 395.468C60.959 395.468 53.3789 403 41.9467 401.904C32.2303 400.967 33.1744 399.237 33.6774 396.033C33.7752 395.436 33.8281 394.833 33.8359 394.228C33.8359 389.838 37.1987 388.591 42.4635 385.269C47.7282 381.948 47.5835 379.198 49.7749 376.786C51.9662 374.375 52.1936 369.696 52.1936 369.696C54.6744 365.375 60.9659 370.385 60.9659 370.385C61.2622 371.914 70.6133 371.701 70.6133 371.701C70.6133 371.701 71.8537 376.676 72.4946 376.966C72.9149 377.159 73.2319 381.059 73.356 384.408C73.4249 386.165 73.4386 387.757 73.3835 388.591Z" fill="#B07473"/>
<path opacity="0.1" d="M73.3835 388.591C73.2319 391.01 70.5375 391.154 70.5375 391.154C62.6404 392.395 60.959 395.468 60.959 395.468C60.959 395.468 53.3789 403 41.9467 401.904C32.2303 400.967 33.1744 399.238 33.6774 396.033C38.0188 397.108 46.3156 398.611 51.1599 395.978C57.8925 392.326 62.7231 389.776 62.7231 389.776L73.3629 384.422C73.4249 386.165 73.4386 387.757 73.3835 388.591Z" fill="black"/>
<path d="M132.901 401.608C132.383 402.566 131.513 403.284 130.476 403.613L130.29 403.662C127.072 404.351 114.633 404.351 114.633 404.351C114.633 404.351 102.057 394.628 98.2533 394.407C94.4495 394.187 92.4028 390.893 92.4028 390.893C92.4028 390.893 92.4786 388.632 92.7198 386C93.0161 382.885 93.5329 379.268 94.4494 378.317C96.1309 376.559 96.5167 374.182 100.3 375.684C100.3 375.684 105.702 366.161 112.07 373.52L118.658 383.512C118.658 383.512 119.898 387.647 128.243 392.133C131.578 393.925 133.067 396.033 133.487 397.956C133.752 399.204 133.544 400.506 132.901 401.608Z" fill="#B07473"/>
<path opacity="0.1" d="M132.901 401.608C132.157 402.235 131.337 402.91 130.476 403.613L130.29 403.661C127.072 404.351 114.633 404.351 114.633 404.351C114.633 404.351 102.057 394.627 98.2533 394.407C94.4495 394.186 92.4028 390.892 92.4028 390.892C92.4028 390.892 92.4786 388.632 92.7198 386C96.5925 387.157 102.457 389.204 104.028 391.409C106.44 394.765 113.765 399.451 113.765 399.451C113.765 399.451 127.423 398.135 133.487 397.956C133.752 399.204 133.544 400.506 132.901 401.608Z" fill="black"/>
<path d="M79.7509 61.336L61.7653 80.3484C61.7653 80.3484 39.969 78.7428 43.7728 72.3065C45.7092 69.0264 46.0124 62.163 45.8401 56.1953C45.6816 50.4413 45.089 45.5418 45.089 45.5418C45.089 45.5418 75.6576 30.3264 73.3422 44.515C72.8434 47.1886 72.8154 49.9288 73.2595 52.612C74.5619 59.7787 79.7509 61.336 79.7509 61.336Z" fill="#D38884"/>
<path opacity="0.1" d="M73.3145 44.515C72.8157 47.1886 72.7877 49.9288 73.2318 52.612C71.141 54.7308 68.6495 56.4123 65.9024 57.5587C63.1553 58.7051 60.2075 59.2934 57.2309 59.2894C53.0962 59.2894 48.624 55.8921 45.2818 53.9282C45.1233 48.1673 45.0889 45.5418 45.0889 45.5418C45.0889 45.5418 75.6575 30.3264 73.3145 44.515Z" fill="black"/>
<path d="M79.7508 35.5912C79.7526 40.6951 78.0211 45.6483 74.84 49.6396C71.6588 53.6309 67.2166 56.4235 62.2408 57.5602C57.2651 58.6968 52.0508 58.1101 47.4522 55.8961C42.8535 53.682 39.1429 49.972 36.9283 45.3735C34.7137 40.7751 34.1264 35.5609 35.2624 30.585C36.3985 25.6092 39.1906 21.1666 43.1815 17.9849C47.1724 14.8033 52.1254 13.0712 57.2293 13.0724C62.3332 13.0736 67.2855 14.808 71.2749 17.9915C73.9181 20.1008 76.0525 22.778 77.5198 25.8248C78.9871 28.8715 79.7496 32.2095 79.7508 35.5912V35.5912Z" fill="#D38884"/>
<path opacity="0.1" d="M110.395 204.649C104.786 217.997 68.7042 218.272 68.7042 218.272V203.718L66.5197 203.574C67.4638 207.743 65.1966 217.907 65.1966 217.907C36.6816 221.931 29.7285 205.682 29.7285 205.682L30.7208 200.121L52.9375 202.099C52.9375 202.099 106.956 198.467 109.375 201.486C109.887 202.477 110.231 203.545 110.395 204.649V204.649Z" fill="black"/>
<path d="M68.7042 216.515V201.961L66.5197 201.823C67.4638 205.958 65.1966 216.157 65.1966 216.157C43.738 219.182 34.4902 210.734 31.2308 206.365C30.6447 205.612 30.1411 204.799 29.7285 203.939L38.4388 154.944L40.5061 82.8361L43.6277 70.1842L44.3513 64.1132V64.0443H44.4271L46.646 64.9952L59.925 70.7354L75.0094 59.3446L75.23 59.1861L75.9811 58.6141L77.2284 59.6133L80.3293 62.101L90.2731 126.318C90.2731 126.318 107.501 175.762 110.726 195.718C110.857 196.517 110.96 197.262 111.043 197.958C113.172 216.177 68.7042 216.515 68.7042 216.515Z" fill="#0F79D1"/>
<path d="M61.5376 73.4368C62.2455 73.4368 62.8193 72.8629 62.8193 72.155C62.8193 71.4471 62.2455 70.8733 61.5376 70.8733C60.8297 70.8733 60.2559 71.4471 60.2559 72.155C60.2559 72.8629 60.8297 73.4368 61.5376 73.4368Z" fill="#67647E"/>
<path d="M62.1304 85.1377C62.8383 85.1377 63.4121 84.5638 63.4121 83.8559C63.4121 83.1481 62.8383 82.5742 62.1304 82.5742C61.4225 82.5742 60.8486 83.1481 60.8486 83.8559C60.8486 84.5638 61.4225 85.1377 62.1304 85.1377Z" fill="#67647E"/>
<path d="M63.4121 104.081C64.12 104.081 64.6938 103.507 64.6938 102.8C64.6938 102.092 64.12 101.518 63.4121 101.518C62.7042 101.518 62.1304 102.092 62.1304 102.8C62.1304 103.507 62.7042 104.081 63.4121 104.081Z" fill="#67647E"/>
<path d="M65.5273 124.485C66.2352 124.485 66.8091 123.912 66.8091 123.204C66.8091 122.496 66.2352 121.922 65.5273 121.922C64.8194 121.922 64.2456 122.496 64.2456 123.204C64.2456 123.912 64.8194 124.485 65.5273 124.485Z" fill="#67647E"/>
<path d="M66.8096 143.642C67.5175 143.642 68.0913 143.069 68.0913 142.361C68.0913 141.653 67.5175 141.079 66.8096 141.079C66.1017 141.079 65.5278 141.653 65.5278 142.361C65.5278 143.069 66.1017 143.642 66.8096 143.642Z" fill="#67647E"/>
<path d="M68.0908 164.047C68.7987 164.047 69.3725 163.473 69.3725 162.765C69.3725 162.057 68.7987 161.484 68.0908 161.484C67.3829 161.484 66.8091 162.057 66.8091 162.765C66.8091 163.473 67.3829 164.047 68.0908 164.047Z" fill="#67647E"/>
<path d="M67.5811 184.23C68.2889 184.23 68.8628 183.657 68.8628 182.949C68.8628 182.241 68.2889 181.667 67.5811 181.667C66.8732 181.667 66.2993 182.241 66.2993 182.949C66.2993 183.657 66.8732 184.23 67.5811 184.23Z" fill="#67647E"/>
<path opacity="0.1" d="M45.2058 162.069C45.2058 162.069 43.7725 180.833 41.1401 186.291C38.5077 191.749 37.3363 207.061 37.3363 207.061L31.2239 206.371C30.6379 205.619 30.1342 204.806 29.7217 203.946L38.4319 154.951L40.4992 82.8429L43.6278 70.1841L44.3513 64.1131L44.434 64.0787C44.7754 63.9174 45.1493 63.8366 45.5268 63.8426C45.9043 63.8486 46.2754 63.9411 46.6116 64.1131L46.901 64.2647C46.8137 64.5128 46.731 64.7678 46.6529 65.0296C44.2686 72.4926 43.3797 86.2471 43.3797 86.2471C43.3797 86.2471 46.8252 111.406 47.1835 123.107C47.5419 134.808 45.2058 162.069 45.2058 162.069Z" fill="black"/>
<path opacity="0.1" d="M30.1766 203.456C30.1096 203.614 30.0313 203.766 29.9423 203.911C27.5718 207.915 21.5628 210.458 19.7367 211.154C19.3922 210.54 19.1992 210.182 19.1992 210.182L20.4672 204.235L27.1721 201.479C28.2348 202.04 29.2409 202.702 30.1766 203.456V203.456Z" fill="black"/>
<path d="M13.9346 107.699L8.37355 111.013L3.30864 133.54C3.30864 133.54 -3.0311 152.649 1.84085 166.3C6.71281 179.951 9.54503 187.766 9.54503 187.766C9.54503 187.766 11.4952 203.27 14.4239 204.538C17.3526 205.806 18.6136 206.489 18.6136 206.489L19.1993 210.196C19.1993 210.196 27.1378 207.502 29.9425 202.754C32.7471 198.006 27.8752 186.215 27.8752 186.215C27.8752 186.215 23.6854 176.168 24.7604 171.489C25.8354 166.81 22.6104 154.523 22.6104 154.262C22.6104 154 22.321 147.433 24.6777 142.409C27.0345 137.385 25.4633 135.242 25.4633 135.242L23.9955 120.909L13.9346 107.699Z" fill="#67647E"/>
<path opacity="0.1" d="M110.857 200.431C110.857 200.431 96.1307 205.985 91.4517 201.12C86.7727 196.255 87.255 173.425 87.255 173.425C87.255 173.425 82.7759 131.301 79.9437 124.382C77.1115 117.463 78.5655 67.531 78.5655 67.531C78.5655 67.531 76.6636 61.0741 75.0028 59.3858C74.8979 59.2773 74.7799 59.1824 74.6514 59.1033L75.2233 59.2273L77.2217 59.6546L80.3227 62.1422L90.2664 126.36C90.2664 126.36 107.494 175.803 110.719 195.759L110.857 200.431Z" fill="black"/>
<path opacity="0.1" d="M127.823 201.892H127.657C125.803 202.134 109.444 204.111 109.375 200.707C109.373 200.314 109.393 199.92 109.437 199.529L124.598 197.978L127.602 201.066C127.657 201.265 127.698 201.438 127.74 201.576L127.823 201.892Z" fill="black"/>
<path d="M112.125 85.1378L122.875 90.7471C122.875 90.7471 131.833 113.942 133.266 123.886C133.266 123.886 139.902 150.527 135.334 161.483C130.765 172.44 131.144 194.188 131.144 194.188C131.144 194.188 128.511 198.185 127.436 197.117C126.361 196.049 127.829 201.307 127.829 201.307C127.829 201.307 109.451 203.746 109.375 200.135C109.299 196.524 113.592 179.269 113.592 179.269C113.592 179.269 114.764 138.219 113.103 131.783C111.442 125.347 112.125 85.1378 112.125 85.1378Z" fill="#67647E"/>
<path opacity="0.1" d="M80.0469 128.861C80.0469 128.861 73.9966 143.677 72.0464 144.655C70.0963 145.634 72.4392 149.527 72.4392 149.527C72.4392 149.527 83.458 134.126 80.0469 128.861Z" fill="black"/>
<path opacity="0.1" d="M76.4361 76.8892C76.505 76.6067 69.2212 84.0352 67.271 85.1584C65.3208 86.2817 74.3894 85.0895 76.4361 76.8892Z" fill="black"/>
<path opacity="0.1" d="M56.156 127.69C56.156 127.69 45.0408 134.877 46.5085 137.723C47.9763 140.569 56.156 127.69 56.156 127.69Z" fill="black"/>
<path opacity="0.1" d="M76.3398 232.606C76.3398 232.606 85.8012 238.69 100.52 240.186L76.3398 232.606Z" fill="black"/>
<path opacity="0.1" d="M53.6196 247.235C53.6196 247.235 62.3919 258.261 66.3956 258.544C70.3993 258.826 53.6196 247.235 53.6196 247.235Z" fill="black"/>
<path opacity="0.1" d="M65.9062 290.442C65.5134 290.635 60.9309 300.386 56.2588 300.682C51.5866 300.978 65.9062 290.442 65.9062 290.442Z" fill="black"/>
<path opacity="0.1" d="M106.563 311.804C106.563 311.804 115.26 309.854 117.196 316.09C117.196 316.07 116.611 314.119 106.563 311.804Z" fill="black"/>
<path opacity="0.1" d="M100.713 347.472C100.713 347.472 111.25 345.322 113.489 348.251C115.729 351.18 100.713 347.472 100.713 347.472Z" fill="black"/>
<path opacity="0.1" d="M70.9092 352.461C70.9092 352.558 60.1868 354.611 60.5727 355.976C60.9586 357.34 72.0118 357.147 72.4046 354.997C72.4749 354.732 72.4919 354.456 72.4546 354.185C72.4173 353.914 72.3264 353.652 72.1873 353.416C72.0482 353.18 71.8635 352.974 71.6441 352.81C71.4247 352.647 71.1749 352.528 70.9092 352.461Z" fill="black"/>
<path opacity="0.1" d="M97.2056 361.709C97.2056 361.709 114.826 359.559 113.744 363.266C112.662 366.974 97.2056 361.709 97.2056 361.709Z" fill="black"/>
<path opacity="0.1" d="M4.9624 144.655C5.05888 144.945 16.5669 146.509 18.1242 150.216C18.1242 150.216 6.81607 144.945 5.0313 144.945" fill="black"/>
<path opacity="0.1" d="M21.1493 174.783C21.1493 174.783 11.5914 177.808 12.2736 182.363C12.9558 186.918 11.302 180.255 21.1493 174.783Z" fill="black"/>
<path opacity="0.1" d="M16.6978 197.992C16.6978 197.992 20.1777 193.217 23.4923 194.092C26.8069 194.967 16.6978 197.992 16.6978 197.992Z" fill="black"/>
<path opacity="0.1" d="M71.2748 17.9915C70.94 18.3163 70.5648 18.5965 70.1584 18.8253C67.402 20.4309 66.644 22.9048 65.3347 25.7577C64.115 28.3694 62.7712 31.1327 60.3111 32.6143C57.1344 34.53 52.9515 33.8271 49.6507 35.4947C48.1854 36.2575 46.9822 37.4418 46.1961 38.8948C45.41 40.3478 45.0772 42.0029 45.2405 43.6468C45.4502 44.9153 45.7637 46.1645 46.1777 47.3817C46.9283 50.0174 47.2677 52.7532 47.1837 55.4925C47.1908 55.5727 47.1908 55.6534 47.1837 55.7336C44.3596 54.3226 41.8637 52.3336 39.858 49.8957C37.8523 47.4577 36.3816 44.6253 35.5413 41.5822C34.7011 38.5391 34.51 35.3533 34.9806 32.2316C35.4511 29.1099 36.5728 26.122 38.2727 23.4618C39.9727 20.8016 42.213 18.5285 44.8482 16.7901C47.4835 15.0517 50.4547 13.8868 53.5693 13.371C56.6839 12.8552 59.8721 13 62.927 13.796C65.982 14.592 68.8355 16.0214 71.3023 17.9915H71.2748Z" fill="black"/>
<path d="M70.6888 11.2109C68.215 6.01505 62.8331 2.72115 57.2996 1.11554C53.0754 -0.104171 48.4859 -0.503847 44.2962 0.839903C41.905 1.59792 39.7343 2.9072 37.4948 4.03044C33.3188 6.13909 28.7294 7.80673 25.5871 11.2729C24.8497 12.0792 24.2089 13.1128 24.3949 14.1809C24.5534 14.9734 25.1736 15.5591 25.5733 16.2896C26.476 17.8745 26.2624 19.866 25.6353 21.5888C25.0082 23.3115 24.1193 24.9103 23.692 26.6813C23.2648 28.4522 23.4302 30.5264 24.7395 31.7875C25.3252 32.3457 26.0763 32.6971 26.7103 33.1657C27.4268 33.7846 28.0551 34.4987 28.5778 35.2881L32.2989 40.3737C34.047 42.6274 35.6051 45.0222 36.9573 47.5335C37.8807 49.3803 38.5973 51.3511 39.8377 52.9981C41.0781 54.645 43.0076 55.9681 45.0611 55.7889C45.2201 55.793 45.3778 55.7595 45.5215 55.6913C45.6651 55.623 45.7907 55.5219 45.888 55.3962C45.9643 55.2349 45.9998 55.0575 45.9914 54.8793C46.0822 52.1502 45.7498 49.4235 45.006 46.7961C44.5912 45.5791 44.2777 44.3299 44.0688 43.0612C43.9102 41.4179 44.2451 39.7646 45.0307 38.3126C45.8162 36.8605 47.0168 35.6756 48.4791 34.9091C51.7868 33.2415 55.9696 33.9444 59.1395 32.0356C61.6065 30.5471 62.9502 27.7838 64.163 25.1445C65.493 22.2917 66.2303 19.8178 68.9867 18.2122C71.7431 16.6066 72.0602 13.9466 70.6888 11.2109Z" fill="#585268"/>
<path opacity="0.1" d="M60.6006 379.377C60.6006 379.377 64.0461 383.767 63.1503 386.268C62.2544 388.77 60.6006 379.377 60.6006 379.377Z" fill="black"/>
<path opacity="0.1" d="M107.218 390.362C107.218 390.362 107.983 384.477 111.05 384.422C114.116 384.367 114.268 384.105 116.611 385.008C118.954 385.91 121.152 387.309 120.449 387.516C119.746 387.723 116.418 384.153 113 385.979C110.867 387.147 108.918 388.623 107.218 390.362V390.362Z" fill="black"/>
<path opacity="0.1" d="M50.3189 78.1156L59.9663 71.3555C59.9663 71.3555 45.8535 63.0174 44.1721 64.1889C42.4907 65.3603 41.333 75.9036 41.333 75.9036L50.3189 78.1156Z" fill="black"/>
<path d="M50.2779 77.6816L59.9253 70.7906C59.9253 70.7906 45.8125 62.4524 44.1311 63.6239C42.4497 64.7954 41.292 75.9175 41.292 75.9175L50.2779 77.6816Z" fill="#E1E7EF"/>
<path d="M50.2779 77.6816L59.9253 70.7906C59.9253 70.7906 45.8125 62.4524 44.1311 63.6239C42.4497 64.7954 41.292 75.9175 41.292 75.9175L50.2779 77.6816Z" fill="#0F79D1"/>
<path d="M45.7293 63.6788L45.4399 63.5341C45.0094 63.3146 44.5246 63.2245 44.044 63.2746C43.5634 63.3248 43.1076 63.513 42.7317 63.8166L13.7894 87.2944C13.7894 87.2944 7.49791 95.9977 8.37307 111.013L25.4421 135.194C25.4421 135.194 27.3923 127.007 29.7283 128.565C29.7283 128.565 33.0429 170.497 29.7283 176.54C26.4138 182.583 24.9529 205.207 24.9529 205.207L36.1646 206.475C36.1646 206.475 37.336 191.163 39.9684 185.705C42.6008 180.247 44.0341 161.483 44.0341 161.483C44.0341 161.483 46.4046 134.222 46.0118 122.521C45.6191 110.82 42.208 85.6612 42.208 85.6612C42.208 85.6612 43.1658 70.9144 45.7293 63.6788Z" fill="#67647E"/>
<path opacity="0.1" d="M74.5615 73.8433L62.5366 69.3917C62.5366 69.3917 77.8485 52.619 79.7642 61.9218L74.5615 73.8433Z" fill="black"/>
<path d="M74.5615 73.2575L62.5366 68.8059C62.5366 68.8059 77.8485 52.0331 79.7642 61.336L74.5615 73.2575Z" fill="#E1E7EF"/>
<path d="M74.5615 73.2575L62.5366 68.8059C62.5366 68.8059 77.8485 52.0331 79.7642 61.336L74.5615 73.2575Z" fill="#0F79D1"/>
<path opacity="0.1" d="M74.1689 58.9862C74.3423 58.9584 74.5198 58.9979 74.6651 59.0965L74.1689 58.9862Z" fill="black"/>
<path d="M75.3267 57.8217L107.232 64.7128C107.232 64.7128 116.011 66.6629 122.351 88.7004C128.691 110.738 113.668 137.737 113.668 137.737L110.354 134.919L112.014 199.274C112.014 199.274 97.2884 204.828 92.6094 199.963C87.9304 195.098 88.4196 172.247 88.4196 172.247C88.4196 172.247 83.9336 130.129 81.1013 123.204C78.2691 116.278 79.7231 66.3597 79.7231 66.3597C79.7231 66.3597 77.1183 57.4358 75.3267 57.8217Z" fill="#67647E"/>
<path opacity="0.1" d="M104.517 98.83C104.069 99.2435 103.545 118.718 105.496 133.54C106.688 142.567 108.53 151.495 111.008 160.257L108.114 100.877C108.114 100.877 105.881 97.5621 104.517 98.83Z" fill="black"/>
<path opacity="0.1" d="M100.617 82.0574C101.395 82.5466 104.813 90.6367 103.249 93.9513C101.685 97.2659 100.617 82.0574 100.617 82.0574Z" fill="black"/>
<path opacity="0.1" d="M70.5027 11.2109C68.9364 8.12658 66.4966 5.57172 63.4876 3.86511C65.7249 5.46717 67.5312 7.59775 68.7455 10.067C70.1237 12.8234 69.7171 15.5799 67.0365 17.089C64.3559 18.5981 63.5221 21.1685 62.2128 24.0214C60.9931 26.6331 59.6493 29.3964 57.1823 30.9124C54.0125 32.8281 49.8296 32.1183 46.5219 33.7859C45.0604 34.555 43.8606 35.7414 43.0752 37.1943C42.2899 38.6472 41.9545 40.3009 42.1116 41.9449C42.3236 43.2114 42.6394 44.4582 43.0557 45.673C43.8061 48.3087 44.1454 51.0445 44.0618 53.7837C44.0681 53.9624 44.0302 54.1399 43.9516 54.3005C43.8565 54.427 43.7323 54.5288 43.5896 54.5972C43.4468 54.6655 43.2897 54.6985 43.1315 54.6933C42.3045 54.7566 41.4753 54.6022 40.7266 54.2454C41.2688 54.7832 41.9153 55.2043 42.6263 55.4828C43.3374 55.7613 44.098 55.8913 44.8612 55.8648C44.9854 55.8829 45.1122 55.8719 45.2315 55.8328C45.3508 55.7937 45.4594 55.7275 45.5489 55.6394C45.6383 55.5513 45.7061 55.4437 45.747 55.3249C45.7879 55.2062 45.8008 55.0797 45.7846 54.9552C45.8738 52.2162 45.5367 49.4799 44.7854 46.8444C44.3651 45.6285 44.0493 44.379 43.8413 43.1095C43.6827 41.4662 44.0176 39.8129 44.8032 38.3609C45.5888 36.9088 46.7893 35.7239 48.2516 34.9574C51.5592 33.2898 55.7421 33.9927 58.912 32.0839C61.379 30.5954 62.7227 27.8321 63.9355 25.1928C65.2655 22.3399 66.0028 19.8661 68.7592 18.2605C71.5156 16.6549 71.8809 13.9467 70.5027 11.2109Z" fill="black"/>
<path d="M266.808 97.7482C257.312 97.5621 248.932 90.8572 244.184 82.6637C242.939 80.7142 242.157 78.5055 241.897 76.2068C241.93 75.6845 242.017 75.1672 242.159 74.6632C242.449 73.8942 242.679 73.104 242.848 72.2996C242.885 71.9791 242.885 71.6554 242.848 71.3349C242.848 71.3349 242.848 71.3349 242.848 71.2798C243.075 69.5363 242.048 67.8342 240.78 66.6421C239.512 65.4499 237.921 64.5748 236.597 63.3895C232.518 59.8062 231.278 54.0591 231.202 48.5876V48.2982C231.25 45.9552 231.436 43.6054 231.415 41.2624C231.448 39.9324 231.39 38.6017 231.243 37.2794C230.85 33.9648 229.589 30.5882 226.984 28.4727C220.19 22.9599 208.765 28.7001 201.729 23.4905C200.02 22.2156 198.635 20.3344 196.561 19.8382C194.996 19.4592 193.37 19.9692 191.84 20.4791C186.658 22.1881 180.877 24.4346 178.851 29.4374C177.693 32.311 178.017 35.5911 176.956 38.4991C176.267 40.4493 174.95 42.1238 173.992 43.9706C173.206 45.3609 172.824 46.9434 172.89 48.5394C172.805 49.3656 172.921 50.2001 173.228 50.9719C173.588 51.9022 174.167 52.7319 174.916 53.3906C174.646 53.9661 174.308 54.5074 173.91 55.0031C172.587 56.6225 170.554 57.7596 169.176 59.3721C166.626 62.3283 166.722 66.3458 167.977 69.8188C169.231 73.2919 171.498 76.4549 173.062 79.8384C173.751 81.3062 174.275 82.9463 173.579 84.4072C173.09 85.4201 172.077 86.1919 171.291 87.0671C170.142 88.3556 169.42 89.9685 169.224 91.6841C153.712 95.2261 153.698 107.692 153.698 107.692L145.319 128.765C145.319 128.765 143.975 132.314 142.397 136.999L132.481 135.222L139.372 146.757C138.07 151.457 137.146 155.812 137.449 158.003C137.449 158.003 134.369 172.474 139.847 175.003L151.934 180.44C152.458 180.762 153.021 181.014 153.609 181.192L154.098 181.412C154.274 181.497 154.467 181.542 154.663 181.542C154.859 181.542 155.052 181.497 155.228 181.412H155.263H155.394C155.628 181.428 155.863 181.393 156.083 181.309C156.352 181.164 156.565 180.934 156.689 180.654C156.685 180.631 156.685 180.608 156.689 180.585L160.307 179.538L163.373 183.169C164.752 184.141 166.13 184.982 167.432 185.74L162.684 232.888C162.684 232.888 161.919 295.596 159.604 309.888C158.75 315.181 158.743 318.792 159.067 321.245L158.977 321.396C159.549 325.428 161.044 326.22 161.044 326.22V326.165C161.072 326.187 161.102 326.205 161.134 326.22C161.831 324.389 162.66 322.611 163.615 320.9C163.615 321.238 163.615 321.589 163.615 321.934C163.566 327.254 163.401 334.703 162.85 339.547C161.913 347.817 165.248 375.071 165.248 375.071L166.399 399.878C166.586 404.09 165.608 408.272 163.573 411.965C160.817 416.92 157.296 423.894 157.041 426.988C157.027 427.155 157.027 427.323 157.041 427.491V427.491L151.128 434.602C151.128 434.602 148.82 438.172 154.036 439.612C156.841 440.391 161.678 439.612 165.565 438.695C167.261 438.305 168.775 437.351 169.86 435.989C170.945 434.628 171.537 432.939 171.539 431.198C172.522 427.781 174.181 424.596 176.418 421.833L177.39 427.546L183.895 429.158L184.729 413.502C185.065 412.623 185.217 411.685 185.177 410.745V410.745C186.458 399.61 182.158 400.609 182.158 400.609C182.273 400.707 182.347 400.845 182.365 400.995L182.158 400.616C179.519 395.406 180.78 386.834 180.78 386.834C180.78 386.834 184.226 362.026 185.404 355.473C186.252 350.842 185.9 335.682 185.618 327.219C185.618 326.868 185.618 326.53 185.583 326.193C195.672 326.062 208.034 325.724 216.71 324.883V325.903L215.111 384.511C215.001 388.248 214.241 391.937 212.865 395.413C212.865 395.482 212.817 395.544 212.789 395.613C210.887 400.522 209.814 405.712 209.612 410.973L208.868 429.579V430.095C207.572 430.592 205.526 432.032 205.471 436.208C205.381 442.327 216.166 440.287 216.166 440.287C226.943 440.287 227.033 429.069 227.033 429.069C227.033 429.069 227.37 418.78 227.887 411.896C228.404 405.012 226.261 406.528 226.261 406.528L226.096 426.112C226.096 426.161 226.096 426.209 226.096 426.264V409.098L226.261 406.611V406.542V406.011L227.618 385.814C227.618 385.814 237.548 352.158 239.085 345.701C240.181 341.112 239.726 327.288 239.368 319.646C239.368 319.295 239.368 318.957 239.313 318.633C242.393 318.357 245.115 318.33 246.204 318.33H246.707C246.707 318.33 246.197 264.277 244.908 243.907C243.619 223.537 241.573 204.897 236.439 199.287C233.338 195.897 229.017 185.43 226.102 177.677C232.23 180.327 238.59 182.403 245.101 183.879C261.357 187.283 259.131 173.17 259.131 173.17L257.484 146.481H257.594C257.534 139.49 256.935 132.514 255.803 125.615C254.941 120.323 253.625 114.852 251.613 110.455C253.377 109.766 255.121 109.029 256.83 108.271C261.247 106.321 266.222 103.557 266.856 98.7956H266.642C266.728 98.4519 266.783 98.1014 266.808 97.7482V97.7482ZM166.04 136.338C166.075 139.094 165.971 143.877 165.806 149.162L160.645 142.271L165.82 133.878L166.04 136.338ZM237.349 160.76L228.749 158.003C230.274 155.624 232.055 153.419 234.062 151.429L234.806 150.74L234.537 150.795L234.951 150.416L235.199 150.361L234.806 150.74L235.274 150.644C235.792 152.804 236.793 154.819 238.203 156.536C241.29 159.905 237.355 160.76 237.355 160.76H237.349Z" fill="url(#paint0_linear)"/>
<path d="M185.107 408.83L184.101 427.904L177.686 426.299L176.335 418.367L185.107 408.83Z" fill="#A27772"/>
<path opacity="0.1" d="M185.107 408.83L184.101 427.904L177.686 426.299L176.335 418.367L185.107 408.83Z" fill="black"/>
<path d="M208.654 430.433L218.44 432.459L225.696 426.051V407.989L225.861 405.522V405.446V404.923L227.212 384.849C227.212 384.849 237.004 351.435 238.527 345.019C239.602 340.471 239.154 326.744 238.796 319.157C238.651 316.049 238.527 313.968 238.527 313.968L216.924 308.738L216.469 325.345L214.891 383.533C214.782 387.242 214.033 390.904 212.679 394.359L212.603 394.559C210.724 399.432 209.665 404.582 209.467 409.802L208.737 428.304V428.814L208.654 430.433Z" fill="#CC818C"/>
<path opacity="0.1" d="M208.654 430.433L218.44 432.459L225.696 426.05V424.514C225.672 424.854 225.565 425.183 225.383 425.471C225.202 425.76 224.952 425.999 224.655 426.168L224.552 426.23C221.181 428.011 217.362 428.766 213.568 428.4L209.75 428.076C209.402 428.109 209.061 428.193 208.737 428.324V428.834L208.654 430.433Z" fill="black"/>
<path d="M224.552 426.733L224.655 426.678C224.974 426.499 225.239 426.239 225.424 425.924C225.609 425.609 225.708 425.251 225.71 424.886L225.868 405.446C225.868 405.446 227.977 403.937 227.467 410.773C226.957 417.609 226.626 427.821 226.626 427.821C226.626 427.821 226.543 438.957 215.911 438.957C215.911 438.957 205.278 440.983 205.36 434.905C205.443 428.828 209.75 428.579 209.75 428.579L213.568 428.91C217.363 429.277 221.183 428.519 224.552 426.733Z" fill="#B07473"/>
<path d="M157.688 426.299C157.936 430.688 170.85 428.152 170.85 428.152L179.539 411.283C179.539 411.283 186.796 405.708 183.164 400.816C182.97 400.549 182.793 400.271 182.634 399.982C182.634 399.982 182.634 399.982 182.599 399.94C182.523 399.816 182.454 399.685 182.385 399.548C179.781 394.379 181.062 385.903 181.062 385.903C181.062 385.903 184.432 361.261 185.617 354.763C186.451 350.173 186.107 335.117 185.831 326.696C185.721 323.195 185.617 320.845 185.617 320.845L164.179 315.105C164.179 315.105 164.179 317.779 164.179 321.5C164.131 326.785 163.966 334.179 163.421 338.989C162.498 347.169 165.785 374.258 165.785 374.258L166.922 398.907C167.119 403.083 166.166 407.233 164.166 410.904C161.478 415.824 157.964 422.757 157.723 425.823C157.698 425.98 157.687 426.139 157.688 426.299V426.299Z" fill="#CC818C"/>
<path opacity="0.1" d="M157.688 426.299C157.936 430.688 170.85 428.152 170.85 428.152L179.54 411.283C179.54 411.283 186.796 405.708 183.164 400.815C182.97 400.549 182.793 400.271 182.634 399.982C182.516 402.538 179.712 408.94 179.712 408.94C179.712 408.94 172.538 423.294 170.257 426.581C167.976 429.868 158.067 425.968 157.695 425.83C157.681 425.986 157.678 426.142 157.688 426.299V426.299Z" fill="black"/>
<path d="M182.386 399.527C182.386 399.527 186.631 398.541 185.363 409.594C185.411 410.85 185.126 412.096 184.536 413.206C183.947 414.316 183.074 415.25 182.007 415.914C178.968 417.822 174.282 421.929 171.911 429.916C171.913 431.64 171.332 433.313 170.263 434.664C169.193 436.015 167.698 436.965 166.02 437.358C162.188 438.254 157.413 439.04 154.649 438.268C149.502 436.835 151.783 433.293 151.783 433.293L157.688 426.285C157.688 426.285 167.984 430.336 170.258 427.043C172.532 423.749 179.712 409.408 179.712 409.408C179.712 409.408 183.647 400.457 182.386 399.527Z" fill="#B07473"/>
<path opacity="0.1" d="M216.924 310.784L216.469 327.392C222.223 326.833 226.344 326.055 227.046 324.959C228.569 322.602 234.096 321.61 238.796 321.203C238.651 318.096 238.527 316.014 238.527 316.014L216.924 310.784Z" fill="black"/>
<path opacity="0.1" d="M164.18 323.519C164.73 322.394 165.54 321.416 166.543 320.666C168.817 319.405 168.569 328.77 168.569 328.77C168.569 328.77 176.149 328.839 185.831 328.715C185.721 325.214 185.618 322.857 185.618 322.857L164.18 317.124C164.18 317.124 164.221 319.784 164.18 323.519Z" fill="black"/>
<path d="M161.733 325.738C161.733 325.738 164.269 318.847 166.557 317.62C168.845 316.393 168.583 325.717 168.583 325.717C168.583 325.717 224.276 326.227 227.06 321.92C229.844 317.613 246.045 317.868 246.045 317.868C246.045 317.868 245.542 264.201 244.274 243.955C243.006 223.709 240.987 205.221 235.922 199.653C232.649 196.049 227.99 184.389 225.11 176.616C223.546 172.371 222.505 169.277 222.505 169.277L169.348 172.309L168.913 176.616L163.27 233.067C163.27 233.067 162.512 295.341 160.231 309.516C157.95 323.691 161.733 325.738 161.733 325.738Z" fill="#444053"/>
<g opacity="0.1">
<path opacity="0.1" d="M222.732 321.92C225.489 317.62 241.717 317.868 241.717 317.868C241.717 317.868 241.214 264.201 239.946 243.955C238.678 223.709 236.659 205.221 231.594 199.653C228.307 196.035 223.663 184.389 220.782 176.616C219.466 173.046 218.522 170.297 218.26 169.511L222.395 169.277C222.395 169.277 223.435 172.371 225.006 176.616C227.887 184.389 232.538 196.049 235.811 199.653C240.876 205.221 242.902 223.702 244.163 243.955C245.424 264.208 245.941 317.868 245.941 317.868C245.941 317.868 229.74 317.62 226.95 321.92C224.572 325.593 183.591 325.765 171.697 325.731C186.961 325.696 220.582 325.242 222.732 321.92Z" fill="black"/>
<path opacity="0.1" d="M162.229 317.62C163.256 317.048 163.766 318.633 164.021 320.556C163.101 322.224 162.302 323.955 161.63 325.738C161.63 325.738 160.162 324.945 159.562 320.914C160.403 319.474 161.333 318.116 162.229 317.62Z" fill="black"/>
</g>
<path d="M178.161 39.4294C174.481 44.4461 178.202 51.5783 174.254 56.4571C172.952 58.0696 170.946 59.2135 169.589 60.7985C167.073 63.734 167.17 67.724 168.403 71.1695C169.637 74.615 171.849 77.7573 173.42 81.1201C174.109 82.5741 174.619 84.2073 173.93 85.6544C173.448 86.6605 172.448 87.4254 171.67 88.2937C169.134 91.1259 169.065 95.0607 170.429 98.3959C171.794 101.731 174.399 104.598 176.969 107.423C177.982 108.533 179.264 109.759 180.952 109.725C181.84 109.657 182.698 109.376 183.453 108.905C189.3 105.919 193.769 100.793 195.93 94.594C198.092 88.3954 197.78 81.6019 195.058 75.628C192.922 70.5079 189.359 65.6015 189.325 60.1921C189.325 55.8989 191.53 51.7988 191.923 47.5264C192.398 42.3305 189.325 34.082 183.054 31.8148C183.467 35.1501 180.029 36.8522 178.161 39.4294Z" fill="#585268"/>
<path opacity="0.1" d="M178.161 39.4294C174.481 44.4461 178.202 51.5783 174.254 56.4571C172.952 58.0696 170.946 59.2135 169.589 60.7985C167.073 63.734 167.17 67.724 168.403 71.1695C169.637 74.615 171.849 77.7573 173.42 81.1201C174.109 82.5741 174.619 84.2073 173.93 85.6544C173.448 86.6605 172.448 87.4254 171.67 88.2937C169.134 91.1259 169.065 95.0607 170.429 98.3959C171.794 101.731 174.399 104.598 176.969 107.423C177.982 108.533 179.264 109.759 180.952 109.725C181.84 109.657 182.698 109.376 183.453 108.905C189.3 105.919 193.769 100.793 195.93 94.594C198.092 88.3954 197.78 81.6019 195.058 75.628C192.922 70.5079 189.359 65.6015 189.325 60.1921C189.325 55.8989 191.53 51.7988 191.923 47.5264C192.398 42.3305 189.325 34.082 183.054 31.8148C183.467 35.1501 180.029 36.8522 178.161 39.4294Z" fill="black"/>
<path opacity="0.1" d="M218.97 221.911C211.603 222.297 204.671 225.467 198.221 229.05C191.771 232.633 185.528 236.692 178.588 239.235" fill="black"/>
<path opacity="0.1" d="M214.395 239.269C207.108 239.964 200.317 243.268 195.272 248.572C193.48 250.467 191.937 252.59 190.069 254.409C187.211 257.199 183.678 259.2 179.815 260.218" fill="black"/>
<path opacity="0.1" d="M215.904 252.479C210.027 254.11 204.708 257.318 200.523 261.755C199.393 262.974 198.366 264.277 197.236 265.497C191.137 272.043 182.524 275.516 174.206 278.803" fill="black"/>
<path d="M215.276 69.2816C215.439 75.1681 215.945 81.04 216.792 86.8675C217.481 91.0021 218.446 94.7232 219.831 96.3702C223.883 101.194 200.088 107.637 200.088 107.637L186.038 96.7492C186.038 96.7492 197.173 86.4954 191.985 76.4965C186.796 66.4976 215.276 69.2816 215.276 69.2816Z" fill="#CC818C"/>
<path opacity="0.1" d="M168.9 176.616H225.096C223.532 172.371 222.491 169.277 222.491 169.277L169.334 172.309L168.9 176.616Z" fill="black"/>
<path d="M165.282 175.603H225.365C223.677 169.56 225.365 163.971 227.77 159.671C229.456 156.658 231.575 153.909 234.061 151.512L234.475 151.133L255.451 146.489L256.581 146.24C256.581 146.24 256.754 108.099 243.247 102.861C229.741 97.6243 221.644 90.5472 221.644 90.5472L203.086 96.2806L189.414 89.3895C185.025 94.1099 173.379 92.2562 173.379 92.2562C154.312 94.4475 154.312 108.795 154.312 108.795C154.312 108.795 165.447 134.781 166.295 134.781C167.143 134.781 165.282 175.603 165.282 175.603Z" fill="#0F79D1"/>
<path opacity="0.1" d="M186.024 151.353C186.024 151.353 173.772 148.638 169.603 143.891Z" fill="black"/>
<path opacity="0.1" d="M247.802 137.124L233.593 148.769C233.696 149.697 233.852 150.617 234.061 151.526L234.475 151.147L255.451 146.502L247.802 137.124Z" fill="black"/>
<path opacity="0.1" d="M209.33 171.551C209.33 171.551 212.437 173.301 217.199 175.603H225.365C223.677 169.56 225.365 163.971 227.77 159.671L213.375 155.013C218.274 159.568 209.33 171.551 209.33 171.551Z" fill="black"/>
<path d="M162.746 104.219L154.312 108.774L146.042 129.702C146.042 129.702 137.436 152.649 138.276 158.727C138.276 158.727 135.244 173.074 140.64 175.603L154.698 181.97C154.946 182.08 155.222 182.11 155.488 182.055C155.754 182.001 155.997 181.865 156.182 181.667C156.368 181.468 156.487 181.217 156.524 180.948C156.56 180.679 156.512 180.406 156.386 180.165C154.381 176.368 152.175 170.428 155.697 167.162L151.645 158.727L166.288 134.76L171.181 126.491L162.746 104.219Z" fill="#0F79D1"/>
<path opacity="0.1" d="M181.511 146.564C182.241 149.541 184.708 154.144 192.874 155.86L201.832 163.199L211.362 167.52L215.249 169.277L216.896 157.376L213.154 155.309L208.792 152.925C208.792 152.925 198.952 135.098 183.371 142.588C182.647 142.931 182.065 143.516 181.726 144.241C181.386 144.967 181.31 145.788 181.511 146.564Z" fill="black"/>
<path d="M182.021 145.551C182.751 148.535 185.211 153.131 193.377 154.847L202.335 162.186L211.872 166.507L215.752 168.264L217.399 156.363L213.657 154.296L209.33 151.932C209.33 151.932 199.482 134.105 183.902 141.63C183.185 141.968 182.607 142.542 182.264 143.256C181.922 143.971 181.836 144.781 182.021 145.551V145.551Z" fill="#CC818C"/>
<path opacity="0.1" d="M199.579 84.7174C211.601 84.7174 221.348 74.9712 221.348 62.9487C221.348 50.9261 211.601 41.1799 199.579 41.1799C187.556 41.1799 177.81 50.9261 177.81 62.9487C177.81 74.9712 187.556 84.7174 199.579 84.7174Z" fill="black"/>
<path d="M199.579 84.2144C211.601 84.2144 221.348 74.4682 221.348 62.4456C221.348 50.4231 211.601 40.6769 199.579 40.6769C187.556 40.6769 177.81 50.4231 177.81 62.4456C177.81 74.4682 187.556 84.2144 199.579 84.2144Z" fill="#CC818C"/>
<path opacity="0.1" d="M213.065 108.96L206.518 96.2392C206.518 96.2392 216.097 92.3664 216.793 87.8803C217.489 83.3943 225.971 93.1382 224.138 96.3701C222.305 99.602 213.065 108.96 213.065 108.96Z" fill="black"/>
<path d="M213.065 107.947L206.518 95.2262C206.518 95.2262 216.097 91.3534 216.793 86.8673C217.489 82.3813 225.971 92.1321 224.138 95.3571C222.305 98.5821 213.065 107.947 213.065 107.947Z" fill="#0F79D1"/>
<path d="M159.487 140.81L195.657 189.44C195.657 189.44 182.323 196.696 163.959 183.707L156.027 174.252L133.383 136.083L159.487 140.81Z" fill="#F6F8FB"/>
<path d="M152.369 167.251L155.663 167.162C155.663 167.162 175.784 147.632 180.725 157.514C185.666 167.396 168.19 176.63 168.19 176.63L162.877 179.496L155.952 181.564L151.521 175.617L152.369 167.251Z" fill="#CC818C"/>
<path opacity="0.1" d="M157.226 177.801C157.53 178.924 157.819 180.165 157.309 181.205C157.187 181.484 156.976 181.714 156.71 181.86C156.49 181.944 156.255 181.977 156.02 181.956C154.277 181.808 152.655 181.005 151.479 179.71C150.325 178.419 149.336 176.988 148.537 175.451C147.641 173.887 146.711 172.157 147.028 170.379C147.386 168.443 149.095 167.099 150.77 166.011C154.105 163.805 154.215 166.376 154.945 169.215C155.676 172.054 156.462 174.934 157.226 177.801Z" fill="black"/>
<path d="M156.724 177.801C157.02 178.924 157.316 180.165 156.806 181.205C156.684 181.484 156.473 181.714 156.207 181.86C155.987 181.944 155.752 181.977 155.518 181.956C153.774 181.811 152.15 181.008 150.976 179.71C149.817 178.421 148.826 176.99 148.027 175.451C147.131 173.887 146.201 172.157 146.525 170.379C146.876 168.443 148.592 167.099 150.26 166.011C153.602 163.805 153.705 166.376 154.443 169.215C155.18 172.054 155.952 174.934 156.724 177.801Z" fill="#0F79D1"/>
<path opacity="0.1" d="M166.295 134.76L167.976 131.914L166.509 137.199L166.295 134.76Z" fill="black"/>
<path opacity="0.1" d="M211.9 166.507L215.78 168.264L217.427 156.363L213.685 154.296C216.269 157.259 214.009 162.738 211.9 166.507Z" fill="black"/>
<path opacity="0.1" d="M227.474 152.69C227.474 152.69 214.946 153.455 209.626 150.037Z" fill="black"/>
<g opacity="0.1">
<path opacity="0.1" d="M225.916 160.684C227.602 157.669 229.722 154.917 232.208 152.518C232.804 152.144 233.423 151.808 234.061 151.512L253.591 147.502L254.721 147.253C254.721 147.253 254.893 109.112 241.393 103.874C233.821 100.995 226.723 96.9975 220.334 92.015L221.816 91.5602C221.816 91.5602 229.913 98.6442 243.419 103.874C256.926 109.105 256.747 147.253 256.747 147.253H254.721L234.737 151.078C234.737 151.078 233.875 151.912 233.613 152.153C231.107 154.663 228.958 157.506 227.225 160.601C224.581 165.511 223.979 171.266 225.551 176.616H223.484C221.816 170.573 223.539 164.984 225.916 160.684Z" fill="black"/>
<path opacity="0.1" d="M172.58 93.3587C172.903 93.3105 173.214 93.2622 173.551 93.2278C174.922 93.4221 176.302 93.5349 177.686 93.5654C175.981 93.6125 174.275 93.5434 172.58 93.3587V93.3587Z" fill="black"/>
<path opacity="0.1" d="M201.225 97.2935L188.863 91.0365C189.108 90.8353 189.338 90.6165 189.552 90.3818L202.452 96.9076L201.225 97.2935Z" fill="black"/>
</g>
<path d="M248.291 136.083L256.561 146.213L258.249 173.722C258.249 173.722 260.44 187.724 244.412 184.348C228.383 180.971 209.833 170.538 209.833 170.538C209.833 170.538 218.791 158.555 213.884 154L236.838 161.428C236.838 161.428 240.718 160.581 237.679 157.211C234.64 153.841 234.103 147.756 234.103 147.756L248.291 136.083Z" fill="#0F79D1"/>
<path opacity="0.1" d="M252.026 165.142L256.581 170.373C255.41 170.013 254.362 169.332 253.557 168.408C252.752 167.484 252.222 166.352 252.026 165.142V165.142Z" fill="black"/>
<path opacity="0.1" d="M244.26 164.295L251.351 173.405L247.809 174.252L244.26 164.295Z" fill="black"/>
<path opacity="0.1" d="M173.579 52.4536C172.8 50.5447 173.4 48.3189 174.337 46.5204C175.274 44.7218 176.563 43.0197 177.266 41.0834C178.306 38.2029 177.989 34.9435 179.126 32.125C181.132 27.129 186.83 24.8964 191.937 23.1667C193.446 22.6637 195.051 22.1606 196.595 22.5327C198.662 23.022 200.006 24.8963 201.694 26.1574C208.627 31.3257 219.9 25.6337 226.605 31.1052C229.169 33.1725 230.416 36.556 230.802 39.843C231.188 43.13 230.802 46.4653 230.761 49.7798C230.65 55.5821 231.739 61.9287 236.081 65.7739C237.39 66.9316 238.933 67.7999 240.215 68.9989C241.497 70.1979 242.503 71.8725 242.283 73.609C242.113 74.4064 241.883 75.1897 241.593 75.952C240.732 78.9771 242.021 82.1539 243.592 84.9103C248.278 93.021 256.54 99.7053 265.905 99.8914C265.278 104.619 260.392 107.361 256.016 109.298C250.503 111.772 244.632 114.197 238.561 113.887C232.49 113.577 226.158 109.69 225.096 103.709C224.731 101.642 224.779 99.154 223.029 98.079C221.954 97.4244 220.562 97.5898 219.404 97.1005C217.73 96.4114 216.903 94.5302 216.352 92.8005C215.222 89.2316 214.616 85.5177 214.553 81.7749C214.477 77.3371 215.063 72.4927 212.548 68.8404C210.219 65.4569 206.084 63.7411 203.396 60.6332C200.916 57.7528 198.221 54.2797 194.156 53.7422C188.532 52.9497 176.9 60.5919 173.579 52.4536Z" fill="black"/>
<path d="M173.579 51.4404C172.8 49.5316 173.4 47.3058 174.337 45.5072C175.274 43.7086 176.563 42.0066 177.266 40.0702C178.306 37.1897 177.989 33.9303 179.126 31.1119C181.132 26.109 186.83 23.8763 191.937 22.1535C193.446 21.6505 195.051 21.1474 196.595 21.5195C198.662 22.0088 200.006 23.8832 201.694 25.1442C208.627 30.3125 219.9 24.6205 226.605 30.092C229.169 32.1593 230.416 35.5428 230.802 38.8367C231.188 42.1306 230.802 45.4521 230.761 48.7667C230.65 54.5689 231.739 60.9155 236.081 64.7607C237.39 65.9184 238.933 66.7867 240.215 67.9857C241.497 69.1848 242.503 70.8593 242.282 72.5958C242.113 73.3932 241.883 74.1765 241.593 74.9388C240.732 77.9639 242.021 81.1407 243.592 83.8971C248.291 91.9803 256.519 98.6853 265.884 98.8713C265.257 103.599 260.371 106.341 255.996 108.284C250.483 110.751 244.612 113.177 238.541 112.867C232.47 112.557 226.137 108.67 225.076 102.689C224.71 100.622 224.759 98.134 223.008 97.059C221.933 96.4043 220.541 96.5697 219.384 96.0805C217.709 95.3913 216.882 93.5101 216.331 91.7804C215.201 88.2117 214.595 84.4977 214.532 80.7548C214.457 76.317 215.042 71.4726 212.527 67.8203C210.198 64.4369 206.063 62.721 203.376 59.6131C200.895 56.7327 198.201 53.2596 194.135 52.7221C188.532 51.9365 176.9 59.5925 173.579 51.4404Z" fill="#585268"/>
<path opacity="0.1" d="M189.028 107.382L201.508 97.2521C201.508 97.2521 192.963 92.6213 191.943 88.6728C190.923 84.7242 184.088 90.5471 184.784 94.0891C185.48 97.6311 189.028 107.382 189.028 107.382Z" fill="black"/>
<path d="M189.518 105.859L201.998 95.736C201.998 95.736 193.453 91.1052 192.474 87.1566C191.496 83.2081 184.619 89.031 185.315 92.573C186.01 96.115 189.518 105.859 189.518 105.859Z" fill="#0F79D1"/>
<path opacity="0.1" d="M202.487 105.204C203.035 105.204 203.479 104.76 203.479 104.212C203.479 103.664 203.035 103.22 202.487 103.22C201.939 103.22 201.495 103.664 201.495 104.212C201.495 104.76 201.939 105.204 202.487 105.204Z" fill="black"/>
<path opacity="0.1" d="M202.487 110.717C203.035 110.717 203.479 110.273 203.479 109.725C203.479 109.177 203.035 108.733 202.487 108.733C201.939 108.733 201.495 109.177 201.495 109.725C201.495 110.273 201.939 110.717 202.487 110.717Z" fill="black"/>
<path opacity="0.1" d="M202.487 116.223C203.035 116.223 203.479 115.779 203.479 115.231C203.479 114.683 203.035 114.239 202.487 114.239C201.939 114.239 201.495 114.683 201.495 115.231C201.495 115.779 201.939 116.223 202.487 116.223Z" fill="black"/>
<g opacity="0.1">
<path opacity="0.1" d="M178.616 37.3692C179.602 34.661 179.388 31.622 180.311 28.8932C179.884 29.4965 179.53 30.1489 179.257 30.8365C178.113 33.6825 178.437 36.9419 177.39 39.7948L177.321 39.9602C177.831 39.1381 178.265 38.2708 178.616 37.3692V37.3692Z" fill="black"/>
<path opacity="0.1" d="M257.346 105.583C251.833 108.05 245.962 110.476 239.891 110.166C233.82 109.856 227.487 105.969 226.426 99.9948C226.061 97.9275 226.109 95.4329 224.359 94.3579C223.284 93.7033 221.892 93.8686 220.734 93.3794C219.06 92.6903 218.233 90.809 217.681 89.0794C216.551 85.5106 215.945 81.7966 215.883 78.0537C215.807 73.6228 216.4 68.7784 213.885 65.1193C211.548 61.7358 207.414 60.0268 204.726 56.9121C202.246 54.0385 199.551 50.5585 195.485 50.021C189.911 49.263 178.258 56.9121 174.964 48.7669C174.435 47.2278 174.511 45.5451 175.178 44.0603C174.936 44.4669 174.702 44.8734 174.489 45.2869C173.551 47.1199 172.959 49.3182 173.737 51.227C177.052 59.3584 188.684 51.7162 194.259 52.4811C198.325 53.0324 201.019 56.5124 203.5 59.3722C206.187 62.4869 210.322 64.1959 212.651 67.5863C215.173 71.2385 214.58 76.0829 214.656 80.5138C214.719 84.2567 215.325 87.9707 216.455 91.5395C217.006 93.276 217.833 95.1366 219.508 95.8395C220.665 96.3287 222.057 96.1702 223.132 96.818C224.91 97.893 224.862 100.408 225.2 102.455C226.275 108.429 232.601 112.316 238.665 112.626C244.729 112.936 250.572 110.517 256.12 108.043C260.116 106.266 264.568 103.805 265.767 99.7742C263.851 102.393 260.461 104.198 257.346 105.583Z" fill="black"/>
</g>
<path opacity="0.1" d="M274.953 445.738C274.953 445.738 277.324 449.873 285.91 446.234Z" fill="black"/>
<defs>
<linearGradient id="paint0_linear" x1="94650.5" y1="329139" x2="94650.5" y2="72045.3" gradientUnits="userSpaceOnUse">
<stop stop-color="#808080" stop-opacity="0.25"/>
<stop offset="0.54" stop-color="#808080" stop-opacity="0.12"/>
<stop offset="1" stop-color="#808080" stop-opacity="0.1"/>
</linearGradient>
</defs>
</svg>
