<svg width="377" height="372" viewBox="0 0 377 372" fill="none" xmlns="http://www.w3.org/2000/svg">
<path d="M296.531 293.805V317.789L278.543 329.781L296.531 341.773V365.757H368.483V293.805H296.531Z" fill="#F4F4F4"/>
<path d="M234.976 91.1514C232.254 82.9849 225.365 76.9049 216.928 75.22L200.595 71.9522V65.9562H176.611V71.9522L160.278 75.22C151.835 76.9049 144.952 82.9909 142.23 91.1514L134.639 113.924H242.567L234.976 91.1514Z" fill="#92E0C0"/>
<path d="M234.976 91.1514C232.254 82.9849 225.365 76.9049 216.928 75.22L200.595 71.9522V65.9562H182.607V71.9522L198.94 75.22C207.382 76.9049 214.266 82.9909 216.988 91.1514L224.579 113.924H242.567L234.976 91.1514Z" fill="#48C397"/>
<path d="M176.611 71.9522C176.611 78.5778 181.978 83.9442 188.603 83.9442C195.229 83.9442 200.595 78.5778 200.595 71.9522V59.9602H176.611V71.9522Z" fill="#F9E0A6"/>
<path d="M188.603 65.9562C175.358 65.9562 164.619 55.2173 164.619 41.9721V29.9801C164.619 16.7349 175.358 5.99603 188.603 5.99603C201.848 5.99603 212.587 16.7349 212.587 29.9801V41.9721C212.587 55.2173 201.848 65.9562 188.603 65.9562Z" fill="#F9E0A6"/>
<path d="M188.603 5.99603C185.419 5.99603 182.391 6.6496 179.609 7.77685C188.393 11.3385 194.599 19.9188 194.599 29.9801V41.9721C194.599 52.0335 188.393 60.6138 179.609 64.1754C182.391 65.3026 185.419 65.9562 188.603 65.9562C201.848 65.9562 212.587 55.2173 212.587 41.9721V29.9801C212.587 16.7349 201.848 5.99603 188.603 5.99603Z" fill="#EABD8C"/>
<path d="M360.893 91.1514C358.17 82.9849 351.281 76.9049 342.845 75.22L326.511 71.9522V65.9562H302.527V71.9522L286.194 75.22C277.752 76.9049 270.868 82.9909 268.146 91.1514L260.555 113.924H368.483L360.893 91.1514Z" fill="#92E0C0"/>
<path d="M360.892 91.1514C358.17 82.9849 351.281 76.9049 342.844 75.22L326.511 71.9522V65.9562H308.523V71.9522L324.856 75.22C333.299 76.9049 340.182 82.9909 342.904 91.1514L350.495 113.924H368.483L360.892 91.1514Z" fill="#48C397"/>
<path d="M302.527 71.9522C302.527 78.5778 307.894 83.9442 314.519 83.9442C321.145 83.9442 326.511 78.5778 326.511 71.9522V59.9602H302.527V71.9522Z" fill="#F9E0A6"/>
<path d="M314.519 65.9562C301.274 65.9562 290.535 55.2173 290.535 41.9721V29.9801C290.535 16.7349 301.274 5.99603 314.519 5.99603C327.764 5.99603 338.503 16.7349 338.503 29.9801V41.9721C338.503 55.2173 327.764 65.9562 314.519 65.9562Z" fill="#F9E0A6"/>
<path d="M314.519 5.99603C311.335 5.99603 308.307 6.6496 305.525 7.77685C314.309 11.3385 320.515 19.9188 320.515 29.9801V41.9721C320.515 52.0335 314.309 60.6138 305.525 64.1754C308.307 65.3026 311.335 65.9562 314.519 65.9562C327.764 65.9562 338.503 55.2173 338.503 41.9721V29.9801C338.503 16.7349 327.764 5.99603 314.519 5.99603Z" fill="#EABD8C"/>
<path d="M242.567 365.757H134.639C124.703 365.757 116.651 357.704 116.651 347.769V155.896C116.651 145.961 124.703 137.908 134.639 137.908H242.567C252.502 137.908 260.555 145.961 260.555 155.896V347.769C260.555 357.704 252.502 365.757 242.567 365.757Z" fill="#8C95A4"/>
<path d="M260.555 173.884H116.651V317.789H260.555V173.884Z" fill="#39C3FC"/>
<path d="M260.555 299.801H116.651V317.789H260.555V299.801Z" fill="#148CE0"/>
<path d="M188.603 245.837C198.538 245.837 206.591 237.783 206.591 227.849C206.591 217.914 198.538 209.861 188.603 209.861C178.669 209.861 170.615 217.914 170.615 227.849C170.615 237.783 178.669 245.837 188.603 245.837Z" fill="#F9E0A6"/>
<path d="M218.583 281.813H158.623V275.817C158.623 259.262 172.048 245.837 188.603 245.837C205.158 245.837 218.583 259.262 218.583 275.817V281.813Z" fill="#FCD770"/>
<path d="M80.6746 149.9V173.884L98.6627 185.876L80.6746 197.868V221.853H8.72241V149.9H80.6746Z" fill="#F4F4F4"/>
<path d="M80.6746 203.865H8.72241V221.853H80.6746V203.865Z" fill="#E2E2E2"/>
<path d="M109.06 91.1514C106.338 82.9849 99.4482 76.9049 91.0118 75.22L74.6786 71.9522V65.9562H50.6945V71.9522L34.3614 75.22C25.919 76.9049 19.0356 82.9909 16.3134 91.1514L8.72241 113.924H116.651L109.06 91.1514Z" fill="#92E0C0"/>
<path d="M109.06 91.1514C106.337 82.9849 99.448 76.9049 91.0116 75.22L74.6785 71.9522V65.9562H56.6904V71.9522L73.0236 75.22C81.466 76.9049 88.3494 82.9909 91.0716 91.1514L98.6626 113.924H116.651L109.06 91.1514Z" fill="#48C397"/>
<path d="M50.6948 71.9522C50.6948 78.5778 56.0613 83.9442 62.6869 83.9442C69.3125 83.9442 74.6789 78.5778 74.6789 71.9522V59.9602H50.6948V71.9522Z" fill="#F9E0A6"/>
<path d="M62.6867 65.9562C49.4415 65.9562 38.7026 55.2173 38.7026 41.9721V29.9801C38.7026 16.7349 49.4415 5.99603 62.6867 5.99603C75.9319 5.99603 86.6708 16.7349 86.6708 29.9801V41.9721C86.6708 55.2173 75.9319 65.9562 62.6867 65.9562Z" fill="#F9E0A6"/>
<path d="M62.6864 5.99603C59.5025 5.99603 56.4745 6.6496 53.6924 7.77685C62.4765 11.3385 68.6824 19.9188 68.6824 29.9801V41.9721C68.6824 52.0335 62.4765 60.6138 53.6924 64.1754C56.4745 65.3026 59.5025 65.9562 62.6864 65.9562C75.9316 65.9562 86.6705 55.2173 86.6705 41.9721V29.9801C86.6705 16.7349 75.9316 5.99603 62.6864 5.99603Z" fill="#EABD8C"/>
<path d="M242.567 131.912H134.639C121.411 131.912 110.655 142.669 110.655 155.896V347.769C110.655 360.996 121.411 371.753 134.639 371.753H242.567C255.794 371.753 266.551 360.996 266.551 347.769V155.896C266.551 142.669 255.794 131.912 242.567 131.912ZM134.639 143.904H242.567C249.181 143.904 254.559 149.283 254.559 155.896V167.888H122.647V155.896C122.647 149.283 128.025 143.904 134.639 143.904ZM254.559 179.88V311.793H122.647V179.88H254.559ZM242.567 359.761H134.639C128.025 359.761 122.647 354.383 122.647 347.769V323.785H254.559V347.769C254.559 354.383 249.181 359.761 242.567 359.761Z" fill="black"/>
<path d="M224.579 287.809V275.817C224.579 262.266 217.042 250.454 205.949 244.32C210.039 240.014 212.587 234.24 212.587 227.849C212.587 214.621 201.83 203.865 188.603 203.865C175.376 203.865 164.619 214.621 164.619 227.849C164.619 234.24 167.167 240.014 171.256 244.32C160.164 250.454 152.627 262.266 152.627 275.817V287.809H224.579ZM176.611 227.849C176.611 221.235 181.989 215.857 188.603 215.857C195.216 215.857 200.595 221.235 200.595 227.849C200.595 234.462 195.216 239.841 188.603 239.841C181.989 239.841 176.611 234.462 176.611 227.849ZM188.603 251.833C201.83 251.833 212.587 262.589 212.587 275.817H164.619C164.619 262.589 175.376 251.833 188.603 251.833Z" fill="black"/>
<path d="M290.535 314.581L267.732 329.781L290.535 344.981V371.753H374.479V287.809H290.535V314.581ZM302.527 299.801H362.487V359.761H302.527V338.565L289.354 329.781L302.527 320.997V299.801Z" fill="black"/>
<path d="M86.6706 143.904H2.72632V227.849H86.6706V201.076L109.473 185.876L86.6706 170.677V143.904ZM87.8518 185.876L74.6785 194.661V215.857H14.7184V155.896H74.6785V177.092L87.8518 185.876Z" fill="black"/>
<path d="M240.666 89.2567C237.272 79.0755 228.626 71.4426 218.103 69.3439L206.591 67.0415V65.9622H206.399C213.75 60.4938 218.583 51.8176 218.583 41.9721V29.9801C218.583 13.4491 205.134 0 188.603 0C172.072 0 158.623 13.4491 158.623 29.9801V41.9721C158.623 51.8176 163.455 60.4938 170.807 65.9622H170.609V67.0415L159.102 69.3439C148.579 71.4485 139.933 79.0755 136.539 89.2567L126.316 119.92H250.883L240.666 89.2567ZM170.615 29.9801C170.615 20.0627 178.685 11.992 188.603 11.992C198.52 11.992 206.591 20.0627 206.591 29.9801V41.9721C206.591 51.8895 198.52 59.9602 188.603 59.9602C178.685 59.9602 170.615 51.8895 170.615 41.9721V29.9801ZM188.603 71.9522C190.653 71.9522 192.656 71.7423 194.599 71.3466V71.9702C194.587 75.268 191.901 77.9482 188.603 77.9482C185.299 77.9482 182.607 75.262 182.607 71.9522V71.3466C184.543 71.7423 186.552 71.9522 188.603 71.9522ZM142.961 107.928L147.92 93.0522C149.952 86.9363 155.145 82.3673 161.459 81.1021L172.048 78.9795C174.788 85.4133 181.174 89.9403 188.603 89.9403C196.032 89.9403 202.418 85.4133 205.158 78.9795L215.753 81.1021C222.067 82.3673 227.253 86.9423 229.286 93.0522L234.244 107.928H142.961Z" fill="black"/>
<path d="M366.583 89.2567C363.189 79.0755 354.543 71.4426 344.02 69.3439L332.507 67.0415V65.9622H332.315C339.667 60.4938 344.499 51.8176 344.499 41.9721V29.9801C344.499 13.4491 331.05 0 314.519 0C297.988 0 284.539 13.4491 284.539 29.9801V41.9721C284.539 51.8176 289.372 60.4938 296.723 65.9622H296.525V67.0415L285.019 69.3439C274.496 71.4485 265.85 79.0755 262.456 89.2567L252.233 119.92H376.8L366.583 89.2567ZM296.531 29.9801C296.531 20.0627 304.602 11.992 314.519 11.992C324.437 11.992 332.507 20.0627 332.507 29.9801V41.9721C332.507 51.8895 324.437 59.9602 314.519 59.9602C304.602 59.9602 296.531 51.8895 296.531 41.9721V29.9801ZM314.519 71.9522C316.57 71.9522 318.573 71.7423 320.515 71.3466V71.9702C320.503 75.268 317.817 77.9482 314.519 77.9482C311.215 77.9482 308.523 75.262 308.523 71.9522V71.3466C310.46 71.7423 312.469 71.9522 314.519 71.9522ZM268.878 107.928L273.836 93.0522C275.869 86.9363 281.062 82.3673 287.375 81.1021L297.964 78.9795C300.704 85.4133 307.09 89.9403 314.519 89.9403C321.948 89.9403 328.334 85.4133 331.074 78.9795L341.669 81.1021C347.983 82.3673 353.17 86.9423 355.202 93.0522L360.161 107.928H268.878Z" fill="black"/>
<path d="M114.75 89.2567C111.356 79.0755 102.71 71.4426 92.1869 69.3439L80.6746 67.0415V65.9622H80.4827C87.8338 60.4938 92.6666 51.8176 92.6666 41.9721V29.9801C92.6666 13.4491 79.2176 0 62.6865 0C46.1555 0 32.7064 13.4491 32.7064 29.9801V41.9721C32.7064 51.8176 37.5392 60.4938 44.8904 65.9622H44.6925V67.0415L33.1861 69.3439C22.6631 71.4485 14.0169 79.0755 10.6231 89.2567L0.399902 119.92H124.967L114.75 89.2567ZM44.6985 29.9801C44.6985 20.0627 52.7691 11.992 62.6865 11.992C72.6039 11.992 80.6746 20.0627 80.6746 29.9801V41.9721C80.6746 51.8895 72.6039 59.9602 62.6865 59.9602C52.7691 59.9602 44.6985 51.8895 44.6985 41.9721V29.9801ZM62.6865 71.9522C64.7372 71.9522 66.7398 71.7423 68.6825 71.3466V71.9702C68.6706 75.268 65.9843 77.9482 62.6865 77.9482C59.3827 77.9482 56.6905 75.262 56.6905 71.9522V71.3466C58.6272 71.7423 60.6359 71.9522 62.6865 71.9522ZM17.0448 107.928L22.0036 93.0522C24.0362 86.9363 29.2288 82.3673 35.5426 81.1021L46.1315 78.9795C48.8717 85.4133 55.2575 89.9403 62.6865 89.9403C70.1156 89.9403 76.5014 85.4133 79.2415 78.9795L89.8365 81.1021C96.1503 82.3673 101.337 86.9423 103.37 93.0522L108.328 107.928H17.0448Z" fill="black"/>
<path d="M38.7025 179.88H26.7104V191.872H38.7025V179.88Z" fill="black"/>
<path d="M62.6864 179.88H50.6943V191.872H62.6864V179.88Z" fill="black"/>
<path d="M326.433 323.785H314.441V335.777H326.433V323.785Z" fill="black"/>
<path d="M350.417 323.785H338.425V335.777H350.417V323.785Z" fill="black"/>
</svg>
