<svg width="36" height="36" viewBox="0 0 36 36" fill="none" xmlns="http://www.w3.org/2000/svg">
<path d="M30.7266 0H5.27344C2.36563 0 0 2.36563 0 5.27344V30.7266C0 33.6344 2.36563 36 5.27344 36H30.7266C33.6344 36 36 33.6344 36 30.7266V5.27344C36 2.36563 33.6344 0 30.7266 0ZM33.8906 30.7266C33.8906 32.4712 32.4712 33.8906 30.7266 33.8906H5.27344C3.52881 33.8906 2.10938 32.4712 2.10938 30.7266V5.27344C2.10938 3.52881 3.52881 2.10938 5.27344 2.10938H30.7266C32.4712 2.10938 33.8906 3.52881 33.8906 5.27344V30.7266Z" fill="#CCCCCC"/>
</svg>
