<svg width="989" height="914" viewBox="0 0 989 914" fill="none" xmlns="http://www.w3.org/2000/svg">
<path d="M555.66 97.1315C721.563 81.0009 787.113 171.949 796.118 183.255C924.526 371.438 857.759 562.689 570.301 756.109C282.843 949.528 19.3302 622.99 192.39 455.703C301.055 350.662 389.758 113.262 555.66 97.1315Z" fill="#0F79D1"/>
<path d="M679.861 584.796L441.619 469.095C434.875 465.819 423.075 466.259 415.337 470.003L253.11 548.773C245.338 552.616 244.478 558.289 251.222 561.537L333.136 601.248C326.912 601.619 320.854 603.103 315.367 605.602C302.892 611.672 302.892 621.501 315.367 627.556C327.842 633.612 348.073 633.612 360.548 627.556C365.605 625.117 368.521 622.082 369.516 618.919L388.87 628.322C384.995 629.031 381.268 630.221 377.81 631.854C365.065 638.037 365.065 648.064 377.81 654.248C390.555 660.432 411.173 660.432 423.901 654.248C426.771 652.937 429.255 651.1 431.167 648.873L489.463 677.237C496.206 680.514 508.007 680.075 515.762 676.33L677.972 597.561C685.761 593.745 686.604 588.073 679.861 584.796Z" fill="#B2D3EA"/>
<path d="M744.435 346.793L496.331 226.285C495.088 225.629 493.688 225.211 492.231 225.062C490.774 224.912 489.296 225.035 487.902 225.42L487.447 225.562H487.345L478.377 228.398L486.418 231.717C486.418 231.844 486.334 231.957 486.3 232.085L445.908 386.901C443.885 394.645 447.931 403.694 454.961 407.097L697.096 524.713L696.237 533.35L706.032 530.159C709.403 528.854 711.966 525.905 713.061 521.749L753.521 366.989C755.511 359.246 751.465 350.211 744.435 346.793Z" fill="#173D7A"/>
<path d="M744.453 346.793L496.35 226.285C495.106 225.629 493.707 225.211 492.25 225.062C490.793 224.912 489.315 225.035 487.921 225.42L487.465 225.562H487.364L478.395 228.398L486.437 231.717C486.437 231.844 486.353 231.957 486.319 232.085L459.717 334.199L581.096 413.763L752.292 355.119C750.864 351.682 748.103 348.75 744.453 346.793Z" fill="#396CAA"/>
<path d="M735.108 370.59L754.006 363.824C754.343 357.67 751.326 351.302 746.352 347.912L716.446 358.492L735.108 370.59Z" fill="#274F89"/>
<path d="M687.657 532.531L439.536 411.98C432.524 408.562 428.478 399.528 430.5 391.783L470.96 237.025C472.899 229.252 480.266 225.806 487.279 229.252L735.382 349.803C742.412 353.221 746.458 362.256 744.436 370L703.976 524.759C702.004 532.432 694.67 535.935 687.657 532.531Z" fill="#D4ECFF"/>
<path d="M682.289 521.01L448.936 407.734C442.513 404.614 438.822 396.388 440.659 389.296L477.646 247.684C479.501 240.593 486.193 237.388 492.616 240.507L725.969 353.726C732.392 356.847 736.084 365.073 734.246 372.164L697.26 513.79C695.439 520.925 688.695 524.13 682.289 521.01Z" fill="white"/>
<path d="M682.289 521.01L448.936 407.734C442.513 404.614 438.822 396.388 440.659 389.296L477.646 247.684C479.501 240.593 486.193 237.388 492.616 240.507L725.969 353.726C732.392 356.847 736.084 365.073 734.246 372.164L697.26 513.79C695.439 520.925 688.695 524.13 682.289 521.01Z" fill="white"/>
<path d="M691.088 537.78L657.169 534.007L438.247 427.639C431.217 424.221 418.961 424.647 410.852 428.589L255.756 503.913L235.206 501.671V511.486C235.071 513.74 236.604 515.925 239.909 517.528L488.029 638.078C495.042 641.496 507.299 641.071 515.407 637.128L684.361 555.097C688.913 552.884 691.189 550.034 691.105 547.353L691.088 537.78Z" fill="#173D7A"/>
<path d="M526.584 470.585L511.041 463.04H340.03L255.739 503.956L235.206 501.673V511.487C235.071 513.742 236.604 515.926 239.909 517.529L488.029 638.081C492.39 639.941 497.292 640.714 502.157 640.307L526.584 470.585Z" fill="#396CAA"/>
<path d="M490.532 638.989C498.19 641.081 506.506 640.645 513.796 637.77V615.943H490.532V638.989Z" fill="#274F89"/>
<path d="M488.064 628.239L239.944 507.687C232.913 504.382 233.79 498.355 241.933 494.454L410.87 412.423C418.979 408.48 431.235 408.055 438.264 411.459L686.368 532.01C693.398 535.414 692.505 541.371 684.413 545.313L515.425 627.288C507.316 631.216 495.06 631.642 488.064 628.239Z" fill="#D4ECFF"/>
<path d="M345.444 468.519L334.216 463.059C333.307 462.619 333.424 461.853 334.47 461.357L347.72 454.918C348.251 454.665 348.846 454.522 349.455 454.5C350.064 454.477 350.672 454.577 351.227 454.79L362.454 460.251C363.365 460.69 363.247 461.442 362.201 461.953L348.951 468.391C348.419 468.641 347.825 468.782 347.216 468.804C346.607 468.827 346 468.729 345.444 468.519Z" fill="#173D7A"/>
<path d="M362.798 476.922L351.519 471.476C350.626 471.037 350.727 470.271 351.772 469.76L365.006 463.336C365.54 463.083 366.137 462.939 366.749 462.917C367.362 462.894 367.971 462.994 368.529 463.207L379.757 468.654C380.65 469.093 380.532 469.859 379.504 470.37L366.254 476.808C365.726 477.047 365.14 477.181 364.541 477.201C363.942 477.221 363.346 477.126 362.798 476.922Z" fill="#173D7A"/>
<path d="M380.175 485.356L368.964 479.911C368.054 479.47 368.172 478.704 369.2 478.194L382.451 471.755C382.988 471.508 383.585 471.369 384.196 471.349C384.808 471.33 385.417 471.43 385.974 471.642L397.202 477.088C398.096 477.528 397.994 478.294 396.949 478.804L383.648 485.215C383.121 485.463 382.534 485.605 381.931 485.63C381.329 485.654 380.727 485.561 380.175 485.356Z" fill="#173D7A"/>
<path d="M404.157 477.723L392.93 472.264C392.02 471.823 392.138 471.057 393.183 470.562L404.309 465.158C404.84 464.905 405.435 464.762 406.044 464.74C406.653 464.717 407.261 464.817 407.816 465.03L418.993 470.491C419.903 470.93 419.785 471.682 418.74 472.193L407.613 477.596C407.089 477.842 406.503 477.981 405.903 478.003C405.303 478.026 404.705 477.93 404.157 477.723Z" fill="#173D7A"/>
<path d="M421.461 486.143L410.233 480.697C409.34 480.257 409.44 479.491 410.486 478.995L421.612 473.591C422.147 473.339 422.744 473.195 423.356 473.172C423.968 473.15 424.578 473.25 425.136 473.463L436.347 478.91C437.257 479.349 437.139 480.115 436.094 480.626L424.984 486.029C424.448 486.277 423.849 486.416 423.238 486.436C422.627 486.455 422.019 486.355 421.461 486.143Z" fill="#173D7A"/>
<path d="M438.76 494.56L427.549 489.115C426.639 488.674 426.757 487.909 427.802 487.399L438.911 481.995C439.448 481.748 440.046 481.608 440.657 481.589C441.269 481.569 441.878 481.669 442.435 481.881L453.662 487.37C454.556 487.809 454.455 488.575 453.41 489.086L442.283 494.489C441.743 494.731 441.143 494.862 440.532 494.874C439.92 494.887 439.314 494.779 438.76 494.56Z" fill="#173D7A"/>
<path d="M456.15 502.97L444.922 497.51C444.013 497.084 444.13 496.318 445.175 495.808L456.302 490.404C456.834 490.155 457.429 490.013 458.037 489.991C458.646 489.969 459.253 490.067 459.809 490.276L471.036 495.737C471.947 496.176 471.828 496.942 470.783 497.439L459.657 502.842C459.126 503.095 458.532 503.239 457.922 503.261C457.312 503.283 456.705 503.183 456.15 502.97Z" fill="#173D7A"/>
<path d="M473.448 511.487L462.219 506.026C461.326 505.587 461.444 504.821 462.472 504.324L473.599 498.921C474.133 498.668 474.731 498.524 475.343 498.503C475.955 498.481 476.565 498.58 477.122 498.794L488.35 504.254C489.244 504.68 489.126 505.446 488.097 505.955L476.97 511.36C476.437 511.612 475.839 511.755 475.227 511.778C474.615 511.8 474.005 511.701 473.448 511.487Z" fill="#173D7A"/>
<path d="M490.829 519.82L479.669 514.317C478.758 513.877 478.877 513.111 479.922 512.601L491.032 507.211C491.565 506.958 492.163 506.815 492.775 506.793C493.387 506.771 493.997 506.87 494.555 507.084L505.783 512.53C506.676 512.97 506.575 513.736 505.53 514.246L494.403 519.65C493.866 519.915 493.262 520.07 492.64 520.098C492.019 520.128 491.398 520.033 490.829 519.82Z" fill="#173D7A"/>
<path d="M508.136 528.252L496.908 522.834C496.015 522.395 496.116 521.629 497.161 521.118L508.305 515.743C508.838 515.495 509.433 515.356 510.042 515.337C510.65 515.317 511.257 515.418 511.811 515.63L523.038 521.075C523.949 521.515 523.831 522.281 522.786 522.791L511.677 528.181C511.135 528.427 510.531 528.562 509.916 528.575C509.301 528.587 508.691 528.476 508.136 528.252Z" fill="#173D7A"/>
<path d="M525.503 536.675L514.276 531.215C513.383 530.776 513.5 530.024 514.529 529.513L525.655 524.11C526.189 523.857 526.786 523.713 527.398 523.691C528.011 523.668 528.621 523.768 529.179 523.982L540.406 529.442C541.3 529.882 541.182 530.647 540.153 531.144L529.027 536.547C528.493 536.8 527.896 536.944 527.284 536.966C526.671 536.989 526.062 536.889 525.503 536.675Z" fill="#173D7A"/>
<path d="M542.826 545.092L531.598 539.631C530.688 539.192 530.805 538.426 531.851 537.929L542.977 532.526C543.508 532.273 544.103 532.13 544.712 532.108C545.322 532.086 545.929 532.186 546.484 532.399L557.711 537.859C558.622 538.285 558.504 539.051 557.459 539.561L546.332 544.964C545.8 545.214 545.206 545.355 544.597 545.378C543.988 545.4 543.382 545.302 542.826 545.092Z" fill="#173D7A"/>
<path d="M560.129 553.497L548.901 548.05C548.008 547.611 548.108 546.845 549.153 546.334L560.28 540.931C560.817 540.683 561.414 540.544 562.026 540.524C562.637 540.505 563.246 540.605 563.804 540.817L575.014 546.263C575.925 546.703 575.807 547.469 574.762 547.979L563.652 553.383C563.116 553.631 562.517 553.769 561.906 553.789C561.295 553.809 560.686 553.709 560.129 553.497Z" fill="#173D7A"/>
<path d="M429.64 473.745L418.412 468.285C417.519 467.845 417.62 467.079 418.665 466.583L429.791 461.18C430.323 460.927 430.917 460.783 431.526 460.761C432.136 460.739 432.743 460.838 433.299 461.052L444.526 466.512C445.436 466.937 445.318 467.703 444.273 468.214L433.163 473.617C432.628 473.868 432.031 474.009 431.42 474.031C430.808 474.053 430.199 473.955 429.64 473.745Z" fill="#396CAA"/>
<path d="M412.07 465.189L400.843 459.742C399.95 459.303 400.067 458.537 401.096 458.026L412.222 452.623C412.759 452.375 413.357 452.236 413.968 452.216C414.58 452.196 415.189 452.297 415.746 452.51L426.973 457.955C427.867 458.395 427.749 459.161 426.721 459.657L415.594 465.06C415.06 465.314 414.463 465.457 413.851 465.479C413.239 465.502 412.629 465.402 412.07 465.189Z" fill="#396CAA"/>
<path d="M394.469 456.622L370.294 444.822C369.384 444.396 369.502 443.63 370.547 443.12L381.656 437.73C382.192 437.48 382.789 437.339 383.4 437.317C384.012 437.294 384.621 437.393 385.18 437.602L409.355 449.346C410.265 449.786 410.147 450.552 409.102 451.062L397.975 456.466C397.446 456.719 396.853 456.866 396.244 456.893C395.636 456.92 395.027 456.827 394.469 456.622Z" fill="#173D7A"/>
<path d="M406.783 446.234L387.16 436.704C386.25 436.279 386.368 435.513 387.413 435.002L398.522 429.599C399.058 429.348 399.655 429.207 400.266 429.185C400.878 429.163 401.487 429.261 402.046 429.471L421.669 439.002C422.562 439.441 422.461 440.207 421.416 440.718L410.29 446.121C409.756 446.368 409.161 446.508 408.552 446.527C407.943 446.547 407.338 446.447 406.783 446.234Z" fill="#173D7A"/>
<path d="M447.02 482.148L435.843 476.702C434.95 476.262 435.068 475.496 436.096 474.985L447.222 469.596C447.757 469.343 448.354 469.2 448.966 469.178C449.578 469.156 450.188 469.256 450.746 469.469L461.973 474.915C462.867 475.355 462.749 476.12 461.72 476.631L450.594 482.034C450.051 482.289 449.445 482.432 448.823 482.452C448.202 482.471 447.584 482.367 447.02 482.148Z" fill="#396CAA"/>
<path d="M464.33 490.582L453.102 485.136C452.192 484.697 452.309 483.931 453.354 483.42L464.481 478.017C465.015 477.769 465.61 477.63 466.218 477.61C466.827 477.59 467.433 477.691 467.988 477.903L479.215 483.349C480.126 483.789 480.008 484.554 478.963 485.051L467.836 490.454C467.305 490.707 466.711 490.851 466.101 490.873C465.491 490.896 464.884 490.796 464.33 490.582Z" fill="#173D7A"/>
<path d="M481.696 498.996L470.468 493.536C469.575 493.096 469.676 492.344 470.721 491.834L481.847 486.43C482.382 486.177 482.979 486.034 483.591 486.012C484.204 485.99 484.813 486.089 485.371 486.303L496.531 491.763C497.442 492.203 497.324 492.969 496.279 493.465L485.169 498.869C484.641 499.115 484.052 499.255 483.45 499.276C482.848 499.298 482.247 499.202 481.696 498.996Z" fill="#173D7A"/>
<path d="M498.996 507.43L487.786 501.969C486.876 501.53 486.994 500.764 488.022 500.267L499.148 494.864C499.682 494.611 500.279 494.467 500.892 494.445C501.504 494.423 502.114 494.523 502.672 494.736L513.899 500.196C514.793 500.622 514.692 501.388 513.647 501.898L502.52 507.302C501.985 507.552 501.388 507.693 500.776 507.715C500.165 507.738 499.556 507.639 498.996 507.43Z" fill="#173D7A"/>
<path d="M516.322 515.833L505.094 510.387C504.185 509.947 504.302 509.181 505.347 508.671L516.473 503.267C517.007 503.02 517.602 502.88 518.211 502.861C518.82 502.842 519.426 502.942 519.981 503.154L531.208 508.642C532.118 509.082 532 509.848 530.955 510.358L519.829 515.762C519.291 516.002 518.694 516.134 518.085 516.147C517.476 516.159 516.873 516.052 516.322 515.833Z" fill="#173D7A"/>
<path d="M533.689 524.25L522.46 518.804C521.567 518.365 521.668 517.599 522.713 517.088L533.84 511.684C534.377 511.437 534.974 511.298 535.586 511.279C536.197 511.259 536.806 511.359 537.364 511.571L548.591 517.017C549.485 517.457 549.367 518.223 548.338 518.719L537.212 524.123C536.678 524.376 536.08 524.519 535.468 524.542C534.856 524.563 534.246 524.464 533.689 524.25Z" fill="#173D7A"/>
<path d="M551.005 532.76L539.777 527.3C538.867 526.86 538.985 526.094 540.03 525.598L551.14 520.194C551.674 519.941 552.271 519.798 552.883 519.775C553.495 519.754 554.105 519.853 554.664 520.067L565.891 525.527C566.784 525.967 566.683 526.718 565.638 527.229L554.512 532.633C553.98 532.886 553.386 533.028 552.776 533.051C552.167 533.073 551.56 532.973 551.005 532.76Z" fill="#173D7A"/>
<path d="M568.368 541.092L557.207 535.589C556.313 535.15 556.415 534.384 557.46 533.887L568.586 528.484C569.117 528.231 569.712 528.087 570.322 528.066C570.931 528.044 571.538 528.143 572.093 528.357L583.32 533.802C584.231 534.242 584.113 535.008 583.067 535.518L571.941 540.922C571.405 541.188 570.801 541.341 570.179 541.371C569.557 541.401 568.936 541.305 568.368 541.092Z" fill="#173D7A"/>
<path d="M585.675 549.524L574.447 544.107C573.554 543.667 573.672 542.901 574.7 542.391L585.844 537.016C586.38 536.768 586.978 536.629 587.59 536.609C588.201 536.589 588.809 536.689 589.367 536.902L600.595 542.348C601.488 542.788 601.37 543.553 600.342 544.064L589.216 549.467C588.671 549.709 588.068 549.839 587.453 549.849C586.839 549.859 586.23 549.747 585.675 549.524Z" fill="#173D7A"/>
<path d="M616.503 564.5L592.025 552.616C591.115 552.176 591.233 551.41 592.261 550.899L603.387 545.496C603.924 545.248 604.521 545.109 605.133 545.09C605.744 545.07 606.353 545.17 606.911 545.382L631.372 557.267C632.265 557.707 632.165 558.458 631.119 558.969L619.993 564.373C619.463 564.621 618.872 564.762 618.266 564.785C617.66 564.806 617.057 564.71 616.503 564.5Z" fill="#173D7A"/>
<path d="M650.301 548.105L629.616 538.064C628.722 537.624 628.824 536.858 629.869 536.348L640.996 530.944C641.532 530.697 642.13 530.558 642.741 530.538C643.353 530.518 643.962 530.618 644.519 530.83L665.12 540.872C666.013 541.312 665.912 542.078 664.867 542.574L653.741 547.978C653.218 548.221 652.635 548.359 652.039 548.382C651.442 548.404 650.847 548.309 650.301 548.105Z" fill="#173D7A"/>
<path d="M477.345 480.501L466.15 475.055C465.257 474.615 465.376 473.849 466.404 473.339L477.531 467.935C478.067 467.687 478.664 467.549 479.276 467.529C479.888 467.509 480.496 467.61 481.054 467.822L492.281 473.268C493.175 473.707 493.057 474.473 492.028 474.984L480.902 480.388C480.361 480.64 479.757 480.781 479.139 480.801C478.521 480.821 477.907 480.718 477.345 480.501Z" fill="#173D7A"/>
<path d="M459.562 471.89L448.333 466.43C447.44 465.99 447.558 465.224 448.587 464.728L459.714 459.324C460.247 459.071 460.845 458.928 461.457 458.906C462.069 458.884 462.679 458.983 463.237 459.197L474.464 464.657C475.358 465.097 475.24 465.848 474.211 466.359L463.085 471.763C462.551 472.016 461.953 472.158 461.341 472.181C460.729 472.203 460.119 472.104 459.562 471.89Z" fill="#173D7A"/>
<path d="M441.808 463.255L430.58 457.809C429.687 457.369 429.804 456.603 430.833 456.093L441.96 450.689C442.497 450.442 443.094 450.302 443.705 450.282C444.317 450.263 444.926 450.363 445.483 450.576L456.711 456.022C457.604 456.461 457.487 457.227 456.458 457.738L445.331 463.141C444.795 463.389 444.197 463.528 443.586 463.548C442.974 463.568 442.365 463.467 441.808 463.255Z" fill="#396CAA"/>
<path d="M423.991 454.628L412.764 449.168C411.87 448.728 411.988 447.962 413.017 447.466L424.143 442.062C424.677 441.809 425.274 441.666 425.886 441.644C426.499 441.622 427.108 441.721 427.666 441.935L438.894 447.395C439.787 447.835 439.686 448.587 438.641 449.096L427.515 454.501C426.981 454.753 426.384 454.896 425.772 454.919C425.158 454.941 424.549 454.842 423.991 454.628Z" fill="#173D7A"/>
<path d="M494.7 488.925L483.473 483.466C482.563 483.04 482.681 482.274 483.726 481.764L494.836 476.36C495.371 476.11 495.968 475.969 496.579 475.946C497.191 475.924 497.8 476.022 498.359 476.232L509.586 481.693C510.48 482.132 510.379 482.898 509.333 483.395L498.19 488.784C497.663 489.037 497.072 489.181 496.466 489.206C495.86 489.23 495.255 489.134 494.7 488.925Z" fill="#173D7A"/>
<path d="M512.067 497.3L500.84 491.839C499.946 491.4 500.047 490.634 501.092 490.138L512.219 484.734C512.749 484.481 513.344 484.338 513.954 484.316C514.564 484.294 515.17 484.394 515.725 484.607L526.953 490.067C527.863 490.493 527.745 491.259 526.7 491.769L515.591 497.3C515.045 497.533 514.441 497.654 513.828 497.654C513.217 497.654 512.613 497.533 512.067 497.3Z" fill="#173D7A"/>
<path d="M529.371 505.814L518.144 500.368C517.25 499.929 517.368 499.163 518.397 498.652L529.523 493.263C530.057 493.01 530.654 492.866 531.266 492.844C531.879 492.822 532.488 492.921 533.046 493.135L544.274 498.581C545.167 499.021 545.049 499.786 544.021 500.297L532.895 505.701C532.358 505.948 531.76 506.087 531.149 506.107C530.537 506.127 529.929 506.027 529.371 505.814Z" fill="#173D7A"/>
<path d="M546.693 514.196L535.466 508.75C534.555 508.31 534.673 507.544 535.719 507.034L546.845 501.63C547.394 501.378 548.006 501.24 548.63 501.227C549.255 501.216 549.874 501.329 550.436 501.559L561.664 507.006C562.573 507.445 562.456 508.211 561.41 508.722L550.285 514.111C549.738 514.369 549.127 514.512 548.502 514.527C547.875 514.541 547.255 514.427 546.693 514.196Z" fill="#173D7A"/>
<path d="M564.059 522.614L552.832 517.155C551.938 516.714 552.04 515.963 553.085 515.453L564.211 510.05C564.745 509.796 565.343 509.653 565.955 509.631C566.567 509.608 567.177 509.708 567.734 509.921L578.945 515.382C579.856 515.821 579.738 516.587 578.692 517.084L567.583 522.487C567.049 522.74 566.451 522.884 565.839 522.906C565.227 522.928 564.617 522.828 564.059 522.614Z" fill="#173D7A"/>
<path d="M581.361 531.032L570.15 525.572C569.24 525.132 569.358 524.366 570.386 523.87L581.512 518.466C582.047 518.214 582.644 518.07 583.256 518.048C583.868 518.026 584.478 518.125 585.036 518.338L596.263 523.799C597.157 524.224 597.055 524.99 596.01 525.501L584.884 530.904C584.349 531.154 583.752 531.296 583.141 531.318C582.529 531.34 581.919 531.242 581.361 531.032Z" fill="#173D7A"/>
<path d="M598.699 539.451L587.522 534.006C586.611 533.566 586.729 532.8 587.775 532.289L598.901 526.886C599.435 526.639 600.03 526.499 600.639 526.48C601.247 526.46 601.853 526.56 602.407 526.772L613.636 532.219C614.545 532.658 614.428 533.424 613.383 533.935L602.256 539.338C601.716 539.593 601.112 539.736 600.493 539.755C599.875 539.774 599.26 539.67 598.699 539.451Z" fill="#173D7A"/>
<path d="M616.052 547.869L604.825 542.423C603.931 541.983 604.032 541.218 605.078 540.707L616.204 535.304C616.74 535.056 617.338 534.917 617.95 534.897C618.561 534.877 619.169 534.978 619.727 535.19L630.955 540.636C631.848 541.075 631.73 541.841 630.702 542.338L619.576 547.741C619.041 547.994 618.444 548.138 617.832 548.16C617.219 548.182 616.61 548.082 616.052 547.869Z" fill="#173D7A"/>
<path d="M633.368 556.299L622.141 550.838C621.231 550.399 621.349 549.633 622.394 549.137L633.503 543.733C634.038 543.48 634.635 543.337 635.247 543.315C635.859 543.293 636.469 543.392 637.027 543.606L648.204 549.066C649.098 549.506 648.996 550.271 647.951 550.768L636.824 556.171C636.3 556.417 635.715 556.556 635.114 556.579C634.514 556.601 633.917 556.505 633.368 556.299Z" fill="#173D7A"/>
<path d="M468.26 459.684L457.033 454.225C456.123 453.784 456.241 453.019 457.286 452.523L468.412 447.119C468.944 446.866 469.538 446.723 470.147 446.701C470.757 446.678 471.364 446.778 471.919 446.991L483.146 452.452C484.057 452.877 483.938 453.643 482.893 454.154L471.767 459.557C471.235 459.807 470.641 459.948 470.032 459.97C469.423 459.993 468.816 459.895 468.26 459.684Z" fill="#173D7A"/>
<path d="M450.998 451.299L439.787 445.839C438.877 445.414 438.994 444.648 440.04 444.137L451.149 438.734C451.683 438.48 452.28 438.338 452.892 438.315C453.505 438.293 454.115 438.393 454.673 438.606L465.9 444.066C466.794 444.506 466.692 445.272 465.647 445.768L454.521 451.172C453.987 451.425 453.39 451.568 452.777 451.591C452.165 451.612 451.555 451.513 450.998 451.299Z" fill="#173D7A"/>
<path d="M433.755 442.917L422.528 437.471C421.635 437.031 421.752 436.266 422.781 435.755L433.907 430.351C434.443 430.104 435.042 429.964 435.653 429.945C436.264 429.925 436.873 430.025 437.431 430.238L448.658 435.684C449.551 436.123 449.434 436.889 448.405 437.386L437.279 442.789C436.745 443.042 436.148 443.186 435.536 443.207C434.923 443.23 434.314 443.131 433.755 442.917Z" fill="#173D7A"/>
<path d="M416.452 434.547L405.224 429.101C404.331 428.662 404.431 427.896 405.476 427.385L416.603 421.981C417.137 421.734 417.732 421.595 418.341 421.576C418.949 421.556 419.555 421.656 420.109 421.868L431.338 427.314C432.248 427.754 432.13 428.52 431.085 429.03L419.975 434.434C419.439 434.682 418.84 434.82 418.229 434.84C417.618 434.86 417.009 434.759 416.452 434.547Z" fill="#173D7A"/>
<path d="M434.205 425.935L422.978 420.475C422.084 420.035 422.185 419.284 423.23 418.773L426.905 416.986C427.439 416.733 428.036 416.589 428.649 416.567C429.261 416.545 429.871 416.645 430.429 416.859L441.656 422.318C442.549 422.759 442.449 423.524 441.404 424.02L437.729 425.807C437.194 426.06 436.597 426.204 435.984 426.226C435.372 426.248 434.763 426.148 434.205 425.935Z" fill="#173D7A"/>
<path d="M456.721 436.872L445.493 431.412C444.583 430.972 444.701 430.22 445.746 429.71L449.421 427.923C449.952 427.67 450.547 427.526 451.156 427.505C451.766 427.482 452.373 427.581 452.928 427.795L464.155 433.255C465.066 433.694 464.948 434.46 463.903 434.957L460.228 436.744C459.696 436.997 459.102 437.141 458.493 437.163C457.883 437.184 457.276 437.085 456.721 436.872Z" fill="#173D7A"/>
<path d="M473.887 445.213L462.676 439.766C461.766 439.327 461.884 438.561 462.929 438.05L466.605 436.264C467.138 436.016 467.733 435.878 468.341 435.858C468.95 435.838 469.556 435.938 470.111 436.15L481.338 441.597C482.249 442.036 482.131 442.802 481.086 443.313L477.411 445.086C476.877 445.338 476.28 445.482 475.667 445.504C475.055 445.526 474.445 445.427 473.887 445.213Z" fill="#173D7A"/>
<path d="M491.069 453.55L479.859 448.103C478.949 447.664 479.066 446.898 480.112 446.387L483.787 444.614C484.318 444.361 484.912 444.218 485.522 444.196C486.131 444.174 486.738 444.273 487.294 444.487L498.521 449.932C499.431 450.372 499.313 451.138 498.268 451.648L494.593 453.436C494.056 453.683 493.459 453.822 492.847 453.842C492.236 453.862 491.627 453.762 491.069 453.55Z" fill="#173D7A"/>
<path d="M508.316 461.838L497.105 456.378C496.195 455.938 496.313 455.172 497.358 454.676L501.033 452.889C501.564 452.636 502.158 452.492 502.768 452.471C503.378 452.448 503.985 452.547 504.54 452.761L515.768 458.221C516.678 458.661 516.56 459.412 515.515 459.923L511.789 461.838C511.249 462.064 510.655 462.182 510.053 462.182C509.45 462.182 508.856 462.064 508.316 461.838Z" fill="#173D7A"/>
<path d="M604.19 508.469L592.962 502.967C592.069 502.527 592.187 501.761 593.215 501.251L596.907 499.464C597.441 499.216 598.035 499.077 598.644 499.057C599.253 499.037 599.859 499.138 600.413 499.35L611.641 504.796C612.552 505.235 612.434 506.001 611.389 506.512L607.797 508.356C607.25 508.615 606.637 508.76 606.01 508.78C605.382 508.8 604.758 508.693 604.19 508.469Z" fill="#173D7A"/>
<path d="M621.372 516.812L610.145 511.366C609.251 510.927 609.369 510.161 610.398 509.664L614.089 507.877C614.621 507.624 615.216 507.48 615.825 507.459C616.434 507.437 617.042 507.536 617.596 507.75L628.824 513.195C629.717 513.635 629.616 514.401 628.571 514.911L624.896 516.698C624.359 516.946 623.762 517.085 623.15 517.105C622.538 517.125 621.93 517.024 621.372 516.812Z" fill="#173D7A"/>
<path d="M638.492 525.164L627.265 519.704C626.371 519.264 626.489 518.513 627.518 518.003L631.21 516.216C631.74 515.963 632.335 515.819 632.945 515.797C633.554 515.774 634.161 515.874 634.716 516.088L645.944 521.548C646.837 521.987 646.736 522.753 645.691 523.25L642.016 525.037C641.482 525.29 640.885 525.434 640.272 525.455C639.66 525.477 639.05 525.378 638.492 525.164Z" fill="#173D7A"/>
<path d="M655.675 533.506L644.447 528.059C643.554 527.62 643.672 526.854 644.7 526.343L648.375 524.556C648.912 524.309 649.51 524.17 650.121 524.15C650.732 524.13 651.341 524.231 651.899 524.443L663.126 529.889C664.02 530.329 663.919 531.095 662.873 531.606L659.198 533.378C658.665 533.631 658.067 533.774 657.455 533.797C656.843 533.819 656.232 533.719 655.675 533.506Z" fill="#173D7A"/>
<path d="M485.563 468.104L474.336 462.658C473.442 462.218 473.544 461.452 474.589 460.942L485.715 455.552C486.249 455.3 486.846 455.156 487.459 455.134C488.071 455.111 488.681 455.211 489.238 455.424L500.449 460.871C501.36 461.31 501.241 462.076 500.196 462.587L489.087 467.99C488.55 468.238 487.953 468.377 487.341 468.397C486.729 468.416 486.121 468.316 485.563 468.104Z" fill="#173D7A"/>
<path d="M502.927 476.521L491.716 471.076C490.805 470.636 490.924 469.871 491.969 469.36L503.079 463.956C503.615 463.709 504.212 463.569 504.824 463.55C505.436 463.53 506.044 463.63 506.602 463.843L517.83 469.289C518.723 469.728 518.622 470.494 517.576 471.005L506.45 476.394C505.916 476.647 505.318 476.791 504.706 476.813C504.094 476.835 503.484 476.735 502.927 476.521Z" fill="#173D7A"/>
<path d="M520.253 484.952L509.026 479.492C508.115 479.052 508.233 478.3 509.278 477.79L520.405 472.386C520.935 472.134 521.53 471.99 522.14 471.967C522.749 471.946 523.356 472.045 523.911 472.258L535.139 477.719C536.049 478.158 535.931 478.924 534.886 479.421L523.759 484.824C523.229 485.077 522.634 485.221 522.024 485.243C521.415 485.265 520.808 485.165 520.253 484.952Z" fill="#173D7A"/>
<path d="M537.55 493.369L526.323 487.909C525.429 487.469 525.547 486.703 526.576 486.207L537.702 480.803C538.236 480.55 538.833 480.407 539.446 480.385C540.058 480.363 540.668 480.463 541.225 480.676L552.453 486.136C553.347 486.562 553.228 487.327 552.201 487.838L541.074 493.241C540.539 493.491 539.941 493.633 539.33 493.655C538.719 493.677 538.109 493.579 537.55 493.369Z" fill="#173D7A"/>
<path d="M554.919 501.774L543.709 496.327C542.798 495.888 542.916 495.122 543.961 494.611L555.071 489.208C555.608 488.96 556.206 488.821 556.817 488.801C557.428 488.781 558.037 488.881 558.594 489.094L569.822 494.54C570.715 494.98 570.615 495.746 569.57 496.256L558.443 501.66C557.907 501.91 557.309 502.049 556.697 502.069C556.085 502.089 555.476 501.988 554.919 501.774Z" fill="#173D7A"/>
<path d="M572.239 510.206L561.011 504.76C560.118 504.32 560.219 503.554 561.264 503.043L572.391 497.64C572.925 497.393 573.519 497.254 574.128 497.234C574.736 497.214 575.343 497.314 575.897 497.527L587.124 502.973C588.035 503.413 587.917 504.179 586.872 504.675L575.729 510.064C575.2 510.315 574.609 510.458 574.004 510.482C573.398 510.507 572.793 510.412 572.239 510.206Z" fill="#173D7A"/>
<path d="M589.606 518.573L578.379 513.113C577.485 512.673 577.603 511.907 578.632 511.411L589.758 506.007C590.292 505.754 590.889 505.611 591.502 505.588C592.114 505.567 592.724 505.666 593.281 505.88L604.509 511.34C605.403 511.78 605.284 512.546 604.256 513.042L593.129 518.573C592.584 518.806 591.98 518.927 591.368 518.927C590.756 518.927 590.153 518.806 589.606 518.573Z" fill="#173D7A"/>
<path d="M606.928 527.087L595.701 521.641C594.791 521.201 594.909 520.435 595.954 519.939L607.08 514.535C607.611 514.282 608.206 514.139 608.815 514.116C609.425 514.095 610.032 514.194 610.587 514.407L621.814 519.854C622.725 520.293 622.606 521.059 621.561 521.57L610.435 526.973C609.901 527.221 609.306 527.36 608.698 527.379C608.089 527.399 607.483 527.298 606.928 527.087Z" fill="#173D7A"/>
<path d="M624.231 535.465L613.004 530.019C612.11 529.579 612.212 528.814 613.257 528.303L624.383 522.9C624.932 522.649 625.544 522.512 626.168 522.5C626.793 522.488 627.411 522.601 627.974 522.829L639.185 528.274C640.095 528.714 639.977 529.48 638.932 529.991L627.822 535.394C627.273 535.644 626.661 535.781 626.037 535.793C625.413 535.806 624.794 535.693 624.231 535.465Z" fill="#173D7A"/>
<path d="M386.487 469.152L353.428 453.083C352.518 452.658 352.636 451.892 353.681 451.381L364.791 445.978C365.325 445.725 365.922 445.581 366.534 445.559C367.147 445.538 367.756 445.637 368.314 445.851L401.373 461.919C402.283 462.359 402.165 463.11 401.12 463.621L389.994 469.025C389.463 469.278 388.868 469.421 388.259 469.443C387.65 469.465 387.042 469.365 386.487 469.152Z" fill="#173D7A"/>
<path d="M599.454 572.593L566.395 556.525C565.501 556.099 565.62 555.333 566.648 554.823L577.775 549.419C578.31 549.17 578.907 549.028 579.519 549.005C580.13 548.984 580.739 549.081 581.298 549.291L614.357 565.374C615.25 565.814 615.15 566.58 614.105 567.076L602.978 572.479C602.443 572.731 601.844 572.872 601.232 572.891C600.62 572.911 600.011 572.809 599.454 572.593Z" fill="#173D7A"/>
<path d="M530.138 557.511L518.91 552.051C518.017 551.626 518.117 550.86 519.163 550.35L532.413 543.91C532.95 543.663 533.548 543.523 534.159 543.504C534.771 543.485 535.379 543.585 535.937 543.797L547.148 549.243C548.058 549.683 547.94 550.449 546.911 550.945L533.628 557.384C533.099 557.634 532.507 557.776 531.901 557.799C531.295 557.821 530.691 557.723 530.138 557.511Z" fill="#173D7A"/>
<path d="M404.227 496.361L386.272 487.639C385.362 487.199 385.48 486.447 386.525 485.937L399.776 479.498C400.308 479.249 400.903 479.107 401.512 479.085C402.12 479.063 402.727 479.161 403.282 479.371L421.237 488.093C422.147 488.533 422.029 489.299 420.984 489.809L407.733 496.248C407.199 496.495 406.605 496.634 405.996 496.654C405.388 496.673 404.781 496.573 404.227 496.361Z" fill="#173D7A"/>
<path d="M513.341 549.405L495.386 540.683C494.493 540.244 494.594 539.478 495.639 538.967L508.89 532.542C509.424 532.289 510.022 532.146 510.634 532.124C511.246 532.101 511.856 532.201 512.414 532.415L530.368 541.137C531.261 541.576 531.143 542.342 530.115 542.839L516.864 549.277C516.331 549.53 515.732 549.674 515.12 549.696C514.508 549.719 513.898 549.619 513.341 549.405Z" fill="#173D7A"/>
<path d="M429.208 508.524L411.254 499.803C410.344 499.362 410.462 498.596 411.507 498.086L424.758 491.661C425.288 491.408 425.883 491.265 426.493 491.243C427.102 491.221 427.709 491.321 428.264 491.534L446.218 500.256C447.128 500.696 447.01 501.462 445.965 501.958L432.714 508.397C432.184 508.65 431.589 508.793 430.979 508.815C430.37 508.837 429.763 508.738 429.208 508.524Z" fill="#173D7A"/>
<path d="M428.378 491.62L506.449 529.53C506.661 529.592 506.845 529.708 506.975 529.861C507.106 530.015 507.176 530.199 507.176 530.388C507.176 530.577 507.106 530.761 506.975 530.915C506.845 531.069 506.661 531.185 506.449 531.246L492.962 537.799C492.421 538.036 491.819 538.16 491.209 538.16C490.598 538.16 489.997 538.036 489.456 537.799L411.402 499.889L428.378 491.62Z" fill="#173D7A"/>
<path d="M578.545 572.773L591.055 578.858C591.796 579.212 591.695 579.837 590.852 580.276L585.423 582.914C584.985 583.117 584.496 583.231 583.997 583.249C583.496 583.266 582.998 583.185 582.541 583.013L570.032 576.943C569.29 576.574 569.392 575.95 570.251 575.525L575.663 572.887C576.1 572.682 576.588 572.564 577.089 572.545C577.588 572.526 578.088 572.603 578.545 572.773Z" fill="#173D7A"/>
<path d="M561.102 564.305L573.611 570.375C574.353 570.729 574.251 571.353 573.409 571.792L567.98 574.417C567.544 574.626 567.055 574.745 566.554 574.762C566.052 574.779 565.552 574.695 565.098 574.516L552.589 568.446C551.864 568.091 551.948 567.467 552.808 567.028L558.22 564.404C558.657 564.197 559.146 564.081 559.646 564.063C560.148 564.047 560.646 564.129 561.102 564.305Z" fill="#173D7A"/>
<path d="M543.716 555.878L556.225 561.948C556.95 562.317 556.866 562.941 556.006 563.366L550.594 566.004C550.156 566.207 549.667 566.322 549.167 566.339C548.667 566.356 548.169 566.275 547.712 566.104L535.287 560.005C534.545 559.65 534.647 559.026 535.49 558.587L540.918 555.949C541.348 555.761 541.823 555.658 542.308 555.645C542.792 555.633 543.273 555.712 543.716 555.878Z" fill="#173D7A"/>
<path d="M570.683 559.709L583.192 565.779C583.934 566.133 583.833 566.772 582.99 567.197L577.561 569.821C577.126 570.029 576.637 570.148 576.136 570.168C575.635 570.188 575.136 570.107 574.678 569.934L562.17 563.85C561.428 563.495 561.529 562.872 562.389 562.432L567.8 559.794C568.241 559.593 568.73 559.481 569.23 559.466C569.73 559.452 570.228 559.534 570.683 559.709Z" fill="#173D7A"/>
<path d="M420.776 633.452C420.776 633.452 415.717 631.296 412.548 634.516C409.379 637.735 404.962 645.323 404.811 650.457C404.659 655.591 409.649 655.236 412.599 654.017C415.549 652.797 424.164 642.288 424.686 640.218C424.883 639.284 424.857 638.327 424.611 637.402C424.365 636.477 423.904 635.602 423.253 634.827C422.411 634.218 420.776 633.452 420.776 633.452Z" fill="#173D7A"/>
<path d="M421.921 632.344L422.157 636.783C422.193 637.251 422.072 637.718 421.81 638.131C421.548 638.544 421.155 638.888 420.673 639.124C419.476 639.677 418.086 639.858 416.745 639.634C412.918 639.124 412.565 638.216 412.295 633.763C412.025 629.309 421.921 632.344 421.921 632.344Z" fill="#E8A200"/>
<path d="M402.116 624.845C402.116 624.845 397.059 622.688 393.906 625.908C390.754 629.128 386.304 636.716 386.169 641.85C386.033 646.984 390.99 646.629 393.94 645.424C396.891 644.218 405.522 633.68 406.045 631.624C406.24 630.687 406.212 629.728 405.963 628.8C405.714 627.872 405.249 626.995 404.595 626.22C403.803 625.681 402.116 624.845 402.116 624.845Z" fill="#173D7A"/>
<path d="M403.279 623.817L403.516 628.256C403.545 628.717 403.422 629.176 403.16 629.581C402.898 629.987 402.508 630.323 402.032 630.554C400.833 631.103 399.446 631.288 398.104 631.078C394.261 630.554 393.924 629.66 393.653 625.192C393.384 620.725 403.279 623.817 403.279 623.817Z" fill="#E8A200"/>
<path d="M448.694 542.326C447.193 521.69 422.142 545.361 422.142 545.361L404.997 559.543L389.555 573.811C388.064 575.187 386.95 576.82 386.289 578.596C385.628 580.372 385.436 582.248 385.728 584.093L392 624.06C392.152 625.012 392.712 625.885 393.574 626.515C394.438 627.143 395.544 627.486 396.686 627.478C397.46 627.471 398.232 627.414 398.996 627.308C400.485 627.165 401.85 626.544 402.809 625.574C403.766 624.604 404.242 623.36 404.137 622.103L402.991 584.689L435.409 568.209C435.409 568.209 450.211 562.961 448.694 542.326Z" fill="#26356A"/>
<path d="M467.345 550.182C465.845 529.561 440.793 553.216 440.793 553.216L423.649 567.399L408.206 581.667C406.718 583.044 405.603 584.677 404.939 586.452C404.276 588.228 404.079 590.103 404.363 591.949L410.55 631.916C410.695 632.87 411.253 633.747 412.117 634.377C412.981 635.007 414.092 635.348 415.236 635.334C416.01 635.326 416.782 635.269 417.545 635.164C419.035 635.031 420.405 634.417 421.367 633.451C422.329 632.486 422.809 631.243 422.704 629.987L421.575 592.559L453.993 576.121C453.993 576.121 468.845 570.817 467.345 550.182Z" fill="#26356A"/>
<path d="M452.484 483.968C471.484 490.591 471.029 500.037 471.029 500.037C471.029 500.037 467.302 534.656 468.584 557.788C469.107 567.447 407.523 568.184 416.711 542.4C427.534 511.993 423.454 487.372 428.512 483.656C433.569 479.94 447.596 482.252 452.484 483.968Z" fill="#636363"/>
<path d="M458.627 492.339C457.65 495.586 452.592 497.302 447.349 496.168C442.106 495.034 438.667 491.474 439.662 488.226C440.656 484.978 445.713 483.276 450.94 484.411C456.166 485.545 459.622 489.105 458.627 492.339Z" fill="#BC8C7E"/>
<path d="M450.51 497.298C449.373 497.289 448.241 497.165 447.139 496.93C441.423 495.682 437.681 491.711 438.709 488.066C439.032 487.129 439.617 486.27 440.414 485.562C441.212 484.854 442.2 484.317 443.294 483.996C445.794 483.203 448.527 483.099 451.1 483.697C456.815 484.932 460.558 488.917 459.529 492.562C458.585 495.441 454.876 497.298 450.51 497.298ZM447.594 484.818C446.342 484.806 445.1 484.999 443.936 485.385C443.105 485.619 442.353 486.017 441.744 486.545C441.133 487.072 440.683 487.715 440.429 488.42C439.569 491.257 442.722 494.391 447.476 495.412C452.23 496.433 456.781 494.987 457.59 492.15C458.4 489.314 455.298 486.179 450.561 485.144C449.591 484.937 448.595 484.827 447.594 484.818Z" fill="#9E988E"/>
<path d="M444.906 483.245C445.021 485.137 444.97 487.033 444.754 488.918C444.637 490.507 451.262 491.996 452.982 490.564C454.701 489.131 454.01 487.614 454.414 482.196C454.819 476.778 444.906 483.245 444.906 483.245Z" fill="#BC8C7E"/>
<path d="M454.366 482.22C454.366 482.22 452.681 487.255 444.689 489.17L444.824 484.617L454.366 482.22Z" fill="#BC8C7E"/>
<path d="M459.446 469.479C460.168 471.834 460.044 474.316 459.089 476.612C458.134 478.907 456.392 480.913 454.082 482.375C451.772 483.838 448.998 484.691 446.112 484.827C443.225 484.963 440.356 484.376 437.867 483.14C435.377 481.905 433.378 480.076 432.124 477.884C430.87 475.693 430.416 473.238 430.821 470.83C431.225 468.422 432.469 466.169 434.396 464.356C436.322 462.542 438.844 461.251 441.644 460.644C443.502 460.238 445.438 460.145 447.339 460.37C449.24 460.596 451.07 461.133 452.724 461.955C454.378 462.775 455.822 463.862 456.976 465.153C458.129 466.444 458.969 467.914 459.446 469.479Z" fill="#BC8C7E"/>
<path d="M460.5 506.5C459.833 511.5 458.8 522.8 460 528C458.5 526.667 456.5 520.5 460.5 506.5Z" fill="#686B6F"/>
<path d="M448.7 473.009C448.7 473.009 440.659 475.846 435.079 475.931C429.498 476.016 430.729 472.045 430.729 472.045L447.284 470.031L448.7 473.009Z" fill="#BC8C7E"/>
<path d="M433.414 473.762C433.414 473.762 440.41 471.266 446.563 472.343C448.024 472.58 449.341 473.237 450.289 474.201C450.566 474.521 450.955 474.759 451.402 474.882C452.497 475.08 454.285 471.28 456.459 471.195C458.634 471.11 459.999 472.372 458.246 474.712C456.493 477.052 457.099 479.676 457.909 480.044C458.718 480.414 467.181 474.953 459.696 462.487C452.211 450.02 433.211 456.729 430.261 459.267C430.261 459.267 427.143 461.536 424.614 459.508C424.563 459.48 421.714 477.449 433.414 473.762Z" fill="#2B2B2B"/>
<path d="M460.457 525.327V534.687C460.459 535.221 460.328 535.749 460.072 536.238C459.817 536.727 459.442 537.165 458.973 537.524L436.13 555.025L438.726 558.372L468.767 541.012C469.464 540.587 470.046 540.041 470.476 539.413C470.906 538.786 471.174 538.088 471.262 537.368L473.437 519.994L460.457 525.327Z" fill="#BC8C7E"/>
<path d="M469.542 495.361C469.542 495.361 476.47 504.126 479.049 527.215C479.049 527.215 467.249 530.435 460.505 528.633C453.762 526.832 469.542 495.361 469.542 495.361Z" fill="#636363"/>
<path d="M453.247 567.195L448.19 566.641L415.569 550.799C414.923 550.554 414.217 550.439 413.509 550.464C412.801 550.489 412.108 550.652 411.489 550.941L388.393 562.16L385.342 561.819V564.372C385.346 564.564 385.415 564.751 385.54 564.912C385.666 565.072 385.843 565.199 386.05 565.28L422.986 583.221C423.632 583.467 424.338 583.582 425.046 583.558C425.755 583.533 426.446 583.369 427.066 583.078L452.218 570.868C452.493 570.766 452.729 570.604 452.903 570.399C453.078 570.195 453.185 569.955 453.213 569.705L453.247 567.195Z" fill="#515862"/>
<path d="M428.798 557.191L426.472 556.056H401.016L388.456 562.155L385.405 561.815V564.368C385.409 564.56 385.479 564.746 385.604 564.907C385.729 565.068 385.905 565.195 386.113 565.275L423.05 583.216C423.701 583.49 424.432 583.604 425.156 583.542L428.798 557.191Z" fill="#396CAA"/>
<path d="M423.385 583.359C424.527 583.679 425.773 583.613 426.858 583.175V578.835H423.385V583.359Z" fill="#274F89"/>
<path d="M423.047 580.662L386.111 562.721C385.065 562.211 385.2 561.303 386.396 560.736L411.549 548.525C412.163 548.235 412.847 548.069 413.549 548.04C414.25 548.011 414.951 548.118 415.595 548.354L452.549 566.295C453.594 566.806 453.459 567.714 452.245 568.281L427.093 580.492C426.48 580.782 425.796 580.949 425.093 580.979C424.391 581.008 423.691 580.899 423.047 580.662Z" fill="#2F2F2F"/>
<path d="M422.409 577.939L391.693 563.019C390.833 562.594 390.935 561.856 391.946 561.374L405.433 554.992C405.946 554.754 406.517 554.62 407.103 554.6C407.688 554.581 408.27 554.676 408.804 554.879L439.52 569.798C440.397 570.224 440.279 570.962 439.284 571.443L425.798 577.826C425.283 578.065 424.708 578.201 424.12 578.221C423.531 578.24 422.945 578.144 422.409 577.939Z" fill="#828282"/>
<path d="M413 547.933L412.63 550.089C412.301 551.912 412.352 553.769 412.782 555.577L413.237 557.464C413.363 557.985 413.671 558.463 414.121 558.837C414.572 559.211 415.144 559.463 415.766 559.562C416.004 559.608 416.25 559.609 416.489 559.567C416.728 559.525 416.952 559.439 417.148 559.317C417.344 559.194 417.505 559.037 417.621 558.857C417.738 558.677 417.807 558.477 417.822 558.272L418.429 553.691C418.429 553.691 419.828 555.237 420.486 555.237C421.144 555.237 419.744 550.642 418.227 548.047C416.709 545.451 413 547.933 413 547.933Z" fill="#BC8C7E"/>
<path d="M425.473 513.844L421.511 520.453C420.55 522.008 419.975 523.712 419.825 525.46L418.14 548.038L412.914 547.924L410.553 522.581C410.472 521.799 410.517 521.012 410.688 520.241L413.386 507.377L425.473 513.844Z" fill="#BC8C7E"/>
<path d="M421.823 582.389L418.72 578.986L386.151 563.116C385.574 562.767 385.103 562.31 384.775 561.78C384.447 561.251 384.272 560.663 384.263 560.066V537.63L382.425 535.587L384.111 534.736C384.302 534.632 384.524 534.578 384.751 534.578C384.978 534.578 385.201 534.632 385.392 534.736L422.362 552.762C422.938 553.111 423.41 553.568 423.738 554.098C424.066 554.627 424.241 555.215 424.25 555.812V580.234C424.282 580.483 424.235 580.735 424.114 580.965C423.992 581.194 423.802 581.392 423.56 581.538L421.823 582.389Z" fill="#575C64"/>
<path d="M399.3 569.512L397.075 568.392L384.279 549.77V537.573L382.425 535.587L384.111 534.736C384.302 534.632 384.524 534.578 384.751 534.578C384.978 534.578 385.201 534.632 385.392 534.736L422.362 552.762C422.976 553.113 423.456 553.605 423.745 554.18L399.3 569.512Z" fill="#727B86"/>
<path d="M422.672 552.965C423.558 553.647 424.106 554.584 424.206 555.589L420.633 557.333L418.947 554.809L422.672 552.965Z" fill="#656C77"/>
<path d="M420.666 553.623L383.696 535.583C382.65 535.073 381.808 535.583 381.791 536.775V561.211C381.797 561.809 381.972 562.396 382.3 562.927C382.628 563.456 383.101 563.914 383.679 564.26L420.581 582.244C421.627 582.74 422.47 582.244 422.487 581.039V556.659C422.491 556.067 422.328 555.484 422.012 554.956C421.695 554.429 421.233 553.972 420.666 553.623Z" fill="#2F2F2F"/>
<path d="M438.714 558.361L438.123 559.382C437.442 560.558 436.37 561.543 435.038 562.219L431.363 564.12C430.807 564.417 430.165 564.582 429.506 564.597C428.846 564.613 428.195 564.477 427.62 564.205L427.503 564.134C427.238 563.979 427.016 563.777 426.854 563.542C426.692 563.307 426.593 563.046 426.564 562.775C426.536 562.505 426.577 562.232 426.687 561.977C426.797 561.721 426.972 561.489 427.199 561.297L431.026 557.979C431.026 557.979 428.868 559.396 428.262 558.816C427.654 558.234 430.352 556.404 432.29 556.334C433.7 556.174 435.026 555.682 436.117 554.915L438.714 558.361Z" fill="#BC8C7E"/>
<path d="M429.097 483.615C429.097 483.615 415.054 496.465 409.373 508.265C413.223 513.248 419.124 516.859 425.945 518.405C437.644 521.257 429.097 483.615 429.097 483.615Z" fill="#636363"/>
<path d="M423.237 517.642L425.513 499.134L420.151 516.478C421.154 516.914 422.184 517.302 423.237 517.642Z" fill="#686B6F"/>
<path d="M439.538 481.023L435.813 480.144C436.864 481.5 438.398 482.543 440.196 483.122C442.826 483.732 443.23 481.86 443.23 481.86L439.538 481.023Z" fill="white"/>
<path d="M547.867 308.665L532.796 301.346C532.079 300.945 531.52 300.373 531.19 299.704C530.86 299.034 530.773 298.298 530.941 297.588C530.981 297.288 531.112 297.002 531.321 296.756C531.529 296.51 531.808 296.314 532.133 296.185C532.457 296.055 532.815 295.998 533.173 296.018C533.531 296.037 533.876 296.134 534.178 296.297L549.25 303.616C549.963 304.015 550.52 304.585 550.847 305.252C551.174 305.918 551.257 306.653 551.087 307.359C551.052 307.66 550.926 307.948 550.72 308.196C550.515 308.444 550.237 308.643 549.914 308.775C549.59 308.905 549.231 308.964 548.873 308.945C548.515 308.926 548.168 308.829 547.867 308.665Z" fill="#D4ECFF"/>
<path d="M583.798 326.087L561.579 315.294C560.854 314.893 560.29 314.316 559.962 313.64C559.634 312.964 559.558 312.221 559.742 311.508C559.779 311.208 559.907 310.921 560.114 310.676C560.32 310.43 560.599 310.232 560.922 310.103C561.245 309.974 561.602 309.916 561.959 309.936C562.316 309.955 562.662 310.053 562.961 310.217L585.181 321.01C585.898 321.411 586.455 321.982 586.783 322.653C587.111 323.323 587.192 324.059 587.018 324.768C586.986 325.07 586.862 325.36 586.657 325.61C586.453 325.859 586.175 326.061 585.851 326.193C585.527 326.326 585.167 326.385 584.808 326.367C584.449 326.349 584.101 326.252 583.798 326.087Z" fill="#D4ECFF"/>
<path d="M521.585 367.842L506.597 360.524C505.881 360.124 505.323 359.551 504.995 358.882C504.668 358.212 504.586 357.475 504.76 356.766C504.8 356.467 504.929 356.182 505.135 355.936C505.341 355.69 505.618 355.494 505.941 355.363C506.262 355.233 506.619 355.173 506.975 355.19C507.332 355.207 507.678 355.3 507.981 355.461L523.051 362.793C523.768 363.191 524.327 363.76 524.655 364.427C524.983 365.096 525.064 365.83 524.889 366.538C524.863 366.85 524.738 367.151 524.528 367.408C524.317 367.667 524.029 367.873 523.692 368.006C523.355 368.139 522.983 368.194 522.612 368.165C522.242 368.136 521.887 368.025 521.585 367.842Z" fill="#D4ECFF"/>
<path d="M553.609 383.377L531.39 372.584C530.673 372.183 530.114 371.611 529.787 370.942C529.46 370.272 529.378 369.535 529.552 368.826C529.589 368.526 529.717 368.24 529.924 367.994C530.131 367.747 530.409 367.551 530.732 367.421C531.055 367.291 531.412 367.234 531.77 367.254C532.127 367.274 532.472 367.371 532.772 367.535L555.008 378.328C555.721 378.728 556.277 379.298 556.605 379.965C556.933 380.631 557.016 381.365 556.845 382.072C556.808 382.373 556.679 382.661 556.472 382.908C556.264 383.156 555.985 383.354 555.66 383.485C555.336 383.616 554.977 383.675 554.618 383.656C554.258 383.637 553.911 383.541 553.609 383.377Z" fill="#D4ECFF"/>
<path d="M503.453 299.052L494.046 294.485C493.327 294.085 492.768 293.514 492.44 292.843C492.112 292.173 492.031 291.436 492.208 290.727C492.245 290.427 492.373 290.14 492.58 289.895C492.787 289.649 493.065 289.451 493.388 289.322C493.711 289.192 494.069 289.135 494.426 289.154C494.783 289.175 495.128 289.272 495.428 289.436L504.852 294.017C505.555 294.421 506.101 294.99 506.421 295.653C506.742 296.317 506.824 297.045 506.655 297.747C506.615 298.044 506.486 298.327 506.281 298.571C506.075 298.814 505.8 299.01 505.48 299.14C505.161 299.271 504.808 299.33 504.453 299.315C504.098 299.299 503.754 299.209 503.453 299.052Z" fill="#D4ECFF"/>
<path d="M532.458 325.13L503.681 311.161C502.964 310.759 502.407 310.187 502.079 309.517C501.751 308.848 501.67 308.111 501.844 307.402C501.881 307.102 502.009 306.816 502.216 306.57C502.422 306.324 502.701 306.127 503.024 305.998C503.347 305.868 503.704 305.81 504.061 305.83C504.418 305.851 504.764 305.947 505.064 306.112L533.84 320.081C534.554 320.481 535.11 321.051 535.437 321.718C535.765 322.385 535.849 323.118 535.678 323.826C535.643 324.126 535.518 324.415 535.312 324.662C535.106 324.91 534.829 325.109 534.505 325.24C534.181 325.371 533.823 325.43 533.464 325.411C533.106 325.391 532.76 325.295 532.458 325.13Z" fill="#D4ECFF"/>
<path d="M507.264 336.899L497.857 332.333C497.131 331.929 496.567 331.35 496.239 330.672C495.911 329.994 495.835 329.248 496.02 328.532C496.057 328.232 496.185 327.946 496.391 327.7C496.599 327.454 496.876 327.257 497.2 327.128C497.523 326.998 497.88 326.94 498.237 326.96C498.595 326.98 498.939 327.077 499.24 327.242L508.647 331.808C509.365 332.208 509.925 332.78 510.255 333.449C510.586 334.119 510.672 334.856 510.501 335.567C510.468 335.87 510.344 336.161 510.139 336.413C509.933 336.664 509.655 336.866 509.329 337C509.003 337.134 508.642 337.195 508.281 337.178C507.92 337.159 507.569 337.064 507.264 336.899Z" fill="#D4ECFF"/>
<path d="M558.445 409.713L533.293 397.502C532.575 397.105 532.016 396.535 531.689 395.867C531.361 395.2 531.28 394.464 531.455 393.757C531.49 393.456 531.615 393.169 531.821 392.921C532.027 392.673 532.304 392.474 532.628 392.343C532.952 392.211 533.31 392.153 533.668 392.172C534.027 392.191 534.373 392.288 534.675 392.453L559.827 404.664C560.544 405.065 561.102 405.637 561.43 406.306C561.757 406.976 561.839 407.713 561.664 408.422C561.627 408.721 561.499 409.008 561.293 409.254C561.086 409.5 560.808 409.697 560.485 409.827C560.162 409.957 559.805 410.014 559.447 409.994C559.09 409.974 558.745 409.877 558.445 409.713Z" fill="#D4ECFF"/>
<path d="M498.189 356.426L492.137 353.491C491.421 353.102 490.857 352.545 490.516 351.89C490.174 351.234 490.07 350.508 490.215 349.802C490.255 349.503 490.385 349.217 490.594 348.971C490.803 348.726 491.083 348.529 491.406 348.399C491.73 348.271 492.088 348.213 492.447 348.233C492.804 348.252 493.151 348.348 493.451 348.512L499.487 351.448C500.204 351.845 500.763 352.415 501.09 353.082C501.418 353.75 501.499 354.485 501.324 355.192C501.271 355.476 501.135 355.744 500.93 355.974C500.724 356.203 500.455 356.387 500.146 356.509C499.836 356.63 499.496 356.686 499.155 356.672C498.814 356.657 498.482 356.573 498.189 356.426Z" fill="#D4ECFF"/>
<path d="M493.747 378.29L486.245 374.645C485.528 374.244 484.97 373.671 484.642 373.002C484.315 372.332 484.233 371.595 484.407 370.886C484.445 370.587 484.573 370.301 484.779 370.054C484.986 369.808 485.264 369.611 485.587 369.482C485.91 369.352 486.267 369.295 486.625 369.315C486.982 369.335 487.327 369.431 487.627 369.596L495.129 373.241C495.846 373.638 496.405 374.207 496.733 374.875C497.061 375.543 497.142 376.277 496.967 376.985C496.932 377.285 496.805 377.574 496.601 377.821C496.395 378.069 496.116 378.268 495.793 378.4C495.469 378.53 495.111 378.589 494.753 378.57C494.395 378.551 494.048 378.454 493.747 378.29Z" fill="#D4ECFF"/>
<path d="M522.943 392.47L503.236 382.854C502.521 382.452 501.964 381.88 501.637 381.211C501.309 380.541 501.226 379.805 501.398 379.096C501.438 378.796 501.569 378.51 501.777 378.265C501.986 378.018 502.265 377.822 502.589 377.693C502.914 377.563 503.272 377.506 503.629 377.526C503.988 377.545 504.333 377.642 504.635 377.805L524.41 387.421C525.127 387.818 525.686 388.387 526.013 389.055C526.341 389.723 526.423 390.458 526.248 391.165C526.221 391.477 526.096 391.778 525.886 392.036C525.676 392.294 525.387 392.5 525.05 392.633C524.713 392.766 524.341 392.821 523.971 392.793C523.6 392.764 523.245 392.652 522.943 392.47Z" fill="#D4ECFF"/>
<path d="M497.56 392.128L483.331 385.249C482.614 384.849 482.056 384.277 481.729 383.607C481.401 382.937 481.319 382.201 481.494 381.491C481.531 381.192 481.659 380.905 481.865 380.659C482.072 380.414 482.35 380.216 482.673 380.086C482.996 379.957 483.354 379.9 483.711 379.919C484.069 379.939 484.413 380.036 484.713 380.2L498.942 387.107C499.661 387.507 500.22 388.079 500.548 388.749C500.876 389.419 500.957 390.156 500.78 390.866C500.738 391.163 500.605 391.446 500.397 391.688C500.188 391.931 499.91 392.124 499.587 392.251C499.264 392.377 498.909 392.432 498.555 392.41C498.199 392.389 497.857 392.292 497.56 392.128Z" fill="#D4ECFF"/>
<path d="M580.03 420.237L570.893 415.798C570.174 415.399 569.615 414.827 569.287 414.157C568.96 413.486 568.879 412.749 569.056 412.04C569.09 411.731 569.22 411.436 569.434 411.184C569.648 410.931 569.937 410.731 570.273 410.603C570.608 410.475 570.978 410.423 571.344 410.454C571.71 410.485 572.061 410.596 572.36 410.778L581.497 415.217C582.216 415.616 582.775 416.188 583.103 416.858C583.43 417.528 583.511 418.266 583.334 418.975C583.3 419.284 583.17 419.579 582.956 419.831C582.742 420.083 582.453 420.284 582.117 420.412C581.782 420.54 581.412 420.592 581.046 420.561C580.68 420.53 580.329 420.419 580.03 420.237Z" fill="#D4ECFF"/>
<path d="M542.34 353.9L517.187 341.689C516.47 341.292 515.912 340.723 515.584 340.055C515.257 339.387 515.175 338.652 515.35 337.945C515.385 337.644 515.511 337.356 515.716 337.108C515.922 336.86 516.2 336.661 516.523 336.53C516.847 336.399 517.206 336.34 517.564 336.359C517.922 336.378 518.269 336.475 518.57 336.64L543.739 348.851C544.46 349.256 545.018 349.833 545.343 350.509C545.667 351.184 545.743 351.926 545.56 352.638C545.518 352.935 545.386 353.218 545.177 353.46C544.968 353.702 544.689 353.896 544.367 354.023C544.045 354.148 543.69 354.204 543.335 354.182C542.98 354.161 542.638 354.064 542.34 353.9Z" fill="#D4ECFF"/>
<path d="M544.597 343.039L500.765 321.765C500.048 321.364 499.49 320.792 499.163 320.122C498.835 319.453 498.753 318.716 498.927 318.007C498.964 317.707 499.093 317.42 499.299 317.175C499.506 316.929 499.784 316.731 500.107 316.602C500.43 316.473 500.788 316.415 501.145 316.435C501.502 316.455 501.847 316.552 502.147 316.716L545.979 337.99C546.696 338.387 547.254 338.956 547.582 339.624C547.91 340.291 547.991 341.027 547.816 341.734C547.782 342.035 547.655 342.323 547.449 342.571C547.245 342.819 546.966 343.018 546.643 343.148C546.319 343.28 545.961 343.338 545.602 343.319C545.244 343.3 544.897 343.204 544.597 343.039Z" fill="#D4ECFF"/>
<path d="M520.13 355.122L494.995 342.911C494.278 342.51 493.72 341.937 493.392 341.268C493.065 340.598 492.983 339.861 493.157 339.152C493.194 338.852 493.323 338.566 493.529 338.32C493.736 338.074 494.014 337.877 494.337 337.748C494.66 337.618 495.018 337.56 495.375 337.581C495.732 337.601 496.077 337.697 496.377 337.862L521.513 350.073C522.231 350.472 522.791 351.044 523.119 351.714C523.446 352.385 523.527 353.122 523.35 353.831C523.313 354.13 523.185 354.417 522.978 354.663C522.772 354.909 522.493 355.106 522.17 355.236C521.847 355.365 521.489 355.423 521.133 355.403C520.776 355.383 520.43 355.286 520.13 355.122Z" fill="#D4ECFF"/>
<path d="M561.406 363.169L552.269 358.73C551.561 358.323 551.013 357.749 550.695 357.08C550.377 356.411 550.303 355.676 550.482 354.972C550.519 354.672 550.647 354.386 550.854 354.14C551.06 353.893 551.339 353.697 551.662 353.567C551.985 353.437 552.343 353.38 552.7 353.4C553.057 353.42 553.402 353.517 553.702 353.681L562.839 358.12C563.557 358.518 564.115 359.087 564.442 359.754C564.77 360.422 564.852 361.157 564.677 361.865C564.647 362.172 564.522 362.468 564.313 362.721C564.105 362.975 563.82 363.178 563.489 363.31C563.158 363.443 562.791 363.499 562.425 363.474C562.06 363.449 561.708 363.344 561.406 363.169Z" fill="#D4ECFF"/>
<path d="M651.607 359.019L597.458 332.781C596.741 332.38 596.183 331.809 595.855 331.139C595.528 330.469 595.446 329.732 595.621 329.023C595.658 328.724 595.786 328.437 595.992 328.192C596.199 327.945 596.477 327.748 596.8 327.618C597.124 327.489 597.481 327.431 597.838 327.451C598.195 327.471 598.54 327.568 598.84 327.732L652.955 354.013C653.673 354.41 654.232 354.98 654.559 355.647C654.887 356.315 654.969 357.05 654.793 357.757C654.744 358.048 654.609 358.324 654.402 358.56C654.194 358.797 653.92 358.986 653.605 359.111C653.289 359.236 652.94 359.293 652.592 359.278C652.243 359.261 651.905 359.173 651.607 359.019Z" fill="#D4ECFF"/>
<path d="M519.388 378.751L489.161 364.072C488.445 363.671 487.886 363.099 487.559 362.429C487.232 361.76 487.15 361.023 487.323 360.313C487.361 360.014 487.489 359.728 487.696 359.481C487.903 359.236 488.18 359.039 488.503 358.909C488.827 358.78 489.184 358.722 489.541 358.742C489.899 358.762 490.244 358.858 490.544 359.023L520.771 373.702C521.489 374.101 522.049 374.674 522.376 375.344C522.704 376.014 522.785 376.751 522.608 377.46C522.571 377.76 522.443 378.046 522.236 378.292C522.03 378.539 521.751 378.735 521.428 378.865C521.105 378.995 520.748 379.052 520.391 379.032C520.033 379.012 519.688 378.915 519.388 378.751Z" fill="#D4ECFF"/>
<path d="M519.118 294.689L496.899 283.896C496.181 283.496 495.62 282.924 495.293 282.254C494.965 281.584 494.885 280.846 495.061 280.137C495.098 279.838 495.226 279.552 495.433 279.305C495.639 279.059 495.918 278.863 496.241 278.733C496.564 278.603 496.922 278.545 497.279 278.566C497.636 278.586 497.981 278.682 498.281 278.847L520.501 289.64C521.217 290.041 521.776 290.613 522.106 291.282C522.436 291.951 522.523 292.687 522.355 293.398C522.314 293.698 522.184 293.984 521.976 294.229C521.767 294.475 521.487 294.672 521.163 294.801C520.84 294.93 520.481 294.988 520.123 294.968C519.765 294.949 519.419 294.852 519.118 294.689Z" fill="#D4ECFF"/>
<path d="M493.634 402.283L467.858 389.703C467.141 389.306 466.582 388.737 466.254 388.069C465.926 387.401 465.845 386.666 466.021 385.959C466.055 385.658 466.182 385.37 466.387 385.123C466.592 384.875 466.871 384.676 467.194 384.544C467.518 384.413 467.876 384.354 468.234 384.373C468.593 384.393 468.94 384.49 469.24 384.654L494.983 397.163C495.697 397.554 496.256 398.115 496.59 398.774C496.923 399.433 497.016 400.161 496.855 400.865C496.841 401.175 496.731 401.477 496.535 401.74C496.338 402.004 496.062 402.218 495.735 402.362C495.408 402.506 495.041 402.575 494.672 402.561C494.303 402.547 493.945 402.452 493.634 402.283Z" fill="#D4ECFF"/>
<path d="M666.424 483.307L651.353 476.031C650.636 475.629 650.077 475.058 649.75 474.388C649.423 473.718 649.341 472.981 649.515 472.273C649.553 471.973 649.681 471.686 649.887 471.441C650.094 471.194 650.372 470.997 650.695 470.867C651.019 470.738 651.375 470.681 651.733 470.7C652.09 470.72 652.435 470.818 652.735 470.981L667.806 478.3C668.525 478.7 669.084 479.271 669.412 479.941C669.74 480.611 669.82 481.349 669.644 482.058C669.599 482.354 669.465 482.636 669.256 482.876C669.046 483.117 668.767 483.308 668.445 483.433C668.123 483.558 667.769 483.611 667.415 483.589C667.062 483.568 666.721 483.47 666.424 483.307Z" fill="#D4ECFF"/>
<path d="M677.26 440.576L648.5 426.606C647.783 426.205 647.225 425.633 646.897 424.963C646.57 424.294 646.488 423.557 646.662 422.848C646.699 422.548 646.827 422.261 647.034 422.016C647.241 421.77 647.519 421.572 647.842 421.444C648.165 421.314 648.523 421.256 648.88 421.276C649.237 421.296 649.582 421.393 649.882 421.557L678.608 435.555C679.327 435.955 679.886 436.527 680.214 437.197C680.541 437.867 680.622 438.605 680.446 439.313C680.401 439.606 680.269 439.884 680.062 440.123C679.856 440.362 679.581 440.553 679.263 440.678C678.946 440.804 678.597 440.861 678.246 440.843C677.896 440.825 677.556 440.733 677.26 440.576Z" fill="#D4ECFF"/>
<path d="M652.088 452.349L642.664 447.781C641.95 447.379 641.393 446.807 641.065 446.138C640.738 445.469 640.655 444.733 640.827 444.023C640.867 443.723 640.998 443.437 641.206 443.192C641.415 442.946 641.694 442.749 642.018 442.62C642.342 442.491 642.701 442.433 643.058 442.453C643.416 442.473 643.762 442.569 644.064 442.732L653.471 447.3C654.187 447.7 654.746 448.272 655.073 448.942C655.4 449.611 655.482 450.348 655.308 451.058C655.27 451.357 655.142 451.644 654.936 451.89C654.729 452.135 654.452 452.333 654.128 452.463C653.805 452.592 653.448 452.649 653.09 452.63C652.733 452.61 652.388 452.513 652.088 452.349Z" fill="#D4ECFF"/>
<path d="M642.871 471.879L636.835 468.93C636.116 468.53 635.557 467.958 635.23 467.288C634.902 466.618 634.821 465.88 634.998 465.171C635.035 464.871 635.163 464.585 635.369 464.339C635.576 464.093 635.854 463.896 636.177 463.767C636.501 463.637 636.858 463.579 637.215 463.599C637.572 463.619 637.917 463.716 638.217 463.881L644.27 466.816C644.985 467.219 645.542 467.79 645.869 468.46C646.196 469.129 646.279 469.865 646.108 470.575C646.07 470.875 645.941 471.164 645.733 471.411C645.526 471.659 645.247 471.857 644.922 471.987C644.597 472.119 644.239 472.177 643.879 472.158C643.521 472.139 643.173 472.043 642.871 471.879Z" fill="#D4ECFF"/>
<path d="M687.078 469.376L661.942 457.165C661.225 456.764 660.666 456.192 660.339 455.523C660.012 454.852 659.93 454.115 660.104 453.407C660.138 453.106 660.265 452.818 660.47 452.57C660.676 452.322 660.954 452.123 661.278 451.992C661.601 451.861 661.959 451.802 662.318 451.821C662.676 451.841 663.023 451.937 663.324 452.102L688.46 464.327C689.177 464.724 689.735 465.294 690.064 465.962C690.391 466.629 690.472 467.364 690.297 468.071C690.263 468.372 690.136 468.66 689.93 468.908C689.726 469.156 689.447 469.355 689.123 469.486C688.8 469.617 688.442 469.676 688.083 469.656C687.724 469.637 687.378 469.541 687.078 469.376Z" fill="#D4ECFF"/>
<path d="M689.363 458.499L645.531 437.225C644.815 436.823 644.255 436.252 643.926 435.582C643.595 434.913 643.508 434.177 643.676 433.467C643.717 433.167 643.847 432.88 644.055 432.635C644.264 432.389 644.544 432.193 644.867 432.064C645.192 431.934 645.55 431.877 645.908 431.896C646.265 431.916 646.612 432.012 646.913 432.176L690.745 453.45C691.463 453.85 692.023 454.422 692.354 455.091C692.684 455.76 692.769 456.497 692.599 457.208C692.559 457.507 692.429 457.794 692.22 458.04C692.011 458.285 691.731 458.482 691.408 458.611C691.084 458.74 690.726 458.798 690.367 458.778C690.01 458.758 689.663 458.663 689.363 458.499Z" fill="#D4ECFF"/>
<path d="M664.917 470.583L639.815 458.372C639.096 457.973 638.537 457.4 638.21 456.73C637.882 456.06 637.801 455.323 637.978 454.613C638.015 454.314 638.143 454.028 638.349 453.781C638.556 453.536 638.834 453.339 639.157 453.209C639.48 453.079 639.838 453.022 640.195 453.042C640.552 453.062 640.897 453.158 641.197 453.323L666.35 465.534C667.068 465.933 667.628 466.506 667.956 467.176C668.284 467.846 668.364 468.583 668.188 469.293C668.155 469.599 668.028 469.892 667.818 470.144C667.609 470.396 667.324 470.598 666.993 470.728C666.663 470.859 666.297 470.914 665.932 470.889C665.568 470.863 665.218 470.758 664.917 470.583Z" fill="#D4ECFF"/>
<path d="M664.209 494.213L633.982 479.534C633.263 479.134 632.704 478.563 632.376 477.893C632.049 477.222 631.968 476.485 632.144 475.776C632.182 475.476 632.31 475.189 632.516 474.944C632.723 474.698 633.001 474.5 633.324 474.371C633.647 474.242 634.004 474.184 634.362 474.204C634.719 474.223 635.064 474.321 635.364 474.485L665.591 489.164C666.308 489.564 666.866 490.137 667.194 490.806C667.521 491.476 667.603 492.213 667.428 492.922C667.391 493.222 667.263 493.508 667.057 493.754C666.85 494 666.572 494.197 666.249 494.327C665.925 494.456 665.568 494.514 665.211 494.493C664.854 494.474 664.509 494.377 664.209 494.213Z" fill="#D4ECFF"/>
<path d="M307.86 404.628C307.86 404.628 308.717 421.996 310.036 433.605C311.356 445.212 339.65 424.707 339.65 424.707V411.412L307.86 404.628Z" fill="#6614CF"/>
<path d="M322.918 620.795C323.346 621.852 330.664 630.715 337.999 632.931C340.151 633.695 342.438 634.009 344.717 633.852C345.048 633.813 345.365 633.7 345.646 633.521C345.926 633.343 346.162 633.104 346.337 632.822C346.512 632.54 346.62 632.222 346.654 631.894C346.688 631.564 346.647 631.231 346.534 630.92C344.017 624.193 338.982 618.696 332.481 615.579C320.057 609.392 322.918 620.795 322.918 620.795Z" fill="#173D7A"/>
<path d="M320.468 624.201C322.074 628.011 323.28 631.975 324.067 636.031C324.581 639.304 322.781 643.582 321.291 646.411C321.07 646.82 320.76 647.173 320.381 647.444C320.004 647.715 319.568 647.897 319.109 647.976C318.649 648.055 318.178 648.028 317.731 647.899C317.284 647.77 316.871 647.541 316.526 647.229C313.189 644.324 311.067 640.279 310.58 635.895C309.74 626.826 310.58 625.242 310.58 625.242L320.468 624.201Z" fill="#173D7A"/>
<path d="M302.833 514.436C302.266 522.471 302.266 530.536 302.833 538.571C303.793 551.236 307.204 610.501 307.837 624.751C307.837 624.751 307.529 629.064 315.927 628.16C324.324 627.257 323.655 622.416 323.655 622.416C323.655 622.416 335.446 622.246 335.824 615.342C336.2 608.439 347.819 532.742 347.819 505.538L302.833 514.436Z" fill="#FDD762"/>
<path d="M352.287 455.226L358.08 464.123L377.942 487.986C377.69 488.675 377.27 489.292 376.72 489.779C376.17 490.267 375.506 490.612 374.789 490.781C372.852 491.242 356.143 475.441 348.928 468.418C347.996 467.524 347.409 466.335 347.268 465.055C347.127 463.775 347.442 462.486 348.157 461.413L352.287 455.226Z" fill="#BF9D69"/>
<path d="M340.958 418.657C340.958 418.657 350.144 418.418 353.348 431.628C356.553 444.838 359.106 461.338 356.381 462.718C347.985 466.843 342.671 462.036 342.671 462.036L340.958 418.657Z" fill="#3D3D3D"/>
<path d="M343.737 419.22C342.164 418.578 340.419 418.481 338.784 418.947C330.952 421.129 301.492 429.771 296.694 433.896C291.091 438.651 305.091 465.446 304.92 474.173C304.749 482.9 303.738 493.298 302.949 502.826C302.161 512.355 301.116 517.587 308.965 521.576C316.814 525.564 330.198 525.82 340.207 518.167C350.215 510.514 348.415 505.383 348.004 499.86C347.593 494.338 344.131 470.56 344.439 463.844C346.904 461.902 348.984 459.52 350.575 456.821C353.196 452.389 348.57 444.225 346.65 438.924C344.731 433.623 347.747 427.555 347.147 423.243C347.021 422.32 346.634 421.451 346.03 420.738C345.426 420.026 344.63 419.5 343.737 419.22Z" fill="#3D3D3D"/>
<path d="M334.32 428.336C334.937 433.159 330.498 437.694 324.397 438.478C318.296 439.262 312.846 435.972 312.229 431.149C311.612 426.324 316.051 421.807 322.152 421.023C328.253 420.239 333.702 423.512 334.32 428.336Z" fill="white"/>
<path d="M331.184 428.744C331.63 432.153 328.459 435.425 324.09 435.988C319.72 436.551 315.829 434.284 315.384 430.755C314.938 427.227 318.126 424.073 322.478 423.511C326.832 422.949 330.739 425.301 331.184 428.744Z" fill="#9D6B5C"/>
<path d="M326.848 417.431C326.848 417.431 321.535 413.102 320.507 415.3C319.479 417.5 318.639 426.925 318.639 426.925L329.178 429.755L327.568 420.192C327.568 420.192 329.658 418.403 326.848 417.431Z" fill="#9D6B5C"/>
<path d="M343.327 407.083C343.145 410.177 342.045 413.147 340.166 415.618C338.286 418.09 335.712 419.951 332.769 420.968C329.825 421.984 326.645 422.109 323.63 421.327C320.616 420.545 317.902 418.891 315.833 416.576C313.763 414.259 312.43 411.384 312.003 408.315C311.577 405.246 312.075 402.119 313.435 399.331C314.795 396.543 316.955 394.219 319.644 392.653C322.332 391.086 325.427 390.348 328.537 390.532C330.601 390.652 332.622 391.175 334.482 392.072C336.343 392.968 338.008 394.221 339.381 395.758C340.755 397.295 341.811 399.087 342.488 401.03C343.164 402.973 343.45 405.03 343.327 407.083Z" fill="#FFC2B0"/>
<path d="M319.801 418.022C319.698 418.516 319.613 419.044 319.527 419.59C320.589 425.028 328.781 427.414 328.781 427.414L327.564 420.186C327.564 420.186 328.558 419.334 328.284 418.482C325.045 417.494 320.966 416.59 319.801 418.022Z" fill="#9D6B5C"/>
<path d="M343.327 407.083C343.145 410.177 342.045 413.147 340.166 415.618C338.286 418.09 335.712 419.951 332.769 420.968C329.825 421.984 326.645 422.109 323.63 421.327C320.616 420.545 317.902 418.891 315.833 416.576C313.763 414.259 312.43 411.384 312.003 408.315C311.577 405.246 312.075 402.119 313.435 399.331C314.795 396.543 316.955 394.219 319.644 392.653C322.332 391.086 325.427 390.348 328.537 390.532C330.601 390.652 332.622 391.175 334.482 392.072C336.343 392.968 338.008 394.221 339.381 395.758C340.755 397.295 341.811 399.087 342.488 401.03C343.164 402.973 343.45 405.03 343.327 407.083Z" fill="#9D6B5C"/>
<path d="M288.839 472.456L290.603 514.352L296.773 514.983L300.783 477.262L288.839 472.456Z" fill="#BF9D69"/>
<path d="M309.093 468.934C307.053 459.986 303.044 440.23 303.044 440.23L301.329 459.883C303.249 465.712 304.963 471.064 304.963 474.167C304.843 479.28 304.449 485.007 304.003 490.768C304.003 490.768 311.132 477.883 309.093 468.934Z" fill="#767676"/>
<path d="M297.891 433.065C297.891 433.065 292.955 434.941 290.179 449.992C287.402 465.042 285.294 480.11 290.179 482.054C295.063 483.996 299.313 485.463 300.769 481.422C302.227 477.383 303.221 457.985 303.409 450.997C303.597 444.009 303.854 434.412 297.891 433.065Z" fill="#3D3D3D"/>
<path d="M376.426 486.237C378.16 486.922 379.726 487.968 381.019 489.305C382.193 490.597 383.242 491.995 384.155 493.481C385.697 495.765 386.983 500.691 386.058 501.305C385.132 501.919 379.768 493.055 378.911 495.117C378.054 497.18 378.911 499.089 377.814 499.106C376.717 499.123 372.861 490.209 369.828 487.448C366.795 484.686 376.426 486.237 376.426 486.237Z" fill="#BF9D69"/>
<path d="M323.648 622.382C324.799 622.35 325.944 622.23 327.076 622.023L329.39 529.981L323.648 622.382Z" fill="#D8892B"/>
<path d="M314.729 572.633L311.456 568.372L276.992 548.531C276.386 548.091 275.892 547.517 275.547 546.854C275.202 546.192 275.016 545.459 275.004 544.713V516.589L273.051 514.083L274.901 513.01C275.1 512.881 275.333 512.814 275.57 512.814C275.807 512.814 276.039 512.881 276.238 513.01L315.312 535.577C315.923 536.009 316.423 536.578 316.772 537.239C317.12 537.899 317.307 538.632 317.317 539.378V569.957C317.372 570.281 317.333 570.615 317.202 570.917C317.071 571.22 316.855 571.478 316.58 571.661L314.729 572.633Z" fill="#807E82"/>
<path d="M290.907 556.525L288.457 555.128L275.021 531.93V516.589L273.051 514.083L274.901 513.01C275.1 512.881 275.333 512.814 275.57 512.814C275.807 512.814 276.039 512.881 276.238 513.01L315.312 535.577C315.961 535.988 316.474 536.581 316.786 537.282L290.907 556.525Z" fill="#807E82"/>
<path d="M273.925 515.225L273.051 514.083L274.901 513.01C275.1 512.881 275.333 512.814 275.57 512.814C275.807 512.814 276.039 512.881 276.238 513.01L276.94 513.401L273.925 515.225Z" fill="#807E82"/>
<path d="M315.674 535.83C316.623 536.67 317.207 537.843 317.303 539.103L313.498 541.285L311.665 538.131L315.674 535.83Z" fill="#807E82"/>
<path d="M313.483 536.642L274.392 514.143C273.279 513.512 272.353 514.194 272.353 515.659V546.222C272.363 546.967 272.55 547.7 272.899 548.361C273.246 549.021 273.747 549.59 274.358 550.022L313.483 572.521C314.581 573.153 315.471 572.521 315.489 571.004V540.443C315.48 539.697 315.294 538.963 314.946 538.302C314.597 537.642 314.096 537.073 313.483 536.642Z" fill="#61526C"/>
<path d="M290.671 514.011C289.914 518.275 289.45 522.586 289.282 526.913C289.54 530.05 291.254 535.214 292.505 535.112C293.755 535.01 292.505 522.516 294.784 523.761C297.064 525.005 297.268 527.17 298.211 526.385C299.154 525.601 296.498 514.948 297.166 510.329C297.834 505.71 290.671 514.011 290.671 514.011Z" fill="#BF9D69"/>
<path d="M333.684 407.5C341.567 410.295 343.109 408.59 343.195 408.505C343.195 408.028 343.315 407.551 343.35 407.056C343.443 405.374 343.264 403.688 342.818 402.062L322.253 399.318C325.074 403.203 329.084 406.074 333.684 407.5Z" fill="#AE908C"/>
<path d="M343.895 391.488C342.027 389.903 335.326 382.062 323.33 383.903C315.824 385.062 309.483 390.176 308.078 401.8C307.66 405.661 308.094 409.566 309.349 413.242C310.604 416.919 312.649 420.28 315.344 423.09C315.643 422.969 315.929 422.821 316.2 422.646C319.217 420.686 319.542 419.595 319.542 419.595L320.211 413.646C320.214 413.227 320.062 412.823 319.784 412.508C319.505 412.194 319.121 411.992 318.703 411.942C318.26 411.893 317.834 411.746 317.454 411.514C317.075 411.281 316.752 410.967 316.509 410.595C314.796 408.345 315.567 404.851 319.029 404.715C319.646 404.759 320.26 404.588 320.764 404.23C321.268 403.872 321.629 403.35 321.787 402.755C321.84 402.567 321.93 402.393 322.053 402.241C322.176 402.09 322.33 401.965 322.504 401.876C322.678 401.786 322.868 401.733 323.063 401.721C323.259 401.708 323.455 401.735 323.639 401.8C327.563 403.215 337.246 406.266 343.483 404.51C351.418 402.38 345.763 393.073 343.895 391.488Z" fill="#FFDC61"/>
<path d="M334.909 414.596L339.725 413.283C338.369 415.353 336.381 416.936 334.052 417.8C330.71 418.72 330.179 415.891 330.179 415.891L334.909 414.596Z" fill="white"/>
<path d="M298.849 526.07L294.735 523.735L296.278 526.24L298.352 526.991L298.849 526.07Z" fill="#807E82"/>
</svg>
