<?xml version="1.0" encoding="UTF-8" standalone="no"?>
<!DOCTYPE svg PUBLIC "-//W3C//DTD SVG 1.1//EN" "http://www.w3.org/Graphics/SVG/1.1/DTD/svg11.dtd">
<svg width="100%" height="100%" viewBox="0 0 1059 806" version="1.1" xmlns="http://www.w3.org/2000/svg" xmlns:xlink="http://www.w3.org/1999/xlink" xml:space="preserve" xmlns:serif="http://www.serif.com/" style="fill-rule:evenodd;clip-rule:evenodd;stroke-linejoin:round;stroke-miterlimit:1.41421;">
    <g transform="matrix(1,0,0,1,-38.07,0.00257887)">
        <g transform="matrix(1,0,0,1,-51.77,-47.02)">
            <path d="M693.59,158.42C628.87,156.17 567.23,135.28 508.37,112.42C449.51,89.56 391.21,64.23 328,52.12C287.41,44.33 240.94,43.23 208.2,65C176.7,86 166.52,122.15 161.05,155.72C156.93,180.99 154.51,207.57 165.79,231.22C173.63,247.64 187.53,261.44 197.15,277.22C230.62,331.94 206.96,399.42 170.7,452.85C153.7,477.91 133.95,501.85 120.82,528.51C107.69,555.17 101.62,585.76 113.11,612.97C124.49,639.97 151.62,660.21 181.01,674.47C240.7,703.41 311.01,711.7 379.62,716.39C531.45,726.78 684.08,722.28 836.31,717.78C892.65,716.11 949.23,714.42 1004.65,705.71C1035.43,700.87 1067.2,693.19 1089.54,674.71C1117.91,651.18 1124.94,611.33 1105.93,581.83C1074.05,532.34 985.93,520.04 963.62,466.93C951.36,437.7 963.95,405.13 981.78,378.02C1020.02,319.85 1084.11,268.83 1087.48,202.34C1089.8,156.68 1058.99,110.95 1011.35,89.34C961.42,66.69 892.17,69.54 855.35,107.03C817.4,145.55 750.74,160.4 693.59,158.42Z" style="fill:white;fill-opacity:0.1;fill-rule:nonzero;"/>
        </g>
        <path d="M717.19,251.07C717.19,249.806 716.164,248.78 714.9,248.78L710.62,248.78C709.356,248.78 708.33,249.806 708.33,251.07L708.33,319.51C708.33,320.774 709.356,321.8 710.62,321.8L714.9,321.8C716.164,321.8 717.19,320.774 717.19,319.51L717.19,251.07Z" style="fill:rgb(58,55,104);"/>
        <path d="M418.86,193.87C418.86,192.606 417.834,191.58 416.57,191.58L416.18,191.58C414.916,191.58 413.89,192.606 413.89,193.87L413.89,213.33C413.89,214.594 414.916,215.62 416.18,215.62L416.57,215.62C417.834,215.62 418.86,214.594 418.86,213.33L418.86,193.87Z" style="fill:rgb(58,55,104);"/>
        <path d="M419.31,237.88C419.31,236.616 418.284,235.59 417.02,235.59L416,235.59C414.736,235.59 413.71,236.616 413.71,237.88L413.71,275.14C413.71,276.404 414.736,277.43 416,277.43L417.02,277.43C418.284,277.43 419.31,276.404 419.31,275.14L419.31,237.88Z" style="fill:rgb(58,55,104);"/>
        <path d="M419.13,294.36C419.13,293.096 418.104,292.07 416.84,292.07L416.09,292.07C414.826,292.07 413.8,293.096 413.8,294.36L413.8,331.98C413.8,333.244 414.826,334.27 416.09,334.27L416.84,334.27C418.104,334.27 419.13,333.244 419.13,331.98L419.13,294.36Z" style="fill:rgb(58,55,104);"/>
        <path d="M713.11,151.13C713.11,129.611 695.639,112.14 674.12,112.14L455.7,112.14C434.181,112.14 416.71,129.611 416.71,151.13L416.71,675.54C416.71,697.059 434.181,714.53 455.7,714.53L674.12,714.53C695.639,714.53 713.11,697.059 713.11,675.54L713.11,151.13Z" style="fill:rgb(58,55,104);"/>
        <path d="M577.7,133.99C577.7,131.854 575.966,130.12 573.83,130.12L540.18,130.12C538.044,130.12 536.31,131.854 536.31,133.99L536.31,134.65C536.31,136.786 538.044,138.52 540.18,138.52L573.83,138.52C575.966,138.52 577.7,136.786 577.7,134.65L577.7,133.99Z" style="fill:rgb(230,232,236);"/>
        <circle cx="588.73" cy="134.33" r="4.77" style="fill:rgb(230,232,236);"/>
        <ellipse cx="238.04" cy="728.39" rx="199.97" ry="20.38" style="fill:rgb(15,121,209);fill-opacity:0.1;"/>
        <ellipse cx="682.68" cy="796.42" rx="93.68" ry="9.55" style="fill:rgb(15,121,209);fill-opacity:0.1;"/>
        <ellipse cx="1002.78" cy="748.3" rx="93.68" ry="9.55" style="fill:rgb(15,121,209);fill-opacity:0.1;"/>
        <g transform="matrix(1,0,0,1,-51.77,-47.02)">
            <path d="M723,174.84L689.1,174.84L689.1,178.93C689.1,189.562 680.352,198.31 669.72,198.31L561.54,198.31C550.908,198.31 542.16,189.562 542.16,178.93L542.16,174.84L510.32,174.84C510.32,174.84 510.32,174.84 510.32,174.84C497.412,174.84 486.79,185.462 486.79,198.37C486.79,198.373 486.79,198.377 486.79,198.38L486.79,722.31C486.79,722.313 486.79,722.317 486.79,722.32C486.79,735.228 497.412,745.85 510.32,745.85L723,745.85C735.914,745.85 746.54,735.224 746.54,722.31L746.54,198.38C746.54,185.466 735.914,174.84 723,174.84Z" style="fill:rgb(230,230,230);fill-rule:nonzero;"/>
        </g>
        <g transform="matrix(1,0,0,1,-51.77,-47.02)">
            <path d="M882.34,630.54C883.093,631.635 883.688,632.83 884.11,634.09C899.26,651.89 907.33,668.51 892.76,668.92C879.2,669.31 862.92,693.57 859.03,699.69C859.153,700.166 859.307,700.634 859.49,701.09C859.673,701.546 878.57,669.37 894.1,668.92C909.63,668.47 899.42,649.62 882.34,630.54Z" style="fill-opacity:0.1;fill-rule:nonzero;"/>
        </g>
        <g transform="matrix(1,0,0,1,-51.77,-47.02)">
            <path d="M898.42,645C898.42,649 897.97,652.21 897.42,652.21C896.87,652.21 896.42,648.98 896.42,645C896.42,641.02 896.98,642.9 897.53,642.9C898.08,642.9 898.42,641 898.42,645Z" style="fill:rgb(255,208,55);fill-rule:nonzero;"/>
        </g>
        <g transform="matrix(1,0,0,1,-51.77,-47.02)">
            <path d="M903.94,649.72C900.44,651.62 897.4,652.78 897.13,652.29C896.86,651.8 899.49,649.87 902.99,647.96C906.49,646.05 905.1,647.45 905.37,647.96C905.64,648.47 907.44,647.81 903.94,649.72Z" style="fill:rgb(255,208,55);fill-rule:nonzero;"/>
        </g>
        <g transform="matrix(1,0,0,1,-51.77,-47.02)">
            <path d="M820.55,645C820.55,649 821,652.21 821.55,652.21C822.1,652.21 822.55,648.98 822.55,645C822.55,641.02 821.99,642.9 821.44,642.9C820.89,642.9 820.55,641 820.55,645Z" style="fill:rgb(255,208,55);fill-rule:nonzero;"/>
        </g>
        <g transform="matrix(1,0,0,1,-51.77,-47.02)">
            <path d="M815,649.72C818.49,651.62 821.54,652.78 821.8,652.29C822.06,651.8 819.45,649.87 815.95,647.96C812.45,646.05 813.83,647.45 813.57,647.96C813.31,648.47 811.54,647.81 815,649.72Z" style="fill:rgb(255,208,55);fill-rule:nonzero;"/>
        </g>
        <rect x="584.53" y="487.87" width="78.03" height="78.03" style="fill:rgb(58,55,104);fill-opacity:0.3;"/>
        <rect x="469.53" y="384.87" width="78.03" height="78.03" style="fill:rgb(58,55,104);fill-opacity:0.3;"/>
        <rect x="477.03" y="589.11" width="78.03" height="78.03" style="fill:rgb(58,55,104);fill-opacity:0.3;"/>
        <rect x="459.62" y="193.28" width="78.03" height="78.03" style="fill:white;"/>
        <g transform="matrix(1,0,0,1,-51.77,-47.02)">
            <path d="M565.55,265.79L562.78,268.55C564.616,270.382 565.648,272.872 565.648,275.465C565.648,278.058 564.616,280.548 562.78,282.38L565.55,285.16C570.861,279.846 570.861,271.104 565.55,265.79Z" style="fill:rgb(15,121,209);fill-rule:nonzero;"/>
        </g>
        <g transform="matrix(1,0,0,1,-51.77,-47.02)">
            <path d="M571.09,260.46L568.36,263.19C575.089,269.93 575.089,281.01 568.36,287.75L571.09,290.48C579.315,282.25 579.315,268.71 571.09,260.48L571.09,260.46ZM558.09,270.68L558.09,258.18L554.24,258.18L542.72,267.78L527.36,267.78L523.52,269.7L523.52,283.15L527.36,285.07L537,300.44L542.76,300.44L539.16,285.07L542.76,285.07L554.28,292.76L558.13,292.76L558.13,280.26C560.362,279.757 561.961,277.758 561.961,275.47C561.961,273.182 560.362,271.183 558.13,270.68L558.09,270.68Z" style="fill:rgb(15,121,209);fill-rule:nonzero;"/>
        </g>
        <g transform="matrix(0.741508,-0.670944,0.670944,0.741508,-248.8,565.21)">
            <rect x="656.92" y="522.77" width="78.03" height="78.03" style="fill:white;"/>
        </g>
        <g transform="matrix(1,0,0,1,-51.77,-47.02)">
            <path d="M673.34,551.14L679,546L710,580.17L704.3,585.33L673.34,551.14ZM686.71,583.14L692.41,577.99L701.41,587.99L695.71,593.14L686.71,583.14ZM698.65,561.98L704.35,556.82L718.52,572.49L712.83,577.64L698.65,561.98ZM699.46,545.7L705.16,540.54L727.07,564.75L721.37,569.91L699.46,545.7Z" style="fill:rgb(15,121,209);fill-rule:nonzero;"/>
        </g>
        <rect x="583.24" y="287.31" width="78.03" height="78.03" style="fill:white;"/>
        <g transform="matrix(1,0,0,1,-51.77,-47.02)">
            <path d="M688.84,364L678.37,380C679.214,381.025 679.674,382.313 679.67,383.64C679.542,386.712 676.98,389.17 673.905,389.17C670.83,389.17 668.268,386.712 668.14,383.64C668.143,383.281 668.177,382.923 668.24,382.57L661.32,378.57C659.485,380.321 656.702,380.671 654.49,379.43L647.13,386.32L647.13,393.19C647.135,396.002 649.448,398.315 652.26,398.32L695.8,398.32C698.61,398.309 700.919,396 700.93,393.19L700.93,367.67L693.93,363C692.924,363.791 691.68,364.221 690.4,364.22C689.886,364.217 689.375,364.146 688.88,364.01L688.84,364Z" style="fill:rgb(15,121,209);fill-rule:nonzero;"/>
        </g>
        <g transform="matrix(1,0,0,1,-51.77,-47.02)">
            <path d="M657.33,368.66C657.333,368.66 657.337,368.66 657.34,368.66C660.5,368.66 663.1,371.26 663.1,374.42C663.1,374.42 663.1,374.42 663.1,374.42C663.1,374.67 663.1,374.93 663.05,375.17L670.27,379.17C671.296,378.322 672.589,377.861 673.92,377.87C674.337,377.87 674.753,377.917 675.16,378.01L685.66,361.75C684.97,360.777 684.6,359.613 684.6,358.42C684.6,355.26 687.2,352.66 690.36,352.66C693.516,352.66 696.114,355.254 696.12,358.41C696.119,358.868 696.065,359.324 695.96,359.77L700.96,363.08L700.96,353.46C700.949,350.652 698.638,348.345 695.83,348.34L652.26,348.34C649.45,348.34 647.135,350.65 647.13,353.46L647.13,381L651.93,376.4C651.694,375.76 651.572,375.083 651.57,374.4C651.581,371.248 654.178,368.66 657.33,368.66Z" style="fill:rgb(15,121,209);fill-rule:nonzero;"/>
        </g>
        <rect x="484.6" y="374.31" width="78.03" height="78.03" style="fill:white;"/>
        <g transform="matrix(1,0,0,1,-51.77,-47.02)">
            <path d="M598.93,435.49L550.93,461.49C550.609,461.665 550.409,462.002 550.409,462.368C550.409,462.761 550.641,463.119 551,463.28L559.19,466.37C559.664,466.554 560.05,466.912 560.27,467.37L566.63,480.47C566.75,481.05 567.82,481.21 567.83,480.62L566.83,469.79C566.887,468.986 567.195,468.22 567.71,467.6L592.59,443.22C592.736,443.08 592.942,443.02 593.14,443.06C593.394,443.122 593.575,443.352 593.575,443.614C593.575,443.743 593.531,443.869 593.45,443.97L572,470.19C571.547,470.83 571.259,471.572 571.16,472.35L569.88,481.7C569.98,482.52 570.62,482.83 571.14,482.1L575.76,476.67C576.081,476.249 576.683,476.151 577.12,476.45L589.03,485.13C589.192,485.234 589.38,485.29 589.572,485.29C590.026,485.29 590.426,484.98 590.54,484.54L600.31,436.54C600.32,436.484 600.325,436.427 600.325,436.37C600.325,435.821 599.873,435.37 599.325,435.37C599.182,435.37 599.04,435.401 598.91,435.46L598.93,435.49Z" style="fill:rgb(15,121,209);fill-rule:nonzero;"/>
        </g>
        <g transform="matrix(1,0,0,1,-51.77,-47.02)">
            <path d="M1023.61,779.61C1028.15,780.2 1032.86,780.61 1037.21,779.15C1037.88,778.94 1038.65,778.48 1038.56,777.79C1038.51,777.549 1038.4,777.323 1038.25,777.13C1036.6,774.671 1035.22,772.047 1034.12,769.3C1034.08,769.158 1033.99,769.034 1033.87,768.95C1033.73,768.895 1033.57,768.895 1033.43,768.95C1031.43,769.47 1029.69,770.77 1027.69,771.32C1026.67,771.6 1025.62,771.681 1024.57,771.56C1023.67,771.46 1022.43,770.71 1021.62,770.8C1022.12,773.77 1023.26,776.58 1023.61,779.61Z" style="fill:rgb(15,121,209);fill-rule:nonzero;"/>
        </g>
        <g transform="matrix(1,0,0,1,-51.77,-47.02)">
            <path d="M1109.54,772C1112.54,770 1115.64,767.78 1117.41,764.61C1117.54,764.424 1117.61,764.205 1117.62,763.98C1117.59,763.755 1117.51,763.541 1117.37,763.36C1115.68,760.685 1113.52,758.346 1110.98,756.46C1109.65,757.399 1108.45,758.504 1107.41,759.75C1106.66,760.54 1104.58,761.84 1104.56,763.02C1104.56,763.73 1105.35,764.5 1105.72,765.02C1106.22,765.76 1106.72,766.52 1107.15,767.28C1107.38,767.74 1109.76,771.88 1109.54,772Z" style="fill:rgb(15,121,209);fill-rule:nonzero;"/>
        </g>
        <g transform="matrix(1,0,0,1,-51.77,-47.02)">
            <path d="M1041.41,788.79C1041.47,789.499 1041.28,790.209 1040.87,790.79C1040.55,791.107 1040.15,791.337 1039.72,791.46C1033.36,793.73 1026.04,790.89 1019.72,793.14C1018.41,793.6 1017.18,794.26 1015.87,794.7C1014.32,795.168 1012.72,795.453 1011.1,795.55C1008.85,795.77 1006.6,795.9 1004.35,795.96C1002.64,796.08 1000.93,795.932 999.27,795.52C997.594,795.086 996.176,793.963 995.37,792.43C995.029,791.748 994.961,790.961 995.18,790.23C995.276,789.972 995.415,789.732 995.59,789.52C996.023,789.04 996.529,788.631 997.09,788.31L999.43,786.8C1000.52,786.024 1001.71,785.392 1002.97,784.92C1003.89,784.62 1004.88,784.49 1005.81,784.22C1009.1,783.22 1011.6,780.65 1013.93,778.15L1017.11,774.76C1017.4,774.386 1017.78,774.085 1018.21,773.88C1018.65,773.729 1019.11,773.681 1019.57,773.74C1022.66,773.967 1025.64,774.971 1028.24,776.66C1028.91,777.15 1029.63,777.572 1030.38,777.92C1032.4,778.506 1034.57,778.234 1036.38,777.17C1037.2,776.74 1037.02,776.47 1037.38,775.7C1037.74,774.93 1038.56,774.43 1039.28,775.14C1039.5,775.387 1039.65,775.682 1039.73,776C1040.43,778.27 1040.16,780.7 1040.16,783.07C1040.14,783.442 1040.19,783.815 1040.3,784.17C1040.48,784.521 1040.68,784.856 1040.92,785.17C1040.97,785.252 1041.02,785.34 1041.05,785.43C1041.44,786.503 1041.57,787.658 1041.41,788.79Z" style="fill:rgb(81,78,127);fill-rule:nonzero;"/>
        </g>
        <g transform="matrix(1,0,0,1,-51.77,-47.02)">
            <path d="M1041.41,788.79C1041.47,789.499 1041.28,790.209 1040.87,790.79C1040.55,791.107 1040.15,791.337 1039.72,791.46C1033.36,793.73 1026.04,790.89 1019.72,793.14C1018.41,793.6 1017.18,794.26 1015.87,794.7C1014.32,795.168 1012.72,795.453 1011.1,795.55C1008.85,795.77 1006.6,795.9 1004.35,795.96C1002.64,796.08 1000.93,795.932 999.27,795.52C997.594,795.086 996.176,793.963 995.37,792.43C995.029,791.748 994.961,790.961 995.18,790.23C995.276,789.972 995.415,789.732 995.59,789.52C995.97,790.3 996.24,791.32 996.47,791.69C997.11,792.807 998.206,793.593 999.47,793.84C1000.39,793.888 1001.31,793.769 1002.18,793.49C1007.94,792.06 1014.06,792.04 1019.58,789.88C1021.42,789.011 1023.33,788.279 1025.28,787.69C1027.32,787.383 1029.38,787.216 1031.44,787.19C1034.69,786.93 1037.83,785.95 1041.04,785.44C1041.44,786.509 1041.56,787.66 1041.41,788.79Z" style="fill:rgb(70,67,83);fill-rule:nonzero;"/>
        </g>
        <g transform="matrix(1,0,0,1,-51.77,-47.02)">
            <path d="M1124.06,771.61C1123.76,774.02 1122.23,776.1 1120.55,777.86C1118.76,779.498 1117.12,781.295 1115.65,783.23C1113.99,785.75 1113.26,788.86 1111.12,790.99C1110.31,791.779 1109.39,792.452 1108.4,792.99C1107.28,793.65 1106.1,794.193 1104.87,794.61C1101.68,795.61 1098.24,795.4 1094.87,795.16C1093.79,795.147 1092.72,794.937 1091.71,794.54C1091.24,794.309 1090.79,794.038 1090.37,793.73C1089.55,793.202 1088.87,792.494 1088.37,791.66C1088.12,791.204 1088.06,790.673 1088.18,790.17C1088.38,789.604 1088.72,789.1 1089.18,788.71C1089.93,787.93 1090.74,787.205 1091.59,786.54C1092.77,785.779 1093.82,784.849 1094.73,783.78C1095.29,782.935 1095.69,782.001 1095.94,781.02C1096.42,779.307 1096.72,777.547 1096.82,775.77C1096.82,774.59 1096.94,773.413 1097.19,772.26C1097.7,770.46 1099.04,768.83 1098.88,766.96C1098.82,766.692 1098.85,766.414 1098.95,766.16C1099.12,765.969 1099.34,765.833 1099.58,765.77C1100.63,765.359 1101.74,765.106 1102.86,765.02C1103.99,764.948 1105.09,765.385 1105.86,766.21C1106.33,766.77 1106.63,767.55 1107.32,767.8C1107.65,767.87 1107.99,767.87 1108.32,767.8C1110,767.63 1111.79,767.42 1113.08,766.33C1114.33,765.216 1115.05,763.631 1115.08,761.96C1115.08,761.34 1114.8,760.69 1115.75,760.56C1116.48,760.46 1117.05,761.22 1117.42,761.72C1118.88,763.428 1119.97,765.42 1120.63,767.57C1120.82,767.491 1121.03,767.45 1121.24,767.45C1122.11,767.438 1122.92,767.858 1123.42,768.57C1124,769.469 1124.23,770.553 1124.06,771.61Z" style="fill:rgb(81,78,127);fill-rule:nonzero;"/>
        </g>
        <g transform="matrix(1,0,0,1,-51.77,-47.02)">
            <path d="M1124.06,771.61C1123.76,774.02 1122.23,776.1 1120.55,777.86C1118.76,779.498 1117.12,781.295 1115.65,783.23C1113.99,785.75 1113.26,788.86 1111.12,790.99C1110.31,791.779 1109.39,792.452 1108.4,792.99C1107.28,793.65 1106.1,794.193 1104.87,794.61C1101.68,795.61 1098.24,795.4 1094.87,795.16C1093.79,795.147 1092.72,794.937 1091.71,794.54C1091.24,794.309 1090.79,794.038 1090.37,793.73C1089.55,793.202 1088.87,792.494 1088.37,791.66C1089.01,791.348 1089.72,791.18 1090.43,791.17C1091.92,791.25 1093,792.65 1094.43,793.08C1096.43,793.69 1098.43,792.26 1100.52,791.77C1101.86,791.46 1103.28,791.55 1104.59,791.12C1105.69,790.694 1106.7,790.078 1107.59,789.3C1108.81,788.43 1109.89,787.385 1110.8,786.2C1111.56,785.018 1112.2,783.757 1112.69,782.44C1113.77,779.916 1115.05,777.479 1116.5,775.15C1116.71,774.784 1116.98,774.448 1117.28,774.15C1117.59,773.86 1117.98,773.65 1118.28,773.39C1119.65,772.39 1120.22,770.62 1120.7,768.98C1120.83,768.472 1121.01,767.979 1121.24,767.51C1122.11,767.498 1122.92,767.918 1123.42,768.63C1123.99,769.512 1124.22,770.572 1124.06,771.61Z" style="fill:rgb(70,67,83);fill-rule:nonzero;"/>
        </g>
        <g transform="matrix(1,0,0,1,-51.77,-47.02)">
            <path d="M980.4,558C982.091,559.273 983.484,560.902 984.48,562.77C985.48,564.65 990.97,579.25 990.65,581.34C992.45,579.52 999.59,579.22 1001.38,577.41C1002.14,576.65 1006.25,572.85 1006.86,571.97C1007.47,571.09 1012.05,569.2 1012.55,568.3C1014.42,564.95 999.29,552.3 1001.22,548.94C1001.33,548.79 1001.39,548.606 1001.38,548.42C1001.34,548.265 1001.25,548.125 1001.13,548.02C999.785,546.862 998.316,545.856 996.75,545.02C995.164,544.166 993.967,542.733 993.41,541.02C991.986,541.676 990.678,542.561 989.54,543.64C986.773,546.007 984.047,548.433 981.36,550.92C980.3,551.92 978.28,553.19 977.79,554.58C977.3,555.97 979.39,557.18 980.4,558Z" style="fill:rgb(161,97,106);fill-rule:nonzero;"/>
        </g>
        <g transform="matrix(1,0,0,1,-51.77,-47.02)">
            <path d="M1004.89,552.61C1002.57,554.166 1000.4,555.941 998.41,557.91C996.53,559.76 994.75,561.91 994.28,564.52C994.09,565.52 994.12,566.58 993.96,567.61C993.29,572.09 989.4,575.38 987.69,579.61C987.189,580.903 986.821,582.243 986.59,583.61C986.111,586.204 985.85,588.833 985.81,591.47C985.81,594.03 988.27,595.79 989.19,598.18C989.954,600.548 990.5,602.982 990.82,605.45C991.822,610.052 993.19,614.566 994.91,618.95C998.29,628.28 1009.24,654.08 1012.62,663.42C1022.97,660.82 1050.53,654.85 1059.69,649.42C1062.75,647.6 1038.49,627.04 1041.76,625.62C1042.14,625.506 1042.46,625.261 1042.67,624.93C1042.78,624.606 1042.78,624.254 1042.67,623.93C1039.41,609.64 1029.18,597.93 1024.55,583.93C1022.94,579.1 1020.05,574.98 1017.85,570.38C1015.85,566.22 1014.8,561.63 1012.43,557.68C1011.98,556.867 1011.39,556.134 1010.7,555.51C1010.1,555.06 1009.46,554.675 1008.78,554.36C1007.47,553.66 1006.21,553.27 1004.89,552.61Z" style="fill:rgb(81,78,127);fill-rule:nonzero;"/>
        </g>
        <circle cx="929.18" cy="493.15" r="16.2" style="fill:rgb(161,97,106);"/>
        <g transform="matrix(1,0,0,1,-51.77,-47.02)">
            <path d="M997.43,547.78C999.08,546.261 1001.51,545.913 1003.52,546.91C1004.67,547.406 1005.4,548.576 1005.33,549.83L1013.33,549.95C1014.61,549.921 1015.89,550.038 1017.14,550.3C1018.4,550.576 1019.52,551.284 1020.32,552.3C1020.42,552.43 1020.53,552.58 1020.69,552.61C1020.82,552.606 1020.95,552.561 1021.06,552.48C1022.29,551.853 1023.69,551.602 1025.06,551.76C1029.4,552.04 1033.42,554.22 1036.82,556.93C1037.44,557.349 1037.93,557.944 1038.22,558.64C1038.5,559.55 1038.22,560.72 1038.88,561.34C1038.88,568.89 1041.47,575.92 1043.2,583.27C1043.5,584.58 1044.76,585.73 1045.63,586.76C1046.71,587.899 1047.59,589.21 1048.23,590.64C1049.69,594.45 1047.67,598.92 1049.1,602.75C1049.82,604.316 1050.75,605.778 1051.86,607.1C1053.15,608.72 1053.96,610.666 1054.21,612.72C1054.27,613.64 1054.15,614.56 1054.21,615.49C1054.3,616.724 1054.52,617.945 1054.87,619.13C1055.45,621.34 1056.07,623.55 1056.71,625.75C1057.71,629.31 1059.11,633.16 1062.3,635.06C1054.59,636.37 1046.47,637.64 1039.12,634.97C1038.1,634.619 1037.12,634.131 1036.23,633.52C1033.58,631.63 1032.3,628.39 1031.16,625.34C1029.88,621.91 1028.58,618.43 1028.32,614.78C1028.33,613.613 1028.17,612.451 1027.84,611.33C1027.09,609.33 1025.11,608.14 1023.29,607.04C1021.25,605.92 1019.4,604.482 1017.82,602.78C1016.23,601.047 1015.42,598.728 1015.6,596.38C1015.74,595.25 1016.18,594.16 1016.23,593.02C1016.37,591.858 1015.74,590.733 1014.67,590.25C1009.06,588.55 1006.38,581.91 1005.13,576.18C1004.59,573.212 1004.35,570.197 1004.41,567.18L1004.34,561.39C1002.77,559.97 1001.86,557.964 1001.82,555.85C1001.91,555.243 1001.91,554.627 1001.82,554.02C1001.56,553.262 1001.12,552.577 1000.54,552.02C999.288,550.778 998.239,549.347 997.43,547.78Z" style="fill:rgb(70,67,83);fill-rule:nonzero;"/>
        </g>
        <g transform="matrix(1,0,0,1,-51.77,-47.02)">
            <path d="M980.17,566.31C979.99,568.12 980.4,569.97 979.99,571.75C979.83,572.43 979.56,573.08 979.36,573.75C978.756,576.302 979.02,578.984 980.11,581.37C981.197,583.735 982.499,585.994 984,588.12C984.515,588.84 984.935,589.623 985.25,590.45C985.51,591.319 985.671,592.215 985.73,593.12C986.126,596.739 986.764,600.327 987.64,603.86C988.4,606.94 989.39,610.05 991.42,612.49C991.79,613.025 992.347,613.403 992.98,613.55C993.44,613.566 993.896,613.47 994.31,613.27L998.45,611.7C998.814,611.594 999.154,611.417 999.45,611.18C999.828,610.725 1000.03,610.151 1000.03,609.56C1000.32,606.22 999.32,602.91 998.21,599.75C994.85,590.21 990.39,581.02 988.21,571.15C987.6,568.39 987.28,564.15 985.27,562C984.44,561.1 984.72,561.48 983.73,562C983.23,562.225 982.746,562.482 982.28,562.77C981.076,563.567 980.298,564.871 980.17,566.31Z" style="fill:rgb(70,67,83);fill-rule:nonzero;"/>
        </g>
        <g transform="matrix(1,0,0,1,-51.77,-47.02)">
            <path d="M992.65,584.41C993.75,590.23 994.873,596.053 996.02,601.88L1012.1,597.66C1012.23,595.98 1011.33,594.42 1010.71,592.85C1009.24,589.17 1009.21,585.08 1008.02,581.3C1007.12,578.42 1005.56,575.77 1004.72,572.87C1004.23,571.19 1003.99,569.43 1003.51,567.74C1002.99,566.07 1002.36,564.436 1001.62,562.85C1000.71,560.548 999.534,558.363 998.11,556.34C996.05,557.11 993.86,558 992.69,559.85C992.079,560.904 991.736,562.092 991.69,563.31C991.41,566.93 992.69,570.56 992.28,574.14C991.849,577.561 991.974,581.029 992.65,584.41Z" style="fill:rgb(15,121,209);fill-rule:nonzero;"/>
        </g>
        <g transform="matrix(1,0,0,1,-51.77,-47.02)">
            <path d="M1012.37,662C1013.27,665.44 1011.96,669 1010.9,672.42C1009.29,677.529 1008.19,682.784 1007.62,688.11C1007.56,689.478 1007.29,690.828 1006.81,692.11C1006.21,693.209 1005.56,694.277 1004.86,695.31C1003.24,698.17 1003.28,701.67 1003.63,704.94C1003.86,707.1 1004.21,709.25 1004.63,711.38C1005.16,713.97 1005.81,716.69 1005.05,719.22C1006.32,718.94 1007.19,720.58 1007.14,721.89C1007.09,723.2 1006.63,724.6 1007.25,725.75C1008.83,726.32 1008.85,728.49 1008.8,730.16C1008.82,733.073 1009.19,735.973 1009.89,738.8C1012.28,750.26 1014.81,761.69 1017.49,773.09C1023.28,774.89 1030.04,776.76 1035.56,774.27C1036.65,773.918 1037.5,773.06 1037.85,771.97C1037.91,771.371 1037.83,770.767 1037.63,770.2L1035.01,760.68C1034.22,758.435 1033.9,756.053 1034.07,753.68C1034.33,751.91 1035.07,750.01 1034.23,748.46C1033.93,747.93 1033.47,747.46 1033.13,747C1031.75,745 1032.47,742.31 1032.59,739.87C1032.63,739.324 1032.59,738.774 1032.47,738.24C1032.28,737.616 1032.02,737.015 1031.7,736.45C1029.54,732.252 1028.51,727.566 1028.7,722.85C1028.78,722.246 1028.7,721.63 1028.46,721.07C1028.29,720.846 1028.14,720.605 1028.02,720.35C1027.91,719.911 1027.96,719.447 1028.16,719.04C1027.37,718.466 1026.66,717.794 1026.05,717.04C1026.9,716.487 1027.41,715.539 1027.41,714.526C1027.41,713.738 1027.1,712.981 1026.55,712.42C1027.27,712.279 1027.79,711.642 1027.79,710.909C1027.79,710.476 1027.61,710.062 1027.29,709.77C1026.95,709.53 1026.51,709.43 1026.29,709.09C1025.92,708.59 1026.22,707.88 1026.52,707.34L1028.12,704.45C1029.31,702.31 1029.58,699.66 1030.86,697.57C1032.59,694.512 1034.01,691.285 1035.08,687.94L1039.64,675.24L1042.74,677.93C1043.78,678.719 1044.64,679.709 1045.29,680.84C1045.73,681.954 1046.01,683.126 1046.11,684.32C1047.25,691.22 1051.6,697.2 1053.21,704.01C1053.43,705.551 1053.93,707.04 1054.67,708.41C1054.98,708.807 1055.26,709.228 1055.51,709.67C1055.74,710.343 1055.86,711.049 1055.86,711.76C1056.15,714.579 1057.65,717.137 1059.97,718.76C1061.49,719.76 1063.42,720.53 1064.22,722.19C1064.39,722.703 1064.63,723.193 1064.92,723.65C1065.66,724.54 1067.26,724.65 1067.58,725.76C1067.75,726.39 1067.42,727.13 1067.78,727.68C1067.97,727.931 1068.23,728.125 1068.53,728.24L1073,730.48C1078,732.97 1080.52,738.68 1084.21,742.87C1085.48,744.225 1086.61,745.713 1087.56,747.31C1089.15,750.15 1089.89,753.72 1092.56,755.55C1093.28,755.926 1093.93,756.412 1094.5,756.99C1095.35,758.1 1095.04,759.66 1095.11,761.06C1095.18,762.46 1096.26,764.12 1097.59,763.7C1097.12,765.391 1097.12,767.179 1097.59,768.87C1103.42,768.568 1108.99,766.314 1113.39,762.47C1114.69,761.33 1115.95,759.88 1115.96,758.16C1115.98,757.862 1115.91,757.564 1115.77,757.3C1115.51,756.96 1115.17,756.697 1114.77,756.54C1110.6,754.28 1109.34,749.04 1107.25,744.78C1105.4,741.03 1102.68,737.78 1100.37,734.3C1095.37,726.8 1092.03,717.73 1084.52,712.77C1082.87,711.68 1080.95,710.71 1080.13,708.91C1079.78,707.86 1079.49,706.792 1079.25,705.71C1078.97,704.618 1078.02,703.816 1076.9,703.71C1077.38,702.088 1077.56,700.395 1077.44,698.71C1077.48,697.984 1077.4,697.257 1077.19,696.56C1076.91,695.813 1076.54,695.101 1076.09,694.44C1074.13,691.112 1073.15,687.299 1073.26,683.44C1073.32,681.44 1073.67,679.44 1073.07,677.53C1072.77,676.53 1072.25,675.7 1071.88,674.77C1071.33,673.107 1071.04,671.37 1071.02,669.62L1070.61,663.03C1070.55,660.836 1070.27,658.655 1069.76,656.52C1068.37,651.41 1067.04,630 1062.33,627.59C1057.62,625.18 1049.58,641.65 1044.33,641.98C1041.98,642.081 1039.67,642.526 1037.45,643.3C1033.94,644.62 1030.99,647.08 1028.12,649.49L1018.4,657.65C1016.55,659.308 1014.53,660.766 1012.37,662Z" style="fill:rgb(70,67,83);fill-rule:nonzero;"/>
        </g>
        <g transform="matrix(1,0,0,1,-51.77,-47.02)">
            <path d="M965.74,522.18C968.03,519.308 971.497,517.617 975.17,517.58C978.806,517.579 982.387,518.479 985.59,520.2C986.536,520.737 987.543,521.156 988.59,521.45C990.31,521.8 992.21,521.33 993.76,522.15C995.82,523.24 996.21,526.02 996.03,528.34C995.85,530.66 995.42,533.2 996.65,535.19C997.08,535.76 997.477,536.355 997.84,536.97C998.223,538.217 998.184,539.557 997.73,540.78C997.02,539.979 996.352,539.141 995.73,538.27C995.01,537.48 993.78,536.94 992.9,537.53C992.02,538.12 992.02,539.21 991.98,540.18C991.94,541.15 991.68,542.32 990.76,542.64C989.996,542.786 989.213,542.472 988.76,541.84C987.19,539.92 987.82,536.84 986.27,534.92C985.38,533.82 983.91,533.29 983.09,532.14C982.45,531.24 982.29,530.07 981.73,529.14C981.17,528.21 979.86,527.45 978.98,528.14C978.683,528.43 978.436,528.768 978.25,529.14C977.136,530.732 975.057,531.356 973.25,530.64C972.572,530.234 971.842,529.921 971.08,529.71C970.071,529.652 969.112,530.173 968.61,531.05C968.13,531.924 967.904,532.915 967.96,533.91C967.96,535.26 968.2,536.74 967.42,537.84C967.1,538.244 966.707,538.583 966.26,538.84C965.11,539.57 963.54,540.06 962.46,539.23C961.734,538.552 961.412,537.543 961.61,536.57C961.817,535.616 962.088,534.678 962.42,533.76C963.02,531.64 962.24,529.25 962.9,527.25C963.601,525.434 964.557,523.726 965.74,522.18Z" style="fill:rgb(70,67,83);fill-rule:nonzero;"/>
        </g>
        <g transform="matrix(1,0,0,1,-51.77,-47.02)">
            <path d="M974.42,570.51C974.317,571.01 974.369,571.53 974.57,572C974.775,572.32 975.053,572.587 975.38,572.78C977.689,574.209 980.311,575.057 983.02,575.25C983.37,575.263 983.712,575.355 984.02,575.52C984.604,576.062 984.784,576.918 984.47,577.65C984.157,578.362 983.993,579.132 983.99,579.91C984.19,581.34 985.88,581.99 987.32,582.17C989.321,582.577 991.405,582.174 993.11,581.05C994.188,580.067 995.009,578.834 995.5,577.46C999.43,568.46 1000.81,558.46 1004.79,549.46C1005.1,548.876 1005.3,548.243 1005.39,547.59C1005.48,546.923 1005.19,546.26 1004.65,545.86C1003.91,545.4 1002.76,545.66 1002.26,544.95C1002.01,544.58 1002.04,544.09 1001.82,543.71C1001.36,542.89 1000.16,542.99 999.33,542.55C998.69,542.2 998.24,541.55 997.53,541.36C996.812,541.321 996.115,541.621 995.65,542.17C993.32,544.35 992.09,547.44 990.79,550.36C988.785,554.834 986.445,559.149 983.79,563.27C984.1,562.79 982.31,559.14 981.61,559C980.39,558.75 978.81,560.9 978.15,561.71C976.099,564.231 974.805,567.283 974.42,570.51Z" style="fill:rgb(15,121,209);fill-rule:nonzero;"/>
        </g>
        <rect x="930.83" y="536.29" width="78.03" height="78.03" style="fill:white;"/>
        <g transform="matrix(1,0,0,1,-51.77,-47.02)">
            <path d="M1022.22,609.51L1022.22,599.27L996.64,599.27L996.64,645.37L1046.59,645.37L1046.59,609.51L1022.22,609.51ZM1006.87,640.24L1001.76,640.24L1001.76,635.12L1006.87,635.12L1006.87,640.24ZM1006.87,630L1001.76,630L1001.76,624.88L1006.87,624.88L1006.87,630ZM1006.87,619.76L1001.76,619.76L1001.76,614.63L1006.87,614.63L1006.87,619.76ZM1006.87,609.51L1001.76,609.51L1001.76,604.38L1006.87,604.38L1006.87,609.51ZM1017.1,640.24L1012,640.24L1012,635.12L1017.11,635.12L1017.1,640.24ZM1017.1,630L1012,630L1012,624.88L1017.11,624.88L1017.1,630ZM1017.1,619.76L1012,619.76L1012,614.63L1017.11,614.63L1017.1,619.76ZM1017.1,609.51L1012,609.51L1012,604.38L1017.11,604.38L1017.1,609.51ZM1041.48,640.24L1022.22,640.24L1022.22,635.12L1027.33,635.12L1027.33,630L1022.22,630L1022.22,624.88L1027.33,624.88L1027.33,619.75L1022.22,619.75L1022.22,614.63L1041.48,614.63L1041.48,640.24ZM1037,619.76L1031.89,619.76L1031.89,624.89L1037,624.89L1037,619.76ZM1037,630L1031.89,630L1031.89,635.13L1037,635.13L1037,630Z" style="fill:rgb(15,121,209);fill-rule:nonzero;"/>
        </g>
        <g transform="matrix(1,0,0,1,-51.77,-47.02)">
            <path d="M1060,626.29C1058.66,627.476 1057.42,628.774 1056.3,630.17C1055.16,631.585 1054.56,633.356 1054.6,635.17C1054.61,635.694 1054.78,636.204 1055.08,636.63C1055.4,637.055 1055.96,637.228 1056.47,637.06C1056.74,636.912 1056.97,636.703 1057.15,636.45C1057.87,635.577 1058.64,634.742 1059.45,633.95C1059.75,633.66 1060.13,633.35 1060.53,633.46C1060.71,633.522 1060.87,633.629 1061,633.77C1061.47,634.166 1061.82,634.69 1062,635.28C1062.11,636.36 1061.72,637.431 1060.94,638.19C1060.16,638.935 1059.55,639.839 1059.15,640.84C1059.04,641.112 1059.04,641.418 1059.15,641.69C1059.28,641.886 1059.47,642.045 1059.68,642.15C1061.67,643.232 1064.04,643.386 1066.15,642.57C1067.54,642.02 1068.74,641.06 1070.15,640.57C1070.76,640.409 1071.35,640.188 1071.92,639.91C1072.74,639.373 1073.3,638.529 1073.49,637.57C1073.67,636.617 1073.7,635.644 1073.6,634.68C1073.42,630.936 1072.61,627.25 1071.19,623.78C1071.12,623.555 1070.98,623.354 1070.8,623.2C1070.6,623.082 1070.37,623.016 1070.14,623.01C1068.39,622.83 1065.51,621.93 1063.82,622.58C1063.23,622.901 1062.72,623.356 1062.33,623.91C1061.94,624.26 1060,625.83 1060,626.29Z" style="fill:rgb(161,97,106);fill-rule:nonzero;"/>
        </g>
        <g transform="matrix(1,0,0,1,-51.77,-47.02)">
            <path d="M1059.4,624.74C1059.4,623.06 1057.32,619.03 1060.61,618.74C1060.61,616.96 1058.08,615.84 1058.54,613.96C1058.7,613.32 1059.21,612.81 1059.29,612.17C1059.5,610.34 1056.2,609.35 1056.74,607.59C1056.94,606.92 1057.67,606.51 1057.83,605.83C1058.2,604.25 1055.37,603.54 1055.32,601.92C1055.32,601.37 1055.62,600.85 1055.6,600.31C1055.6,599.62 1055,599.1 1054.67,598.51C1053.82,596.98 1054.23,594.61 1052.67,593.83C1053.67,593.91 1054.06,592.38 1053.62,591.44C1053.18,590.5 1052.32,589.69 1052.32,588.65C1052.37,588.268 1052.37,587.882 1052.32,587.5C1052.03,586.5 1050.39,586.43 1050.12,585.43C1050.1,585.054 1050.1,584.676 1050.12,584.3C1050.02,583.52 1049.22,583.04 1048.47,582.81C1047.7,582.684 1046.95,582.419 1046.27,582.03C1045.79,581.66 1045.27,581.03 1044.72,581.38C1044.53,581.49 1044.43,581.71 1044.28,581.88C1043.67,582.59 1042.5,582.28 1041.72,581.75C1039.43,580.2 1038.3,577.41 1037.8,574.69C1037.3,571.97 1037.33,569.16 1036.73,566.46C1036.54,565.624 1036.3,564.802 1036,564C1035.53,563.224 1035.14,562.399 1034.84,561.54C1034.72,559.97 1037.98,561.04 1039.22,561.2C1040.42,561.312 1041.62,561.536 1042.78,561.87C1044.02,562.336 1045.23,562.867 1046.41,563.46C1051.41,565.65 1057.33,565.92 1061.31,569.59C1062.62,570.8 1063.72,572.38 1065.41,572.92C1066.19,573.076 1066.95,573.277 1067.71,573.52C1069.6,574.41 1069.89,576.91 1070.92,578.72C1071.24,579.197 1071.53,579.699 1071.77,580.22C1071.96,580.841 1072.06,581.49 1072.04,582.14L1072.18,586.89C1072.41,594.89 1072.65,602.82 1071.8,610.73C1071.52,613.33 1071.13,616.02 1071.89,618.53C1072.09,619.21 1072.38,619.86 1072.55,620.53C1072.71,621.344 1072.8,622.17 1072.81,623L1072.92,626.07C1072.96,626.317 1072.91,626.571 1072.77,626.78C1072.54,626.967 1072.23,627.041 1071.94,626.98C1067.65,626.6 1063.33,624.18 1059.28,625.64" style="fill:rgb(70,67,83);fill-rule:nonzero;"/>
        </g>
        <g transform="matrix(1,0,0,1,-51.77,-47.02)">
            <path d="M979.66,612.21C979.47,612.303 979.306,612.44 979.18,612.61C978.289,613.813 978.289,615.467 979.18,616.67C979.282,616.789 979.363,616.924 979.42,617.07C979.449,617.304 979.407,617.54 979.3,617.75C978.875,618.572 978.999,619.576 979.61,620.27C979.92,620.53 980.34,620.66 980.54,621C980.89,621.58 980.4,622.32 980.48,623C980.58,623.89 981.63,624.33 982.48,624.44C983.175,624.605 983.909,624.409 984.43,623.92C984.78,623.383 984.78,622.687 984.43,622.15C984.082,621.627 983.633,621.178 983.11,620.83C984.104,620.779 984.917,619.992 985,619C985.072,618.031 984.641,617.089 983.86,616.51C983.68,616.36 983.46,616.21 983.41,615.97C983.36,615.73 983.6,615.4 983.82,615.17C984.82,614.17 985.59,611.72 983.71,611.17C983.045,611.054 982.362,611.085 981.71,611.26C981.23,611.41 981.23,611.7 980.86,611.9C980.49,612.1 980.08,612 979.66,612.21Z" style="fill:rgb(161,97,106);fill-rule:nonzero;"/>
        </g>
        <g transform="matrix(1,0,0,1,-51.77,-47.02)">
            <path d="M999.31,543.14C998.314,543.161 997.38,543.632 996.77,544.42C996.142,545.449 995.778,546.617 995.71,547.82C995.099,551.666 993.74,555.356 991.71,558.68" style="fill-opacity:0.1;fill-rule:nonzero;"/>
        </g>
        <g transform="matrix(1,0,0,1,-51.77,-47.02)">
            <path d="M1002.81,545.88C1001.43,545.907 1000.16,546.67 999.49,547.88C999.033,548.959 998.749,550.103 998.65,551.27C998.064,553.852 996.928,556.277 995.32,558.38" style="fill-opacity:0.1;fill-rule:nonzero;"/>
        </g>
        <g transform="matrix(1,0,0,1,-51.77,-47.02)">
            <path d="M357.66,609.59C358.24,615.91 353.47,622.03 354.86,628.21C355.16,629.53 355.73,630.78 355.94,632.11C356.51,635.78 354.32,639.26 352.23,642.33L334.29,668.67C333.563,669.826 332.7,670.89 331.72,671.84C328.28,674.84 323.14,674.57 318.63,675.48C315.465,676.128 312.477,677.451 309.87,679.36C309.623,679.545 309.569,679.9 309.75,680.15C311.264,682.206 313.721,683.359 316.27,683.21C316.74,683.83 316.27,684.74 315.62,685.21C314.62,685.88 313.33,686.05 313.14,687.69C313.072,688.258 313.188,688.833 313.47,689.33C314.192,690.438 315.319,691.221 316.61,691.51C322.82,693.41 329.54,690.08 334.18,685.51C338.82,680.94 342.18,675.24 346.74,670.61C349.27,668.06 352.14,665.86 354.74,663.38C359.94,658.44 363.97,652.38 367.87,646.38C369.141,644.63 370.102,642.675 370.71,640.6C371.19,638.54 370.97,636.37 371.53,634.33C372.25,631.67 374.21,629.54 375.83,627.33C379.02,622.95 381.14,617.58 380.72,612.18C380.3,606.78 376.96,601.44 371.86,599.61C370.271,598.969 368.516,598.86 366.86,599.3C364.77,599.95 363.23,601.68 361.8,603.3L358.4,607.24C357.54,608.096 356.859,609.116 356.4,610.24C355.954,611.395 356.229,612.71 357.1,613.59" style="fill:rgb(251,190,190);fill-rule:nonzero;"/>
        </g>
        <g transform="matrix(1,0,0,1,-51.77,-47.02)">
            <path d="M357.66,609.59C358.24,615.91 353.47,622.03 354.86,628.21C355.16,629.53 355.73,630.78 355.94,632.11C356.51,635.78 354.32,639.26 352.23,642.33L334.29,668.67C333.563,669.826 332.7,670.89 331.72,671.84C328.28,674.84 323.14,674.57 318.63,675.48C315.465,676.128 312.477,677.451 309.87,679.36C309.623,679.545 309.569,679.9 309.75,680.15C311.264,682.206 313.721,683.359 316.27,683.21C316.74,683.83 316.27,684.74 315.62,685.21C314.62,685.88 313.33,686.05 313.14,687.69C313.072,688.258 313.188,688.833 313.47,689.33C314.192,690.438 315.319,691.221 316.61,691.51C322.82,693.41 329.54,690.08 334.18,685.51C338.82,680.94 342.18,675.24 346.74,670.61C349.27,668.06 352.14,665.86 354.74,663.38C359.94,658.44 363.97,652.38 367.87,646.38C369.141,644.63 370.102,642.675 370.71,640.6C371.19,638.54 370.97,636.37 371.53,634.33C372.25,631.67 374.21,629.54 375.83,627.33C379.02,622.95 381.14,617.58 380.72,612.18C380.3,606.78 376.96,601.44 371.86,599.61C370.271,598.969 368.516,598.86 366.86,599.3C364.77,599.95 363.23,601.68 361.8,603.3L358.4,607.24C357.54,608.096 356.859,609.116 356.4,610.24C355.954,611.395 356.229,612.71 357.1,613.59" style="fill-opacity:0.05;fill-rule:nonzero;"/>
        </g>
        <g transform="matrix(1,0,0,1,-51.77,-47.02)">
            <path d="M221,636.44C222,639.6 223,642.76 224.21,645.84C226.421,651.18 229.207,656.264 232.52,661C234.653,664.117 236.946,667.121 239.39,670C242.45,673.61 245.87,677.24 246.95,681.85C247.58,684.51 247.37,687.3 247.63,690.02C247.89,692.74 248.78,695.63 250.98,697.26C252.651,698.294 254.542,698.917 256.5,699.08C257.88,699.3 259.61,699.37 260.33,698.17C260.582,697.682 260.713,697.14 260.71,696.59L261.05,692.59C261.12,691.73 261.42,690.59 262.28,690.59C263.14,690.59 263.58,691.7 264.28,692.21C264.596,692.381 264.95,692.47 265.31,692.47C266.155,692.47 266.926,691.977 267.28,691.21C267.727,690.091 267.756,688.848 267.36,687.71C266.152,683.135 263.047,679.287 258.83,677.14C257.38,676.545 255.987,675.819 254.67,674.97C253.332,673.813 252.223,672.416 251.4,670.85C243.84,658.4 236.24,645.85 230.9,632.34C229.849,629.92 229.138,627.365 228.79,624.75C228.682,622.079 228.792,619.403 229.12,616.75C229.433,611.95 228.987,607.131 227.8,602.47C227.54,601.245 227.077,600.072 226.43,599C224.24,595.66 219.07,595.17 215.81,597.47C213.386,599.339 211.854,602.141 211.59,605.19C211.35,607.88 212.91,610.69 213.7,613.19C216.147,620.937 218.58,628.687 221,636.44Z" style="fill:rgb(161,97,106);fill-rule:nonzero;"/>
        </g>
        <g transform="matrix(1,0,0,1,-51.77,-47.02)">
            <path d="M221,636.44C222,639.6 223,642.76 224.21,645.84C226.421,651.18 229.207,656.264 232.52,661C234.653,664.117 236.946,667.121 239.39,670C242.45,673.61 245.87,677.24 246.95,681.85C247.58,684.51 247.37,687.3 247.63,690.02C247.89,692.74 248.78,695.63 250.98,697.26C252.651,698.294 254.542,698.917 256.5,699.08C257.88,699.3 259.61,699.37 260.33,698.17C260.582,697.682 260.713,697.14 260.71,696.59L261.05,692.59C261.12,691.73 261.42,690.59 262.28,690.59C263.14,690.59 263.58,691.7 264.28,692.21C264.596,692.381 264.95,692.47 265.31,692.47C266.155,692.47 266.926,691.977 267.28,691.21C267.727,690.091 267.756,688.848 267.36,687.71C266.152,683.135 263.047,679.287 258.83,677.14C257.38,676.545 255.987,675.819 254.67,674.97C253.332,673.813 252.223,672.416 251.4,670.85C243.84,658.4 236.24,645.85 230.9,632.34C229.849,629.92 229.138,627.365 228.79,624.75C228.682,622.079 228.792,619.403 229.12,616.75C229.433,611.95 228.987,607.131 227.8,602.47C227.54,601.245 227.077,600.072 226.43,599C224.24,595.66 219.07,595.17 215.81,597.47C213.386,599.339 211.854,602.141 211.59,605.19C211.35,607.88 212.91,610.69 213.7,613.19C216.147,620.937 218.58,628.687 221,636.44Z" style="fill-opacity:0.05;fill-rule:nonzero;"/>
        </g>
        <g transform="matrix(1,0,0,1,-51.77,-47.02)">
            <path d="M372.75,755.18C368.83,757.57 363.95,757.71 359.39,757.18C358.66,757.09 357.79,757.03 357.32,757.6C356.64,758.42 357.44,759.6 358.27,760.3C360.962,762.312 364.121,763.61 367.45,764.07C370.432,764.486 373.439,764.687 376.45,764.67C384.64,764.81 392.87,764.94 400.98,763.76C401.45,763.729 401.907,763.595 402.32,763.37C402.834,762.999 403.19,762.45 403.32,761.83C403.72,759.642 402.899,757.401 401.18,755.99C399.475,754.628 397.537,753.588 395.46,752.92L388.34,750.15C386.67,749.5 383.98,747.77 382.17,747.91C378.81,748.13 375.58,753.52 372.75,755.18Z" style="fill:rgb(63,61,86);fill-rule:nonzero;"/>
        </g>
        <g transform="matrix(1,0,0,1,-51.77,-47.02)">
            <path d="M390.64,771.91C387.361,774.847 383.091,776.441 378.69,776.37C377.57,776.37 376.01,776.58 376.01,777.7C376.026,778.034 376.137,778.357 376.33,778.63C377.724,780.948 379.926,782.672 382.51,783.47C384.952,784.051 387.475,784.21 389.97,783.94L397.27,783.56C398.65,783.49 400.04,783.42 401.41,783.25C402.78,783.08 404.27,782.8 405.7,782.58C409.22,782.083 412.779,781.916 416.33,782.08C417.264,782.263 418.232,782.004 418.95,781.38C419.6,780.56 419.22,779.38 419.01,778.38C418.57,776.27 419.01,774.05 418.6,771.92C417.9,768.2 414.7,765.34 411.15,763.99C407.87,762.74 402.05,761.31 398.94,763.39C395.6,765.6 393.59,769.24 390.64,771.91Z" style="fill:rgb(63,61,86);fill-rule:nonzero;"/>
        </g>
        <g transform="matrix(1,0,0,1,-51.77,-47.02)">
            <path d="M376.22,677.45C373.22,681.4 370.22,685.96 370.92,690.84C371.32,693.47 372.79,695.79 373.87,698.23C375.227,701.577 376.233,705.055 376.87,708.61C377.98,713.78 379.09,718.96 379.78,724.2C380.546,730.134 380.764,736.126 380.43,742.1C380.34,743.54 380.18,745.1 379.18,746.1C378.78,746.5 378.26,746.83 378.09,747.37C377.982,747.881 378.064,748.415 378.32,748.87C380.151,752.62 383.331,755.546 387.22,757.06C391.083,758.541 395.183,759.307 399.32,759.32C399.869,759.383 400.425,759.311 400.94,759.11C401.495,758.775 401.932,758.275 402.19,757.68C405.19,751.98 403.52,745.1 403.57,738.68C403.57,733.31 404.87,727.99 404.64,722.62C404.45,718.32 403.3,714.12 402.88,709.83C402.19,702.83 403.48,695.73 404.77,688.78C405.77,683.46 406.77,678.13 408.02,672.86C408.656,669.613 409.818,666.492 411.46,663.62C412.86,661.41 414.76,659.56 416.36,657.48C420.783,651.672 422.752,644.353 421.84,637.11C421.74,636.39 411.54,639.69 410.66,640.11C406.983,641.655 403.6,643.824 400.66,646.52C398.3,648.76 396.45,651.76 394.38,654.28C391.46,657.833 388.587,661.407 385.76,665C382.533,669.12 379.353,673.27 376.22,677.45Z" style="fill:rgb(70,67,83);fill-rule:nonzero;"/>
        </g>
        <g transform="matrix(1,0,0,1,-51.77,-47.02)">
            <path d="M376.22,677.45C373.22,681.4 370.22,685.96 370.92,690.84C371.32,693.47 372.79,695.79 373.87,698.23C375.227,701.577 376.233,705.055 376.87,708.61C377.98,713.78 379.09,718.96 379.78,724.2C380.546,730.134 380.764,736.126 380.43,742.1C380.34,743.54 380.18,745.1 379.18,746.1C378.78,746.5 378.26,746.83 378.09,747.37C377.982,747.881 378.064,748.415 378.32,748.87C380.151,752.62 383.331,755.546 387.22,757.06C391.083,758.541 395.183,759.307 399.32,759.32C399.869,759.383 400.425,759.311 400.94,759.11C401.495,758.775 401.932,758.275 402.19,757.68C405.19,751.98 403.52,745.1 403.57,738.68C403.57,733.31 404.87,727.99 404.64,722.62C404.45,718.32 403.3,714.12 402.88,709.83C402.19,702.83 403.48,695.73 404.77,688.78C405.77,683.46 406.77,678.13 408.02,672.86C408.656,669.613 409.818,666.492 411.46,663.62C412.86,661.41 414.76,659.56 416.36,657.48C420.783,651.672 422.752,644.353 421.84,637.11C421.74,636.39 411.54,639.69 410.66,640.11C406.983,641.655 403.6,643.824 400.66,646.52C398.3,648.76 396.45,651.76 394.38,654.28C391.46,657.833 388.587,661.407 385.76,665C382.533,669.12 379.353,673.27 376.22,677.45Z" style="fill-opacity:0.05;fill-rule:nonzero;"/>
        </g>
        <g transform="matrix(1,0,0,1,-51.77,-47.02)">
            <path d="M397.88,647.07C398.52,650.13 401.49,652.47 401.57,655.6C401.64,658.1 399.86,660.2 398.57,662.35C397.358,664.574 396.334,666.895 395.51,669.29C393.081,675.518 390.068,681.501 386.51,687.16C384.8,689.88 382.88,692.83 383.28,696.02C383.548,697.509 384.073,698.94 384.83,700.25L389.97,710.46C391.097,712.498 391.976,714.664 392.59,716.91C393.04,718.85 393.08,720.91 393.34,722.83C394.15,729.09 397.08,735.39 395.34,741.46C395.19,741.98 394.64,742.61 394.23,742.25C395.93,745.42 397.3,748.62 397.16,752.25C397.1,754.14 396.52,756.1 397.22,757.86C397.612,758.518 397.876,759.244 398,760C398,760.51 397.76,761 397.71,761.51C397.57,762.95 398.89,764.16 400.27,764.62C401.65,765.08 403.15,765.05 404.54,765.46C407.22,766.26 409.12,768.56 411.42,770.16C413.742,771.769 416.486,772.663 419.31,772.73C419.711,772.772 420.115,772.692 420.47,772.5C420.877,772.144 421.114,771.631 421.12,771.09C421.37,768.493 420.307,765.935 418.29,764.28C417.874,763.998 417.531,763.621 417.29,763.18C417.161,762.783 417.127,762.362 417.19,761.95C417.61,756.336 417.51,750.695 416.89,745.1C416.619,743.327 416.532,741.531 416.63,739.74C416.926,738.269 417.07,736.771 417.06,735.27C416.745,733.805 416.286,732.375 415.69,731C414.9,728.45 415.12,725.71 415.04,723C414.741,718.373 413.984,713.787 412.78,709.31C412.516,707.505 411.781,705.801 410.65,704.37C409.58,703.25 407.85,702.19 408.26,700.7C408.487,700.148 408.828,699.651 409.26,699.24C410.267,697.983 410.712,696.365 410.49,694.77C411.413,695.005 412.381,694.55 412.79,693.69C421.286,689.487 427.787,682.094 430.87,673.13C431.047,672.483 431.32,671.866 431.68,671.3C432.45,670.22 433.8,669.75 434.99,669.15C438.73,667.27 441.31,663.74 443.68,660.29C445.171,658.362 446.309,656.185 447.04,653.86C447.364,652.335 447.518,650.779 447.5,649.22L447.71,641.22C447.751,640.692 447.7,640.161 447.56,639.65C447.356,639.171 447.061,638.736 446.69,638.37C444.408,635.965 441.414,634.352 438.15,633.77C435.96,633.38 433.72,633.45 431.5,633.27C427.2,632.91 422.95,631.58 418.64,631.89C411.88,632.39 405.86,637.08 402.64,643.06C401.46,645.2 400.28,647 397.88,647.07Z" style="fill:rgb(70,67,83);fill-rule:nonzero;"/>
        </g>
        <g transform="matrix(1,0,0,1,-51.77,-47.02)">
            <path d="M173.49,769.54C174.966,770.051 176.535,770.239 178.09,770.09C178.2,768.82 179.91,768.54 181.18,768.6C181.811,768.569 182.44,768.707 183,769C183.32,769.2 183.56,769.5 183.87,769.71C184.422,770.012 185.041,770.171 185.67,770.17L192.29,770.73C195.24,770.98 198.29,771.21 201.07,770.15C201.624,769.986 202.115,769.658 202.48,769.21C203.23,768.14 202.48,766.6 201.48,765.82C200.48,765.04 199.11,764.68 198.07,763.88C195.77,762.13 195.46,758.88 194.24,756.24C193.385,754.583 192.323,753.04 191.08,751.65C190.177,750.454 189.125,749.379 187.95,748.45C185.3,746.53 182.24,746.57 179.13,746.3C176.93,746.1 174.86,745.97 173.28,747.92C171.33,750.34 172.11,755.22 172.23,758.11C172.349,761.947 172.77,765.769 173.49,769.54Z" style="fill:rgb(81,78,127);fill-rule:nonzero;"/>
        </g>
        <g transform="matrix(1,0,0,1,-51.77,-47.02)">
            <path d="M173.49,769.54C174.966,770.051 176.535,770.239 178.09,770.09C178.2,768.82 179.91,768.54 181.18,768.6C181.811,768.569 182.44,768.707 183,769C183.32,769.2 183.56,769.5 183.87,769.71C184.422,770.012 185.041,770.171 185.67,770.17L192.29,770.73C195.24,770.98 198.29,771.21 201.07,770.15C201.624,769.986 202.115,769.658 202.48,769.21C203.23,768.14 202.48,766.6 201.48,765.82C200.48,765.04 199.11,764.68 198.07,763.88C195.77,762.13 195.46,758.88 194.24,756.24C193.385,754.583 192.323,753.04 191.08,751.65C190.177,750.454 189.125,749.379 187.95,748.45C185.3,746.53 182.24,746.57 179.13,746.3C176.93,746.1 174.86,745.97 173.28,747.92C171.33,750.34 172.11,755.22 172.23,758.11C172.349,761.947 172.77,765.769 173.49,769.54Z" style="fill-opacity:0.05;fill-rule:nonzero;"/>
        </g>
        <g transform="matrix(1,0,0,1,-51.77,-47.02)">
            <path d="M176.17,640.86C174.17,641.51 173.27,644.03 173.64,646.13C174.01,648.23 175.27,650.03 176.31,651.88C179.25,657.15 180.53,663.18 183,668.68C184.85,672.79 187.35,676.59 189.18,680.68C191.01,684.77 192.18,689.45 191.03,693.82C190.49,695.95 189.45,697.91 188.75,699.99C188.066,702.272 187.617,704.617 187.41,706.99C186.515,715.012 186.355,723.099 186.93,731.15C186.939,732.135 187.147,733.107 187.54,734.01C187.95,734.81 188.67,735.65 188.32,736.48C188.18,736.81 187.88,737.05 187.73,737.38C187.31,738.3 188.16,739.26 188.93,739.91C188.653,740.408 188.182,740.77 187.63,740.91C188.77,741.634 189.305,743.03 188.94,744.33C188.25,744.43 188.21,745.48 188.65,746.03C189.09,746.58 189.76,746.93 190.07,747.55C190.45,748.606 189.933,749.79 188.9,750.23C187.884,750.625 186.773,750.709 185.71,750.47C183.902,750.222 182.116,749.83 180.37,749.3C179.781,749.156 179.224,748.901 178.73,748.55C177.849,747.694 177.324,746.536 177.26,745.31C176.852,741.993 176.728,738.648 176.89,735.31C177.18,719.15 176.89,702.97 176.19,686.82C175.9,680.32 173.95,673.98 171.43,667.98C170.042,664.901 168.493,661.897 166.79,658.98C163.17,652.32 159.95,644.98 160.79,637.43C160.88,636.62 161.18,635.64 161.98,635.51C162.295,635.475 162.613,635.527 162.9,635.66C164.573,636.447 166.193,637.342 167.75,638.34C170.311,639.848 173.201,640.713 176.17,640.86Z" style="fill:rgb(70,67,83);fill-rule:nonzero;"/>
        </g>
        <g transform="matrix(1,0,0,1,-51.77,-47.02)">
            <path d="M176.17,640.86C174.17,641.51 173.27,644.03 173.64,646.13C174.01,648.23 175.27,650.03 176.31,651.88C179.25,657.15 180.53,663.18 183,668.68C184.85,672.79 187.35,676.59 189.18,680.68C191.01,684.77 192.18,689.45 191.03,693.82C190.49,695.95 189.45,697.91 188.75,699.99C188.066,702.272 187.617,704.617 187.41,706.99C186.515,715.012 186.355,723.099 186.93,731.15C186.939,732.135 187.147,733.107 187.54,734.01C187.95,734.81 188.67,735.65 188.32,736.48C188.18,736.81 187.88,737.05 187.73,737.38C187.31,738.3 188.16,739.26 188.93,739.91C188.653,740.408 188.182,740.77 187.63,740.91C188.77,741.634 189.305,743.03 188.94,744.33C188.25,744.43 188.21,745.48 188.65,746.03C189.09,746.58 189.76,746.93 190.07,747.55C190.45,748.606 189.933,749.79 188.9,750.23C187.884,750.625 186.773,750.709 185.71,750.47C183.902,750.222 182.116,749.83 180.37,749.3C179.781,749.156 179.224,748.901 178.73,748.55C177.849,747.694 177.324,746.536 177.26,745.31C176.852,741.993 176.728,738.648 176.89,735.31C177.18,719.15 176.89,702.97 176.19,686.82C175.9,680.32 173.95,673.98 171.43,667.98C170.042,664.901 168.493,661.897 166.79,658.98C163.17,652.32 159.95,644.98 160.79,637.43C160.88,636.62 161.18,635.64 161.98,635.51C162.295,635.475 162.613,635.527 162.9,635.66C164.573,636.447 166.193,637.342 167.75,638.34C170.311,639.848 173.201,640.713 176.17,640.86Z" style="fill-opacity:0.05;fill-rule:nonzero;"/>
        </g>
        <g transform="matrix(1,0,0,1,-51.77,-47.02)">
            <path d="M148.85,621.21C147.795,620.537 146.58,620.154 145.33,620.1C143.889,620.327 142.552,620.99 141.5,622C140.164,623.032 138.895,624.148 137.7,625.34C132.655,630.715 130.913,638.429 133.16,645.45C134.37,649.04 136.56,652.21 138.72,655.31L143.12,661.63C149.83,671.27 156.55,680.91 163.58,690.32C163.593,690.78 163.9,691.184 164.34,691.32C164.6,691.39 164.91,691.38 165.07,691.59C165.141,691.722 165.172,691.871 165.16,692.02C165.135,692.703 165.004,693.378 164.77,694.02C164.655,694.231 164.627,694.478 164.69,694.71C164.91,695.24 165.88,694.94 166.18,695.44C166.39,695.76 166.18,696.19 165.86,696.44C165.54,696.69 165.26,697.03 165.31,697.44C165.36,697.85 166.03,698.23 166,698.73C166,699.01 165.76,699.22 165.59,699.44C165.097,700.159 165.19,701.137 165.81,701.75C166.27,706.35 163.81,710.7 163.28,715.3C162.49,722.53 165.76,729.59 166.16,736.85C166.14,737.666 166.293,738.477 166.61,739.23C167.29,740.48 169.03,741.23 168.97,742.66C168.847,743.247 168.683,743.825 168.48,744.39C168.493,745.219 168.58,746.046 168.74,746.86C168.74,747.69 168.04,748.68 167.27,748.36C167.85,750.28 168.363,752.217 168.81,754.17L184.21,755.44C184.373,754.054 184.326,752.652 184.07,751.28C183.75,749.8 183.07,748.41 182.73,746.93C182.271,745.463 182.495,743.864 183.34,742.58C182.51,742.593 181.786,741.997 181.64,741.18C181.5,740.389 181.5,739.581 181.64,738.79C182.05,734.79 180.36,730.79 180.41,726.79C180.46,723.61 181.57,720.56 182.14,717.44C183.34,710.76 182.09,703.51 185.06,697.44C186.86,693.76 189.35,689.68 187.33,686.12C186.33,684.36 184.58,683.12 183.44,681.5C182.505,679.943 181.801,678.259 181.35,676.5C178.97,669.14 175.14,662.35 171.77,655.38C170.839,653.63 170.146,651.764 169.71,649.83C169.471,648.134 169.388,646.421 169.46,644.71C169.45,641.635 169.26,638.563 168.89,635.51C168.819,634.17 168.435,632.865 167.77,631.7C167.118,630.823 166.303,630.079 165.37,629.51C160.32,626.07 154.3,624.08 148.85,621.21Z" style="fill:rgb(70,67,83);fill-rule:nonzero;"/>
        </g>
        <g transform="matrix(1,0,0,1,-51.77,-47.02)">
            <path d="M167.3,775.18C168.776,775.691 170.345,775.879 171.9,775.73C172.02,774.46 173.72,774.18 174.99,774.24C175.606,774.221 176.216,774.362 176.76,774.65C177.08,774.85 177.32,775.15 177.64,775.36C178.191,775.665 178.811,775.823 179.44,775.82L186.05,776.38C189,776.63 192.05,776.86 194.84,775.8C195.39,775.633 195.877,775.305 196.24,774.86C196.99,773.79 196.24,772.25 195.24,771.47C194.24,770.69 192.87,770.33 191.82,769.53C189.53,767.78 189.21,764.53 187.99,761.89C187.135,760.233 186.073,758.69 184.83,757.3C183.931,756.105 182.882,755.029 181.71,754.1C179.05,752.18 176,752.22 172.89,751.95C170.68,751.75 168.61,751.62 167.04,753.57C165.04,755.99 165.86,760.87 165.98,763.76C166.124,767.595 166.566,771.413 167.3,775.18Z" style="fill:rgb(81,78,127);fill-rule:nonzero;"/>
        </g>
        <rect x="199.03" y="612.17" width="78.03" height="78.03" style="fill:white;"/>
        <g transform="matrix(1,0,0,1,-51.77,-47.02)">
            <path d="M312.87,695.59C312.87,704.49 308.7,710.09 302.11,710.09C298.74,710.09 296.17,708.29 295.72,705.62L295.24,705.62C294.096,708.387 291.298,710.127 288.31,709.93C282.45,709.93 278.54,705.23 278.54,698.24C278.54,691.53 282.48,686.86 288.23,686.86C291.001,686.75 293.586,688.297 294.8,690.79L295.28,690.79L295.28,687.45L300.07,687.45L300.07,703C300.057,703.11 300.05,703.22 300.05,703.33C300.05,704.855 301.305,706.11 302.83,706.11C302.91,706.11 302.99,706.107 303.07,706.1C306.39,706.1 308.51,702.1 308.51,695.8C308.51,685.8 301.01,679.11 289.94,679.11C278.87,679.11 271.19,687.11 271.19,698.39C271.19,709.94 278.91,717.32 290.93,717.32C293.119,717.331 295.305,717.144 297.46,716.76C297.562,716.743 297.664,716.735 297.767,716.735C298.81,716.735 299.667,717.593 299.667,718.635C299.667,719.492 299.088,720.248 298.26,720.47C295.793,721.029 293.27,721.304 290.74,721.29C276.13,721.29 266.74,712.29 266.74,698.29C266.74,684.61 276.29,675.22 290.2,675.22C303.6,675.14 312.87,683.49 312.87,695.59ZM283.72,698.35C283.72,702.79 285.8,705.48 289.2,705.48C292.78,705.48 295.04,702.72 295.04,698.35C295.04,693.98 292.78,691.28 289.26,691.28C285.74,691.28 283.72,693.9 283.72,698.35Z" style="fill:rgb(15,121,209);fill-rule:nonzero;"/>
        </g>
        <circle cx="183.77" cy="532.28" r="15.25" style="fill:rgb(161,97,106);"/>
        <g transform="matrix(1,0,0,1,-51.77,-47.02)">
            <path d="M221.16,583.82C218.97,585.71 215.84,585.82 212.97,586.14C206.838,586.765 200.868,588.493 195.35,591.24C194.598,591.572 193.919,592.047 193.35,592.64C192.868,593.289 192.527,594.031 192.35,594.82C191.829,596.535 191.632,598.333 191.77,600.12C191.97,601.859 192.467,603.55 193.24,605.12C195.357,609.505 198.628,613.232 202.7,615.9C203.391,616.407 204.171,616.78 205,617C207,617.42 208.95,616.25 210.92,615.73C212.723,615.264 214.622,615.326 216.39,615.91C218.05,616.46 219.8,617.47 221.39,616.8C222.421,616.22 223.226,615.307 223.67,614.21C225.229,611.255 226.618,608.213 227.83,605.1C228.267,603.893 228.771,602.711 229.34,601.56C231.11,598.19 234.17,595.56 235.69,592.1C236.002,591.558 236.053,590.904 235.83,590.32C235.548,589.93 235.159,589.632 234.71,589.46C232.459,588.171 230.407,586.56 228.62,584.68C227.62,583.68 225.77,581.12 224.33,580.89C222.75,580.68 222.26,582.88 221.16,583.82Z" style="fill:rgb(161,97,106);fill-rule:nonzero;"/>
        </g>
        <g transform="matrix(1,0,0,1,-51.77,-47.02)">
            <path d="M221.52,614.81C219.75,615.66 217.67,615.28 215.75,614.88C210.81,613.88 205.82,612.8 201.25,610.66C199.821,610.12 198.582,609.171 197.69,607.93C197.125,606.871 196.785,605.707 196.69,604.51L195.85,598.84C195.56,596.84 196.07,595.02 196.11,593.02C196.174,592.57 196.055,592.112 195.78,591.75C195.501,591.518 195.141,591.407 194.78,591.44C192.49,591.44 191.11,593.87 189.5,595.5C188.578,596.438 187.476,597.179 186.26,597.68C184.79,598.28 182.98,598.68 182.39,600.17C182.14,600.78 182.17,601.48 181.92,602.09C180.92,604.53 176.52,603.72 175.41,606.09C175.09,606.77 175.11,607.63 174.58,608.17C174.05,608.71 173.08,608.69 172.28,608.83C169.1,609.35 167.55,613.03 164.83,614.76C162.54,616.22 159.59,616.19 157.13,617.33C155.849,618.097 154.512,618.766 153.13,619.33C151.599,619.597 150.04,619.674 148.49,619.56C148.152,619.53 147.816,619.638 147.56,619.86C147.375,620.158 147.321,620.52 147.41,620.86C148.945,630.649 155.554,638.926 164.76,642.59C165.283,642.759 165.781,642.998 166.24,643.3C167.63,644.3 167.87,646.57 169.44,647.3C170.599,647.697 171.887,647.419 172.78,646.58C173.637,645.744 174.442,644.855 175.19,643.92C176.628,642.425 178.513,641.435 180.56,641.1C182.45,640.8 184.56,641.02 186.09,639.86C186.716,639.284 187.297,638.663 187.83,638C188.978,636.935 190.343,636.13 191.83,635.64C195.828,634.096 200.049,633.205 204.33,633C208.33,632.77 212.48,633.14 216.27,631.83C217.256,631.532 218.165,631.02 218.93,630.33C219.748,629.447 220.357,628.391 220.71,627.24C222.089,623.244 222.368,618.951 221.52,614.81Z" style="fill:rgb(81,78,127);fill-rule:nonzero;"/>
        </g>
        <g transform="matrix(1,0,0,1,-51.77,-47.02)">
            <path d="M201.86,592.34C202.99,592.24 204.12,592.34 205.25,592.34C206.58,592.34 207.89,592.02 209.25,592.01C213.554,592.08 217.337,594.96 218.55,599.09C218.664,599.411 218.685,599.758 218.61,600.09C218.519,600.429 218.189,600.652 217.84,600.61C217.402,599.406 216.828,598.255 216.13,597.18C214.861,595.463 213.061,594.211 211.01,593.62C208.959,593.039 206.798,592.96 204.71,593.39C203.85,593.55 203,593.78 202.15,594.02L198,595.14C197.25,595.34 196.5,595.55 195.77,595.82C195.21,596.02 194.24,596.82 193.69,596.82C192.94,596.82 193.55,596.17 193.88,595.73C194.542,594.823 195.473,594.148 196.54,593.8C198.246,593.096 200.033,592.605 201.86,592.34Z" style="fill:rgb(81,78,127);fill-rule:nonzero;"/>
        </g>
        <g transform="matrix(1,0,0,1,-51.77,-47.02)">
            <path d="M212.14,638.15C213.14,641.31 214.14,644.47 215.35,647.55C217.564,652.891 220.354,657.974 223.67,662.71C225.803,665.827 228.096,668.831 230.54,671.71C233.6,675.32 237.02,678.95 238.1,683.56C238.73,686.22 238.52,689.01 238.78,691.73C239.04,694.45 239.93,697.34 242.13,698.97C243.801,700.004 245.692,700.627 247.65,700.79C249.03,701.01 250.76,701.08 251.48,699.88C251.732,699.392 251.863,698.85 251.86,698.3L252.19,694.3C252.27,693.44 252.57,692.3 253.43,692.3C254.29,692.3 254.73,693.41 255.43,693.92C255.746,694.091 256.1,694.18 256.46,694.18C257.305,694.18 258.076,693.687 258.43,692.92C258.871,691.8 258.9,690.559 258.51,689.42C257.31,684.845 254.211,680.993 250,678.84C248.55,678.245 247.157,677.519 245.84,676.67C244.5,675.516 243.39,674.118 242.57,672.55C235,660.1 227.4,647.55 222.07,634.04C221.019,631.62 220.308,629.065 219.96,626.45C219.852,623.779 219.962,621.103 220.29,618.45C220.615,613.645 220.179,608.819 219,604.15C218.74,602.925 218.277,601.752 217.63,600.68C215.44,597.34 210.27,596.85 207.01,599.15C204.586,601.019 203.054,603.821 202.79,606.87C202.55,609.56 204.11,612.37 204.9,614.87C207.313,622.637 209.727,630.397 212.14,638.15Z" style="fill:rgb(161,97,106);fill-rule:nonzero;"/>
        </g>
        <g transform="matrix(1,0,0,1,-51.77,-47.02)">
            <path d="M257.73,568.52C257.85,567.25 256.73,566.1 255.42,565.29C254.058,564.584 252.748,563.782 251.5,562.89C250.34,561.89 249.71,560.58 248.55,559.58C247.236,558.577 245.743,557.834 244.15,557.39C240.768,556.199 237.215,555.561 233.63,555.5C230.088,555.406 226.593,556.329 223.56,558.16C222.891,558.573 222.31,559.113 221.85,559.75C221.414,560.532 221.132,561.391 221.02,562.28C220.37,565.016 219.49,567.692 218.39,570.28C217.26,573.16 216.05,576.14 213.39,578.36C210.54,580.74 206.17,582.11 204.29,584.98C203.875,585.5 203.723,586.184 203.88,586.83C204.15,587.55 205.02,588.04 205.81,588.5C210.44,591.16 214.43,594.6 216.49,598.72C218.689,602.782 218.321,607.775 215.55,611.47C214.48,612.87 213,614.53 214.05,615.94C215.64,618.08 221.13,616.86 222.39,619.12C222.652,619.871 222.71,620.679 222.56,621.46C222.56,623.83 224.85,625.95 227.63,627.04C230.567,628.037 233.648,628.544 236.75,628.54C237.588,626.678 237.671,624.561 236.98,622.64C236.774,622.226 236.694,621.76 236.75,621.3C236.967,620.791 237.311,620.347 237.75,620.01C241.1,616.85 240.39,612.2 238.38,608.45C236.37,604.7 233.25,601.26 232.09,597.31C231.51,595.31 231.5,593.14 233.09,591.51C233.983,590.727 234.943,590.024 235.96,589.41C237.763,588.181 239.157,586.439 239.96,584.41C240.89,581.81 240.75,578.68 243.49,576.96C246.23,575.24 249.78,575.8 252.67,574.69C255,573.76 257.55,570.37 257.73,568.52Z" style="fill:rgb(70,67,83);fill-rule:nonzero;"/>
        </g>
        <circle cx="291.47" cy="526.89" r="16.63" style="fill:rgb(251,190,190);"/>
        <g transform="matrix(1,0,0,1,-51.77,-47.02)">
            <path d="M358.21,573.21C361.31,578.162 366.294,581.648 372.01,582.86L370.76,587.4C368.6,595.22 366.16,603.5 360.12,608.92C360.65,606.206 360.038,603.39 358.43,601.14C356.833,598.921 354.935,596.935 352.79,595.24L343.22,586.91C342.927,586.696 342.682,586.424 342.5,586.11C342.265,585.526 342.265,584.874 342.5,584.29C343.72,580.49 347.2,578.12 350.02,575.56C351.441,574.233 352.712,572.754 353.81,571.15C355.77,568.45 357,571.18 358.21,573.21Z" style="fill:rgb(251,190,190);fill-rule:nonzero;"/>
        </g>
        <g transform="matrix(1,0,0,1,-51.77,-47.02)">
            <path d="M360.33,594.72C360.423,595.964 360.256,597.214 359.84,598.39C359.362,599.571 358.078,600.23 356.84,599.93C357.19,599.14 356.27,598.24 355.41,598.34C354.552,598.533 353.842,599.136 353.51,599.95C352.933,601.099 352.74,602.403 352.96,603.67C353.23,605.25 354.14,606.76 353.9,608.34C353.71,609.65 352.74,610.96 353.26,612.19C353.593,612.745 354.012,613.245 354.5,613.67C355.896,615.395 355.697,617.943 354.05,619.43L367.05,619.68C366.57,621.85 367.55,624.07 368.66,625.99C374.956,636.711 385.932,643.878 398.28,645.33C397.492,645.793 397.007,646.641 397.007,647.554C397.007,648.187 397.239,648.798 397.66,649.27C398.72,650.32 400.5,650.19 401.82,649.51C403.071,648.705 404.264,647.813 405.39,646.84C407.512,645.319 410.11,644.609 412.71,644.84C414.34,644.99 415.91,645.51 417.54,645.6C422.34,645.86 426.47,642.4 431.06,640.99C434.43,639.99 438.24,639.99 441.06,637.85C442.28,636.95 443.28,635.47 442.92,633.99C442.62,633.146 442.142,632.375 441.52,631.73C439.89,629.62 438.94,627.09 437.77,624.73C435.464,619.997 432.285,615.742 428.4,612.19C425.476,609.625 422.375,607.269 419.12,605.14C418.329,604.559 417.485,604.054 416.6,603.63C415.421,603.247 414.272,602.779 413.16,602.23C411.63,601.23 410.76,599.58 409.59,598.23C407.02,595.23 403.07,593.86 399.9,591.5C397.78,589.92 395.9,587.84 393.37,587.07C392.14,586.7 390.82,586.67 389.59,586.3C386.79,585.45 384.75,582.96 382,581.96C379.83,581.16 377.43,581.37 375.13,581.08C372.598,580.766 370.177,579.85 368.07,578.41C367.385,577.847 366.615,577.395 365.79,577.07C362.32,576.07 362.04,582.49 361.71,584.73C361.19,588 360.33,591.35 360.33,594.72Z" style="fill:rgb(63,61,86);fill-rule:nonzero;"/>
        </g>
        <g transform="matrix(1,0,0,1,-51.77,-47.02)">
            <path d="M363.72,616.43C364.3,622.74 359.53,628.86 360.92,635.05C361.22,636.37 361.78,637.62 361.99,638.95C362.57,642.62 360.38,646.09 358.29,649.16L340.29,675.5C339.575,676.661 338.715,677.727 337.73,678.67C334.29,681.72 329.15,681.4 324.64,682.32C321.471,682.965 318.479,684.289 315.87,686.2C315.632,686.388 315.583,686.734 315.76,686.98C317.27,689.04 319.73,690.195 322.28,690.04C322.75,690.66 322.28,691.58 321.63,692.04C320.63,692.71 319.34,692.89 319.15,694.52C319.084,695.09 319.196,695.666 319.47,696.17C320.198,697.277 321.328,698.058 322.62,698.35C328.83,700.25 335.54,696.91 340.19,692.35C344.84,687.79 348.19,682.08 352.75,677.45C355.28,674.89 358.15,672.7 360.75,670.22C365.94,665.22 369.98,659.22 373.88,653.22C375.151,651.467 376.112,649.508 376.72,647.43C377.2,645.38 376.98,643.2 377.54,641.17C378.26,638.5 380.21,636.37 381.84,634.17C385.03,629.78 387.15,624.42 386.73,619.01C386.31,613.6 382.96,608.28 377.87,606.44C376.28,605.803 374.525,605.697 372.87,606.14C370.78,606.78 369.24,608.51 367.81,610.14L364.4,614.08C363.545,614.941 362.866,615.96 362.4,617.08C361.954,618.235 362.229,619.55 363.1,620.43" style="fill:rgb(251,190,190);fill-rule:nonzero;"/>
        </g>
        <g transform="matrix(1,0,0,1,-51.77,-47.02)">
            <path d="M372.8,590.5C370.44,590.64 367.8,590.87 366.17,592.5C365.473,593.274 364.912,594.16 364.51,595.12C362.89,598.41 361.31,601.86 361.2,605.53C361.1,608.46 361.95,611.33 362.4,614.23C362.77,616.64 361.83,619.1 361.65,621.54C364.911,620.653 368.074,619.437 371.09,617.91C372.834,616.773 374.687,615.812 376.62,615.04C379.43,614.1 384.17,615.71 386.83,617.04C386.98,615.16 385.57,611.89 385.72,610.04C385.739,609.246 385.88,608.46 386.14,607.71C386.537,606.917 387.009,606.163 387.55,605.46C389.643,602.067 389.306,597.683 386.72,594.65C384.35,591.98 380.63,590.98 377.08,590.56C374.843,590.303 372.589,590.227 370.34,590.33" style="fill:rgb(63,61,86);fill-rule:nonzero;"/>
        </g>
        <g transform="matrix(1,0,0,1,-51.77,-47.02)">
            <path d="M321.33,557.19L320.95,554.06C323.58,554.73 326.07,552.51 327.75,550.2C329.43,547.89 330.98,545.2 333.53,544.2C336.64,543.03 339.93,544.9 342.9,546.44C346.218,548.314 349.87,549.523 353.65,550C354.253,550.026 354.85,550.123 355.43,550.29C357.36,550.98 358.28,553.4 358.56,555.6C358.84,557.8 358.76,560.14 359.71,562.1C360.44,563.58 361.71,564.69 362.43,566.1C364.43,570.03 362.5,575.41 364.65,579.27L359.32,574.39C358.83,573.94 358.14,573.47 357.61,573.85C357.08,574.23 357.15,574.85 356.97,575.32C356.526,576.332 355.52,576.988 354.415,576.988C353.987,576.988 353.564,576.89 353.18,576.7C351.833,575.933 350.675,574.873 349.79,573.6C347.575,570.765 344.658,568.556 341.33,567.19C338.412,566.063 335.144,566.257 332.38,567.72C329.89,569.13 328.07,572.4 325.02,572.51C320.84,572.67 319.1,564.89 317.17,561.82C318.62,560.722 319.085,558.726 318.27,557.1C318.56,557 321.27,556.71 321.33,557.19Z" style="fill:rgb(70,67,83);fill-rule:nonzero;"/>
        </g>
        <g transform="matrix(1,0,0,1,-51.77,-47.02)">
            <path d="M770.23,840.52C769.42,837.09 768.93,834.09 768.93,834.09C768.998,831.822 768.485,829.574 767.44,827.56L767.44,826.62L767.44,819.72C767.913,818.468 768.495,817.26 769.18,816.11C770.42,813.95 769.18,806.01 769.18,806.01C769.18,806.01 764.58,794.82 765.69,787.72C766.8,780.62 756.25,756.19 756.25,756.19C756.317,753.826 756.652,751.478 757.25,749.19C757.364,748.712 757.408,748.22 757.38,747.73C757.385,747.67 757.385,747.61 757.38,747.55L757.38,747.61C757.22,742.93 753.52,734.15 753.52,734.15L754.02,717.43C754.02,717.43 756.38,707.56 752.53,694.32C751.18,689.7 750.32,686.01 749.77,683.15C749.71,682.83 749.65,682.52 749.6,682.22C757.53,681.01 763.6,680 763.6,680C763.6,680 759,660.75 755.89,657.38C752.78,654.01 750.3,643.43 750.3,643.43C750.3,643.43 748.68,629.83 751.3,625.86C753.92,621.89 754.3,615.03 754.3,615.03C754.3,615.03 760.3,610.7 761.01,608.77C762.069,606.03 762.742,603.156 763.01,600.23C763.01,597.94 762.26,595.9 762.51,594.69C762.76,593.48 760.77,588.92 761.77,586.75C762.027,586.083 762.16,585.375 762.16,584.66C762.165,584.64 762.165,584.62 762.16,584.6C762.164,582.704 761.986,580.812 761.63,578.95C759.908,577.493 757.897,576.416 755.73,575.79L755.6,575.28L755.26,573.93C755.072,573.799 754.875,573.682 754.67,573.58L754.67,573.08L754.67,571.08L755.6,566.68C757.44,559.05 747.24,557.91 747.24,557.91C746.623,556.736 745.593,555.831 744.35,555.37C742.35,554.65 744.01,566.87 744.97,567.65C745.69,568.23 747.97,572.07 748.97,573.95L749.15,574.26C748.98,574.41 748.823,574.574 748.68,574.75L749.07,577.4L749.13,577.81C748.453,578.648 747.903,579.581 747.5,580.58C747.097,581.579 749.37,582.63 748.99,584.92C748.846,586.707 749.057,588.505 749.61,590.21C749.5,590.08 748.19,588.66 746.88,589.01C745.57,589.36 741.88,590.45 741.88,590.45C741.88,590.45 739.14,590.93 739.39,591.53C739.64,592.13 737.53,594.78 737.53,594.78L730.18,587.78C730.1,587.57 730.03,587.36 729.96,587.15C729.659,586.171 729.448,585.167 729.33,584.15C730.128,583.959 730.91,583.708 731.67,583.4C732.431,583.132 733.116,582.686 733.67,582.1C734.286,581.14 734.689,580.059 734.85,578.93C735.43,576.79 736.68,574.88 737.58,572.85C739.064,569.439 739.556,565.678 739,562C738.886,560.86 738.502,559.763 737.88,558.8C736.68,557.15 734.5,556.48 732.88,555.16C731.26,553.84 730.28,551.84 728.43,550.85C726.673,550.085 724.712,549.916 722.85,550.37C719.174,550.969 715.643,552.251 712.44,554.15C711.36,554.79 710.19,555.52 708.95,555.3C707.929,554.989 707.044,554.34 706.44,553.46C706.436,553.423 706.436,553.387 706.44,553.35L706.35,553.26C705.579,554.99 705.19,556.866 705.21,558.76L705.21,559.94C705.215,560.027 705.215,560.113 705.21,560.2C705.205,560.332 705.185,560.463 705.15,560.59C704.998,560.968 704.766,561.31 704.47,561.59C704.239,561.839 704.038,562.115 703.87,562.41C703.87,562.31 703.93,562.21 703.97,562.11C703.498,562.791 703.231,563.592 703.2,564.42C703.16,565.025 703.362,565.622 703.76,566.08C704.123,566.451 704.522,566.786 704.95,567.08C704.809,567.886 704.739,568.702 704.74,569.52C704.766,574.49 707.395,579.099 711.66,581.65L711.91,582.28C712.974,584.806 713.43,587.546 713.24,590.28C713.24,590.48 713.24,590.67 713.15,590.87L712.89,591.17C712.89,591.17 700.75,591.29 697.89,588.7C695.03,586.11 690.68,595.02 690.68,595.02C690.68,595.02 686.33,595.87 685.46,595.02C684.59,594.17 679.46,594.9 679.46,594.9C677.375,593.054 674.664,592.067 671.88,592.14C670.182,590.845 668.306,589.801 666.31,589.04L666.17,588.99C665.294,588.673 664.357,588.557 663.43,588.65C662.503,588.743 657.43,583.71 655.73,581.07C654.03,578.43 645.73,568.6 645.66,568.55L645.66,568.08L645.56,566.65C645.315,566.69 645.068,566.713 644.82,566.72C644.82,566.57 644.72,566.41 644.65,566.22C644.172,564.841 643.584,563.504 642.89,562.22C642.196,560.936 642.89,560.42 643.42,559.97C643.95,559.52 643.2,552.9 643.2,552.9C643.2,552.9 637.82,540.33 633.01,549.71C633.01,549.71 623.9,555.78 631.54,562.86C631.54,562.86 634.54,564.33 635.02,565.5C635.31,566.26 636.34,568.39 637.02,569.8L637.33,570.43L637.24,570.5L637.36,571.68L637.36,572.14C635.92,572.95 634.95,573.76 635.18,574.38C635.608,575.422 635.9,576.514 636.05,577.63C636.2,578.746 646.62,590.86 647.99,596.52C647.99,596.52 676.33,613.36 685.65,614.57L684.04,622.99C683.799,625.269 683.675,627.558 683.67,629.85C683.79,631.65 682.55,639.85 682.55,639.85C682.55,639.85 680.93,651.85 679.55,653.56C678.17,655.27 678.43,662.47 678.43,662.47C678.106,665.924 677.484,669.343 676.57,672.69C675.2,677.27 676.2,682.92 676.2,682.92C676.2,682.92 671.47,693.75 682.79,686.41C682.79,686.41 688.34,686.07 694.79,685.85L694.79,689.14C694.71,695.34 694.67,703.89 694.95,710.36C695.45,721.79 698.95,744.36 698.95,744.36L698.95,755.72C698.732,756.789 698.625,757.879 698.63,758.97C698.546,762.977 699.608,766.925 701.69,770.35L702.56,777.93C702.56,777.93 704.56,782.93 704.64,785.93C704.632,786.172 704.602,786.413 704.55,786.65C704.475,787.032 704.441,787.421 704.45,787.81C704.34,791.25 706.45,799.49 706.45,799.49C706.45,799.49 706.58,807.79 707.82,808.27C708.88,808.68 706.4,813.06 705.66,814.27C705.638,814.191 705.622,814.111 705.61,814.03C705.52,814.19 705.46,814.28 705.46,814.28C705.202,814.95 705.07,815.662 705.07,816.38C704.922,817.537 705.462,818.68 706.45,819.3C708.81,820.75 710.08,821.95 708.08,822.43C707.342,822.542 706.611,822.696 705.89,822.89C705.89,822.8 705.81,822.7 705.78,822.61C705.244,822.851 704.926,823.417 705,824C705.022,824.983 705.279,825.947 705.75,826.81C706.627,828.981 707.754,831.041 709.11,832.95L710.11,832.84C709.965,833.195 709.777,833.531 709.55,833.84C709.192,834.362 708.711,834.787 708.15,835.08C707.629,835.39 707.051,835.59 706.45,835.67C705.086,835.706 703.802,836.33 702.93,837.38C701.69,838.98 700.93,841.17 703.36,843.09L712.25,846.15C712.25,846.15 727.54,848.15 726.73,844.71C725.92,841.27 725.43,838.28 725.43,838.28C725.49,836.181 725.062,834.096 724.18,832.19C724.027,831.875 723.846,831.574 723.64,831.29L724.18,831.23C724.18,831.23 725.3,823.65 726.79,822.23C727.14,821.9 727.22,821.64 727.13,821.44C727.29,821.03 726.9,820.79 726.4,820.65L726.29,820.95C725.803,820.848 725.307,820.794 724.81,820.79C724.313,820.786 724.31,816.79 725.92,815.37C726.186,815.038 726.302,814.611 726.24,814.19C726.248,813.645 726.191,813.101 726.07,812.57L726.01,812.67C725.092,809.463 723.897,806.341 722.44,803.34C720.983,800.339 722.32,799.73 723.31,798.28C724.3,796.83 723.19,778.67 723.19,778.67C723.19,778.67 723.56,769.89 722.44,765.8C721.32,761.71 723.81,756.89 723.81,756.89L723.81,756.63L723.81,756.57C723.81,756.57 723.75,756.03 723.66,755.18L723.66,755.27C723.41,752.94 722.94,748.73 722.59,746.79C722.09,744.02 722.71,730.79 722.71,730.79L724.95,725.14L728.95,734.88L733.17,747.88C734.376,749.49 735.119,751.399 735.32,753.4C735.32,753.54 735.32,753.68 735.32,753.81C735.301,754.1 735.301,754.39 735.32,754.68C735.249,756.321 735.701,757.942 736.61,759.31C737.519,760.678 737.73,765.45 739.47,767.01C741.21,768.57 741.21,771.58 741.21,771.58C741.21,771.58 743.32,780.49 744.32,782.05C745.16,783.37 745.2,786.99 745.19,788.05L745.19,788.38C745.19,788.38 745.48,791.56 745.47,794.24C745.47,794.56 745.47,794.89 745.47,795.24L745.47,795.17C745.468,795.898 745.381,796.623 745.21,797.33L745.21,797.46C745.21,797.31 745.21,797.15 745.21,797.01C744.764,798.826 744.549,800.69 744.57,802.56C744.51,805.76 745,809.56 746.94,811.77C750.3,815.62 752.41,815.14 752.41,815.14C752.41,815.14 750.79,819.95 748.8,820.92C748.726,820.956 748.655,821 748.59,821.05C748.59,820.96 748.59,820.86 748.54,820.77C748.103,821.262 747.893,821.916 747.96,822.57C748.05,825.139 748.907,827.622 750.42,829.7C750.887,830.169 751.465,830.513 752.1,830.7L751.79,830.89C751.566,831.012 751.336,831.123 751.1,831.22C750.783,831.359 750.445,831.447 750.1,831.48C748.736,831.516 747.452,832.14 746.58,833.19C745.34,834.79 744.58,836.98 747.01,838.9L755.9,841.96C755.9,841.96 771,844 770.23,840.52Z" style="fill:url(#_Linear1);fill-rule:nonzero;"/>
        </g>
        <g transform="matrix(1,0,0,1,-51.77,-47.02)">
            <path d="M711.83,846.2L703.22,843.14C700.85,841.22 701.61,839.03 702.81,837.43C703.637,836.389 704.881,835.763 706.21,835.72C706.795,835.641 707.357,835.44 707.86,835.13C708.406,834.831 708.872,834.406 709.22,833.89C709.858,832.895 710.204,831.741 710.22,830.56C710.236,829.379 719.67,827.8 722.22,830.56C722.682,831.061 723.07,831.627 723.37,832.24C724.221,834.155 724.631,836.236 724.57,838.33C724.509,840.424 725.05,841.33 725.83,844.76C726.61,848.19 711.83,846.2 711.83,846.2Z" style="fill:rgb(45,41,61);fill-rule:nonzero;"/>
        </g>
        <g transform="matrix(1,0,0,1,-51.77,-47.02)">
            <path d="M753.94,842L745.34,838.94C742.96,837.02 743.72,834.83 744.92,833.24C745.746,832.192 746.996,831.561 748.33,831.52C748.675,831.49 749.013,831.402 749.33,831.26C749.558,831.166 749.778,831.056 749.99,830.93C752.4,829.61 752.34,826.36 752.34,826.36C752.34,826.36 761.78,823.59 764.34,826.36C764.686,826.734 764.988,827.147 765.24,827.59C766.255,829.617 766.754,831.864 766.69,834.13C766.626,836.396 767.17,837.13 767.95,840.56C768.73,843.99 753.94,842 753.94,842Z" style="fill:rgb(45,41,61);fill-rule:nonzero;"/>
        </g>
        <g transform="matrix(1,0,0,1,-51.77,-47.02)">
            <path d="M722.23,830.56C722.692,831.061 723.08,831.627 723.38,832.24L709.22,833.88C709.858,832.885 710.204,831.731 710.22,830.55C710.236,829.369 719.65,827.8 722.23,830.56Z" style="fill-opacity:0.1;fill-rule:nonzero;"/>
        </g>
        <g transform="matrix(1,0,0,1,-51.77,-47.02)">
            <path d="M765.25,827.55L765.25,830.2C763.05,833.83 752.4,833.04 749.31,831.2C749.538,831.106 749.758,830.996 749.97,830.87C752.38,829.55 752.32,826.3 752.32,826.3C752.32,826.3 761.76,823.53 764.32,826.3C764.678,826.679 764.99,827.099 765.25,827.55Z" style="fill-opacity:0.1;fill-rule:nonzero;"/>
        </g>
        <g transform="matrix(1,0,0,1,-51.77,-47.02)">
            <path d="M766.94,816.12C766.276,817.274 765.711,818.481 765.25,819.73L765.25,829.24C762.85,833.24 750.33,831.89 748.65,829.72C746.97,827.55 745.16,821.9 747.08,820.94C749,819.98 750.57,815.16 750.57,815.16C750.57,815.16 748.57,815.64 745.28,811.79C741.99,807.94 743,799.4 743.6,797.35C744.2,795.3 743.6,788.45 743.6,788.45C743.6,788.45 743.72,783.64 742.76,782.07C741.8,780.5 739.76,771.6 739.76,771.6C739.76,771.6 739.76,768.6 738.08,767.03C736.4,765.46 735.31,759.33 735.31,759.33C734.325,757.797 733.901,755.97 734.11,754.16C734.47,751.16 732.06,747.9 732.06,747.9L727.97,734.9L724.12,725.15L721.96,730.8C721.96,730.8 721.35,744.04 721.84,746.8C722.33,749.56 723.04,756.9 723.04,756.9C723.04,756.9 720.63,761.72 721.72,765.81C722.81,769.9 722.44,778.68 722.44,778.68C722.44,778.68 723.52,796.85 722.56,798.3C721.6,799.75 721.72,803.3 721.72,803.3C721.72,803.3 726.65,813.89 725.08,815.3C723.51,816.71 724,820.72 724,820.72C724,820.72 727.37,820.72 725.93,822.16C724.49,823.6 723.4,831.16 723.4,831.16L708.83,833C707.515,831.083 706.421,829.023 705.57,826.86C703.65,822.41 705.93,822.86 707.87,822.41C709.81,821.96 708.58,820.73 706.29,819.28C704,817.83 705.29,814.59 705.29,814.59C705.29,814.59 708.78,808.69 707.58,808.21C706.38,807.73 706.25,799.43 706.25,799.43C706.25,799.43 703.85,789.56 704.45,786.92C705.05,784.28 702.52,777.92 702.52,777.92L701.68,770.34C699.116,766.03 698.193,760.936 699.08,756L699.08,744.29C699.08,744.29 695.71,721.67 695.22,710.29C694.92,702.97 695,692.98 695.1,686.74C695.16,683.25 695.22,680.93 695.22,680.93L747.22,675.52C747.303,678.117 747.621,680.701 748.17,683.24C748.7,686.09 749.53,689.79 750.83,694.41C754.56,707.64 752.28,717.51 752.28,717.51L751.8,734.23C751.8,734.23 756.37,745.42 755.41,749.23C754.817,751.519 754.482,753.867 754.41,756.23C754.338,758.593 764.64,780.66 763.56,787.76C762.48,794.86 766.94,806 766.94,806C766.94,806 768.14,814 766.94,816.12Z" style="fill:rgb(70,67,83);fill-rule:nonzero;"/>
        </g>
        <g transform="matrix(1,0,0,1,-51.77,-47.02)">
            <path d="M737.22,753.44L753,751.33C753,751.33 744.08,760.47 737.22,753.44Z" style="fill-opacity:0.05;fill-rule:nonzero;"/>
        </g>
        <g transform="matrix(1,0,0,1,-51.77,-47.02)">
            <path d="M750.75,735.87C750.75,735.87 751.3,741.46 747.87,743.57C747.87,743.57 754,742.61 750.75,735.87Z" style="fill-opacity:0.1;fill-rule:nonzero;"/>
        </g>
        <g transform="matrix(1,0,0,1,-51.77,-47.02)">
            <path d="M749.78,718.06C749.78,718.06 736.56,728.95 731.78,728.06C727,727.17 749.78,718.06 749.78,718.06Z" style="fill-opacity:0.1;fill-rule:nonzero;"/>
        </g>
        <g transform="matrix(1,0,0,1,-51.77,-47.02)">
            <path d="M717.6,758.55C717.6,758.55 707.6,760.84 707.26,764.87C706.92,768.9 717.6,758.55 717.6,758.55Z" style="fill-opacity:0.1;fill-rule:nonzero;"/>
        </g>
        <g transform="matrix(1,0,0,1,-51.77,-47.02)">
            <path d="M719.81,808.72C719.81,808.72 705.62,811.37 709.65,813.18C713.107,814.546 716.668,815.629 720.3,816.42C723.932,817.211 724.87,816.66 719.81,808.72Z" style="fill-opacity:0.05;fill-rule:nonzero;"/>
        </g>
        <g transform="matrix(1,0,0,1,-51.77,-47.02)">
            <path d="M706.78,816C706.057,815.547 705.578,814.788 705.48,813.94L705.34,814.2C705.34,814.2 704.01,817.44 706.34,818.89C706.6,819.05 706.85,819.22 707.08,819.38C707.5,819.3 707.96,819.24 708.39,819.13C710.29,818.69 709.07,817.48 706.78,816Z" style="fill-rule:nonzero;"/>
        </g>
        <g transform="matrix(1,0,0,1,-51.77,-47.02)">
            <path d="M725.07,815.08C725.46,814.72 725.44,813.79 725.21,812.6C724.629,813.668 724.349,814.875 724.4,816.09C724.543,815.706 724.772,815.361 725.07,815.08Z" style="fill-rule:nonzero;"/>
        </g>
        <g transform="matrix(1,0,0,1,-51.77,-47.02)">
            <path d="M722.88,755.22C722.346,756.641 722.009,758.128 721.88,759.64C722.154,758.609 722.523,757.604 722.98,756.64C723.437,755.676 723,756.06 722.88,755.22Z" style="fill-rule:nonzero;"/>
        </g>
        <g transform="matrix(1,0,0,1,-51.77,-47.02)">
            <path d="M755.39,748.9C755.484,748.467 755.528,748.024 755.52,747.58C755.34,748.48 755.22,749.32 755.13,750.05C755.21,749.67 755.29,749.29 755.39,748.9Z" style="fill-rule:nonzero;"/>
        </g>
        <g transform="matrix(1,0,0,1,-51.77,-47.02)">
            <path d="M722.54,798C722.819,797.139 722.941,796.234 722.9,795.33C722.451,796.397 722.216,797.542 722.21,798.7C722.292,798.454 722.402,798.219 722.54,798Z" style="fill-rule:nonzero;"/>
        </g>
        <g transform="matrix(1,0,0,1,-51.77,-47.02)">
            <path d="M725.52,820.68C724.777,823.096 724.225,825.567 723.87,828.07L709.32,829.76C708,827.846 706.906,825.786 706.06,823.62C705.905,823.274 705.768,822.92 705.65,822.56C704.78,822.96 704.43,823.86 705.58,826.56C706.424,828.723 707.518,830.781 708.84,832.69L723.38,831C723.38,831 724.47,823.42 725.91,822C726.62,821.23 726.17,820.87 725.52,820.68Z" style="fill-rule:nonzero;"/>
        </g>
        <g transform="matrix(1,0,0,1,-51.77,-47.02)">
            <path d="M706.3,799.07C706.3,799.07 706.42,807.38 707.62,807.86C708.23,806.49 708.62,805.19 708.09,804.97C706.89,804.49 706.77,796.19 706.77,796.19C706.77,796.19 704.36,786.32 704.97,783.67C705.58,781.02 703.04,774.67 703.04,774.67L702.2,767.09C699.627,762.79 698.686,757.705 699.55,752.77L699.55,741.08C699.55,741.08 696.18,718.46 695.7,707.03C695.39,699.71 695.48,689.72 695.58,683.48C695.58,682.36 695.58,681.36 695.58,680.48L695.17,680.48C695.17,680.48 695.11,682.79 695.05,686.29C694.95,692.52 694.86,702.52 695.17,709.84C695.65,721.27 699.02,743.89 699.02,743.89L699.02,755.56C698.138,760.541 699.102,765.677 701.73,770L702.57,777.58C702.57,777.58 705.1,783.95 704.49,786.58C703.88,789.21 706.3,799.07 706.3,799.07Z" style="fill-rule:nonzero;"/>
        </g>
        <g transform="matrix(1,0,0,1,-51.77,-47.02)">
            <path d="M749.13,826.51C747.948,824.798 747.162,822.844 746.83,820.79C745.34,822.13 747.05,827.34 748.65,829.4C750.25,831.46 762.85,832.89 765.26,828.91L765.26,826.62C762,829.85 750.73,828.56 749.13,826.51Z" style="fill-rule:nonzero;"/>
        </g>
        <g transform="matrix(1,0,0,1,-51.77,-47.02)">
            <path d="M767.42,812.91C766.761,814.065 766.199,815.272 765.74,816.52L765.74,818.21C766.01,817.59 766.4,816.77 766.94,815.8C767.326,814.849 767.507,813.826 767.47,812.8L767.42,812.91Z" style="fill-rule:nonzero;"/>
        </g>
        <g transform="matrix(1,0,0,1,-51.77,-47.02)">
            <path d="M749.87,814.81C750.33,813.884 750.728,812.929 751.06,811.95C751.392,810.971 749.06,812.43 745.76,808.58C743.4,805.78 743.27,800.49 743.6,797.03C743,799.08 742.03,807.62 745.28,811.47C747.41,814 749,814.65 749.87,814.81Z" style="fill-rule:nonzero;"/>
        </g>
        <g transform="matrix(1,0,0,1,-51.77,-47.02)">
            <path d="M743.6,788.13C743.808,790.501 743.888,792.881 743.84,795.26C743.92,794.79 744.01,794.41 744.08,794.14C744.69,792.14 744.08,785.24 744.08,785.24C744.08,785.24 744.2,780.42 743.24,778.86C742.28,777.3 740.24,768.39 740.24,768.39C740.24,768.39 740.24,765.39 738.56,763.82C736.88,762.25 735.79,756.12 735.79,756.12C734.802,754.589 734.374,752.761 734.58,750.95C734.95,747.95 732.58,744.69 732.58,744.69L728.49,731.69L724.59,722L722.42,727.65C722.42,727.65 722.42,728.36 722.35,729.48L724.11,724.89L727.96,734.63L732.05,747.63C732.05,747.63 734.45,750.88 734.05,753.88C733.869,755.679 734.311,757.487 735.3,759C736.289,760.513 736.38,765.13 738.06,766.7C739.74,768.27 739.75,771.27 739.75,771.27C739.75,771.27 741.75,780.17 742.75,781.74C743.75,783.31 743.6,788.13 743.6,788.13Z" style="fill-rule:nonzero;"/>
        </g>
        <g transform="matrix(1,0,0,1,-51.77,-47.02)">
            <path d="M753.7,566.75L752.8,571.15L752.85,573.15L752.85,574.59L747.85,575.11L747.29,574.11C746.29,572.23 744.09,568.4 743.39,567.81C742.46,567.03 740.81,554.81 742.79,555.54C744.005,556.006 745.003,556.909 745.59,558.07C746.177,559.231 755.48,559.11 753.7,566.75Z" style="fill:rgb(255,205,211);fill-rule:nonzero;"/>
        </g>
        <g transform="matrix(1,0,0,1,-51.77,-47.02)">
            <path d="M752.89,574.54L747.89,575.06L747.33,574.06C748.717,572.478 751.05,572.095 752.87,573.15L752.89,574.54Z" style="fill-opacity:0.1;fill-rule:nonzero;"/>
        </g>
        <g transform="matrix(1,0,0,1,-51.77,-47.02)">
            <path d="M754.15,576.92L747.54,578.46L747.4,577.46L747.02,574.81C747.879,573.665 749.229,572.99 750.66,572.99C751.662,572.99 752.636,573.32 753.43,573.93L753.76,575.28L754.15,576.92Z" style="fill:rgb(220,230,242);fill-rule:nonzero;"/>
        </g>
        <g transform="matrix(1,0,0,1,-51.77,-47.02)">
            <path d="M646.91,567.23L639.85,571.03L639.21,569.69C638.53,568.28 637.53,566.16 637.21,565.4C636.79,564.23 633.84,562.75 633.84,562.75C626.44,555.68 635.25,549.61 635.25,549.61C639.92,540.22 645.12,552.79 645.12,552.79C645.12,552.79 645.84,559.42 645.33,559.86C644.82,560.3 644.82,562.12 644.82,562.12C645.495,563.406 646.067,564.744 646.53,566.12C646.8,566.82 646.91,567.23 646.91,567.23Z" style="fill:rgb(255,205,211);fill-rule:nonzero;"/>
        </g>
        <g transform="matrix(1,0,0,1,-51.77,-47.02)">
            <path d="M646.91,567.23L639.85,571.03L639.21,569.69C640.21,568.86 643.74,565.99 644.9,566.12C645.459,566.177 646.021,566.177 646.58,566.12C646.8,566.82 646.91,567.23 646.91,567.23Z" style="fill-opacity:0.1;fill-rule:nonzero;"/>
        </g>
        <g transform="matrix(1,0,0,1,-51.77,-47.02)">
            <path d="M647.63,569.37L639.69,573.28L639.53,571.57L639.42,570.4C639.42,570.4 644.02,566.45 645.42,566.6C646.11,566.698 646.81,566.698 647.5,566.6L647.59,568.03L647.63,569.37Z" style="fill:rgb(220,230,242);fill-rule:nonzero;"/>
        </g>
        <g transform="matrix(1,0,0,1,-51.77,-47.02)">
            <path d="M734.45,595.93C734.45,595.93 699.82,599.84 706.29,597.74C710.8,596.27 712.59,593.41 712.97,590.23C713.144,587.501 712.703,584.767 711.68,582.23C710.859,580.045 709.821,577.947 708.58,575.97C707.339,573.993 735.05,561.41 729.76,574.65C728.937,576.649 728.43,578.765 728.26,580.92C728.097,583.056 728.324,585.205 728.93,587.26C729.934,590.604 731.845,593.605 734.45,595.93Z" style="fill:rgb(255,205,211);fill-rule:nonzero;"/>
        </g>
        <g transform="matrix(1,0,0,1,-51.77,-47.02)">
            <path d="M729.76,574.64C728.937,576.639 728.43,578.755 728.26,580.91C725.76,583 723.03,582.91 719.52,582.91C716.82,582.91 713.83,583.57 711.68,582.27C710.859,580.085 709.821,577.987 708.58,576.01C707.339,574.033 735.05,561.4 729.76,574.64Z" style="fill-opacity:0.1;fill-rule:nonzero;"/>
        </g>
        <circle cx="667.28" cy="522.45" r="14.32" style="fill:rgb(255,205,211);"/>
        <g transform="matrix(1,0,0,1,-51.77,-47.02)">
            <path d="M734.45,595.93C734.45,595.93 699.82,599.84 706.29,597.74C710.8,596.27 712.59,593.41 712.97,590.23C714.69,588.36 718.15,587.01 720.38,586.3C722.409,585.618 724.6,585.583 726.65,586.2C727.456,586.418 728.224,586.755 728.93,587.2C729.924,590.566 731.836,593.589 734.45,595.93Z" style="fill-opacity:0.1;fill-rule:nonzero;"/>
        </g>
        <g transform="matrix(1,0,0,1,-51.77,-47.02)">
            <path d="M754.15,576.92L747.54,578.46L747.4,577.46C748.844,575.468 751.398,574.593 753.76,575.28L754.15,576.92Z" style="fill-opacity:0.1;fill-rule:nonzero;"/>
        </g>
        <g transform="matrix(1,0,0,1,-51.77,-47.02)">
            <path d="M647.63,569.37L639.69,573.28L639.53,571.57C642.104,570.192 644.779,569.008 647.53,568.03L647.63,569.37Z" style="fill-opacity:0.1;fill-rule:nonzero;"/>
        </g>
        <g transform="matrix(1,0,0,1,-51.77,-47.02)">
            <path d="M748.15,683.19C734.74,685.3 715.65,688.06 712.62,687.14C710.11,686.37 702.09,686.45 695.1,686.69C695.16,683.2 695.22,680.88 695.22,680.88L747.22,675.47C747.297,678.066 747.608,680.65 748.15,683.19Z" style="fill-opacity:0.1;fill-rule:nonzero;"/>
        </g>
        <g transform="matrix(1,0,0,1,-51.77,-47.02)">
            <path d="M761.52,680C761.52,680 717.36,687.58 712.62,686.13C707.88,684.68 683.55,686.26 683.55,686.26C672.6,693.59 677.18,682.77 677.18,682.77C677.18,682.77 676.18,677.11 677.54,672.54C678.422,669.186 679.024,665.764 679.34,662.31C679.656,658.856 679.1,655.09 680.42,653.41C681.74,651.73 683.31,639.69 683.31,639.69C683.31,639.69 684.52,631.51 684.4,629.69C684.28,627.87 684.76,622.84 684.76,622.84L686.32,614.41C677.32,613.21 649.86,596.36 649.86,596.36C648.54,590.71 638.31,577.47 638.31,577.47C638.162,576.357 637.88,575.266 637.47,574.22C636.75,572.3 647.58,568.45 647.58,568.45C647.58,568.45 655.64,578.32 657.32,580.96C659,583.6 664.78,588.54 664.78,588.54C665.678,588.45 666.586,588.57 667.43,588.89L667.57,588.89C669.504,589.652 671.317,590.693 672.95,591.98C675.663,591.913 678.298,592.907 680.29,594.75C682.282,596.593 685.23,594.03 686.07,594.87C686.91,595.71 691.07,594.87 691.07,594.87C691.07,594.87 695.29,585.97 698.07,588.55C700.85,591.13 712.58,591.02 712.58,591.02C714.15,588.94 717.95,587.45 720.34,586.68C722.369,585.998 724.56,585.963 726.61,586.58C727.502,586.829 728.342,587.235 729.09,587.78L736.21,594.78C736.21,594.78 738.21,592.13 738.02,591.53C737.83,590.93 740.43,590.45 740.43,590.45C740.43,590.45 743.92,589.37 745.24,589C746.56,588.63 747.78,590.08 747.88,590.2C747.346,588.491 747.142,586.695 747.28,584.91C747.389,583.334 746.871,581.777 745.84,580.58C750.09,570.3 759.6,579 759.6,579C759.6,579 760.68,584.65 759.72,586.82C758.76,588.99 760.72,593.56 760.44,594.76C760.16,595.96 760.92,598.01 760.92,600.29C760.664,603.213 760.018,606.088 759,608.84C758.27,610.76 752.5,615.09 752.5,615.09C752.5,615.09 752.14,621.95 749.61,625.92C747.08,629.89 748.61,643.49 748.61,643.49C748.61,643.49 751.01,654.08 754.02,657.49C757.03,660.9 761.52,680 761.52,680Z" style="fill:rgb(63,61,86);fill-rule:nonzero;"/>
        </g>
        <g transform="matrix(1,0,0,1,-51.77,-47.02)">
            <path d="M697.15,600.87C697.15,600.87 695.83,596.87 694.62,596.53C693.423,596.089 692.257,595.568 691.13,594.97L691.91,593.49C691.91,593.49 696.43,594.73 697.15,596.05C697.87,597.37 697.15,600.87 697.15,600.87Z" style="fill-opacity:0.1;fill-rule:nonzero;"/>
        </g>
        <g transform="matrix(1,0,0,1,-51.77,-47.02)">
            <path d="M673,592.08C672.76,593.29 662.06,594.37 662.06,594.37L667.47,588.94L667.61,588.99C669.548,589.752 671.364,590.793 673,592.08Z" style="fill-opacity:0.1;fill-rule:nonzero;"/>
        </g>
        <circle cx="590.21" cy="528.55" r="0.96" style="fill:rgb(87,89,136);"/>
        <circle cx="591.44" cy="530.48" r="0.96" style="fill:rgb(87,89,136);"/>
        <circle cx="592.65" cy="532.25" r="0.96" style="fill:rgb(87,89,136);"/>
        <circle cx="593.91" cy="534.18" r="0.96" style="fill:rgb(87,89,136);"/>
        <circle cx="707.33" cy="534.07" r="0.78" style="fill:rgb(87,89,136);"/>
        <circle cx="707.45" cy="535.85" r="0.78" style="fill:rgb(87,89,136);"/>
        <circle cx="707.55" cy="537.62" r="0.78" style="fill:rgb(87,89,136);"/>
        <g transform="matrix(1,0,0,1,-51.77,-47.02)">
            <path d="M697.21,633.47C697.1,633.33 724.21,667.58 745.28,647.79C745.28,647.79 712,652.3 697.21,633.47Z" style="fill-opacity:0.1;fill-rule:nonzero;"/>
        </g>
        <g transform="matrix(1,0,0,1,-51.77,-47.02)">
            <path d="M681.63,651.28C681.63,651.28 697.86,651.72 699.56,656.39L699.56,661.25C698.627,661.764 697.493,661.764 696.56,661.25C694.92,660.37 685.11,655.38 681.65,657.78L681.63,651.28Z" style="fill-opacity:0.1;fill-rule:nonzero;"/>
        </g>
        <g transform="matrix(1,0,0,1,-51.77,-47.02)">
            <path d="M681.93,651.28C681.93,651.28 697.45,651.7 699.08,656.15L699.08,660.79C698.181,661.284 697.089,661.284 696.19,660.79C694.62,659.94 685.19,655.19 681.93,657.48L681.93,651.28Z" style="fill:rgb(63,61,86);fill-rule:nonzero;"/>
        </g>
        <g transform="matrix(1,0,0,1,-51.77,-47.02)">
            <path d="M690.49,616C692.148,619.835 694.26,623.458 696.78,626.79C699.525,630.48 702.856,633.696 706.64,636.31C710.424,638.924 690.76,618.27 690.49,616Z" style="fill-opacity:0.1;fill-rule:nonzero;"/>
        </g>
        <g transform="matrix(1,0,0,1,-51.77,-47.02)">
            <path d="M685.18,597.18C685.18,597.18 687.89,608.87 694.86,612.84L685.18,597.18Z" style="fill-opacity:0.1;fill-rule:nonzero;"/>
        </g>
        <g transform="matrix(1,0,0,1,-51.77,-47.02)">
            <path d="M681,598.36C680.93,598.14 678.59,607.6 690,612.84C690,612.84 685.18,611.2 681,598.36Z" style="fill-opacity:0.1;fill-rule:nonzero;"/>
        </g>
        <g transform="matrix(1,0,0,1,-51.77,-47.02)">
            <path d="M751.9,590.52C751.72,590.52 757.52,594.22 759.1,595.93C759.1,595.93 755.33,590.28 751.9,590.52Z" style="fill-opacity:0.1;fill-rule:nonzero;"/>
        </g>
        <g transform="matrix(1,0,0,1,-51.77,-47.02)">
            <path d="M715.18,582.44C715.291,583.204 715.688,583.897 716.29,584.38C716.712,584.579 717.173,584.682 717.64,584.68C722.01,584.95 726.55,585.14 730.64,583.46C731.406,583.197 732.093,582.747 732.64,582.15C733.216,581.189 733.577,580.114 733.7,579C734.27,576.86 735.48,575 736.35,572.92C737.81,569.478 738.298,565.7 737.76,562C737.652,560.863 737.278,559.767 736.67,558.8C735.51,557.15 733.4,556.48 731.87,555.16C730.34,553.84 729.35,551.83 727.57,550.84C725.874,550.085 723.973,549.916 722.17,550.36C718.6,550.972 715.179,552.258 712.09,554.15C711.09,554.79 709.91,555.52 708.72,555.3C707.698,554.973 706.821,554.301 706.24,553.4C705.389,555.361 705.022,557.498 705.17,559.63C705.219,559.941 705.219,560.259 705.17,560.57C705.017,560.945 704.789,561.285 704.5,561.57C703.42,562.82 702.75,564.8 703.81,566.06C704.28,566.61 704.99,566.91 705.44,567.47C706.25,568.47 705.97,569.92 705.95,571.21C705.911,571.657 706.024,572.105 706.27,572.48C706.746,572.918 707.418,573.078 708.04,572.9C708.649,572.717 709.288,572.656 709.92,572.72C710.592,572.945 711.17,573.389 711.56,573.98C713.54,576.54 714.33,579.35 715.18,582.44Z" style="fill:rgb(45,41,61);fill-rule:nonzero;"/>
        </g>
        <g transform="matrix(1,0,0,1,-51.77,-47.02)">
            <path d="M733,581.05C732.455,581.647 731.767,582.095 731,582.35C727,584.04 722.42,583.84 718.06,583.57C717.593,583.579 717.13,583.476 716.71,583.27C716.103,582.795 715.701,582.103 715.59,581.34C714.74,578.25 713.96,575.43 711.94,572.87C711.553,572.276 710.974,571.831 710.3,571.61C709.668,571.546 709.029,571.607 708.42,571.79C707.798,571.968 707.126,571.808 706.65,571.37C706.403,570.995 706.293,570.546 706.34,570.1C706.34,568.81 706.63,567.36 705.82,566.36C705.37,565.8 704.66,565.5 704.19,564.95C703.578,564.114 703.474,563.005 703.92,562.07C703.15,563.29 702.82,564.85 703.71,565.91C704.18,566.46 704.89,566.76 705.34,567.32C706.15,568.32 705.87,569.77 705.85,571.06C705.811,571.507 705.924,571.955 706.17,572.33C706.645,572.77 707.318,572.93 707.94,572.75C708.549,572.567 709.188,572.506 709.82,572.57C710.492,572.795 711.07,573.239 711.46,573.83C713.46,576.4 714.26,579.21 715.11,582.3C715.221,583.064 715.618,583.757 716.22,584.24C716.642,584.439 717.103,584.542 717.57,584.54C721.94,584.81 726.48,585 730.57,583.32C731.334,583.055 732.021,582.605 732.57,582.01C732.842,581.662 733.052,581.27 733.19,580.85C733.13,580.92 733.09,581 733,581.05Z" style="fill-rule:nonzero;"/>
        </g>
        <g transform="matrix(1,0,0,1,-51.77,-47.02)">
            <path d="M705.18,560.19C705.377,559.981 705.527,559.732 705.62,559.46C705.669,559.149 705.669,558.831 705.62,558.52C705.496,556.766 705.724,555.005 706.29,553.34L706.21,553.25C705.354,555.209 704.987,557.347 705.14,559.48C705.173,559.715 705.187,559.953 705.18,560.19Z" style="fill-rule:nonzero;"/>
        </g>
        <g transform="matrix(1,0,0,1,-51.77,-47.02)">
            <path d="M712.62,591.12C712.62,591.12 730.51,593.49 732.12,590.8" style="fill-opacity:0.1;fill-rule:nonzero;"/>
        </g>
        <g transform="matrix(1,0,0,1,-51.77,-47.02)">
            <path d="M747.4,583.72C747.4,583.72 757.33,583.72 759.52,587.46" style="fill-opacity:0.1;fill-rule:nonzero;"/>
        </g>
    </g>
    <defs>
        <linearGradient id="_Linear1" x1="0" y1="0" x2="1" y2="0" gradientUnits="userSpaceOnUse" gradientTransform="matrix(1.84101e-14,-300.66,300.66,1.84101e-14,699.46,846.78)"><stop offset="0" style="stop-color:rgb(128,128,128);stop-opacity:0.247059"/><stop offset="0.54" style="stop-color:rgb(128,128,128);stop-opacity:0.117647"/><stop offset="1" style="stop-color:rgb(128,128,128);stop-opacity:0.0980392"/></linearGradient>
    </defs>
</svg>
