<svg width="573" height="428" viewBox="0 0 573 428" fill="none" xmlns="http://www.w3.org/2000/svg">
<path d="M112.147 212.934C116.147 202.458 116.726 192.947 113.441 191.69C110.156 190.433 104.252 197.906 100.252 208.382C96.2528 218.857 95.6736 228.368 98.9584 229.625C102.243 230.882 108.148 223.409 112.147 212.934Z" fill="#2F2E41"/>
<path d="M570.649 261.816C578.693 321.752 567.739 381.752 512.025 405.116C456.311 428.48 392.228 402.203 368.891 346.425C345.554 290.647 400.616 257.272 427.514 203.125C482.136 93.1679 545.668 75.688 570.649 261.816Z" fill="#F2F2F2"/>
<path d="M470.348 420.289C518.558 420.289 557.64 414.966 557.64 408.4C557.64 401.834 518.558 396.511 470.348 396.511C422.138 396.511 383.057 401.834 383.057 408.4C383.057 414.966 422.138 420.289 470.348 420.289Z" fill="#3F3D56"/>
<path d="M413.244 378.141L416.527 390.033L437.809 384.144L434.526 372.252L413.244 378.141Z" fill="#2F2E41"/>
<path d="M414.71 392.136C416.76 391.569 417.197 386.672 415.685 381.199C414.174 375.726 411.287 371.749 409.237 372.316C407.187 372.884 406.75 377.78 408.262 383.253C409.773 388.726 412.66 392.703 414.71 392.136Z" fill="#2F2E41"/>
<path d="M480.416 337.241C481.92 326.128 480.315 316.736 476.83 316.263C473.346 315.79 469.301 324.416 467.796 335.529C466.292 346.642 467.897 356.034 471.382 356.507C474.867 356.98 478.911 348.354 480.416 337.241Z" fill="#2F2E41"/>
<path d="M470.135 415.012C492.539 415.012 510.7 396.83 510.7 374.4C510.7 351.971 492.539 333.788 470.135 333.788C447.732 333.788 429.57 351.971 429.57 374.4C429.57 396.83 447.732 415.012 470.135 415.012Z" fill="#2F2E41"/>
<path d="M413.244 370.944L416.527 382.836L437.809 376.946L434.526 365.055L413.244 370.944Z" fill="#2F2E41"/>
<path d="M414.71 384.939C416.76 384.372 417.197 379.475 415.685 374.002C414.174 368.529 411.287 364.552 409.237 365.119C407.187 365.687 406.75 370.583 408.262 376.056C409.773 381.529 412.66 385.506 414.71 384.939Z" fill="#2F2E41"/>
<path d="M480.787 365.015C488.444 365.015 494.651 358.801 494.651 351.135C494.651 343.469 488.444 337.255 480.787 337.255C473.13 337.255 466.923 343.469 466.923 351.135C466.923 358.801 473.13 365.015 480.787 365.015Z" fill="white"/>
<path d="M485.221 349.63C487.773 349.63 489.842 347.559 489.842 345.004C489.842 342.449 487.773 340.377 485.221 340.377C482.669 340.377 480.6 342.449 480.6 345.004C480.6 347.559 482.669 349.63 485.221 349.63Z" fill="#3F3D56"/>
<path d="M516.98 402.309C531.991 401.556 543.488 387.499 542.659 370.911C541.83 354.323 528.988 341.485 513.977 342.237C498.966 342.989 496.61 354.787 497.439 371.375C498.269 387.963 501.969 403.061 516.98 402.309Z" fill="#0F79D1"/>
<path d="M453.556 357.217C451.113 357.414 448.692 356.632 446.825 355.043C444.958 353.453 443.798 351.186 443.6 348.74C443.403 346.295 444.183 343.87 445.771 342.001C447.358 340.131 449.622 338.969 452.065 338.771C457.153 338.358 458.54 342.402 458.952 347.496C459.364 352.59 458.644 356.805 453.556 357.217Z" fill="white"/>
<path d="M114.409 199.826C118.29 199.826 121.436 196.677 121.436 192.791C121.436 188.906 118.29 185.756 114.409 185.756C110.528 185.756 107.382 188.906 107.382 192.791C107.382 196.677 110.528 199.826 114.409 199.826Z" fill="#0F79D1"/>
<path d="M179.996 192.629C183.877 192.629 187.023 189.48 187.023 185.594C187.023 181.709 183.877 178.559 179.996 178.559C176.115 178.559 172.969 181.709 172.969 185.594C172.969 189.48 176.115 192.629 179.996 192.629Z" fill="#0F79D1"/>
<path d="M287.746 209.827C291.627 209.827 294.773 206.677 294.773 202.791C294.773 198.906 291.627 195.756 287.746 195.756C283.865 195.756 280.719 198.906 280.719 202.791C280.719 206.677 283.865 209.827 287.746 209.827Z" fill="#0F79D1"/>
<path d="M439.221 168.397C443.102 168.397 446.248 165.247 446.248 161.361C446.248 157.476 443.102 154.326 439.221 154.326C435.34 154.326 432.193 157.476 432.193 161.361C432.193 165.247 435.34 168.397 439.221 168.397Z" fill="#0F79D1"/>
<path d="M365.826 195.756C369.707 195.756 372.853 192.606 372.853 188.721C372.853 184.835 369.707 181.686 365.826 181.686C361.945 181.686 358.799 184.835 358.799 188.721C358.799 192.606 361.945 195.756 365.826 195.756Z" fill="#0F79D1"/>
<path d="M87.2917 428C135.502 428 174.583 422.677 174.583 416.111C174.583 409.545 135.502 404.222 87.2917 404.222C39.0818 404.222 0 409.545 0 416.111C0 422.677 39.0818 428 87.2917 428Z" fill="#3F3D56"/>
<path d="M82.5698 398.632C104.973 398.632 123.135 380.45 123.135 358.02C123.135 335.591 104.973 317.409 82.5698 317.409C60.1664 317.409 42.0049 335.591 42.0049 358.02C42.0049 380.45 60.1664 398.632 82.5698 398.632Z" fill="#2F2E41"/>
<path d="M76.408 389.893H64.0845V411.998H76.408V389.893Z" fill="#2F2E41"/>
<path d="M101.055 389.893H88.7314V411.998H101.055V389.893Z" fill="#2F2E41"/>
<path d="M74.3541 416.111C80.0258 416.111 84.6237 414.385 84.6237 412.255C84.6237 410.126 80.0258 408.4 74.3541 408.4C68.6823 408.4 64.0845 410.126 64.0845 412.255C64.0845 414.385 68.6823 416.111 74.3541 416.111Z" fill="#2F2E41"/>
<path d="M99.0011 415.597C104.673 415.597 109.271 413.871 109.271 411.741C109.271 409.612 104.673 407.886 99.0011 407.886C93.3293 407.886 88.7314 409.612 88.7314 411.741C88.7314 413.871 93.3293 415.597 99.0011 415.597Z" fill="#2F2E41"/>
<path d="M83.5969 361.619C91.2537 361.619 97.4609 355.405 97.4609 347.739C97.4609 340.073 91.2537 333.859 83.5969 333.859C75.94 333.859 69.7329 340.073 69.7329 347.739C69.7329 355.405 75.94 361.619 83.5969 361.619Z" fill="white"/>
<path d="M83.5969 352.366C86.1492 352.366 88.2182 350.294 88.2182 347.739C88.2182 345.184 86.1492 343.112 83.5969 343.112C81.0446 343.112 78.9756 345.184 78.9756 347.739C78.9756 350.294 81.0446 352.366 83.5969 352.366Z" fill="#3F3D56"/>
<path d="M43.2208 320.253C39.9454 305.567 50.4156 290.727 66.6068 287.108C82.7979 283.488 98.5787 292.459 101.854 307.145C105.13 321.831 94.3991 327.247 78.2079 330.867C62.0168 334.486 46.4962 334.938 43.2208 320.253Z" fill="#0F79D1"/>
<path d="M68.7061 281.937C91.1095 281.937 109.271 263.755 109.271 241.325C109.271 218.896 91.1095 200.714 68.7061 200.714C46.3027 200.714 28.1411 218.896 28.1411 241.325C28.1411 263.755 46.3027 281.937 68.7061 281.937Z" fill="#2F2E41"/>
<path d="M62.5442 273.198H50.2207V295.303H62.5442V273.198Z" fill="#2F2E41"/>
<path d="M87.1912 273.198H74.8677V295.303H87.1912V273.198Z" fill="#2F2E41"/>
<path d="M60.4903 299.416C66.1621 299.416 70.7599 297.69 70.7599 295.56C70.7599 293.431 66.1621 291.705 60.4903 291.705C54.8186 291.705 50.2207 293.431 50.2207 295.56C50.2207 297.69 54.8186 299.416 60.4903 299.416Z" fill="#2F2E41"/>
<path d="M85.1373 298.902C90.809 298.902 95.4069 297.176 95.4069 295.046C95.4069 292.917 90.809 291.191 85.1373 291.191C79.4655 291.191 74.8677 292.917 74.8677 295.046C74.8677 297.176 79.4655 298.902 85.1373 298.902Z" fill="#2F2E41"/>
<path d="M69.7331 244.924C77.39 244.924 83.5971 238.71 83.5971 231.044C83.5971 223.378 77.39 217.164 69.7331 217.164C62.0763 217.164 55.8691 223.378 55.8691 231.044C55.8691 238.71 62.0763 244.924 69.7331 244.924Z" fill="white"/>
<path d="M69.7327 235.671C72.2849 235.671 74.354 233.599 74.354 231.044C74.354 228.489 72.2849 226.417 69.7327 226.417C67.1804 226.417 65.1113 228.489 65.1113 231.044C65.1113 233.599 67.1804 235.671 69.7327 235.671Z" fill="#3F3D56"/>
<path d="M29.3565 203.558C26.0811 188.872 36.5514 174.032 52.7425 170.413C68.9336 166.793 84.7144 175.764 87.9898 190.45C91.2653 205.136 80.5348 210.552 64.3437 214.172C48.1526 217.791 32.632 218.243 29.3565 203.558Z" fill="#0F79D1"/>
<path d="M41.3421 231.183C42.849 228.002 35.8659 221.527 25.7448 216.722C15.6238 211.916 6.19744 210.599 4.69049 213.78C3.18354 216.961 10.1666 223.435 20.2877 228.241C30.4088 233.047 39.8351 234.364 41.3421 231.183Z" fill="#2F2E41"/>
<path d="M48.7808 255.977C48.7808 259.951 59.0034 267.8 70.3469 267.8C81.6904 267.8 92.3262 256.61 92.3262 252.635C92.3262 248.66 81.6904 253.406 70.3469 253.406C59.0034 253.406 48.7808 252.002 48.7808 255.977Z" fill="white"/>
<path d="M493.765 290.303H429V323.287H493.765V290.303Z" fill="#0F79D1"/>
<path d="M488.696 295.659H423.932V328.643H488.696V295.659Z" stroke="#3F3D56" stroke-width="2" stroke-miterlimit="10"/>
<path d="M465.241 138.014C487.644 138.014 505.806 119.831 505.806 97.4018C505.806 74.9725 487.644 56.7899 465.241 56.7899C442.837 56.7899 424.676 74.9725 424.676 97.4018C424.676 119.831 442.837 138.014 465.241 138.014Z" fill="#2F2E41"/>
<path d="M480.906 149.415L493.032 147.217L489.099 125.466L476.973 127.663L480.906 149.415Z" fill="#2F2E41"/>
<path d="M456.655 153.813L468.781 151.615L464.848 129.864L452.722 132.061L456.655 153.813Z" fill="#2F2E41"/>
<path d="M463.092 158.391C467.42 154.721 469.814 150.429 468.44 148.804C467.065 147.179 462.442 148.836 458.114 152.506C453.786 156.176 451.392 160.468 452.766 162.093C454.141 163.718 458.764 162.06 463.092 158.391Z" fill="#2F2E41"/>
<path d="M486.839 154.087C491.167 150.417 493.561 146.125 492.187 144.5C490.812 142.875 486.189 144.532 481.861 148.202C477.533 151.872 475.139 156.164 476.513 157.789C477.888 159.414 482.511 157.756 486.839 154.087Z" fill="#2F2E41"/>
<path d="M462.4 101.348C470.057 101.348 476.264 95.1336 476.264 87.4679C476.264 79.8022 470.057 73.5879 462.4 73.5879C454.743 73.5879 448.536 79.8022 448.536 87.4679C448.536 95.1336 454.743 101.348 462.4 101.348Z" fill="white"/>
<path d="M456.702 87.1193C459.255 87.1193 461.324 85.0479 461.324 82.4926C461.324 79.9374 459.255 77.866 456.702 77.866C454.15 77.866 452.081 79.9374 452.081 82.4926C452.081 85.0479 454.15 87.1193 456.702 87.1193Z" fill="#3F3D56"/>
<path d="M497.24 53.2204C497.85 38.1853 484.907 25.4504 468.331 24.7763C451.755 24.1022 437.823 35.7441 437.213 50.7792C436.603 65.8144 448.125 69.2305 464.701 69.9046C481.277 70.5787 496.63 68.2555 497.24 53.2204Z" fill="#0F79D1"/>
<path d="M447.554 94.5398C448.34 91.1082 440.125 86.2951 429.207 83.7895C418.288 81.2839 408.8 82.0346 408.014 85.4662C407.229 88.8979 415.443 93.7109 426.362 96.2165C437.28 98.7221 446.768 97.9714 447.554 94.5398Z" fill="#2F2E41"/>
<path d="M527.181 107.797C527.967 104.365 519.752 99.5523 508.834 97.0467C497.915 94.5411 488.427 95.2918 487.641 98.7234C486.856 102.155 495.07 106.968 505.989 109.474C516.907 111.979 526.395 111.229 527.181 107.797Z" fill="#2F2E41"/>
<path d="M476.381 113.406C476.597 114.602 476.576 115.829 476.319 117.016C476.061 118.204 475.573 119.329 474.881 120.328C474.19 121.326 473.308 122.179 472.288 122.836C471.267 123.494 470.127 123.944 468.933 124.16C467.738 124.377 466.513 124.355 465.327 124.098C464.141 123.84 463.017 123.351 462.019 122.659C461.022 121.966 460.17 121.084 459.514 120.062C458.857 119.04 458.407 117.899 458.191 116.703C457.282 111.674 461.166 109.895 466.188 108.985C471.211 108.074 475.472 108.378 476.381 113.406Z" fill="white"/>
<path d="M365.908 50.8934L412.635 86.8787" stroke="#3F3D56" stroke-width="2" stroke-miterlimit="10"/>
<path d="M343.829 69.9142C363.113 69.9142 378.746 54.2634 378.746 34.9571C378.746 15.6508 363.113 0 343.829 0C324.545 0 308.912 15.6508 308.912 34.9571C308.912 54.2634 324.545 69.9142 343.829 69.9142Z" fill="#FF6584"/>
<path d="M465.19 346.891C466.695 335.778 465.089 326.386 461.605 325.913C458.12 325.44 454.075 334.066 452.571 345.179C451.066 356.292 452.672 365.684 456.156 366.157C459.641 366.63 463.686 358.004 465.19 346.891Z" fill="#2F2E41"/>
<path d="M35.3333 411.111C39.2143 411.111 42.3605 407.961 42.3605 404.076C42.3605 400.19 39.2143 397.041 35.3333 397.041C31.4523 397.041 28.3062 400.19 28.3062 404.076C28.3062 407.961 31.4523 411.111 35.3333 411.111Z" fill="#0F79D1"/>
<path d="M150.246 395.838H131.761V414.344H150.246V395.838Z" fill="#FF6584"/>
<path d="M131.868 415.224C135.749 415.224 138.895 412.074 138.895 408.188C138.895 404.303 135.749 401.153 131.868 401.153C127.987 401.153 124.841 404.303 124.841 408.188C124.841 412.074 127.987 415.224 131.868 415.224Z" fill="#0F79D1"/>
<path d="M373.67 352.546C375.524 352.546 377.026 351.042 377.026 349.186C377.026 347.331 375.524 345.827 373.67 345.827C371.817 345.827 370.314 347.331 370.314 349.186C370.314 351.042 371.817 352.546 373.67 352.546Z" fill="#FF6584"/>
<path d="M390.111 404.949V366.696" stroke="#3F3D56" stroke-width="2" stroke-miterlimit="10"/>
<path d="M390.111 372.106C393.095 372.106 395.514 369.684 395.514 366.696C395.514 363.709 393.095 361.287 390.111 361.287C387.127 361.287 384.708 363.709 384.708 366.696C384.708 369.684 387.127 372.106 390.111 372.106Z" fill="#3F3D56"/>
<path d="M390.111 390.273C390.111 390.273 389.339 373.652 373.516 375.584Z" fill="#3F3D56"/>
</svg>
