<?xml version="1.0" encoding="UTF-8" standalone="no"?>
<!DOCTYPE svg PUBLIC "-//W3C//DTD SVG 1.1//EN" "http://www.w3.org/Graphics/SVG/1.1/DTD/svg11.dtd">
<svg width="100%" height="100%" viewBox="0 0 914 800" version="1.1" xmlns="http://www.w3.org/2000/svg" xmlns:xlink="http://www.w3.org/1999/xlink" xml:space="preserve" xmlns:serif="http://www.serif.com/" style="fill-rule:evenodd;clip-rule:evenodd;stroke-linejoin:round;stroke-miterlimit:1.41421;">
    <g transform="matrix(1,0,0,1,-400.132,-351.406)">
        <g transform="matrix(1.45384,0,0,1.45384,400.132,351.406)">
            <path d="M538.179,435.473L249.822,295.434C241.66,291.469 227.377,292.001 218.012,296.533L21.659,391.872C12.253,396.524 11.212,403.39 19.374,407.321L118.519,455.386C110.986,455.835 103.654,457.631 97.013,460.656C81.914,468.003 81.914,479.899 97.013,487.228C112.112,494.558 136.598,494.558 151.697,487.228C157.818,484.276 161.348,480.602 162.552,476.774L185.977,488.155C181.287,489.013 176.776,490.454 172.591,492.43C157.165,499.914 157.165,512.05 172.591,519.535C188.017,527.019 212.972,527.019 228.377,519.535C231.851,517.948 234.857,515.725 237.171,513.029L307.73,547.36C315.892,551.326 330.175,550.794 339.561,546.262L535.893,450.923C545.32,446.305 546.34,439.439 538.179,435.473Z" style="fill:rgb(178,211,234);fill-rule:nonzero;"/>
        </g>
        <g transform="matrix(1.45384,0,0,1.45384,400.132,351.406)">
            <path d="M616.389,147.413L316.096,1.555C314.591,0.761 312.897,0.256 311.134,0.075C309.37,-0.106 307.581,0.042 305.894,0.508L305.343,0.68L305.22,0.68L294.365,4.113L304.098,8.13C304.098,8.284 303.996,8.421 303.955,8.576L255.066,195.958C252.618,205.331 257.515,216.283 266.023,220.402L559.093,362.759L558.053,373.213L569.908,369.35C573.988,367.771 577.09,364.201 578.416,359.171L627.387,171.857C629.795,162.485 624.898,151.55 616.389,147.413Z" style="fill:rgb(23,61,122);fill-rule:nonzero;"/>
        </g>
        <g transform="matrix(1.45384,0,0,1.45384,400.132,351.406)">
            <path d="M616.389,147.413L316.096,1.555C314.591,0.761 312.897,0.256 311.134,0.075C309.37,-0.106 307.581,0.042 305.894,0.508L305.343,0.68L305.22,0.68L294.365,4.113L304.098,8.13C304.098,8.284 303.996,8.421 303.955,8.576L271.757,132.17L418.669,228.47L625.877,157.49C624.148,153.33 620.806,149.781 616.389,147.413Z" style="fill:rgb(57,108,170);fill-rule:nonzero;"/>
        </g>
        <g transform="matrix(1.45384,0,0,1.45384,400.132,351.406)">
            <path d="M605.065,176.218L627.938,168.029C628.346,160.58 624.694,152.872 618.674,148.769L582.477,161.575L605.065,176.218Z" style="fill:rgb(39,79,137);fill-rule:nonzero;"/>
        </g>
        <g transform="matrix(1.45384,0,0,1.45384,400.132,351.406)">
            <path d="M547.646,372.217L247.333,226.308C238.845,222.171 233.948,211.236 236.396,201.863L285.367,14.55C287.713,5.143 296.63,0.971 305.118,5.143L605.411,151.052C613.92,155.189 618.817,166.124 616.369,175.497L567.398,362.81C565.011,372.097 556.135,376.337 547.646,372.217Z" style="fill:rgb(212,236,255);fill-rule:nonzero;"/>
        </g>
        <g transform="matrix(1.45384,0,0,1.45384,400.132,351.406)">
            <path d="M541.137,358.279L258.698,221.175C250.924,217.399 246.456,207.442 248.68,198.859L293.447,27.458C295.692,18.875 303.792,14.996 311.566,18.772L594.005,155.807C601.78,159.584 606.248,169.54 604.024,178.123L559.257,349.541C557.053,358.176 548.891,362.055 541.137,358.279Z" style="fill:white;fill-rule:nonzero;"/>
        </g>
        <g transform="matrix(1.45384,0,0,1.45384,400.132,351.406)">
            <path d="M541.137,358.279L258.698,221.175C250.924,217.399 246.456,207.442 248.68,198.859L293.447,27.458C295.692,18.875 303.792,14.996 311.566,18.772L594.005,155.807C601.78,159.584 606.248,169.54 604.024,178.123L559.257,349.541C557.053,358.176 548.891,362.055 541.137,358.279Z" style="fill:white;fill-rule:nonzero;"/>
        </g>
        <g transform="matrix(1.45384,0,0,1.45384,400.132,351.406)">
            <path d="M551.789,378.569L510.735,374.002L245.762,245.259C237.253,241.122 222.419,241.637 212.604,246.409L24.883,337.577L0.01,334.864L0.01,346.743C-0.153,349.472 1.703,352.116 5.703,354.056L306.016,499.965C314.504,504.102 329.339,503.587 339.153,498.815L543.647,399.528C549.156,396.85 551.911,393.4 551.809,390.155L551.789,378.569Z" style="fill:rgb(23,61,122);fill-rule:nonzero;"/>
        </g>
        <g transform="matrix(1.45384,0,0,1.45384,400.132,351.406)">
            <path d="M352.681,297.237L333.868,288.105L126.885,288.105L24.863,337.628L0.01,334.864L0.01,346.743C-0.153,349.472 1.703,352.116 5.703,354.056L306.016,499.966C311.294,502.218 317.227,503.153 323.115,502.661L352.681,297.237Z" style="fill:rgb(57,108,170);fill-rule:nonzero;"/>
        </g>
        <g transform="matrix(1.45384,0,0,1.45384,400.132,351.406)">
            <path d="M309.077,501.081C318.346,503.613 328.412,503.085 337.235,499.605L337.235,473.187L309.077,473.187L309.077,501.081Z" style="fill:rgb(39,79,137);fill-rule:nonzero;"/>
        </g>
        <g transform="matrix(1.45384,0,0,1.45384,400.132,351.406)">
            <path d="M306.077,488.07L5.764,342.16C-2.745,338.16 -1.684,330.865 8.172,326.144L212.645,226.857C222.46,222.085 237.294,221.57 245.802,225.69L546.095,371.599C554.604,375.719 553.523,382.929 543.729,387.701L339.194,486.919C329.379,491.674 314.545,492.189 306.077,488.07Z" style="fill:rgb(212,236,255);fill-rule:nonzero;"/>
        </g>
        <g transform="matrix(1.45384,0,0,1.45384,400.132,351.406)">
            <path d="M133.466,294.743L119.876,288.135C118.775,287.602 118.917,286.675 120.183,286.075L136.22,278.281C136.863,277.975 137.583,277.802 138.32,277.775C139.058,277.748 139.793,277.869 140.465,278.127L154.054,284.736C155.156,285.268 155.013,286.178 153.748,286.796L137.71,294.589C137.066,294.891 136.347,295.062 135.61,295.089C134.873,295.116 134.139,294.998 133.466,294.743Z" style="fill:rgb(23,61,122);fill-rule:nonzero;"/>
        </g>
        <g transform="matrix(1.45384,0,0,1.45384,400.132,351.406)">
            <path d="M154.442,304.923L140.791,298.331C139.71,297.799 139.832,296.872 141.097,296.254L157.115,288.478C157.761,288.172 158.484,287.998 159.225,287.971C159.966,287.944 160.704,288.065 161.379,288.323L174.969,294.915C176.05,295.447 175.907,296.374 174.663,296.992L158.625,304.785C157.986,305.074 157.277,305.236 156.552,305.26C155.827,305.284 155.106,305.169 154.442,304.923Z" style="fill:rgb(23,61,122);fill-rule:nonzero;"/>
        </g>
        <g transform="matrix(1.45384,0,0,1.45384,400.132,351.406)">
            <path d="M175.479,315.119L161.91,308.528C160.808,307.995 160.951,307.068 162.195,306.45L178.233,298.657C178.883,298.358 179.606,298.189 180.346,298.165C181.086,298.142 181.823,298.263 182.498,298.52L196.087,305.112C197.169,305.644 197.046,306.571 195.781,307.189L179.682,314.948C179.045,315.248 178.334,315.42 177.604,315.45C176.875,315.48 176.147,315.367 175.479,315.119Z" style="fill:rgb(23,61,122);fill-rule:nonzero;"/>
        </g>
        <g transform="matrix(1.45384,0,0,1.45384,400.132,351.406)">
            <path d="M204.463,305.888L190.874,299.28C189.772,298.747 189.915,297.82 191.18,297.22L204.647,290.68C205.289,290.373 206.009,290.2 206.747,290.173C207.484,290.146 208.219,290.267 208.891,290.525L222.419,297.134C223.521,297.666 223.378,298.576 222.113,299.194L208.646,305.734C208.011,306.032 207.302,306.2 206.576,306.227C205.85,306.254 205.126,306.138 204.463,305.888Z" style="fill:rgb(23,61,122);fill-rule:nonzero;"/>
        </g>
        <g transform="matrix(1.45384,0,0,1.45384,400.132,351.406)">
            <path d="M225.439,316.068L211.849,309.476C210.768,308.944 210.89,308.017 212.155,307.416L225.622,300.876C226.269,300.57 226.992,300.396 227.733,300.369C228.474,300.342 229.212,300.463 229.887,300.721L243.456,307.313C244.558,307.845 244.415,308.772 243.15,309.39L229.703,315.93C229.054,316.23 228.33,316.398 227.59,316.422C226.85,316.446 226.114,316.325 225.439,316.068Z" style="fill:rgb(23,61,122);fill-rule:nonzero;"/>
        </g>
        <g transform="matrix(1.45384,0,0,1.45384,400.132,351.406)">
            <path d="M246.415,326.264L232.846,319.673C231.744,319.14 231.887,318.214 233.152,317.596L246.598,311.055C247.248,310.756 247.971,310.587 248.711,310.564C249.452,310.54 250.188,310.661 250.863,310.918L264.452,317.561C265.534,318.093 265.411,319.02 264.146,319.638L250.679,326.178C250.025,326.47 249.299,326.629 248.559,326.644C247.819,326.659 247.085,326.529 246.415,326.264Z" style="fill:rgb(23,61,122);fill-rule:nonzero;"/>
        </g>
        <g transform="matrix(1.45384,0,0,1.45384,400.132,351.406)">
            <path d="M267.411,336.444L253.821,329.835C252.72,329.32 252.862,328.393 254.127,327.775L267.594,321.235C268.239,320.933 268.958,320.761 269.695,320.734C270.432,320.708 271.166,320.826 271.839,321.08L285.428,327.689C286.53,328.221 286.387,329.148 285.122,329.749L271.655,336.289C271.012,336.595 270.293,336.769 269.555,336.796C268.817,336.822 268.082,336.702 267.411,336.444Z" style="fill:rgb(23,61,122);fill-rule:nonzero;"/>
        </g>
        <g transform="matrix(1.45384,0,0,1.45384,400.132,351.406)">
            <path d="M288.387,346.743L274.797,340.134C273.716,339.602 273.859,338.675 275.103,338.074L288.57,331.534C289.217,331.228 289.94,331.054 290.681,331.028C291.422,331.001 292.16,331.121 292.835,331.38L306.424,337.989C307.506,338.504 307.363,339.431 306.118,340.048L292.651,346.589C292.005,346.895 291.282,347.068 290.541,347.095C289.8,347.122 289.062,347.002 288.387,346.743Z" style="fill:rgb(23,61,122);fill-rule:nonzero;"/>
        </g>
        <g transform="matrix(1.45384,0,0,1.45384,400.132,351.406)">
            <path d="M309.383,356.837L295.875,350.176C294.773,349.644 294.916,348.717 296.181,348.099L309.628,341.576C310.274,341.27 310.997,341.096 311.738,341.07C312.479,341.043 313.217,341.163 313.892,341.422L327.482,348.013C328.563,348.546 328.441,349.473 327.176,350.09L313.709,356.631C313.059,356.952 312.328,357.139 311.575,357.174C310.823,357.21 310.071,357.095 309.383,356.837Z" style="fill:rgb(23,61,122);fill-rule:nonzero;"/>
        </g>
        <g transform="matrix(1.45384,0,0,1.45384,400.132,351.406)">
            <path d="M330.359,367.033L316.769,360.476C315.688,359.944 315.81,359.017 317.075,358.399L330.563,351.893C331.209,351.593 331.929,351.425 332.666,351.401C333.402,351.377 334.136,351.499 334.807,351.756L348.396,358.347C349.498,358.879 349.355,359.806 348.09,360.424L334.644,366.947C333.988,367.245 333.258,367.409 332.513,367.424C331.769,367.439 331.03,367.305 330.359,367.033Z" style="fill:rgb(23,61,122);fill-rule:nonzero;"/>
        </g>
        <g transform="matrix(1.45384,0,0,1.45384,400.132,351.406)">
            <path d="M351.334,377.23L337.745,370.621C336.664,370.089 336.806,369.179 338.051,368.561L351.518,362.021C352.164,361.715 352.887,361.541 353.628,361.514C354.369,361.487 355.108,361.608 355.783,361.866L369.372,368.475C370.454,369.007 370.311,369.934 369.066,370.535L355.599,377.075C354.953,377.381 354.23,377.555 353.489,377.582C352.748,377.609 352.01,377.488 351.334,377.23Z" style="fill:rgb(23,61,122);fill-rule:nonzero;"/>
        </g>
        <g transform="matrix(1.45384,0,0,1.45384,400.132,351.406)">
            <path d="M372.331,387.426L358.741,380.817C357.64,380.285 357.782,379.358 359.048,378.757L372.514,372.217C373.157,371.911 373.877,371.738 374.614,371.711C375.352,371.684 376.087,371.805 376.759,372.063L390.348,378.672C391.45,379.187 391.307,380.114 390.042,380.732L376.575,387.272C375.931,387.574 375.212,387.745 374.475,387.772C373.738,387.799 373.004,387.68 372.331,387.426Z" style="fill:rgb(23,61,122);fill-rule:nonzero;"/>
        </g>
        <g transform="matrix(1.45384,0,0,1.45384,400.132,351.406)">
            <path d="M393.307,397.606L379.717,391.014C378.636,390.482 378.758,389.555 380.023,388.937L393.49,382.397C394.14,382.097 394.863,381.929 395.603,381.905C396.343,381.881 397.08,382.002 397.755,382.259L411.324,388.851C412.426,389.383 412.283,390.31 411.018,390.928L397.571,397.468C396.922,397.768 396.198,397.936 395.458,397.96C394.718,397.984 393.981,397.863 393.307,397.606Z" style="fill:rgb(23,61,122);fill-rule:nonzero;"/>
        </g>
        <g transform="matrix(1.45384,0,0,1.45384,400.132,351.406)">
            <path d="M235.376,301.065L221.786,294.456C220.705,293.924 220.827,292.997 222.092,292.396L235.559,285.856C236.202,285.55 236.922,285.376 237.659,285.349C238.397,285.323 239.132,285.443 239.804,285.701L253.393,292.31C254.495,292.825 254.352,293.752 253.087,294.37L239.64,300.91C238.992,301.213 238.27,301.384 237.53,301.411C236.79,301.438 236.052,301.319 235.376,301.065Z" style="fill:rgb(57,108,170);fill-rule:nonzero;"/>
        </g>
        <g transform="matrix(1.45384,0,0,1.45384,400.132,351.406)">
            <path d="M214.073,290.714L200.484,284.122C199.403,283.59 199.545,282.663 200.79,282.045L214.257,275.505C214.907,275.205 215.63,275.037 216.37,275.013C217.11,274.989 217.847,275.111 218.522,275.368L232.111,281.959C233.192,282.491 233.05,283.418 231.805,284.019L218.338,290.559C217.692,290.866 216.969,291.039 216.228,291.066C215.487,291.093 214.749,290.972 214.073,290.714Z" style="fill:rgb(57,108,170);fill-rule:nonzero;"/>
        </g>
        <g transform="matrix(1.45384,0,0,1.45384,400.132,351.406)">
            <path d="M192.751,280.346L163.491,266.064C162.389,265.549 162.532,264.622 163.797,264.004L177.243,257.481C177.891,257.178 178.614,257.007 179.354,256.98C180.094,256.953 180.832,257.072 181.508,257.326L210.768,271.54C211.87,272.072 211.727,272.999 210.462,273.617L196.995,280.157C196.354,280.464 195.636,280.642 194.9,280.675C194.163,280.707 193.427,280.595 192.751,280.346Z" style="fill:rgb(23,61,122);fill-rule:nonzero;"/>
        </g>
        <g transform="matrix(1.45384,0,0,1.45384,400.132,351.406)">
            <path d="M207.667,267.78L183.916,256.245C182.814,255.73 182.957,254.803 184.222,254.185L197.668,247.645C198.316,247.342 199.039,247.171 199.779,247.144C200.519,247.117 201.257,247.236 201.933,247.49L225.684,259.026C226.765,259.558 226.643,260.485 225.378,261.103L211.911,267.643C211.265,267.942 210.545,268.111 209.808,268.134C209.071,268.158 208.338,268.037 207.667,267.78Z" style="fill:rgb(23,61,122);fill-rule:nonzero;"/>
        </g>
        <g transform="matrix(1.45384,0,0,1.45384,400.132,351.406)">
            <path d="M256.352,311.244L242.823,304.653C241.742,304.12 241.885,303.193 243.129,302.575L256.596,296.052C257.243,295.746 257.966,295.573 258.707,295.546C259.448,295.519 260.186,295.64 260.861,295.898L274.45,302.49C275.532,303.022 275.389,303.949 274.144,304.567L260.677,311.107C260.02,311.415 259.286,311.588 258.534,311.612C257.782,311.636 257.034,311.51 256.352,311.244Z" style="fill:rgb(57,108,170);fill-rule:nonzero;"/>
        </g>
        <g transform="matrix(1.45384,0,0,1.45384,400.132,351.406)">
            <path d="M277.348,321.441L263.758,314.849C262.657,314.317 262.799,313.39 264.064,312.772L277.531,306.232C278.177,305.932 278.897,305.764 279.634,305.74C280.371,305.716 281.104,305.838 281.776,306.094L295.365,312.686C296.467,313.218 296.324,314.145 295.059,314.746L281.592,321.286C280.949,321.592 280.23,321.766 279.492,321.793C278.754,321.82 278.019,321.699 277.348,321.441Z" style="fill:rgb(23,61,122);fill-rule:nonzero;"/>
        </g>
        <g transform="matrix(1.45384,0,0,1.45384,400.132,351.406)">
            <path d="M298.324,331.637L284.734,325.028C283.653,324.496 283.775,323.586 285.04,322.968L298.507,316.428C299.154,316.122 299.877,315.948 300.618,315.922C301.359,315.895 302.097,316.015 302.772,316.274L316.28,322.883C317.382,323.415 317.239,324.342 315.974,324.943L302.527,331.483C301.888,331.781 301.176,331.95 300.447,331.976C299.718,332.003 298.991,331.887 298.324,331.637Z" style="fill:rgb(23,61,122);fill-rule:nonzero;"/>
        </g>
        <g transform="matrix(1.45384,0,0,1.45384,400.132,351.406)">
            <path d="M319.299,341.834L305.731,335.225C304.629,334.693 304.772,333.766 306.016,333.165L319.483,326.625C320.129,326.319 320.852,326.145 321.593,326.118C322.334,326.091 323.073,326.212 323.748,326.47L337.337,333.079C338.419,333.594 338.296,334.521 337.031,335.139L323.564,341.679C322.916,341.982 322.194,342.153 321.453,342.18C320.713,342.207 319.976,342.088 319.299,341.834Z" style="fill:rgb(23,61,122);fill-rule:nonzero;"/>
        </g>
        <g transform="matrix(1.45384,0,0,1.45384,400.132,351.406)">
            <path d="M340.296,352.013L326.706,345.421C325.605,344.889 325.747,343.962 327.012,343.344L340.479,336.804C341.125,336.505 341.845,336.336 342.582,336.313C343.319,336.289 344.052,336.41 344.724,336.667L358.313,343.31C359.415,343.842 359.272,344.769 358.007,345.387L344.54,351.927C343.889,352.218 343.167,352.378 342.43,352.393C341.693,352.408 340.962,352.278 340.296,352.013Z" style="fill:rgb(23,61,122);fill-rule:nonzero;"/>
        </g>
        <g transform="matrix(1.45384,0,0,1.45384,400.132,351.406)">
            <path d="M361.272,362.192L347.682,355.601C346.601,355.069 346.723,354.142 347.988,353.524L361.455,346.983C362.105,346.684 362.828,346.515 363.568,346.492C364.308,346.468 365.045,346.589 365.72,346.846L379.309,353.438C380.391,353.97 380.248,354.897 379.003,355.498L365.536,362.038C364.89,362.344 364.167,362.518 363.426,362.545C362.685,362.571 361.947,362.451 361.272,362.192Z" style="fill:rgb(23,61,122);fill-rule:nonzero;"/>
        </g>
        <g transform="matrix(1.45384,0,0,1.45384,400.132,351.406)">
            <path d="M382.268,372.492L368.678,365.883C367.577,365.351 367.719,364.424 368.984,363.823L382.431,357.283C383.077,356.977 383.8,356.803 384.541,356.776C385.282,356.75 386.02,356.87 386.696,357.129L400.285,363.737C401.366,364.27 401.244,365.179 399.979,365.797L386.512,372.338C385.869,372.644 385.15,372.817 384.412,372.844C383.674,372.871 382.939,372.75 382.268,372.492Z" style="fill:rgb(23,61,122);fill-rule:nonzero;"/>
        </g>
        <g transform="matrix(1.45384,0,0,1.45384,400.132,351.406)">
            <path d="M403.244,382.585L389.736,375.925C388.654,375.393 388.777,374.466 390.042,373.865L403.509,367.325C404.151,367.019 404.871,366.845 405.609,366.819C406.347,366.792 407.081,366.912 407.753,367.171L421.342,373.762C422.444,374.294 422.301,375.221 421.036,375.839L407.569,382.379C406.92,382.701 406.189,382.887 405.436,382.923C404.684,382.959 403.932,382.843 403.244,382.585Z" style="fill:rgb(23,61,122);fill-rule:nonzero;"/>
        </g>
        <g transform="matrix(1.45384,0,0,1.45384,400.132,351.406)">
            <path d="M424.22,392.782L410.63,386.225C409.549,385.692 409.692,384.765 410.936,384.148L424.424,377.642C425.073,377.342 425.797,377.174 426.537,377.15C427.277,377.126 428.013,377.247 428.688,377.504L442.278,384.096C443.359,384.628 443.216,385.555 441.972,386.173L428.505,392.713C427.846,393.005 427.116,393.163 426.372,393.175C425.628,393.187 424.891,393.052 424.22,392.782Z" style="fill:rgb(23,61,122);fill-rule:nonzero;"/>
        </g>
        <g transform="matrix(1.45384,0,0,1.45384,400.132,351.406)">
            <path d="M461.519,410.909L431.892,396.524C430.79,395.992 430.933,395.065 432.177,394.447L445.644,387.907C446.294,387.607 447.017,387.439 447.757,387.415C448.497,387.391 449.234,387.512 449.909,387.769L479.516,402.154C480.597,402.687 480.475,403.596 479.21,404.214L465.743,410.755C465.102,411.055 464.386,411.226 463.653,411.253C462.919,411.279 462.189,411.162 461.519,410.909Z" style="fill:rgb(23,61,122);fill-rule:nonzero;"/>
        </g>
        <g transform="matrix(1.45384,0,0,1.45384,400.132,351.406)">
            <path d="M502.389,391.065L477.353,378.912C476.271,378.38 476.394,377.453 477.659,376.835L491.126,370.295C491.775,369.995 492.499,369.827 493.239,369.803C493.979,369.779 494.716,369.9 495.39,370.157L520.325,382.311C521.406,382.843 521.284,383.77 520.019,384.371L506.552,390.911C505.919,391.206 505.214,391.373 504.492,391.4C503.77,391.427 503.05,391.312 502.389,391.065Z" style="fill:rgb(23,61,122);fill-rule:nonzero;"/>
        </g>
        <g transform="matrix(1.45384,0,0,1.45384,400.132,351.406)">
            <path d="M293.1,309.253L279.551,302.661C278.47,302.129 278.613,301.202 279.858,300.584L293.325,294.044C293.974,293.744 294.697,293.576 295.438,293.552C296.178,293.528 296.914,293.65 297.589,293.907L311.178,300.498C312.26,301.03 312.117,301.957 310.872,302.575L297.405,309.116C296.751,309.421 296.02,309.592 295.272,309.616C294.524,309.64 293.78,309.516 293.1,309.253Z" style="fill:rgb(23,61,122);fill-rule:nonzero;"/>
        </g>
        <g transform="matrix(1.45384,0,0,1.45384,400.132,351.406)">
            <path d="M271.594,298.816L258.004,292.207C256.923,291.675 257.066,290.748 258.311,290.147L271.778,283.607C272.424,283.301 273.147,283.127 273.888,283.101C274.629,283.074 275.367,283.194 276.042,283.453L289.631,290.062C290.713,290.594 290.57,291.503 289.325,292.121L275.858,298.662C275.212,298.968 274.489,299.141 273.748,299.168C273.007,299.195 272.269,299.075 271.594,298.816Z" style="fill:rgb(23,61,122);fill-rule:nonzero;"/>
        </g>
        <g transform="matrix(1.45384,0,0,1.45384,400.132,351.406)">
            <path d="M250.087,288.379L236.498,281.788C235.417,281.255 235.559,280.328 236.804,279.711L250.271,273.17C250.921,272.871 251.644,272.702 252.384,272.678C253.124,272.655 253.861,272.776 254.536,273.033L268.125,279.625C269.206,280.157 269.064,281.084 267.819,281.702L254.352,288.242C253.703,288.542 252.979,288.71 252.239,288.734C251.499,288.758 250.762,288.636 250.087,288.379Z" style="fill:rgb(57,108,170);fill-rule:nonzero;"/>
        </g>
        <g transform="matrix(1.45384,0,0,1.45384,400.132,351.406)">
            <path d="M228.54,277.925L214.951,271.316C213.869,270.784 214.012,269.857 215.257,269.256L228.724,262.716C229.37,262.41 230.093,262.236 230.834,262.21C231.575,262.183 232.313,262.303 232.988,262.562L246.578,269.171C247.659,269.703 247.537,270.613 246.272,271.23L232.805,277.771C232.159,278.077 231.436,278.25 230.695,278.277C229.953,278.304 229.215,278.184 228.54,277.925Z" style="fill:rgb(23,61,122);fill-rule:nonzero;"/>
        </g>
        <g transform="matrix(1.45384,0,0,1.45384,400.132,351.406)">
            <path d="M314.096,319.449L300.507,312.841C299.405,312.326 299.548,311.399 300.813,310.781L314.26,304.24C314.907,303.938 315.63,303.767 316.37,303.74C317.11,303.713 317.848,303.832 318.524,304.086L332.113,310.695C333.195,311.227 333.073,312.154 331.807,312.755L318.32,319.278C317.682,319.584 316.966,319.759 316.233,319.789C315.499,319.818 314.767,319.702 314.096,319.449Z" style="fill:rgb(23,61,122);fill-rule:nonzero;"/>
        </g>
        <g transform="matrix(1.45384,0,0,1.45384,400.132,351.406)">
            <path d="M335.072,329.577L321.483,322.968C320.401,322.436 320.524,321.509 321.789,320.909L335.256,314.368C335.898,314.062 336.618,313.889 337.356,313.862C338.094,313.835 338.828,313.956 339.5,314.214L353.089,320.823C354.191,321.338 354.048,322.265 352.783,322.883L339.337,329.577C338.676,329.859 337.945,330.006 337.204,330.006C336.464,330.006 335.733,329.859 335.072,329.577Z" style="fill:rgb(23,61,122);fill-rule:nonzero;"/>
        </g>
        <g transform="matrix(1.45384,0,0,1.45384,400.132,351.406)">
            <path d="M356.048,339.877L342.459,333.285C341.377,332.753 341.52,331.826 342.765,331.208L356.232,324.685C356.878,324.379 357.601,324.205 358.342,324.178C359.083,324.152 359.821,324.272 360.496,324.531L374.086,331.122C375.167,331.654 375.024,332.581 373.78,333.199L360.313,339.74C359.663,340.039 358.94,340.207 358.2,340.231C357.459,340.255 356.723,340.134 356.048,339.877Z" style="fill:rgb(23,61,122);fill-rule:nonzero;"/>
        </g>
        <g transform="matrix(1.45384,0,0,1.45384,400.132,351.406)">
            <path d="M377.044,350.022L363.455,343.43C362.353,342.898 362.496,341.971 363.761,341.353L377.228,334.813C377.892,334.508 378.633,334.34 379.389,334.325C380.145,334.311 380.894,334.448 381.574,334.727L395.164,341.319C396.265,341.851 396.123,342.778 394.857,343.396L381.391,349.919C380.73,350.231 379.99,350.404 379.233,350.422C378.475,350.44 377.724,350.302 377.044,350.022Z" style="fill:rgb(23,61,122);fill-rule:nonzero;"/>
        </g>
        <g transform="matrix(1.45384,0,0,1.45384,400.132,351.406)">
            <path d="M398.02,360.218L384.431,353.61C383.349,353.077 383.472,352.168 384.737,351.55L398.204,345.01C398.85,344.703 399.573,344.53 400.314,344.503C401.055,344.476 401.793,344.597 402.468,344.855L416.037,351.464C417.139,351.996 416.996,352.923 415.731,353.524L402.285,360.064C401.638,360.37 400.915,360.544 400.174,360.571C399.433,360.597 398.695,360.477 398.02,360.218Z" style="fill:rgb(23,61,122);fill-rule:nonzero;"/>
        </g>
        <g transform="matrix(1.45384,0,0,1.45384,400.132,351.406)">
            <path d="M418.996,370.415L405.427,363.806C404.325,363.274 404.468,362.347 405.713,361.746L419.179,355.206C419.826,354.9 420.549,354.726 421.29,354.699C422.031,354.673 422.769,354.793 423.444,355.051L437.033,361.66C438.115,362.175 437.992,363.102 436.727,363.72L423.26,370.26C422.613,370.563 421.89,370.734 421.15,370.761C420.41,370.788 419.672,370.669 418.996,370.415Z" style="fill:rgb(23,61,122);fill-rule:nonzero;"/>
        </g>
        <g transform="matrix(1.45384,0,0,1.45384,400.132,351.406)">
            <path d="M439.992,380.594L426.464,374.003C425.362,373.47 425.505,372.543 426.77,371.925L440.237,365.385C440.883,365.086 441.603,364.917 442.34,364.894C443.077,364.87 443.81,364.991 444.481,365.248L458.071,371.84C459.172,372.372 459.03,373.299 457.765,373.917L444.298,380.457C443.644,380.765 442.913,380.938 442.164,380.961C441.416,380.985 440.672,380.859 439.992,380.594Z" style="fill:rgb(23,61,122);fill-rule:nonzero;"/>
        </g>
        <g transform="matrix(1.45384,0,0,1.45384,400.132,351.406)">
            <path d="M460.968,390.791L447.379,384.199C446.297,383.667 446.42,382.74 447.685,382.122L461.152,375.582C461.801,375.282 462.525,375.114 463.265,375.09C464.005,375.066 464.741,375.188 465.416,375.445L479.006,382.036C480.087,382.568 479.944,383.495 478.7,384.096L465.233,390.636C464.586,390.942 463.863,391.116 463.122,391.143C462.381,391.17 461.643,391.049 460.968,390.791Z" style="fill:rgb(23,61,122);fill-rule:nonzero;"/>
        </g>
        <g transform="matrix(1.45384,0,0,1.45384,400.132,351.406)">
            <path d="M481.964,400.987L468.375,394.378C467.273,393.846 467.416,392.919 468.681,392.319L482.127,385.778C482.774,385.472 483.497,385.299 484.238,385.272C484.979,385.245 485.717,385.365 486.392,385.624L499.92,392.233C501.002,392.765 500.879,393.692 499.614,394.293L486.147,400.833C485.512,401.13 484.804,401.299 484.077,401.326C483.351,401.353 482.628,401.237 481.964,400.987Z" style="fill:rgb(23,61,122);fill-rule:nonzero;"/>
        </g>
        <g transform="matrix(1.45384,0,0,1.45384,400.132,351.406)">
            <path d="M282.061,284.053L268.472,277.445C267.37,276.912 267.513,275.986 268.778,275.385L282.245,268.844C282.888,268.538 283.607,268.365 284.345,268.338C285.083,268.311 285.817,268.432 286.489,268.69L300.078,275.299C301.18,275.814 301.037,276.741 299.772,277.359L286.305,283.899C285.661,284.201 284.942,284.372 284.205,284.399C283.468,284.426 282.734,284.308 282.061,284.053Z" style="fill:rgb(23,61,122);fill-rule:nonzero;"/>
        </g>
        <g transform="matrix(1.45384,0,0,1.45384,400.132,351.406)">
            <path d="M261.188,273.908L247.619,267.3C246.517,266.785 246.659,265.858 247.925,265.24L261.371,258.7C262.017,258.393 262.74,258.22 263.481,258.193C264.222,258.166 264.961,258.287 265.636,258.545L279.225,265.154C280.307,265.686 280.184,266.613 278.919,267.214L265.452,273.754C264.806,274.06 264.083,274.234 263.342,274.261C262.601,274.287 261.863,274.167 261.188,273.908Z" style="fill:rgb(23,61,122);fill-rule:nonzero;"/>
        </g>
        <g transform="matrix(1.45384,0,0,1.45384,400.132,351.406)">
            <path d="M240.293,263.763L226.704,257.172C225.623,256.64 225.765,255.713 227.01,255.095L240.477,248.554C241.126,248.255 241.85,248.086 242.59,248.063C243.33,248.039 244.067,248.16 244.742,248.417L258.331,255.009C259.412,255.541 259.27,256.468 258.025,257.069L244.558,263.609C243.912,263.915 243.189,264.089 242.448,264.115C241.707,264.142 240.969,264.022 240.293,263.763Z" style="fill:rgb(23,61,122);fill-rule:nonzero;"/>
        </g>
        <g transform="matrix(1.45384,0,0,1.45384,400.132,351.406)">
            <path d="M219.42,253.618L205.83,247.027C204.749,246.495 204.871,245.568 206.136,244.95L219.603,238.409C220.249,238.11 220.969,237.942 221.706,237.918C222.443,237.894 223.176,238.015 223.847,238.272L237.437,244.864C238.539,245.396 238.396,246.323 237.131,246.941L223.684,253.481C223.035,253.781 222.311,253.949 221.571,253.973C220.831,253.997 220.094,253.875 219.42,253.618Z" style="fill:rgb(23,61,122);fill-rule:nonzero;"/>
        </g>
        <g transform="matrix(1.45384,0,0,1.45384,400.132,351.406)">
            <path d="M240.885,243.199L227.296,236.59C226.214,236.058 226.337,235.148 227.602,234.53L232.05,232.367C232.696,232.061 233.419,231.887 234.16,231.86C234.901,231.834 235.639,231.954 236.315,232.213L249.904,238.821C250.985,239.354 250.863,240.281 249.598,240.881L245.15,243.044C244.503,243.35 243.78,243.524 243.039,243.551C242.298,243.578 241.56,243.457 240.885,243.199Z" style="fill:rgb(23,61,122);fill-rule:nonzero;"/>
        </g>
        <g transform="matrix(1.45384,0,0,1.45384,400.132,351.406)">
            <path d="M268.146,256.434L254.556,249.825C253.454,249.293 253.597,248.383 254.862,247.765L259.31,245.602C259.953,245.296 260.673,245.122 261.41,245.096C262.148,245.069 262.883,245.189 263.555,245.448L277.144,252.056C278.246,252.588 278.103,253.515 276.838,254.116L272.39,256.279C271.747,256.585 271.027,256.759 270.29,256.786C269.552,256.812 268.817,256.692 268.146,256.434Z" style="fill:rgb(23,61,122);fill-rule:nonzero;"/>
        </g>
        <g transform="matrix(1.45384,0,0,1.45384,400.132,351.406)">
            <path d="M288.917,266.527L275.348,259.935C274.246,259.403 274.389,258.476 275.654,257.858L280.103,255.696C280.748,255.396 281.468,255.228 282.205,255.204C282.942,255.18 283.675,255.301 284.347,255.558L297.936,262.15C299.038,262.682 298.895,263.609 297.63,264.227L293.182,266.373C292.536,266.679 291.813,266.853 291.072,266.879C290.331,266.906 289.592,266.786 288.917,266.527Z" style="fill:rgb(23,61,122);fill-rule:nonzero;"/>
        </g>
        <g transform="matrix(1.45384,0,0,1.45384,400.132,351.406)">
            <path d="M309.709,276.621L296.14,270.029C295.039,269.497 295.181,268.57 296.447,267.952L300.895,265.806C301.537,265.5 302.257,265.327 302.995,265.3C303.732,265.273 304.467,265.393 305.139,265.652L318.728,272.243C319.83,272.775 319.687,273.702 318.422,274.32L313.974,276.483C313.324,276.783 312.601,276.951 311.861,276.975C311.121,276.999 310.384,276.878 309.709,276.621Z" style="fill:rgb(23,61,122);fill-rule:nonzero;"/>
        </g>
        <g transform="matrix(1.45384,0,0,1.45384,400.132,351.406)">
            <path d="M330.563,286.663L316.994,280.054C315.892,279.522 316.035,278.595 317.3,277.994L321.748,275.831C322.391,275.525 323.11,275.351 323.848,275.325C324.586,275.298 325.321,275.418 325.992,275.677L339.582,282.285C340.684,282.818 340.541,283.727 339.276,284.345L334.766,286.663C334.113,286.936 333.394,287.079 332.665,287.079C331.935,287.079 331.216,286.936 330.563,286.663Z" style="fill:rgb(23,61,122);fill-rule:nonzero;"/>
        </g>
        <g transform="matrix(1.45384,0,0,1.45384,400.132,351.406)">
            <path d="M446.583,343.104L432.993,336.444C431.912,335.912 432.055,334.985 433.3,334.367L437.768,332.204C438.414,331.904 439.134,331.736 439.871,331.712C440.608,331.688 441.341,331.81 442.012,332.066L455.602,338.658C456.704,339.19 456.561,340.117 455.296,340.735L450.949,342.967C450.287,343.28 449.545,343.456 448.786,343.48C448.026,343.504 447.271,343.375 446.583,343.104Z" style="fill:rgb(23,61,122);fill-rule:nonzero;"/>
        </g>
        <g transform="matrix(1.45384,0,0,1.45384,400.132,351.406)">
            <path d="M467.375,353.197L453.786,346.606C452.704,346.074 452.847,345.147 454.092,344.546L458.56,342.383C459.203,342.077 459.923,341.903 460.66,341.877C461.398,341.85 462.133,341.97 462.804,342.229L476.394,348.82C477.475,349.352 477.353,350.279 476.088,350.897L471.64,353.06C470.99,353.36 470.267,353.528 469.527,353.552C468.786,353.576 468.05,353.454 467.375,353.197Z" style="fill:rgb(23,61,122);fill-rule:nonzero;"/>
        </g>
        <g transform="matrix(1.45384,0,0,1.45384,400.132,351.406)">
            <path d="M488.167,363.308L474.578,356.699C473.496,356.167 473.639,355.258 474.884,354.64L479.353,352.477C479.995,352.171 480.715,351.997 481.453,351.97C482.19,351.943 482.925,352.064 483.597,352.322L497.186,358.931C498.267,359.463 498.145,360.39 496.88,360.991L492.432,363.154C491.786,363.46 491.063,363.634 490.322,363.66C489.581,363.687 488.842,363.567 488.167,363.308Z" style="fill:rgb(23,61,122);fill-rule:nonzero;"/>
        </g>
        <g transform="matrix(1.45384,0,0,1.45384,400.132,351.406)">
            <path d="M508.959,373.402L495.37,366.81C494.289,366.278 494.431,365.351 495.676,364.733L500.124,362.57C500.774,362.27 501.497,362.102 502.237,362.078C502.977,362.054 503.714,362.176 504.389,362.433L517.978,369.024C519.06,369.557 518.937,370.484 517.672,371.102L513.224,373.247C512.578,373.554 511.855,373.727 511.114,373.754C510.373,373.781 509.634,373.66 508.959,373.402Z" style="fill:rgb(23,61,122);fill-rule:nonzero;"/>
        </g>
        <g transform="matrix(1.45384,0,0,1.45384,400.132,351.406)">
            <path d="M303.037,294.233L289.448,287.641C288.366,287.109 288.489,286.182 289.754,285.564L303.221,279.041C303.867,278.735 304.59,278.561 305.331,278.534C306.072,278.507 306.81,278.628 307.485,278.886L321.054,285.478C322.156,286.01 322.013,286.937 320.748,287.555L307.302,294.095C306.652,294.395 305.929,294.563 305.189,294.587C304.448,294.611 303.712,294.49 303.037,294.233Z" style="fill:rgb(23,61,122);fill-rule:nonzero;"/>
        </g>
        <g transform="matrix(1.45384,0,0,1.45384,400.132,351.406)">
            <path d="M324.013,304.429L310.444,297.838C309.342,297.306 309.485,296.379 310.75,295.761L324.197,289.22C324.846,288.921 325.569,288.752 326.31,288.729C327.05,288.705 327.786,288.826 328.461,289.083L342.051,295.675C343.132,296.207 343.01,297.134 341.744,297.752L328.277,304.275C327.631,304.581 326.908,304.755 326.167,304.782C325.426,304.808 324.688,304.688 324.013,304.429Z" style="fill:rgb(23,61,122);fill-rule:nonzero;"/>
        </g>
        <g transform="matrix(1.45384,0,0,1.45384,400.132,351.406)">
            <path d="M345.009,314.626L331.42,308.017C330.318,307.485 330.461,306.575 331.726,305.957L345.193,299.417C345.835,299.111 346.555,298.937 347.293,298.91C348.03,298.884 348.765,299.004 349.437,299.262L363.026,305.871C364.128,306.403 363.985,307.33 362.72,307.931L349.253,314.471C348.611,314.777 347.891,314.951 347.153,314.978C346.415,315.005 345.681,314.884 345.009,314.626Z" style="fill:rgb(23,61,122);fill-rule:nonzero;"/>
        </g>
        <g transform="matrix(1.45384,0,0,1.45384,400.132,351.406)">
            <path d="M365.985,324.822L352.396,318.214C351.314,317.681 351.457,316.754 352.702,316.154L366.169,309.613C366.815,309.307 367.538,309.134 368.279,309.107C369.02,309.08 369.758,309.201 370.433,309.459L384.023,316.068C385.104,316.583 384.961,317.51 383.717,318.128L370.25,324.668C369.602,324.97 368.879,325.142 368.139,325.168C367.399,325.195 366.661,325.077 365.985,324.822Z" style="fill:rgb(23,61,122);fill-rule:nonzero;"/>
        </g>
        <g transform="matrix(1.45384,0,0,1.45384,400.132,351.406)">
            <path d="M386.981,335.002L373.412,328.41C372.31,327.878 372.453,326.951 373.718,326.333L387.165,319.793C387.814,319.493 388.538,319.325 389.278,319.301C390.018,319.277 390.755,319.398 391.429,319.655L405.019,326.247C406.1,326.779 405.978,327.706 404.713,328.324L391.246,334.864C390.597,335.167 389.874,335.336 389.133,335.36C388.392,335.384 387.655,335.261 386.981,335.002Z" style="fill:rgb(23,61,122);fill-rule:nonzero;"/>
        </g>
        <g transform="matrix(1.45384,0,0,1.45384,400.132,351.406)">
            <path d="M407.957,345.198L394.368,338.607C393.286,338.074 393.409,337.147 394.674,336.529L408.141,329.989C408.787,329.69 409.507,329.522 410.244,329.498C410.98,329.474 411.714,329.595 412.385,329.852L425.974,336.444C427.076,336.976 426.933,337.903 425.668,338.504L412.181,345.027C411.541,345.33 410.826,345.503 410.093,345.533C409.36,345.563 408.628,345.448 407.957,345.198Z" style="fill:rgb(23,61,122);fill-rule:nonzero;"/>
        </g>
        <g transform="matrix(1.45384,0,0,1.45384,400.132,351.406)">
            <path d="M428.933,355.326L415.344,348.717C414.262,348.185 414.405,347.258 415.65,346.657L429.117,340.117C429.763,339.811 430.486,339.637 431.227,339.61C431.968,339.584 432.706,339.704 433.381,339.963L446.97,346.571C448.052,347.104 447.909,348.031 446.664,348.631L433.197,355.326C432.537,355.608 431.806,355.755 431.065,355.755C430.324,355.755 429.594,355.608 428.933,355.326Z" style="fill:rgb(23,61,122);fill-rule:nonzero;"/>
        </g>
        <g transform="matrix(1.45384,0,0,1.45384,400.132,351.406)">
            <path d="M449.929,365.626L436.34,359.034C435.238,358.502 435.381,357.575 436.646,356.974L450.113,350.434C450.755,350.128 451.475,349.954 452.213,349.927C452.951,349.901 453.685,350.021 454.357,350.279L467.946,356.871C469.048,357.403 468.905,358.33 467.64,358.948L454.173,365.488C453.527,365.788 452.807,365.956 452.071,365.98C451.334,366.004 450.6,365.882 449.929,365.626Z" style="fill:rgb(23,61,122);fill-rule:nonzero;"/>
        </g>
        <g transform="matrix(1.45384,0,0,1.45384,400.132,351.406)">
            <path d="M470.905,375.771L457.316,369.179C456.234,368.647 456.357,367.72 457.622,367.102L471.089,360.562C471.753,360.259 472.494,360.093 473.249,360.078C474.005,360.064 474.754,360.2 475.435,360.476L489.004,367.067C490.106,367.6 489.963,368.527 488.698,369.145L475.251,375.685C474.587,375.987 473.846,376.153 473.09,376.168C472.335,376.183 471.586,376.047 470.905,375.771Z" style="fill:rgb(23,61,122);fill-rule:nonzero;"/>
        </g>
        <g transform="matrix(1.45384,0,0,1.45384,400.132,351.406)">
            <path d="M183.079,295.503L143.066,276.054C141.964,275.539 142.107,274.612 143.372,273.994L156.819,267.454C157.465,267.148 158.188,266.974 158.929,266.947C159.67,266.921 160.408,267.041 161.083,267.3L201.096,286.748C202.198,287.281 202.055,288.19 200.79,288.808L187.323,295.349C186.681,295.655 185.961,295.828 185.223,295.855C184.486,295.882 183.751,295.761 183.079,295.503Z" style="fill:rgb(23,61,122);fill-rule:nonzero;"/>
        </g>
        <g transform="matrix(1.45384,0,0,1.45384,400.132,351.406)">
            <path d="M440.849,420.711L400.836,401.262C399.754,400.747 399.897,399.82 401.142,399.202L414.609,392.662C415.257,392.36 415.979,392.188 416.72,392.161C417.46,392.135 418.197,392.253 418.873,392.507L458.887,411.973C459.968,412.506 459.846,413.432 458.581,414.033L445.114,420.573C444.466,420.877 443.742,421.048 443.001,421.071C442.26,421.095 441.523,420.972 440.849,420.711Z" style="fill:rgb(23,61,122);fill-rule:nonzero;"/>
        </g>
        <g transform="matrix(1.45384,0,0,1.45384,400.132,351.406)">
            <path d="M356.946,402.463L343.356,395.855C342.275,395.34 342.397,394.413 343.663,393.795L359.7,386.001C360.35,385.702 361.073,385.533 361.813,385.51C362.554,385.486 363.29,385.607 363.965,385.864L377.534,392.456C378.636,392.988 378.493,393.915 377.248,394.516L361.17,402.309C360.53,402.612 359.814,402.784 359.08,402.811C358.346,402.838 357.615,402.719 356.946,402.463Z" style="fill:rgb(23,61,122);fill-rule:nonzero;"/>
        </g>
        <g transform="matrix(1.45384,0,0,1.45384,400.132,351.406)">
            <path d="M204.565,328.444L182.834,317.887C181.732,317.355 181.875,316.445 183.14,315.827L199.178,308.034C199.822,307.732 200.542,307.561 201.279,307.534C202.015,307.507 202.75,307.626 203.422,307.88L225.153,318.437C226.255,318.969 226.112,319.896 224.847,320.514L208.809,328.307C208.163,328.606 207.443,328.775 206.706,328.799C205.97,328.822 205.236,328.701 204.565,328.444Z" style="fill:rgb(23,61,122);fill-rule:nonzero;"/>
        </g>
        <g transform="matrix(1.45384,0,0,1.45384,400.132,351.406)">
            <path d="M336.684,392.645L314.953,382.088C313.872,381.556 313.994,380.629 315.259,380.011L331.297,372.234C331.944,371.928 332.667,371.755 333.408,371.728C334.149,371.701 334.887,371.822 335.562,372.08L357.293,382.637C358.374,383.169 358.231,384.096 356.987,384.697L340.949,392.49C340.303,392.796 339.579,392.97 338.838,392.997C338.097,393.024 337.359,392.903 336.684,392.645Z" style="fill:rgb(23,61,122);fill-rule:nonzero;"/>
        </g>
        <g transform="matrix(1.45384,0,0,1.45384,400.132,351.406)">
            <path d="M234.845,343.155L213.115,332.599C212.013,332.066 212.156,331.139 213.421,330.521L229.459,322.745C230.101,322.439 230.821,322.266 231.559,322.239C232.296,322.212 233.031,322.333 233.703,322.591L255.433,333.148C256.535,333.68 256.392,334.607 255.127,335.208L239.089,343.001C238.447,343.307 237.727,343.481 236.989,343.507C236.252,343.534 235.517,343.414 234.845,343.155Z" style="fill:rgb(23,61,122);fill-rule:nonzero;"/>
        </g>
        <g transform="matrix(1.45384,0,0,1.45384,400.132,351.406)">
            <path d="M233.845,322.711L328.339,368.595C328.596,368.67 328.818,368.81 328.976,368.996C329.134,369.182 329.219,369.405 329.219,369.634C329.219,369.862 329.134,370.085 328.976,370.271C328.818,370.458 328.596,370.598 328.339,370.672L312.015,378.603C311.36,378.89 310.632,379.04 309.893,379.04C309.154,379.04 308.426,378.89 307.771,378.603L213.298,332.719L233.845,322.711Z" style="fill:rgb(23,61,122);fill-rule:nonzero;"/>
        </g>
        <g transform="matrix(1.45384,0,0,1.45384,400.132,351.406)">
            <path d="M415.588,420.934L430.729,428.298C431.626,428.727 431.504,429.483 430.484,430.015L423.913,433.208C423.383,433.453 422.791,433.592 422.186,433.613C421.58,433.634 420.977,433.536 420.424,433.328L405.284,425.981C404.386,425.534 404.509,424.779 405.549,424.264L412.099,421.071C412.629,420.823 413.219,420.681 413.825,420.657C414.43,420.634 415.034,420.728 415.588,420.934Z" style="fill:rgb(23,61,122);fill-rule:nonzero;"/>
        </g>
        <g transform="matrix(1.45384,0,0,1.45384,400.132,351.406)">
            <path d="M394.429,410.669L409.569,418.016C410.467,418.445 410.344,419.2 409.324,419.732L402.754,422.908C402.226,423.162 401.634,423.305 401.027,423.326C400.42,423.347 399.815,423.245 399.265,423.028L384.125,415.681C383.247,415.252 383.349,414.497 384.39,413.965L390.94,410.789C391.469,410.539 392.061,410.398 392.667,410.377C393.274,410.357 393.877,410.456 394.429,410.669Z" style="fill:rgb(23,61,122);fill-rule:nonzero;"/>
        </g>
        <g transform="matrix(1.45384,0,0,1.45384,400.132,351.406)">
            <path d="M373.412,400.472L388.552,407.819C389.43,408.266 389.328,409.021 388.287,409.536L381.737,412.729C381.206,412.974 380.615,413.113 380.009,413.134C379.404,413.155 378.801,413.057 378.248,412.849L363.21,405.468C362.312,405.038 362.435,404.283 363.455,403.751L370.025,400.558C370.546,400.331 371.121,400.206 371.707,400.191C372.293,400.176 372.876,400.272 373.412,400.472Z" style="fill:rgb(23,61,122);fill-rule:nonzero;"/>
        </g>
        <g transform="matrix(1.45384,0,0,1.45384,400.132,351.406)">
            <path d="M406.059,405.107L421.2,412.454C422.097,412.883 421.975,413.656 420.955,414.17L414.384,417.346C413.857,417.598 413.266,417.742 412.659,417.766C412.053,417.79 411.449,417.693 410.895,417.483L395.755,410.119C394.857,409.69 394.98,408.935 396.02,408.403L402.57,405.21C403.103,404.967 403.695,404.831 404.3,404.813C404.906,404.796 405.508,404.896 406.059,405.107Z" style="fill:rgb(23,61,122);fill-rule:nonzero;"/>
        </g>
        <g transform="matrix(1.45384,0,0,1.45384,400.132,351.406)">
            <path d="M224.623,494.369C224.623,494.369 218.501,491.76 214.665,495.657C210.829,499.553 205.483,508.737 205.3,514.951C205.116,521.165 211.156,520.736 214.726,519.26C218.297,517.784 228.724,505.064 229.356,502.558C229.594,501.428 229.563,500.27 229.265,499.15C228.967,498.03 228.409,496.972 227.622,496.034C226.602,495.296 224.623,494.369 224.623,494.369Z" style="fill:rgb(23,61,122);fill-rule:nonzero;"/>
        </g>
        <g transform="matrix(1.45384,0,0,1.45384,400.132,351.406)">
            <path d="M225.969,493.03L226.255,498.403C226.298,498.969 226.152,499.534 225.835,500.034C225.518,500.534 225.042,500.95 224.459,501.236C223.01,501.905 221.327,502.124 219.705,501.854C215.073,501.236 214.645,500.137 214.318,494.747C213.992,489.357 225.969,493.03 225.969,493.03Z" style="fill:rgb(232,162,0);fill-rule:nonzero;"/>
        </g>
        <g transform="matrix(1.45384,0,0,1.45384,400.132,351.406)">
            <path d="M202.014,483.95C202.014,483.95 195.893,481.34 192.077,485.237C188.262,489.134 182.875,498.318 182.712,504.532C182.548,510.746 188.547,510.317 192.118,508.858C195.689,507.398 206.136,494.644 206.769,492.155C207.005,491.021 206.971,489.86 206.67,488.737C206.369,487.614 205.806,486.553 205.014,485.615C204.055,484.962 202.014,483.95 202.014,483.95Z" style="fill:rgb(23,61,122);fill-rule:nonzero;"/>
        </g>
        <g transform="matrix(1.45384,0,0,1.45384,400.132,351.406)">
            <path d="M203.402,482.714L203.688,488.087C203.723,488.645 203.574,489.2 203.257,489.691C202.94,490.182 202.468,490.589 201.892,490.868C200.441,491.533 198.762,491.757 197.138,491.503C192.486,490.868 192.078,489.786 191.751,484.379C191.425,478.972 203.402,482.714 203.402,482.714Z" style="fill:rgb(232,162,0);fill-rule:nonzero;"/>
        </g>
        <g transform="matrix(1.45384,0,0,1.45384,400.132,351.406)">
            <path d="M258.392,384.079C256.576,359.102 226.255,387.752 226.255,387.752L205.504,404.918L186.813,422.187C185.009,423.852 183.66,425.829 182.86,427.978C182.06,430.128 181.828,432.399 182.181,434.632L189.772,483.006C189.956,484.158 190.634,485.215 191.678,485.977C192.723,486.738 194.062,487.153 195.444,487.143C196.381,487.134 197.315,487.065 198.24,486.937C200.042,486.764 201.695,486.012 202.855,484.838C204.014,483.664 204.59,482.159 204.463,480.637L203.075,435.353L242.313,415.407C242.313,415.407 260.228,409.055 258.392,384.079Z" style="fill:rgb(253,215,98);fill-rule:nonzero;"/>
        </g>
        <g transform="matrix(1.45384,0,0,1.45384,400.132,351.406)">
            <path d="M280.959,393.589C279.143,368.63 248.822,397.262 248.822,397.262L228.071,414.428L209.38,431.697C207.579,433.364 206.229,435.34 205.426,437.489C204.623,439.638 204.385,441.908 204.728,444.142L212.217,492.516C212.392,493.671 213.068,494.732 214.114,495.495C215.16,496.258 216.504,496.67 217.889,496.653C218.826,496.643 219.76,496.575 220.684,496.447C222.487,496.286 224.145,495.543 225.31,494.374C226.474,493.206 227.055,491.702 226.928,490.181L225.561,444.88L264.799,424.985C264.799,424.985 282.775,418.565 280.959,393.589Z" style="fill:rgb(253,215,98);fill-rule:nonzero;"/>
        </g>
        <g transform="matrix(1.45384,0,0,1.45384,400.132,351.406)">
            <path d="M263.024,313.441C286.02,321.458 285.469,332.89 285.469,332.89C285.469,332.89 280.959,374.792 282.51,402.79C283.143,414.48 208.605,415.372 219.726,384.165C232.825,347.361 227.887,317.561 234.009,313.064C240.13,308.566 257.107,311.364 263.024,313.441Z" style="fill:rgb(152,59,233);fill-rule:nonzero;"/>
        </g>
        <g transform="matrix(1.45384,0,0,1.45384,400.132,351.406)">
            <path d="M270.41,323.569C269.227,327.5 263.105,329.577 256.76,328.204C250.414,326.831 246.251,322.522 247.455,318.591C248.659,314.66 254.78,312.6 261.106,313.974C267.431,315.347 271.614,319.655 270.41,323.569Z" style="fill:rgb(188,140,126);fill-rule:nonzero;"/>
        </g>
        <g transform="matrix(1.45384,0,0,1.45384,400.132,351.406)">
            <path d="M260.637,329.577C259.26,329.565 257.89,329.415 256.556,329.131C249.638,327.62 245.109,322.814 246.353,318.402C246.744,317.268 247.452,316.229 248.417,315.372C249.383,314.515 250.578,313.865 251.903,313.476C254.928,312.517 258.236,312.391 261.351,313.115C268.268,314.609 272.798,319.432 271.553,323.844C270.41,327.329 265.921,329.577 260.637,329.577ZM257.107,314.471C255.592,314.457 254.088,314.69 252.679,315.158C251.674,315.441 250.764,315.922 250.026,316.561C249.287,317.2 248.742,317.978 248.435,318.831C247.394,322.265 251.21,326.058 256.964,327.294C262.718,328.53 268.227,326.779 269.206,323.346C270.186,319.913 266.431,316.119 260.698,314.866C259.524,314.615 258.318,314.482 257.107,314.471Z" style="fill:white;fill-rule:nonzero;"/>
        </g>
        <g transform="matrix(1.45384,0,0,1.45384,400.132,351.406)">
            <path d="M253.801,312.566C253.94,314.855 253.878,317.15 253.617,319.432C253.475,321.355 261.494,323.157 263.575,321.424C265.656,319.69 264.82,317.853 265.309,311.296C265.799,304.738 253.801,312.566 253.801,312.566Z" style="fill:rgb(188,140,126);fill-rule:nonzero;"/>
        </g>
        <g transform="matrix(1.45384,0,0,1.45384,400.132,351.406)">
            <path d="M265.268,311.33C265.268,311.33 263.228,317.424 253.556,319.741L253.719,314.231L265.268,311.33Z" style="fill:rgb(234,156,146);fill-rule:nonzero;"/>
        </g>
        <g transform="matrix(1.45384,0,0,1.45384,400.132,351.406)">
            <path d="M271.39,295.898C272.264,298.748 272.113,301.752 270.957,304.531C269.802,307.309 267.693,309.737 264.897,311.507C262.101,313.277 258.744,314.31 255.251,314.474C251.757,314.639 248.284,313.929 245.271,312.433C242.257,310.938 239.838,308.724 238.32,306.071C236.802,303.419 236.253,300.448 236.743,297.533C237.232,294.619 238.738,291.892 241.07,289.697C243.401,287.502 246.454,285.939 249.843,285.204C252.092,284.713 254.435,284.601 256.736,284.873C259.037,285.146 261.252,285.797 263.253,286.791C265.255,287.784 267.003,289.1 268.4,290.662C269.796,292.225 270.812,294.004 271.39,295.898Z" style="fill:rgb(188,140,126);fill-rule:nonzero;"/>
        </g>
        <g transform="matrix(1.45384,0,0,1.45384,400.132,351.406)">
            <path d="M258.413,300.172C258.413,300.172 248.68,303.605 241.926,303.708C235.172,303.811 236.661,299.005 236.661,299.005L256.699,296.567L258.413,300.172Z" style="fill:rgb(234,156,146);fill-rule:nonzero;"/>
        </g>
        <g transform="matrix(1.45384,0,0,1.45384,400.132,351.406)">
            <path d="M239.926,301.082C239.926,301.082 248.394,298.061 255.841,299.365C257.609,299.652 259.204,300.447 260.351,301.614C260.686,302.001 261.157,302.289 261.698,302.438C263.024,302.678 265.187,298.078 267.819,297.975C270.451,297.872 272.104,299.4 269.982,302.232C267.86,305.064 268.594,308.24 269.574,308.686C270.553,309.133 280.796,302.524 271.737,287.435C262.677,272.346 239.681,280.466 236.11,283.538C236.11,283.538 232.336,286.285 229.275,283.83C229.214,283.796 225.765,305.545 239.926,301.082Z" style="fill:rgb(255,44,156);fill-rule:nonzero;"/>
        </g>
        <g transform="matrix(1.45384,0,0,1.45384,400.132,351.406)">
            <path d="M272.655,363.497L272.655,374.826C272.658,375.473 272.499,376.112 272.19,376.703C271.881,377.295 271.427,377.825 270.859,378.26L243.211,399.442L246.353,403.493L282.714,382.482C283.557,381.967 284.262,381.307 284.782,380.547C285.303,379.787 285.627,378.943 285.734,378.071L288.366,357.043L272.655,363.497Z" style="fill:rgb(188,140,126);fill-rule:nonzero;"/>
        </g>
        <g transform="matrix(1.45384,0,0,1.45384,400.132,351.406)">
            <path d="M283.633,327.226C283.633,327.226 292.019,337.834 295.141,365.78C295.141,365.78 280.858,369.677 272.696,367.497C264.534,365.317 283.633,327.226 283.633,327.226Z" style="fill:rgb(152,59,233);fill-rule:nonzero;"/>
        </g>
        <g transform="matrix(1.45384,0,0,1.45384,400.132,351.406)">
            <path d="M271.125,340.649C269.488,347.833 268.329,355.089 267.656,362.381C267.624,363.313 267.942,364.229 268.565,364.999C269.188,365.77 270.083,366.355 271.125,366.673L271.125,340.649Z" style="fill:rgb(102,20,207);fill-rule:nonzero;"/>
        </g>
        <g transform="matrix(1.45384,0,0,1.45384,400.132,351.406)">
            <path d="M263.942,414.171L257.821,413.501L218.338,394.327C217.556,394.03 216.702,393.891 215.845,393.921C214.988,393.951 214.15,394.148 213.4,394.498L185.446,408.077L181.753,407.665L181.753,410.755C181.758,410.987 181.842,411.213 181.993,411.408C182.145,411.602 182.359,411.756 182.61,411.853L227.316,433.568C228.098,433.866 228.952,434.006 229.809,433.976C230.667,433.946 231.504,433.748 232.254,433.396L262.697,418.617C263.029,418.493 263.315,418.297 263.526,418.05C263.738,417.803 263.867,417.512 263.901,417.209L263.942,414.171Z" style="fill:rgb(23,61,122);fill-rule:nonzero;"/>
        </g>
        <g transform="matrix(1.45384,0,0,1.45384,400.132,351.406)">
            <path d="M234.315,402.069L231.499,400.695L200.688,400.695L185.487,408.077L181.794,407.665L181.794,410.755C181.799,410.987 181.883,411.213 182.034,411.408C182.186,411.602 182.399,411.756 182.651,411.853L227.357,433.568C228.145,433.9 229.03,434.037 229.907,433.963L234.315,402.069Z" style="fill:rgb(57,108,170);fill-rule:nonzero;"/>
        </g>
        <g transform="matrix(1.45384,0,0,1.45384,400.132,351.406)">
            <path d="M227.806,433.74C229.188,434.127 230.696,434.047 232.009,433.517L232.009,428.264L227.806,428.264L227.806,433.74Z" style="fill:rgb(39,79,137);fill-rule:nonzero;"/>
        </g>
        <g transform="matrix(1.45384,0,0,1.45384,400.132,351.406)">
            <path d="M227.357,430.478L182.651,408.763C181.385,408.145 181.549,407.047 182.997,406.36L213.441,391.58C214.183,391.23 215.011,391.029 215.861,390.994C216.71,390.958 217.558,391.088 218.338,391.374L263.065,413.089C264.33,413.707 264.166,414.806 262.697,415.492L232.254,430.272C231.512,430.623 230.684,430.825 229.834,430.861C228.984,430.896 228.136,430.765 227.357,430.478Z" style="fill:rgb(47,47,47);fill-rule:nonzero;"/>
        </g>
        <g transform="matrix(1.45384,0,0,1.45384,400.132,351.406)">
            <path d="M226.602,427.182L189.425,409.124C188.384,408.609 188.507,407.716 189.731,407.133L206.055,399.408C206.676,399.12 207.367,398.958 208.076,398.934C208.784,398.911 209.489,399.026 210.135,399.271L247.312,417.329C248.373,417.844 248.231,418.737 247.027,419.32L230.703,427.045C230.08,427.335 229.384,427.499 228.672,427.523C227.96,427.547 227.251,427.43 226.602,427.182Z" style="fill:rgb(212,236,255);fill-rule:nonzero;"/>
        </g>
        <g transform="matrix(1.45384,0,0,1.45384,400.132,351.406)">
            <path d="M215.175,390.859L214.726,393.469C214.328,395.675 214.39,397.923 214.91,400.112L215.461,402.395C215.614,403.026 215.986,403.605 216.531,404.057C217.077,404.51 217.769,404.815 218.522,404.935C218.81,404.99 219.108,404.992 219.397,404.941C219.686,404.89 219.958,404.786 220.195,404.638C220.432,404.489 220.627,404.299 220.768,404.081C220.909,403.863 220.992,403.621 221.011,403.373L221.746,397.829C221.746,397.829 223.439,399.7 224.235,399.7C225.031,399.7 223.337,394.138 221.501,390.997C219.664,387.855 215.175,390.859 215.175,390.859Z" style="fill:rgb(255,194,176);fill-rule:nonzero;"/>
        </g>
        <g transform="matrix(1.45384,0,0,1.45384,400.132,351.406)">
            <path d="M230.336,349.61L225.541,357.609C224.377,359.491 223.682,361.553 223.5,363.669L221.46,390.997L215.135,390.859L212.278,360.184C212.179,359.238 212.234,358.285 212.441,357.352L215.706,341.782L230.336,349.61Z" style="fill:rgb(188,140,126);fill-rule:nonzero;"/>
        </g>
        <g transform="matrix(1.45384,0,0,1.45384,400.132,351.406)">
            <path d="M225.847,432.572L222.092,428.453L182.671,409.244C181.973,408.822 181.403,408.269 181.006,407.628C180.609,406.987 180.397,406.276 180.386,405.553L180.386,378.397L178.162,375.925L180.202,374.895C180.433,374.769 180.702,374.703 180.977,374.703C181.252,374.703 181.522,374.769 181.753,374.895L226.5,396.713C227.197,397.135 227.768,397.688 228.165,398.329C228.562,398.97 228.774,399.681 228.785,400.404L228.785,429.963C228.824,430.265 228.767,430.57 228.62,430.848C228.473,431.125 228.242,431.365 227.949,431.542L225.847,432.572Z" style="fill:rgb(23,61,122);fill-rule:nonzero;"/>
        </g>
        <g transform="matrix(1.45384,0,0,1.45384,400.132,351.406)">
            <path d="M198.586,416.986L195.893,415.63L180.406,393.091L180.406,378.328L178.162,375.925L180.202,374.895C180.433,374.769 180.702,374.703 180.977,374.703C181.252,374.703 181.522,374.769 181.753,374.895L226.5,396.713C227.243,397.137 227.824,397.733 228.173,398.429L198.586,416.986Z" style="fill:rgb(57,108,170);fill-rule:nonzero;"/>
        </g>
        <g transform="matrix(1.45384,0,0,1.45384,400.132,351.406)">
            <path d="M226.928,396.953C228,397.778 228.663,398.912 228.785,400.129L224.46,402.24L222.419,399.185L226.928,396.953Z" style="fill:rgb(39,79,137);fill-rule:nonzero;"/>
        </g>
        <g transform="matrix(1.45384,0,0,1.45384,400.132,351.406)">
            <path d="M224.459,397.76L179.712,375.925C178.447,375.307 177.427,375.925 177.407,377.367L177.407,406.944C177.414,407.667 177.626,408.378 178.023,409.02C178.42,409.661 178.992,410.215 179.692,410.634L224.357,432.401C225.623,433.001 226.643,432.401 226.663,430.942L226.663,401.434C226.668,400.718 226.471,400.012 226.088,399.373C225.705,398.735 225.146,398.182 224.459,397.76Z" style="fill:rgb(47,47,47);fill-rule:nonzero;"/>
        </g>
        <g transform="matrix(1.45384,0,0,1.45384,400.132,351.406)">
            <path d="M246.354,403.493L245.639,404.729C244.814,406.152 243.517,407.344 241.905,408.162L237.457,410.463C236.784,410.823 236.007,411.023 235.209,411.041C234.411,411.06 233.623,410.895 232.927,410.566L232.785,410.48C232.464,410.292 232.196,410.048 232,409.764C231.803,409.479 231.684,409.163 231.649,408.835C231.614,408.508 231.664,408.178 231.797,407.869C231.93,407.56 232.142,407.279 232.417,407.047L237.049,403.03C237.049,403.03 234.437,404.746 233.703,404.043C232.968,403.339 236.233,401.124 238.579,401.039C240.285,400.846 241.891,400.25 243.211,399.322L246.354,403.493Z" style="fill:rgb(255,194,176);fill-rule:nonzero;"/>
        </g>
        <g transform="matrix(1.45384,0,0,1.45384,400.132,351.406)">
            <path d="M234.662,313.012C234.662,313.012 217.665,328.565 210.788,342.847C215.448,348.878 222.591,353.248 230.846,355.12C245.007,358.571 234.662,313.012 234.662,313.012Z" style="fill:rgb(152,59,233);fill-rule:nonzero;"/>
        </g>
        <g transform="matrix(1.45384,0,0,1.45384,400.132,351.406)">
            <path d="M227.581,354.193L230.336,331.792L223.847,352.785C225.06,353.312 226.307,353.782 227.581,354.193Z" style="fill:rgb(102,20,207);fill-rule:nonzero;"/>
        </g>
        <g transform="matrix(1.45384,0,0,1.45384,400.132,351.406)">
            <path d="M247.333,309.871L242.824,308.807C244.096,310.448 245.953,311.71 248.129,312.411C251.312,313.15 251.802,310.884 251.802,310.884L247.333,309.871Z" style="fill:white;fill-rule:nonzero;"/>
        </g>
        <g transform="matrix(1.45384,0,0,1.45384,400.132,351.406)">
            <path d="M378.473,101.272L360.231,92.414C359.364,91.928 358.687,91.236 358.288,90.426C357.888,89.616 357.783,88.725 357.986,87.865C358.035,87.502 358.193,87.156 358.446,86.858C358.698,86.561 359.036,86.323 359.429,86.167C359.821,86.01 360.254,85.941 360.687,85.965C361.121,85.988 361.539,86.105 361.904,86.303L380.146,95.161C381.01,95.644 381.683,96.334 382.079,97.141C382.475,97.948 382.576,98.837 382.37,99.692C382.328,100.056 382.175,100.405 381.926,100.705C381.678,101.005 381.341,101.246 380.95,101.405C380.558,101.563 380.124,101.634 379.69,101.611C379.257,101.588 378.837,101.471 378.473,101.272Z" style="fill:rgb(212,236,255);fill-rule:nonzero;"/>
        </g>
        <g transform="matrix(1.45384,0,0,1.45384,400.132,351.406)">
            <path d="M421.914,122.351L395.021,109.288C394.143,108.802 393.461,108.104 393.064,107.286C392.667,106.468 392.574,105.568 392.797,104.705C392.842,104.342 392.997,103.995 393.247,103.698C393.497,103.4 393.834,103.161 394.225,103.005C394.616,102.848 395.048,102.778 395.481,102.802C395.913,102.826 396.331,102.944 396.694,103.143L423.587,116.206C424.455,116.691 425.13,117.383 425.526,118.194C425.923,119.005 426.022,119.896 425.811,120.755C425.772,121.12 425.622,121.471 425.374,121.773C425.127,122.075 424.791,122.319 424.399,122.479C424.006,122.64 423.571,122.712 423.136,122.69C422.701,122.668 422.28,122.551 421.914,122.351Z" style="fill:rgb(212,236,255);fill-rule:nonzero;"/>
        </g>
        <g transform="matrix(1.45384,0,0,1.45384,400.132,351.406)">
            <path d="M346.662,172.887L328.522,164.03C327.655,163.545 326.979,162.852 326.583,162.042C326.187,161.231 326.088,160.339 326.298,159.481C326.346,159.119 326.502,158.774 326.752,158.476C327.001,158.179 327.337,157.941 327.727,157.783C328.116,157.625 328.548,157.553 328.979,157.574C329.411,157.594 329.83,157.707 330.196,157.902L348.437,166.776C349.305,167.257 349.981,167.946 350.378,168.754C350.775,169.563 350.873,170.452 350.661,171.308C350.63,171.686 350.479,172.05 350.224,172.362C349.969,172.675 349.62,172.924 349.212,173.085C348.805,173.246 348.354,173.313 347.905,173.278C347.457,173.243 347.028,173.108 346.662,172.887Z" style="fill:rgb(212,236,255);fill-rule:nonzero;"/>
        </g>
        <g transform="matrix(1.45384,0,0,1.45384,400.132,351.406)">
            <path d="M385.39,191.701L358.497,178.638C357.629,178.153 356.953,177.46 356.557,176.65C356.161,175.839 356.062,174.947 356.273,174.089C356.318,173.726 356.473,173.38 356.723,173.082C356.973,172.784 357.31,172.546 357.701,172.389C358.092,172.232 358.524,172.163 358.957,172.187C359.389,172.211 359.807,172.328 360.17,172.527L387.083,185.59C387.947,186.074 388.62,186.764 389.016,187.571C389.413,188.378 389.514,189.266 389.307,190.122C389.262,190.486 389.106,190.835 388.855,191.134C388.604,191.434 388.266,191.674 387.873,191.832C387.48,191.991 387.046,192.062 386.611,192.039C386.176,192.016 385.756,191.9 385.39,191.701Z" style="fill:rgb(212,236,255);fill-rule:nonzero;"/>
        </g>
        <g transform="matrix(1.45384,0,0,1.45384,400.132,351.406)">
            <path d="M324.646,89.633L313.26,84.106C312.39,83.622 311.713,82.93 311.316,82.119C310.92,81.308 310.822,80.415 311.036,79.557C311.081,79.194 311.236,78.847 311.486,78.55C311.736,78.252 312.073,78.013 312.464,77.857C312.855,77.7 313.288,77.63 313.72,77.654C314.152,77.679 314.57,77.796 314.933,77.995L326.339,83.539C327.19,84.028 327.851,84.717 328.239,85.52C328.627,86.323 328.726,87.204 328.522,88.054C328.473,88.413 328.317,88.756 328.069,89.051C327.82,89.345 327.487,89.583 327.1,89.74C326.713,89.898 326.286,89.97 325.857,89.952C325.427,89.933 325.011,89.823 324.646,89.633Z" style="fill:rgb(212,236,255);fill-rule:nonzero;"/>
        </g>
        <g transform="matrix(1.45384,0,0,1.45384,400.132,351.406)">
            <path d="M359.782,121.201L324.952,104.293C324.084,103.807 323.409,103.115 323.012,102.304C322.616,101.494 322.517,100.602 322.728,99.744C322.773,99.381 322.928,99.034 323.178,98.737C323.428,98.439 323.765,98.2 324.156,98.044C324.547,97.887 324.979,97.817 325.412,97.841C325.844,97.866 326.262,97.983 326.625,98.182L361.455,115.09C362.319,115.574 362.992,116.264 363.388,117.071C363.785,117.878 363.886,118.766 363.679,119.622C363.637,119.986 363.485,120.335 363.236,120.635C362.987,120.934 362.651,121.175 362.259,121.334C361.867,121.493 361.434,121.564 361,121.541C360.566,121.517 360.147,121.4 359.782,121.201Z" style="fill:rgb(212,236,255);fill-rule:nonzero;"/>
        </g>
        <g transform="matrix(1.45384,0,0,1.45384,400.132,351.406)">
            <path d="M329.318,135.431L317.932,129.904C317.053,129.415 316.371,128.715 315.974,127.894C315.577,127.073 315.484,126.17 315.708,125.304C315.753,124.941 315.908,124.594 316.158,124.297C316.409,123.999 316.745,123.76 317.136,123.604C317.528,123.447 317.96,123.377 318.392,123.401C318.825,123.425 319.242,123.543 319.606,123.742L330.991,129.269C331.861,129.753 332.538,130.445 332.938,131.255C333.338,132.066 333.442,132.958 333.236,133.818C333.196,134.185 333.045,134.538 332.797,134.842C332.548,135.146 332.211,135.391 331.817,135.553C331.423,135.715 330.986,135.789 330.549,135.768C330.111,135.746 329.687,135.631 329.318,135.431Z" style="fill:rgb(212,236,255);fill-rule:nonzero;"/>
        </g>
        <g transform="matrix(1.45384,0,0,1.45384,400.132,351.406)">
            <path d="M391.266,223.561L360.823,208.781C359.955,208.301 359.278,207.611 358.882,206.803C358.485,205.995 358.387,205.105 358.599,204.249C358.641,203.885 358.793,203.537 359.042,203.237C359.291,202.937 359.627,202.696 360.019,202.537C360.411,202.378 360.844,202.307 361.278,202.331C361.712,202.354 362.131,202.471 362.496,202.67L392.939,217.45C393.807,217.935 394.482,218.628 394.879,219.438C395.275,220.249 395.374,221.141 395.163,221.999C395.118,222.361 394.963,222.708 394.713,223.006C394.463,223.304 394.126,223.542 393.735,223.699C393.344,223.856 392.912,223.925 392.479,223.901C392.047,223.877 391.629,223.76 391.266,223.561Z" style="fill:rgb(212,236,255);fill-rule:nonzero;"/>
        </g>
        <g transform="matrix(1.45384,0,0,1.45384,400.132,351.406)">
            <path d="M318.32,159.069L310.995,155.516C310.129,155.046 309.446,154.372 309.033,153.579C308.619,152.785 308.493,151.906 308.669,151.052C308.717,150.69 308.875,150.343 309.128,150.046C309.38,149.749 309.719,149.511 310.111,149.354C310.503,149.198 310.936,149.128 311.37,149.152C311.803,149.176 312.222,149.292 312.586,149.49L319.891,153.044C320.759,153.524 321.436,154.214 321.832,155.022C322.229,155.83 322.327,156.72 322.115,157.575C322.05,157.919 321.886,158.244 321.638,158.522C321.389,158.799 321.063,159.022 320.689,159.169C320.314,159.316 319.902,159.384 319.49,159.367C319.077,159.349 318.675,159.247 318.32,159.069Z" style="fill:rgb(212,236,255);fill-rule:nonzero;"/>
        </g>
        <g transform="matrix(1.45384,0,0,1.45384,400.132,351.406)">
            <path d="M312.954,185.539L303.874,181.127C303.006,180.642 302.331,179.949 301.934,179.139C301.538,178.328 301.439,177.436 301.65,176.578C301.695,176.216 301.85,175.869 302.1,175.571C302.35,175.273 302.687,175.035 303.078,174.878C303.469,174.721 303.901,174.652 304.334,174.676C304.766,174.7 305.184,174.817 305.547,175.016L314.627,179.428C315.495,179.908 316.171,180.597 316.568,181.406C316.965,182.214 317.063,183.103 316.851,183.959C316.809,184.323 316.656,184.672 316.408,184.972C316.159,185.272 315.822,185.513 315.431,185.672C315.039,185.83 314.605,185.901 314.172,185.878C313.738,185.855 313.318,185.738 312.954,185.539Z" style="fill:rgb(212,236,255);fill-rule:nonzero;"/>
        </g>
        <g transform="matrix(1.45384,0,0,1.45384,400.132,351.406)">
            <path d="M348.294,202.705L324.442,191.066C323.576,190.579 322.902,189.887 322.506,189.077C322.11,188.266 322.009,187.375 322.217,186.517C322.266,186.154 322.424,185.808 322.676,185.511C322.929,185.213 323.267,184.975 323.659,184.819C324.052,184.662 324.485,184.593 324.918,184.617C325.352,184.64 325.77,184.757 326.135,184.955L350.07,196.593C350.938,197.074 351.614,197.763 352.01,198.571C352.407,199.38 352.506,200.269 352.294,201.125C352.262,201.503 352.111,201.867 351.856,202.179C351.602,202.492 351.252,202.741 350.845,202.902C350.437,203.063 349.986,203.13 349.538,203.095C349.089,203.06 348.66,202.925 348.294,202.705Z" style="fill:rgb(212,236,255);fill-rule:nonzero;"/>
        </g>
        <g transform="matrix(1.45384,0,0,1.45384,400.132,351.406)">
            <path d="M317.586,202.293L300.364,193.967C299.496,193.482 298.821,192.79 298.425,191.979C298.028,191.168 297.929,190.277 298.14,189.418C298.185,189.056 298.34,188.709 298.59,188.411C298.84,188.114 299.177,187.875 299.568,187.718C299.959,187.561 300.392,187.492 300.824,187.516C301.257,187.54 301.674,187.657 302.037,187.856L319.259,196.216C320.129,196.699 320.806,197.392 321.202,198.203C321.599,199.014 321.697,199.906 321.483,200.765C321.432,201.124 321.272,201.467 321.02,201.76C320.767,202.054 320.43,202.288 320.039,202.441C319.649,202.594 319.219,202.66 318.79,202.634C318.36,202.608 317.946,202.491 317.586,202.293Z" style="fill:rgb(212,236,255);fill-rule:nonzero;"/>
        </g>
        <g transform="matrix(1.45384,0,0,1.45384,400.132,351.406)">
            <path d="M417.384,236.315L406.325,230.942C405.455,230.459 404.778,229.767 404.381,228.956C403.985,228.144 403.887,227.252 404.101,226.393C404.142,226.02 404.3,225.662 404.559,225.357C404.818,225.051 405.168,224.809 405.574,224.654C405.98,224.499 406.427,224.437 406.871,224.474C407.314,224.511 407.738,224.646 408.1,224.866L419.159,230.239C420.029,230.722 420.706,231.414 421.103,232.225C421.499,233.036 421.597,233.929 421.383,234.787C421.342,235.161 421.184,235.518 420.925,235.824C420.666,236.129 420.316,236.372 419.91,236.527C419.504,236.682 419.057,236.744 418.613,236.707C418.17,236.67 417.746,236.535 417.384,236.315Z" style="fill:rgb(212,236,255);fill-rule:nonzero;"/>
        </g>
        <g transform="matrix(1.45384,0,0,1.45384,400.132,351.406)">
            <path d="M371.719,156.013L341.275,141.234C340.407,140.753 339.731,140.064 339.334,139.256C338.938,138.447 338.839,137.558 339.051,136.702C339.093,136.338 339.246,135.989 339.494,135.689C339.743,135.389 340.08,135.148 340.471,134.989C340.863,134.831 341.297,134.76 341.731,134.783C342.164,134.806 342.584,134.923 342.948,135.123L373.412,149.902C374.284,150.392 374.96,151.091 375.353,151.909C375.746,152.726 375.837,153.624 375.616,154.486C375.565,154.845 375.405,155.188 375.152,155.481C374.9,155.774 374.562,156.009 374.172,156.162C373.782,156.314 373.352,156.381 372.923,156.355C372.493,156.329 372.079,156.212 371.719,156.013Z" style="fill:rgb(212,236,255);fill-rule:nonzero;"/>
        </g>
        <g transform="matrix(1.45384,0,0,1.45384,400.132,351.406)">
            <path d="M374.494,142.864L321.442,117.116C320.574,116.63 319.899,115.938 319.503,115.127C319.106,114.317 319.007,113.425 319.218,112.567C319.263,112.204 319.418,111.857 319.668,111.56C319.918,111.262 320.255,111.023 320.646,110.867C321.037,110.71 321.47,110.64 321.902,110.664C322.334,110.688 322.752,110.806 323.115,111.005L376.167,136.753C377.035,137.234 377.711,137.923 378.108,138.731C378.504,139.539 378.603,140.429 378.391,141.285C378.349,141.649 378.196,141.998 377.947,142.298C377.699,142.598 377.362,142.839 376.971,142.997C376.579,143.156 376.145,143.227 375.711,143.204C375.278,143.181 374.858,143.064 374.494,142.864Z" style="fill:rgb(212,236,255);fill-rule:nonzero;"/>
        </g>
        <g transform="matrix(1.45384,0,0,1.45384,400.132,351.406)">
            <path d="M344.846,157.49L314.423,142.71C313.555,142.225 312.88,141.532 312.483,140.722C312.087,139.911 311.988,139.019 312.199,138.161C312.244,137.798 312.399,137.452 312.649,137.154C312.899,136.856 313.236,136.618 313.627,136.461C314.018,136.304 314.451,136.234 314.883,136.259C315.315,136.283 315.733,136.4 316.096,136.599L346.519,151.379C347.389,151.862 348.066,152.554 348.463,153.365C348.859,154.177 348.957,155.069 348.743,155.928C348.698,156.29 348.543,156.637 348.293,156.935C348.043,157.232 347.706,157.471 347.315,157.628C346.924,157.784 346.491,157.854 346.059,157.83C345.627,157.806 345.209,157.689 344.846,157.49Z" style="fill:rgb(212,236,255);fill-rule:nonzero;"/>
        </g>
        <g transform="matrix(1.45384,0,0,1.45384,400.132,351.406)">
            <path d="M394.796,167.24L383.737,161.867C382.88,161.375 382.217,160.68 381.832,159.87C381.447,159.06 381.357,158.171 381.574,157.318C381.619,156.956 381.774,156.609 382.024,156.311C382.274,156.013 382.611,155.775 383.002,155.618C383.393,155.461 383.826,155.392 384.258,155.416C384.69,155.44 385.108,155.557 385.471,155.756L396.53,161.129C397.399,161.61 398.075,162.299 398.471,163.107C398.868,163.915 398.967,164.805 398.755,165.661C398.718,166.033 398.567,166.391 398.314,166.698C398.062,167.005 397.718,167.251 397.317,167.411C396.916,167.571 396.472,167.639 396.029,167.609C395.587,167.579 395.161,167.452 394.796,167.24Z" style="fill:rgb(212,236,255);fill-rule:nonzero;"/>
        </g>
        <g transform="matrix(1.45384,0,0,1.45384,400.132,351.406)">
            <path d="M504.001,162.21L438.462,130.453C437.594,129.968 436.919,129.276 436.522,128.465C436.126,127.655 436.027,126.763 436.238,125.904C436.283,125.542 436.438,125.195 436.688,124.898C436.938,124.6 437.275,124.361 437.666,124.204C438.057,124.048 438.49,123.978 438.922,124.002C439.354,124.026 439.772,124.143 440.135,124.342L505.633,156.151C506.502,156.631 507.178,157.321 507.574,158.129C507.971,158.937 508.07,159.827 507.858,160.682C507.798,161.035 507.635,161.369 507.384,161.655C507.133,161.941 506.801,162.17 506.419,162.321C506.037,162.473 505.615,162.542 505.193,162.523C504.771,162.503 504.362,162.396 504.001,162.21Z" style="fill:rgb(212,236,255);fill-rule:nonzero;"/>
        </g>
        <g transform="matrix(1.45384,0,0,1.45384,400.132,351.406)">
            <path d="M343.969,186.088L307.383,168.321C306.516,167.836 305.84,167.144 305.444,166.333C305.048,165.523 304.949,164.631 305.159,163.772C305.204,163.41 305.359,163.063 305.61,162.765C305.86,162.468 306.196,162.229 306.587,162.072C306.979,161.916 307.411,161.846 307.843,161.87C308.276,161.894 308.694,162.011 309.057,162.21L345.642,179.977C346.512,180.46 347.189,181.153 347.585,181.964C347.982,182.775 348.08,183.667 347.866,184.526C347.821,184.888 347.666,185.235 347.416,185.533C347.166,185.831 346.829,186.069 346.438,186.226C346.047,186.383 345.614,186.452 345.182,186.428C344.749,186.404 344.332,186.287 343.969,186.088Z" style="fill:rgb(212,236,255);fill-rule:nonzero;"/>
        </g>
        <g transform="matrix(1.45384,0,0,1.45384,400.132,351.406)">
            <path d="M343.662,84.346L316.769,71.283C315.9,70.799 315.222,70.107 314.826,69.296C314.429,68.485 314.332,67.592 314.545,66.734C314.59,66.371 314.745,66.025 314.995,65.727C315.245,65.429 315.582,65.191 315.973,65.034C316.364,64.877 316.797,64.807 317.229,64.832C317.662,64.856 318.079,64.973 318.442,65.172L345.336,78.235C346.203,78.721 346.879,79.413 347.279,80.223C347.678,81.033 347.783,81.924 347.58,82.784C347.531,83.147 347.373,83.493 347.121,83.79C346.869,84.088 346.53,84.326 346.138,84.482C345.746,84.638 345.312,84.708 344.879,84.684C344.446,84.661 344.027,84.544 343.662,84.346Z" style="fill:rgb(212,236,255);fill-rule:nonzero;"/>
        </g>
        <g transform="matrix(1.45384,0,0,1.45384,400.132,351.406)">
            <path d="M312.79,214.566L281.592,199.34C280.724,198.859 280.048,198.17 279.651,197.362C279.254,196.554 279.156,195.664 279.368,194.808C279.41,194.444 279.563,194.095 279.811,193.796C280.06,193.496 280.397,193.255 280.788,193.096C281.18,192.937 281.614,192.866 282.047,192.889C282.481,192.913 282.901,193.03 283.265,193.229L314.423,208.369C315.287,208.842 315.964,209.521 316.368,210.319C316.771,211.117 316.883,211.998 316.688,212.85C316.672,213.225 316.539,213.591 316.301,213.909C316.063,214.228 315.729,214.487 315.333,214.662C314.937,214.836 314.493,214.919 314.046,214.902C313.6,214.886 313.166,214.77 312.79,214.566Z" style="fill:rgb(212,236,255);fill-rule:nonzero;"/>
        </g>
        <g transform="matrix(1.45384,0,0,1.45384,400.132,351.406)">
            <path d="M521.916,312.635L503.675,303.829C502.807,303.343 502.131,302.651 501.735,301.84C501.339,301.03 501.24,300.138 501.45,299.28C501.496,298.917 501.651,298.57 501.901,298.273C502.151,297.975 502.487,297.736 502.879,297.579C503.27,297.423 503.702,297.353 504.135,297.377C504.567,297.401 504.985,297.519 505.348,297.717L523.589,306.575C524.459,307.059 525.136,307.751 525.533,308.562C525.929,309.373 526.027,310.266 525.813,311.124C525.759,311.482 525.597,311.823 525.344,312.114C525.09,312.405 524.752,312.637 524.362,312.788C523.973,312.939 523.544,313.004 523.116,312.977C522.688,312.951 522.275,312.833 521.916,312.635Z" style="fill:rgb(212,236,255);fill-rule:nonzero;"/>
        </g>
        <g transform="matrix(1.45384,0,0,1.45384,400.132,351.406)">
            <path d="M535.016,260.914L500.206,244.006C499.338,243.52 498.663,242.828 498.266,242.017C497.87,241.207 497.771,240.315 497.982,239.457C498.027,239.094 498.182,238.747 498.432,238.45C498.682,238.152 499.019,237.913 499.41,237.757C499.801,237.6 500.234,237.53 500.666,237.554C501.098,237.578 501.516,237.696 501.879,237.894L536.648,254.837C537.518,255.321 538.195,256.013 538.592,256.824C538.988,257.635 539.086,258.528 538.872,259.386C538.818,259.74 538.658,260.077 538.408,260.366C538.158,260.655 537.825,260.886 537.441,261.038C537.057,261.19 536.634,261.259 536.21,261.237C535.786,261.215 535.375,261.104 535.016,260.914Z" style="fill:rgb(212,236,255);fill-rule:nonzero;"/>
        </g>
        <g transform="matrix(1.45384,0,0,1.45384,400.132,351.406)">
            <path d="M504.572,275.179L493.166,269.651C492.301,269.164 491.627,268.472 491.231,267.662C490.835,266.852 490.734,265.961 490.942,265.102C490.991,264.739 491.149,264.393 491.401,264.096C491.654,263.799 491.992,263.56 492.384,263.404C492.776,263.248 493.21,263.178 493.643,263.202C494.076,263.226 494.495,263.342 494.86,263.54L506.246,269.068C507.113,269.553 507.789,270.245 508.185,271.056C508.581,271.866 508.68,272.758 508.47,273.617C508.424,273.979 508.269,274.326 508.019,274.624C507.769,274.921 507.433,275.16 507.041,275.317C506.65,275.473 506.218,275.543 505.785,275.519C505.353,275.495 504.935,275.378 504.572,275.179Z" style="fill:rgb(212,236,255);fill-rule:nonzero;"/>
        </g>
        <g transform="matrix(1.45384,0,0,1.45384,400.132,351.406)">
            <path d="M493.452,298.816L486.147,295.246C485.277,294.762 484.6,294.07 484.204,293.259C483.807,292.448 483.709,291.555 483.923,290.697C483.968,290.334 484.123,289.987 484.373,289.69C484.623,289.392 484.96,289.153 485.351,288.997C485.742,288.84 486.175,288.77 486.607,288.794C487.039,288.818 487.457,288.936 487.82,289.135L495.146,292.688C496.011,293.175 496.685,293.867 497.081,294.677C497.477,295.487 497.578,296.378 497.37,297.237C497.324,297.601 497.168,297.95 496.917,298.249C496.666,298.549 496.328,298.789 495.935,298.947C495.542,299.106 495.108,299.177 494.673,299.154C494.239,299.131 493.818,299.014 493.452,298.816Z" style="fill:rgb(212,236,255);fill-rule:nonzero;"/>
        </g>
        <g transform="matrix(1.45384,0,0,1.45384,400.132,351.406)">
            <path d="M546.953,295.778L516.53,280.998C515.662,280.513 514.986,279.82 514.59,279.01C514.194,278.199 514.095,277.307 514.305,276.449C514.347,276.085 514.5,275.736 514.749,275.436C514.998,275.136 515.334,274.895 515.726,274.737C516.117,274.578 516.551,274.507 516.985,274.53C517.419,274.554 517.838,274.67 518.203,274.87L548.626,289.667C549.494,290.147 550.17,290.837 550.567,291.645C550.963,292.453 551.062,293.343 550.85,294.198C550.808,294.562 550.655,294.911 550.406,295.211C550.158,295.511 549.821,295.752 549.429,295.911C549.038,296.069 548.604,296.141 548.17,296.117C547.736,296.094 547.317,295.977 546.953,295.778Z" style="fill:rgb(212,236,255);fill-rule:nonzero;"/>
        </g>
        <g transform="matrix(1.45384,0,0,1.45384,400.132,351.406)">
            <path d="M549.728,282.612L496.676,256.863C495.809,256.377 495.132,255.685 494.733,254.875C494.333,254.065 494.228,253.174 494.431,252.314C494.48,251.951 494.638,251.604 494.89,251.307C495.143,251.01 495.481,250.772 495.873,250.616C496.266,250.459 496.699,250.39 497.132,250.413C497.565,250.437 497.984,250.554 498.349,250.752L551.401,276.501C552.27,276.985 552.948,277.677 553.348,278.487C553.748,279.297 553.851,280.189 553.645,281.049C553.597,281.412 553.439,281.759 553.186,282.056C552.934,282.353 552.595,282.591 552.203,282.748C551.811,282.904 551.378,282.974 550.944,282.95C550.511,282.926 550.092,282.81 549.728,282.612Z" style="fill:rgb(212,236,255);fill-rule:nonzero;"/>
        </g>
        <g transform="matrix(1.45384,0,0,1.45384,400.132,351.406)">
            <path d="M520.1,297.237L489.718,282.457C488.848,281.974 488.171,281.281 487.775,280.47C487.378,279.659 487.28,278.767 487.494,277.908C487.539,277.546 487.694,277.199 487.944,276.901C488.194,276.604 488.531,276.365 488.922,276.208C489.313,276.051 489.746,275.982 490.178,276.006C490.61,276.03 491.028,276.147 491.391,276.346L521.835,291.126C522.704,291.609 523.381,292.302 523.778,293.113C524.175,293.924 524.272,294.816 524.059,295.675C524.019,296.046 523.865,296.401 523.612,296.706C523.358,297.011 523.014,297.255 522.613,297.413C522.213,297.571 521.77,297.638 521.329,297.607C520.888,297.576 520.464,297.449 520.1,297.237Z" style="fill:rgb(212,236,255);fill-rule:nonzero;"/>
        </g>
        <g transform="matrix(1.45384,0,0,1.45384,400.132,351.406)">
            <path d="M519.223,325.835L482.638,308.069C481.768,307.585 481.091,306.893 480.694,306.082C480.298,305.271 480.2,304.378 480.414,303.52C480.459,303.157 480.614,302.81 480.864,302.513C481.114,302.215 481.451,301.976 481.842,301.82C482.233,301.663 482.665,301.593 483.098,301.617C483.53,301.641 483.948,301.759 484.311,301.958L520.896,319.724C521.764,320.209 522.439,320.902 522.836,321.712C523.232,322.523 523.331,323.415 523.12,324.273C523.075,324.636 522.92,324.982 522.67,325.28C522.42,325.578 522.083,325.816 521.692,325.973C521.301,326.13 520.868,326.2 520.436,326.175C520.004,326.151 519.586,326.034 519.223,325.835Z" style="fill:rgb(212,236,255);fill-rule:nonzero;"/>
        </g>
        <g transform="matrix(1.45384,0,0,1.45384,400.132,351.406)">
            <path d="M87.958,217.417C87.958,217.417 88.995,238.439 90.592,252.489C92.189,266.538 126.435,241.72 126.435,241.72L126.435,225.628L87.958,217.417Z" style="fill:rgb(102,20,207);fill-rule:nonzero;"/>
        </g>
        <g transform="matrix(1.45384,0,0,1.45384,400.132,351.406)">
            <path d="M106.191,479.053C106.709,480.332 115.566,491.06 124.444,493.742C127.048,494.667 129.816,495.046 132.575,494.856C132.975,494.809 133.359,494.672 133.699,494.456C134.038,494.24 134.324,493.951 134.536,493.61C134.747,493.269 134.878,492.884 134.919,492.486C134.961,492.087 134.911,491.684 134.774,491.308C131.728,483.166 125.633,476.512 117.765,472.74C102.727,465.251 106.191,479.053 106.191,479.053Z" style="fill:rgb(23,61,122);fill-rule:nonzero;"/>
        </g>
        <g transform="matrix(1.45384,0,0,1.45384,400.132,351.406)">
            <path d="M103.245,483.179C105.189,487.79 106.649,492.588 107.601,497.497C108.223,501.458 106.045,506.636 104.241,510.061C103.974,510.555 103.598,510.983 103.14,511.311C102.683,511.639 102.156,511.859 101.6,511.955C101.044,512.05 100.474,512.018 99.932,511.862C99.391,511.705 98.892,511.428 98.474,511.051C94.435,507.534 91.867,502.639 91.277,497.332C90.26,486.356 91.277,484.438 91.277,484.438L103.245,483.179Z" style="fill:rgb(23,61,122);fill-rule:nonzero;"/>
        </g>
        <g transform="matrix(1.45384,0,0,1.45384,400.132,351.406)">
            <path d="M81.88,350.319C81.193,360.044 81.193,369.806 81.88,379.531C83.042,394.86 87.17,466.592 87.937,483.839C87.937,483.839 87.564,489.059 97.728,487.965C107.891,486.872 107.082,481.013 107.082,481.013C107.082,481.013 121.353,480.807 121.81,472.451C122.266,464.096 136.329,372.476 136.329,339.549L81.88,350.319Z" style="fill:rgb(253,215,98);fill-rule:nonzero;"/>
        </g>
        <g transform="matrix(1.45384,0,0,1.45384,400.132,351.406)">
            <path d="M141.702,278.648L148.713,289.417L172.753,318.3C172.448,319.134 171.94,319.88 171.274,320.47C170.608,321.061 169.805,321.478 168.937,321.683C166.593,322.24 146.369,303.116 137.636,294.616C136.508,293.534 135.797,292.094 135.627,290.545C135.456,288.996 135.837,287.436 136.703,286.137L141.702,278.648Z" style="fill:rgb(191,157,105);fill-rule:nonzero;"/>
        </g>
        <g transform="matrix(1.45384,0,0,1.45384,400.132,351.406)">
            <path d="M127.97,234.396C127.97,234.396 139.088,234.107 142.967,250.096C146.846,266.084 149.936,286.055 146.638,287.726C136.475,292.718 130.044,286.9 130.044,286.9L127.97,234.396Z" style="fill:rgb(138,42,227);fill-rule:nonzero;"/>
        </g>
        <g transform="matrix(1.45384,0,0,1.45384,400.132,351.406)">
            <path d="M131.393,235.076C129.489,234.299 127.377,234.182 125.398,234.746C115.919,237.387 80.262,247.847 74.454,252.839C67.672,258.595 84.618,291.026 84.411,301.589C84.203,312.152 82.98,324.737 82.025,336.269C81.071,347.802 79.806,354.135 89.306,358.963C98.806,363.79 115.006,364.1 127.12,354.837C139.233,345.574 137.055,339.364 136.558,332.679C136.06,325.995 131.87,297.216 132.243,289.087C135.226,286.736 137.744,283.854 139.669,280.587C142.842,275.223 137.242,265.341 134.919,258.925C132.596,252.509 136.246,245.165 135.52,239.945C135.368,238.828 134.899,237.776 134.168,236.914C133.437,236.052 132.474,235.415 131.393,235.076Z" style="fill:rgb(152,59,233);fill-rule:nonzero;"/>
        </g>
        <g transform="matrix(1.45384,0,0,1.45384,400.132,351.406)">
            <path d="M120.005,246.114C120.752,251.952 115.379,257.44 107.995,258.389C100.611,259.338 94.015,255.356 93.268,249.518C92.521,243.679 97.893,238.212 105.278,237.263C112.662,236.314 119.258,240.275 120.005,246.114Z" style="fill:white;fill-rule:nonzero;"/>
        </g>
        <g transform="matrix(1.45384,0,0,1.45384,400.132,351.406)">
            <path d="M116.188,246.609C116.728,250.735 112.89,254.696 107.601,255.377C102.312,256.058 97.603,253.314 97.064,249.043C96.524,244.773 100.383,240.956 105.651,240.275C110.92,239.595 115.649,242.442 116.188,246.609Z" style="fill:rgb(191,157,105);fill-rule:nonzero;"/>
        </g>
        <g transform="matrix(1.45384,0,0,1.45384,400.132,351.406)">
            <path d="M110.94,232.91C110.94,232.91 104.51,227.67 103.266,230.331C102.021,232.993 101.005,244.401 101.005,244.401L113.761,247.826L111.812,236.252C111.812,236.252 114.342,234.086 110.94,232.91Z" style="fill:rgb(193,139,123);fill-rule:nonzero;"/>
        </g>
        <g transform="matrix(1.45384,0,0,1.45384,400.132,351.406)">
            <path d="M130.895,220.388C130.675,224.132 129.343,227.727 127.069,230.718C124.794,233.71 121.678,235.963 118.116,237.193C114.553,238.423 110.704,238.574 107.055,237.628C103.407,236.681 100.122,234.68 97.617,231.877C95.112,229.073 93.499,225.594 92.982,221.879C92.466,218.164 93.069,214.379 94.715,211.005C96.361,207.631 98.976,204.818 102.23,202.922C105.484,201.026 109.23,200.133 112.994,200.355C115.492,200.5 117.938,201.133 120.19,202.219C122.442,203.304 124.457,204.82 126.119,206.681C127.782,208.541 129.06,210.71 129.879,213.061C130.698,215.413 131.044,217.903 130.895,220.388Z" style="fill:rgb(255,194,176);fill-rule:nonzero;"/>
        </g>
        <g transform="matrix(1.45384,0,0,1.45384,400.132,351.406)">
            <path d="M102.374,233.632C102.249,234.231 102.146,234.87 102.042,235.53C103.328,242.112 113.243,245 113.243,245L111.77,236.252C111.77,236.252 112.973,235.221 112.641,234.189C108.721,232.993 103.784,231.899 102.374,233.632Z" style="fill:rgb(234,156,146);fill-rule:nonzero;"/>
        </g>
        <g transform="matrix(1.45384,0,0,1.45384,400.132,351.406)">
            <path d="M130.895,220.388C130.675,224.132 129.343,227.727 127.069,230.718C124.794,233.71 121.678,235.963 118.116,237.193C114.553,238.423 110.704,238.574 107.055,237.628C103.407,236.681 100.122,234.68 97.617,231.877C95.112,229.073 93.499,225.594 92.982,221.879C92.466,218.164 93.069,214.379 94.715,211.005C96.361,207.631 98.976,204.818 102.23,202.922C105.484,201.026 109.23,200.133 112.994,200.355C115.492,200.5 117.938,201.133 120.19,202.219C122.442,203.304 124.457,204.82 126.119,206.681C127.782,208.541 129.06,210.71 129.879,213.061C130.698,215.413 131.044,217.903 130.895,220.388Z" style="fill:rgb(157,107,92);fill-rule:nonzero;"/>
        </g>
        <g transform="matrix(1.45384,0,0,1.45384,400.132,351.406)">
            <path d="M64.913,299.506L67.049,350.215L74.517,350.979L79.37,305.323L64.913,299.506Z" style="fill:rgb(191,157,105);fill-rule:nonzero;"/>
        </g>
        <g transform="matrix(1.45384,0,0,1.45384,400.132,351.406)">
            <path d="M89.41,295.256C86.941,284.425 82.088,260.514 82.088,260.514L80.013,284.301C82.337,291.356 84.411,297.834 84.411,301.589C84.266,307.778 83.789,314.71 83.249,321.683C83.249,321.683 91.878,306.087 89.41,295.256Z" style="fill:rgb(138,42,227);fill-rule:nonzero;"/>
        </g>
        <g transform="matrix(1.45384,0,0,1.45384,400.132,351.406)">
            <path d="M75.886,251.828C75.886,251.828 69.912,254.098 66.552,272.315C63.191,290.531 60.64,308.769 66.552,311.121C72.463,313.472 77.607,315.247 79.37,310.357C81.134,305.468 82.337,281.99 82.565,273.532C82.793,265.073 83.104,253.458 75.886,251.828Z" style="fill:rgb(180,94,244);fill-rule:nonzero;"/>
        </g>
        <g transform="matrix(1.45384,0,0,1.45384,400.132,351.406)">
            <path d="M170.969,316.196C173.068,317.025 174.963,318.291 176.528,319.909C177.949,321.473 179.219,323.165 180.324,324.964C182.191,327.728 183.747,333.69 182.627,334.433C181.507,335.176 175.014,324.448 173.977,326.944C172.94,329.441 173.977,331.751 172.649,331.772C171.322,331.792 166.655,321.003 162.983,317.661C159.312,314.318 170.969,316.196 170.969,316.196Z" style="fill:rgb(191,157,105);fill-rule:nonzero;"/>
        </g>
        <g transform="matrix(1.45384,0,0,1.45384,400.132,351.406)">
            <path d="M107.082,480.972C108.474,480.933 109.861,480.788 111.231,480.538L114.031,369.134L107.082,480.972Z" style="fill:rgb(216,137,43);fill-rule:nonzero;"/>
        </g>
        <g transform="matrix(1.45384,0,0,1.45384,400.132,351.406)">
            <path d="M96.275,420.751L92.314,415.594L50.6,391.58C49.867,391.047 49.269,390.352 48.851,389.55C48.434,388.749 48.209,387.861 48.194,386.958L48.194,352.918L45.83,349.885L48.07,348.586C48.311,348.431 48.592,348.349 48.879,348.349C49.166,348.349 49.447,348.431 49.688,348.586L96.981,375.901C97.721,376.423 98.326,377.112 98.748,377.912C99.17,378.711 99.396,379.598 99.408,380.501L99.408,417.512C99.475,417.905 99.427,418.309 99.269,418.675C99.11,419.041 98.849,419.354 98.516,419.575L96.275,420.751Z" style="fill:rgb(152,59,233);fill-rule:nonzero;"/>
        </g>
        <g transform="matrix(1.45384,0,0,1.45384,400.132,351.406)">
            <path d="M67.443,401.255L64.477,399.564L48.215,371.486L48.215,352.918L45.83,349.885L48.07,348.586C48.311,348.431 48.592,348.349 48.879,348.349C49.166,348.349 49.447,348.431 49.688,348.586L96.981,375.901C97.767,376.398 98.387,377.116 98.765,377.964L67.443,401.255Z" style="fill:rgb(210,159,255);fill-rule:nonzero;"/>
        </g>
        <g transform="matrix(1.45384,0,0,1.45384,400.132,351.406)">
            <path d="M46.888,351.268L45.83,349.885L48.07,348.586C48.311,348.431 48.592,348.349 48.879,348.349C49.166,348.349 49.447,348.431 49.688,348.586L50.538,349.06L46.888,351.268Z" style="fill:rgb(210,159,255);fill-rule:nonzero;"/>
        </g>
        <g transform="matrix(1.45384,0,0,1.45384,400.132,351.406)">
            <path d="M97.416,376.21C98.564,377.227 99.271,378.647 99.387,380.171L94.782,382.812L92.563,378.995L97.416,376.21Z" style="fill:rgb(152,59,233);fill-rule:nonzero;"/>
        </g>
        <g transform="matrix(1.45384,0,0,1.45384,400.132,351.406)">
            <path d="M94.782,377.2L47.468,349.968C46.12,349.205 45,350.03 45,351.804L45,388.795C45.012,389.697 45.238,390.584 45.66,391.384C46.081,392.183 46.687,392.872 47.427,393.395L94.782,420.627C96.11,421.391 97.188,420.627 97.209,418.791L97.209,381.801C97.199,380.898 96.973,380.01 96.552,379.21C96.13,378.411 95.523,377.722 94.782,377.2Z" style="fill:rgb(180,94,244);fill-rule:nonzero;"/>
        </g>
        <g transform="matrix(1.45384,0,0,1.45384,400.132,351.406)">
            <path d="M67.112,349.803C66.195,354.965 65.634,360.182 65.431,365.42C65.743,369.216 67.817,375.467 69.331,375.343C70.845,375.22 69.331,360.097 72.09,361.604C74.849,363.11 75.097,365.73 76.238,364.781C77.379,363.832 74.164,350.938 74.973,345.347C75.782,339.756 67.112,349.803 67.112,349.803Z" style="fill:rgb(191,157,105);fill-rule:nonzero;"/>
        </g>
        <g transform="matrix(1.45384,0,0,1.45384,400.132,351.406)">
            <path d="M119.196,220.883C128.738,224.266 130.604,222.203 130.708,222.1C130.708,221.522 130.853,220.945 130.895,220.346C131.008,218.31 130.791,216.269 130.252,214.302L105.361,210.98C108.775,215.682 113.629,219.157 119.196,220.883Z" style="fill:rgb(174,144,140);fill-rule:nonzero;"/>
        </g>
        <g transform="matrix(1.45384,0,0,1.45384,400.132,351.406)">
            <path d="M131.579,201.511C129.318,199.592 121.208,190.102 106.688,192.33C97.603,193.733 89.928,199.922 88.228,213.992C87.722,218.665 88.247,223.391 89.766,227.841C91.285,232.291 93.761,236.359 97.022,239.76C97.384,239.614 97.731,239.434 98.059,239.223C101.71,236.851 102.104,235.53 102.104,235.53L102.913,228.33C102.917,227.823 102.733,227.333 102.396,226.952C102.059,226.572 101.594,226.328 101.088,226.267C100.552,226.208 100.036,226.03 99.576,225.749C99.117,225.467 98.727,225.087 98.433,224.637C96.359,221.914 97.292,217.685 101.482,217.52C102.229,217.573 102.972,217.366 103.582,216.933C104.192,216.499 104.63,215.868 104.821,215.147C104.885,214.92 104.994,214.709 105.143,214.526C105.292,214.343 105.478,214.192 105.688,214.084C105.899,213.975 106.129,213.911 106.365,213.896C106.602,213.88 106.839,213.913 107.062,213.992C111.812,215.704 123.531,219.397 131.081,217.272C140.685,214.694 133.84,203.429 131.579,201.511Z" style="fill:rgb(102,20,207);fill-rule:nonzero;"/>
        </g>
        <g transform="matrix(1.45384,0,0,1.45384,400.132,351.406)">
            <path d="M120.71,229.486L126.539,227.897C124.897,230.403 122.491,232.319 119.673,233.364C115.628,234.478 114.985,231.054 114.985,231.054L120.71,229.486Z" style="fill:white;fill-rule:nonzero;"/>
        </g>
        <g transform="matrix(1.45384,0,0,1.45384,400.132,351.406)">
            <path d="M77.027,364.409L72.048,361.583L73.915,364.615L76.425,365.523L77.027,364.409Z" style="fill:rgb(210,159,255);fill-rule:nonzero;"/>
        </g>
    </g>
</svg>
