<svg id="Layer_1" data-name="Layer 1" xmlns="http://www.w3.org/2000/svg" viewBox="0 0 576 576"><defs><style>.cls-1{fill:none;}.cls-2{fill:#0f79d1;}.cls-3,.cls-4{fill:#4c4c4c;}.cls-4{font-size:15.19px;font-family:FreeSansBold, FreeSans;font-weight:700;letter-spacing:0.12em;}.cls-5{letter-spacing:0.1em;}.cls-6{letter-spacing:0.14em;}.cls-7{letter-spacing:0.1em;}.cls-8{letter-spacing:0.15em;}.cls-9{letter-spacing:0.11em;}.cls-10{letter-spacing:0.11em;}.cls-11{letter-spacing:0.13em;}.cls-12{letter-spacing:0.1em;}</style></defs><title>pry e</title><rect class="cls-1" x="-0.31" y="0.2" width="576" height="576"/><rect class="cls-2" x="350.43" y="263.72" width="10.18" height="38.2"/><rect class="cls-2" x="303.27" y="263.72" width="10.21" height="38.2"/><rect class="cls-2" x="326.85" y="263.72" width="10.21" height="38.2"/><polygon class="cls-2" points="250.97 291.81 250.97 301.87 210.42 301.87 210.42 291.85 223.13 291.85 223.13 291.81 250.97 291.81"/><polygon class="cls-2" points="249.88 270.07 249.88 279.59 223.13 279.59 223.13 279.57 210.42 279.57 210.42 270.08 220.55 270.08 220.55 270.07 249.88 270.07"/><rect class="cls-2" x="210.42" y="247.7" width="150.19" height="9.91"/><path class="cls-3" d="M284.08,263.72h11.3V264l-12.54,18.5,13.31,19.11v.23H284.86l-8.28-12.77-8.29,12.77H257v-.23l13.31-19.11L257.77,264v-.31h11.3l7.51,12.93Z"/><text class="cls-4" transform="translate(208.88 321.71)">D<tspan class="cls-5" x="12.79" y="0">I</tspan><tspan x="18.61" y="0">G</tspan><tspan class="cls-6" x="32.25" y="0">I</tspan><tspan class="cls-7" x="38.59" y="0">TA</tspan><tspan class="cls-8" x="61.88" y="0">L </tspan><tspan class="cls-9" x="79.94" y="0">A</tspan><tspan class="cls-10" x="92.58" y="0">G</tspan><tspan class="cls-9" x="105.99" y="0">E</tspan><tspan class="cls-11" x="117.79" y="0">N</tspan><tspan class="cls-12" x="130.73" y="0">C</tspan><tspan class="cls-8" x="143.21" y="0">Y</tspan></text></svg>