<svg id="Layer_1" data-name="Layer 1" xmlns="http://www.w3.org/2000/svg" viewBox="0 0 576 576"><defs><style>.cls-1{fill:#fff;}.cls-2,.cls-4{fill:#636363;}.cls-3{fill:#0f79d1;}.cls-4{font-size:16px;font-family:FreeSansBold, FreeSans;font-weight:700;letter-spacing:0.09em;}.cls-5{letter-spacing:0.07em;}.cls-6{letter-spacing:0.11em;}.cls-7{letter-spacing:0.07em;}.cls-8{letter-spacing:0.12em;}.cls-9{letter-spacing:0.08em;}.cls-10{letter-spacing:0.08em;}.cls-11{letter-spacing:0.1em;}.cls-12{letter-spacing:0.07em;}.cls-13{letter-spacing:0.12em;}</style></defs><title>Sec e</title><rect class="cls-1" x="4.27" y="3.4" width="576" height="576"/><path class="cls-2" d="M493.84,266.9V249.08c0-5.18-3-9.12-8.85-9.12a9.25,9.25,0,0,0-9.38,9.53V266.9h-9V232.78h8.11l.6,4.62c3.72-3.38,7.44-5.11,12.06-5.11,8.63,0,15.55,6,15.55,16.72V266.9Z"/><polygon class="cls-3" points="162.69 257.91 162.69 266.89 123.7 266.89 123.7 257.95 135.93 257.95 135.93 257.91 162.69 257.91"/><polygon class="cls-3" points="161.65 238.51 161.65 247.01 135.93 247.01 135.93 246.99 123.7 246.99 123.7 238.52 133.44 238.52 133.44 238.51 161.65 238.51"/><rect class="cls-3" x="123.7" y="218.55" width="39" height="8.84"/><path class="cls-2" d="M194.54,232.85h10.87v.27l-12.06,16.51,12.8,17.06v.21H195.28l-8-11.4-8,11.4H168.49v-.21l12.8-17.06-12-16.51v-.27H180.1l7.22,11.53Z"/><path class="cls-2" d="M210.76,281.12V232.85h8.49l.59,4.69c2.83-3.8,7.74-5.45,11.91-5.45,11.31,0,18.83,7.8,18.83,17.82s-6.78,17.81-18.53,17.81c-3.87,0-9.6-1.1-12.21-4.83v18.23Zm30.74-31.21c0-5.32-3.87-9.67-10.42-9.67s-10.42,4.35-10.42,9.67,4.24,9.66,10.42,9.66S241.5,255.22,241.5,249.91Z"/><path class="cls-2" d="M265.68,232.85l.67,3.93c2.83-4.21,6.62-4.83,10.35-4.83a14.59,14.59,0,0,1,9.45,3.24l-4.1,7.33a9.49,9.49,0,0,0-6.55-2.21c-4.76,0-9.15,2.34-9.15,8.63v18h-9.08v-34Z"/><path class="cls-2" d="M297.31,252.88c.59,4.21,4.54,7.25,10.94,7.25,3.35,0,7.74-1.18,9.82-3.18l5.81,5.32c-3.87,3.73-10.2,5.52-15.78,5.52-12.65,0-20.17-7.25-20.17-18.16,0-10.36,7.59-17.82,19.5-17.82,12.28,0,19.94,7.05,18.53,21.07Zm19.94-7c-.59-4.42-4.31-6.63-9.52-6.63-4.92,0-8.93,2.21-10.27,6.63Z"/><path class="cls-2" d="M356.92,241.89c-2.61-2.28-5.59-3-9.08-3-4.32,0-6.7,1.24-6.7,3.38s2.16,3.45,6.85,3.73c6.92.41,15.7,1.86,15.7,10.91,0,6-5.28,11.19-15.78,11.19-5.8,0-11.61-.9-17-6.08l4.47-6c2.6,2.7,8.56,4.7,12.65,4.77,3.42.07,6.62-1.59,6.62-4.08,0-2.34-2.08-3.31-7.29-3.59-6.92-.48-15.18-2.83-15.18-10.56,0-7.88,8.78-10.64,15.48-10.64,5.73,0,10.05,1,14.29,4.49Z"/><path class="cls-2" d="M393.45,241.89c-2.6-2.28-5.58-3-9.08-3-4.31,0-6.69,1.24-6.69,3.38s2.15,3.45,6.84,3.73c6.93.41,15.71,1.86,15.71,10.91,0,6-5.29,11.19-15.78,11.19-5.81,0-11.61-.9-17-6.08l4.47-6c2.6,2.7,8.55,4.7,12.65,4.77,3.42.07,6.62-1.59,6.62-4.08,0-2.34-2.08-3.31-7.29-3.59-6.92-.48-15.18-2.83-15.18-10.56,0-7.88,8.78-10.64,15.48-10.64,5.73,0,10,1,14.29,4.49Z"/><path class="cls-2" d="M415.93,223.25c0,6.56-10.72,6.56-10.72,0S415.93,216.69,415.93,223.25Zm-9.9,9.46V266.9h9.08V232.71Z"/><path class="cls-2" d="M460.58,249.91c0,9.8-7.22,17.74-19.13,17.74s-19.05-7.94-19.05-17.74,7.29-17.75,19-17.75S460.58,240.17,460.58,249.91Zm-29.1,0c0,5.18,3.35,10,10,10s10-4.83,10-10a9.93,9.93,0,0,0-10-10.09C434.9,239.82,431.48,244.79,431.48,249.91Z"/><path class="cls-2" d="M192.89,310.45c.59,4.22,4.54,7.26,10.94,7.26,3.35,0,7.74-1.18,9.82-3.18l5.81,5.32c-3.87,3.73-10.2,5.52-15.78,5.52-12.65,0-20.17-7.25-20.17-18.16,0-10.36,7.59-17.82,19.5-17.82,12.28,0,19.94,7,18.53,21.06Zm19.94-7c-.59-4.42-4.31-6.63-9.52-6.63-4.92,0-8.93,2.21-10.27,6.63Z"/><path class="cls-2" d="M266.11,275.9l.23,48.57h-8.48l-.6-4.69c-2.83,4.07-7.37,5.45-11.83,5.45-10.79,0-18.91-6.63-18.91-17.82,0-11.74,8-17.81,18.68-17.81,3.87,0,9.9,1.93,12.06,5.45L257,275.9ZM235.6,307.41c0,5.95,4.62,10,10.42,10s10.64-3.87,10.64-10c0-5.93-4.91-9.94-10.64-9.94S235.6,301.27,235.6,307.41Z"/><path class="cls-2" d="M284.42,280.83c0,6.56-10.72,6.56-10.72,0S284.42,274.26,284.42,280.83Zm-9.9,9.46v34.18h9.08V290.29Z"/><path class="cls-2" d="M320.89,290.43h8.7v34H321l-.44-5c-2.09,4-7.82,5.94-11.91,6-10.87.07-18.9-6.15-18.9-18.1,0-11.74,8.41-17.88,19.12-17.81,4.91,0,9.6,2.14,11.69,5.52Zm-22,17c0,6.5,4.83,10.37,10.86,10.37,14.29,0,14.29-20.66,0-20.66C303.69,297.12,298.86,300.92,298.86,307.41Z"/><text class="cls-4" transform="translate(335.76 312.7) scale(1.08 1)">D<tspan class="cls-5" x="12.98" y="0">I</tspan><tspan x="18.61" y="0">G</tspan><tspan class="cls-6" x="32.48" y="0">I</tspan><tspan class="cls-7" x="38.67" y="0">TA</tspan><tspan class="cls-8" x="62.21" y="0">L </tspan><tspan class="cls-9" x="80.24" y="0">A</tspan><tspan class="cls-5" x="93.06" y="0">G</tspan><tspan class="cls-10" x="106.69" y="0">E</tspan><tspan class="cls-11" x="118.62" y="0">N</tspan><tspan class="cls-12" x="131.76" y="0">C</tspan><tspan class="cls-13" x="144.42" y="0">Y</tspan></text><rect class="cls-3" x="168.91" y="276.34" width="9.79" height="48.35"/><rect class="cls-3" x="123.55" y="276.34" width="9.82" height="48.35"/><polygon class="cls-3" points="155.96 324.62 146.29 324.62 146.29 276.05 155.92 276.05 155.92 291.28 155.96 291.28 155.96 324.62"/></svg>