<svg width="322" height="322" viewBox="0 0 322 322" fill="none" xmlns="http://www.w3.org/2000/svg">
<g clip-path="url(#clip0)">
<path d="M305.415 202.39H299.988V281.792H305.415V202.39Z" fill="#9BA4AB"/>
<path d="M250.071 202.39H244.645V281.792H250.071V202.39Z" fill="#9BA4AB"/>
<path d="M303.87 209.639H245.65C242.664 209.639 240.242 207.216 240.242 204.231V200.015C240.242 197.029 242.664 194.607 245.65 194.607H303.87C306.86 194.607 309.282 197.029 309.282 200.015V204.231C309.282 207.216 306.86 209.639 303.87 209.639Z" fill="#303030"/>
<path d="M316.872 97.1173C314.457 96.8355 312.251 98.5773 311.969 100.989L300.648 197.204C300.362 199.616 302.108 201.826 304.519 202.108C306.934 202.393 309.141 200.651 309.422 198.236L320.744 102.02C321.025 99.6091 319.283 97.4027 316.872 97.1173Z" fill="#303030"/>
<path d="M215.778 258.146C217.297 260.305 218.325 264.48 218.475 266.401C218.654 268.717 217.293 273.602 215.789 273.602C211.405 273.602 206.162 273.785 201.639 274.4C197.113 275.018 195.423 277.657 183.856 277.627C180.479 277.62 174.343 277.404 174.525 276.014C174.705 274.623 185.62 272.098 189.144 268.809C198.05 260.484 203.985 258.472 203.985 258.472C203.985 258.472 215.467 257.704 215.778 258.146Z" fill="#191919"/>
<path d="M215.99 273.574H204.395V275.77H215.99V273.574Z" fill="#191919"/>
<path d="M256.52 166.605C256.52 166.605 212.977 180.843 211.176 182.873C209.38 184.908 197.162 261.796 197.162 261.796C197.162 261.796 200.21 264.617 208.073 265.229C215.933 265.84 218.612 265.229 218.612 265.229C218.612 265.229 230.588 215.893 230.204 209.369C229.823 202.848 232.33 193.064 232.33 193.064C232.33 193.064 282.946 190.55 286.415 187.557C306.196 170.484 284.431 160.725 284.431 160.725L256.242 162.715L256.52 166.605Z" fill="#00233F"/>
<path d="M255.505 88.3368C262.351 90.1663 262.878 96.3758 260.643 102.991C258.407 109.603 242.018 140.618 237.861 141.811C235.699 142.433 227.546 140.724 227.352 137.486C227.151 134.247 238.97 105.238 241.751 100.119C244.535 95 247.477 86.1962 255.505 88.3368Z" fill="#FFA47C"/>
<path d="M272.676 54.5969C272.676 54.5969 276.87 74.6085 278.201 75.3915C282.347 77.8322 296.01 78.2164 299.358 83.0976C303.42 89.0143 291.692 120.512 291.107 130.38C290.525 140.245 299.102 159.887 302.077 168.984C305.052 178.08 275.867 188.567 274.791 188.743C273.712 188.922 260.554 181.827 258.256 179.072C255.958 176.317 256.049 151.925 255.043 145.822C254.037 139.718 249.101 118.569 248.596 117.215C245.222 108.177 246.415 100.412 246.448 98.3816C246.484 96.3471 245.833 93.0613 246.616 91.6379C248.175 88.7984 258.607 83.6721 258.578 82.3877C258.548 81.0997 257.162 63.3604 257.162 63.3604L272.676 54.5969Z" fill="#FFBD95"/>
<path d="M256.037 88.7766C250.387 86.6471 245.286 88.5974 240.917 98.9782C236.545 109.359 227.664 125.583 227.664 125.583L244.459 135.701C244.459 135.701 260.409 111.174 261.675 102.337C262.619 95.7545 261.141 90.6977 256.037 88.7766Z" fill="#B8D1FF"/>
<path d="M241.779 282.575H230.18V284.84H241.779V282.575Z" fill="#191919"/>
<path d="M241.249 266.602C242.767 268.826 243.795 273.137 243.945 275.124C244.128 277.513 242.763 282.559 241.263 282.559C236.876 282.559 231.633 282.746 227.11 283.382C222.587 284.019 220.897 286.741 209.327 286.716C205.953 286.705 199.817 286.482 199.996 285.047C200.179 283.613 211.094 281.004 214.614 277.608C223.524 269.013 229.459 266.938 229.459 266.938C229.459 266.938 240.938 266.144 241.249 266.602Z" fill="#191919"/>
<path d="M278.263 75.3901L261.179 90.1326L258.639 82.3863C258.639 82.3863 247.772 88.8739 246.678 91.6365C245.587 94.3955 245.766 99.9609 245.602 102.069C245.441 104.173 246.685 113.562 248.811 121.528C250.055 126.189 250.966 132.472 253.015 140.423C254.772 147.233 254.819 164.657 254.819 164.657C254.819 164.657 263.502 165.953 273.642 163.772C285.38 161.247 300.419 160.047 300.876 159.524C302.852 157.277 293.273 134.664 293.353 132.571C293.434 130.481 302.197 92.9684 301.674 88.3287C301.15 83.689 299.204 80.9337 295.435 79.7737C291.663 78.6138 278.263 75.3901 278.263 75.3901Z" fill="#CEE0FF"/>
<path d="M300.818 159.546C300.818 159.546 303.416 169.539 302.293 177.823C301.17 186.107 296.867 195.983 277.528 197.783C258.19 199.587 246.137 200.619 245.529 200.681C244.926 200.74 247.004 217.312 246.221 228.874C245.438 240.441 244.092 271.045 244.092 271.045C244.092 271.045 239.898 272.246 232.221 272.403C224.548 272.56 222.053 269.849 222.053 269.849C222.053 269.849 216.773 197.406 218.624 191.398C221.749 181.248 254.732 172.814 254.567 171.017C254.406 169.224 254.747 163.157 254.747 163.157L300.818 159.546Z" fill="#002D56"/>
<path d="M295.829 81.6575C302.28 78.7229 304.812 86.3594 307.285 92.8909C309.755 99.4187 315.332 133.185 314.194 135.128C313.056 137.071 302.353 136.602 300.143 134.228C297.936 131.849 291.917 101.848 290.816 96.1255C289.718 90.4063 288.269 85.097 295.829 81.6575Z" fill="#FFBD95"/>
<path d="M300.821 159.521C301.527 158.72 271.991 159.17 270.718 155.042C268.782 148.76 297.974 151.047 293.558 133.801L293.525 133.714C292.222 129.154 283.148 129.959 279.408 128.499C275.668 127.039 266.301 127.936 257.9 126.209C249.74 124.533 246.999 113.486 246.846 112.849C247.358 115.66 247.998 118.678 248.756 121.525C250 126.187 250.911 132.469 252.96 140.421C254.42 146.074 254.698 159.023 254.753 163.261L284.293 161.878C292.877 160.604 300.495 159.891 300.821 159.521Z" fill="#B8D1FF"/>
<path d="M314.364 133.804C316.381 141.225 301.214 144.226 293.734 145.305C286.255 146.381 261.974 147.27 261.974 147.27L260.367 141.931C260.367 141.931 300.778 128.978 302.882 128.576C304.986 128.169 312.315 126.256 314.364 133.804Z" fill="#FFBD95"/>
<path d="M271.631 58.7376L258.166 72.8507L258.397 75.4084L272.868 75.6535L277.043 71.8078L273.446 57.8594L271.631 58.7376Z" fill="#FFA47C"/>
<path d="M248.728 37.9246C252.65 32.864 265.552 26.7314 273.565 34.8107C281.575 42.8863 280.049 52.3743 277.32 58.5362C275.19 63.3406 272.848 66.1837 267.85 69.5281C266.833 70.2124 257.169 73.5678 255.076 73.1909C253.645 72.9347 251.051 62.9235 250.66 63.0259C250.272 63.132 249.075 62.7003 248.892 61.8843C248.625 60.6914 248.775 53.1757 248.369 52.4475C247.966 51.7193 244.231 43.7242 248.728 37.9246Z" fill="#FFBD95"/>
<path d="M246.814 42.9127C246.814 42.9127 253.708 37.3143 264.477 44.6398C266.793 46.2132 264.199 54.9109 264.817 55.5476C265.48 56.2318 271.385 48.4343 271.257 49.3966C269.955 59.192 273.716 63.8684 274.558 63.7952C277.104 63.5647 285.136 48.6063 279.662 38.5438C274.188 28.4813 260.73 27.6653 258.154 28.6606C255.578 29.6595 239.599 30.9073 246.814 42.9127Z" fill="#8D3B26"/>
<path d="M267.168 52.1712C266.736 55.2924 266.934 59.3759 268.573 59.6028C270.216 59.8297 271.895 57.4842 272.327 54.363C272.759 51.2418 271.782 48.5267 270.139 48.2999C268.5 48.073 267.6 49.05 267.168 52.1712Z" fill="#FFBD95"/>
<path d="M262.374 142.32C262.374 142.32 253.702 139.517 253.41 139.089C253.117 138.661 237.686 144.516 238.378 145.163C239.073 145.807 241.009 146.056 243.395 145.39C245.777 144.724 255.107 149.51 259.447 148.614C263.787 147.721 262.374 142.32 262.374 142.32Z" fill="#FFBD95"/>
<path d="M238.917 139.935C238.405 147.623 222.703 145.263 215.093 143.723C207.485 142.182 185.842 135.018 185.842 135.018L186.779 128.493C186.779 128.493 227.343 130.736 229.517 131.073C231.694 131.41 239.436 132.112 238.917 139.935Z" fill="#FFA47C"/>
<path d="M187.351 128.783L177.841 126.017C177.841 126.017 173.197 129.387 172.601 130.437C172.001 131.484 171.251 136.727 171.101 137.474C170.954 138.224 171.251 139.27 171.628 139.27C172.001 139.27 173.124 136.541 176.494 136.372C179.864 136.2 182.623 136.442 184.581 135.732C188.924 134.148 187.351 128.783 187.351 128.783Z" fill="#FFA47C"/>
<path d="M181.205 121.194L182.01 119.613C182.193 119.258 182.635 119.115 182.994 119.294C183.349 119.477 183.495 119.92 183.312 120.279L182.507 121.856C182.324 122.214 181.882 122.357 181.523 122.174C181.164 121.991 181.022 121.548 181.205 121.194Z" fill="#90A4A2"/>
<path d="M170.34 145.41C169.707 145.103 170.604 141.956 170.911 141.323L180.604 121.392C180.911 120.759 181.68 120.492 182.313 120.799C182.946 121.106 183.209 121.875 182.902 122.508L173.209 142.443C172.902 143.076 170.97 145.717 170.34 145.41Z" fill="#4B5B60"/>
<path d="M181.759 124.81L179.238 123.661L179.776 122.479L182.297 123.628L181.759 124.81Z" fill="#90A4A2"/>
<path d="M178.178 129.939L177.98 129.394L181.116 122.716L181.662 122.519L181.859 123.064L178.723 129.746L178.178 129.939Z" fill="#C9DAD8"/>
<path d="M182.283 129.978C182.283 129.978 177.277 130.578 176.981 131.475C176.681 132.375 174.134 137.091 173.834 137.615C173.534 138.138 173.124 138.84 175.053 138.376C176.981 137.915 177.954 135.624 178.628 135.723C179.301 135.818 181.251 137.399 183.717 136.608C186.184 135.814 187.387 133.897 187.461 133.059C187.537 132.225 183.992 128.855 182.283 129.978Z" fill="#FFA47C"/>
<path d="M292.68 79.3345C287.228 81.6031 284.861 86.4917 288.589 97.0848C292.318 107.678 296.676 125.629 296.676 125.629L315.396 121.678C315.396 121.678 310.617 92.8329 305.685 85.4818C302.011 80.0041 297.609 77.2854 292.68 79.3345Z" fill="#CEE0FF"/>
<path d="M109.627 261.173C108.109 263.328 107.081 267.503 106.931 269.424C106.748 271.744 108.113 276.629 109.616 276.629C114 276.629 119.243 276.808 123.766 277.427C128.289 278.045 129.979 280.679 141.549 280.654C144.923 280.643 151.059 280.427 150.88 279.037C150.701 277.646 139.782 275.121 136.262 271.832C127.352 263.511 121.417 261.499 121.417 261.499C121.417 261.499 109.938 260.73 109.627 261.173Z" fill="#191919"/>
<path d="M120.715 276.601H109.115V278.793H120.715V276.601Z" fill="#191919"/>
<path d="M68.702 169.628C68.702 169.628 112.245 183.865 114.042 185.9C115.838 187.931 128.06 264.819 128.06 264.819C128.06 264.819 125.012 267.64 117.148 268.255C109.285 268.866 106.61 268.255 106.61 268.255C106.61 268.255 94.634 218.92 95.0145 212.395C95.3987 205.871 92.8886 196.087 92.8886 196.087C92.8886 196.087 42.2761 193.577 38.8073 190.584C19.0262 173.507 40.7905 163.751 40.7905 163.751L68.9801 165.738L68.702 169.628Z" fill="#191919"/>
<path d="M133.114 116.48C133.114 116.48 136.487 113.812 138.935 112.788C141.383 111.763 148.566 109.516 149.093 107.72C149.62 105.923 143.279 102.48 138.935 104.427C134.592 106.373 126.41 112.813 126.41 112.813L133.114 116.48Z" fill="#FFA47C"/>
<path d="M71.0347 90.6949C64.28 92.8391 64.0422 99.0669 66.5779 105.573C69.1173 112.075 86.9225 142.299 91.1267 143.298C93.3185 143.821 101.38 141.739 101.427 138.494C101.475 135.248 88.3349 106.813 85.3161 101.83C82.301 96.8458 78.953 88.1848 71.0347 90.6949Z" fill="#B5CCF9"/>
<path d="M52.479 57.6235C52.479 57.6235 47.8905 77.1924 46.9501 78.4218C43.9533 82.3444 34.6226 84.0715 31.2708 88.949C27.2129 94.8658 33.459 123.538 34.0445 133.407C34.6299 143.276 28.9949 163.177 26.0201 172.27C23.0452 181.367 49.2882 191.594 50.364 191.773C51.4398 191.949 64.6015 184.854 66.8994 182.099C69.1973 179.343 69.1022 154.952 70.1084 148.848C71.1147 142.745 76.0545 121.595 76.5594 120.242C79.9294 111.204 78.7366 103.443 78.7036 101.408C78.6707 99.3738 79.322 96.0916 78.539 94.6645C76.9766 91.8251 66.5482 86.7023 66.5774 85.4143C66.603 84.13 67.9935 66.3871 67.9935 66.3871L52.479 57.6235Z" fill="#FFBD95"/>
<path d="M95.2439 285.602H83.6445V287.867H95.2439V285.602Z" fill="#191919"/>
<path d="M83.8416 269.628C82.3268 271.857 81.2949 276.167 81.1448 278.15C80.9655 280.543 82.3268 285.586 83.8306 285.586C88.2179 285.586 93.4577 285.772 97.984 286.409C102.507 287.049 104.197 289.772 115.767 289.742C119.141 289.735 125.277 289.512 125.098 288.074C124.915 286.639 114 284.034 110.476 280.635C101.57 272.043 95.6349 269.965 95.6349 269.965C95.6349 269.965 84.1563 269.171 83.8416 269.628Z" fill="#191919"/>
<path d="M46.9764 78.4167L64.0644 93.1556L66.6038 85.4093C66.6038 85.4093 77.2188 89.0171 78.3092 91.7761C79.4033 94.535 79.4765 102.988 79.6375 105.092C79.8021 107.199 78.5544 116.585 76.4284 124.551C75.1844 129.216 74.2732 135.495 72.2241 143.446C70.4714 150.256 69.0518 165.803 69.0518 165.803C69.0518 165.803 61.7409 168.976 51.5979 166.795C39.8595 164.27 27.554 163.655 27.0966 163.132C25.1207 160.889 31.7363 145.338 31.89 135.597C31.9229 133.504 28.67 96.8293 29.1933 92.1896C29.7165 87.5498 32.5742 84.9043 36.3431 83.7444C40.112 82.5844 46.9764 78.4167 46.9764 78.4167Z" fill="#CEE0FF"/>
<path d="M54.4227 109.509C48.978 90.0169 38.3264 84.2282 38.3264 84.2282L36.8005 83.5659L36.3431 83.7342C32.5742 84.8942 29.7165 87.5397 29.1933 92.1794C28.67 96.8191 31.9229 133.491 31.89 135.587C31.7363 145.328 25.1207 160.875 27.0966 163.122C27.5064 163.59 37.4445 164.139 47.9534 166.067L66.9222 166.485C68.2504 166.119 69.0518 165.793 69.0518 165.793C69.0518 165.793 70.4714 150.246 72.2242 143.436C73.3621 139.027 74.1379 135.185 74.8258 131.796L74.8294 131.763C74.8294 131.763 59.8674 129.005 54.4227 109.509Z" fill="#B5CCF9"/>
<path d="M27.0356 163.123C27.0356 163.123 23.9656 173.108 25.089 181.392C26.2123 189.677 28.2541 198.978 47.596 200.778C66.9343 202.579 78.9873 203.61 79.5911 203.673C80.1985 203.735 78.1165 220.303 78.9032 231.87C79.6863 243.432 81.0328 274.037 81.0328 274.037C81.0328 274.037 85.2261 275.241 92.8992 275.394C100.576 275.552 103.071 272.844 103.071 272.844C103.071 272.844 108.348 200.398 106.5 194.389C103.375 184.239 70.9703 175.929 69.7482 174.133C68.7346 172.644 68.9907 165.794 68.9907 165.794L27.0356 163.123Z" fill="#303030"/>
<path d="M37.6517 85.0109C30.6043 85.8379 29.2944 92.1461 30.6775 99.296C32.0643 106.442 46.4189 141.61 48.4204 142.733C50.4256 143.86 61.6407 141.533 62.2481 138.229C62.8556 134.928 51.9588 104.935 49.8401 99.2448C47.7215 93.5512 45.9066 84.0376 37.6517 85.0109Z" fill="#CEE0FF"/>
<path d="M53.8412 61.7605L67.3066 75.8773L67.0762 78.435L52.6045 78.6765L48.4258 74.8344L52.0263 60.886L53.8412 61.7605Z" fill="#FFA47C"/>
<path d="M76.3847 40.9512C72.4585 35.8907 59.5565 29.758 51.5468 37.8373C43.5371 45.9166 45.0593 55.4046 47.7889 61.5628C49.9185 66.3672 52.264 69.2103 57.2623 72.5584C58.2796 73.239 67.9432 76.598 70.0362 76.2212C71.4669 75.9614 74.0612 65.9501 74.4491 66.0525C74.8406 66.1587 76.0335 65.7269 76.2201 64.9109C76.4872 63.7217 76.3372 56.2023 76.7397 55.4741C77.1458 54.7496 80.8818 46.7508 76.3847 40.9512Z" fill="#FFBD95"/>
<path d="M78.4434 45.9246C78.4434 45.9246 71.546 40.3299 60.7809 47.6517C58.4647 49.2288 61.059 57.9265 60.4406 58.5631C59.7783 59.2437 53.8726 51.4462 54.0007 52.4085C55.3033 62.2039 51.5381 66.8839 50.7001 66.8071C48.1534 66.5765 42.4087 52.1304 47.8827 42.068C53.3567 32.0055 64.6413 32.719 67.2173 33.7142C69.7933 34.7132 77.7335 36.6086 78.4434 45.9246Z" fill="#8D3B26"/>
<path d="M58.4052 55.1978C58.837 58.319 58.6394 62.4026 56.9965 62.6294C55.3572 62.8563 53.6777 60.5108 53.2459 57.3896C52.8105 54.2684 53.7911 51.5533 55.4341 51.3265C57.0734 51.0996 57.9735 52.0766 58.4052 55.1978Z" fill="#FFBD95"/>
<path d="M63.7855 88.9509L64.0892 93.1625L60.0605 89.7376L63.7855 88.9509Z" fill="#B8D1FF"/>
<path d="M89.8332 142.82C93.5911 149.549 106.822 140.592 113.065 135.894C119.303 131.192 136.099 115.659 136.099 115.659L131.422 108.604C131.422 108.604 96.3829 129.472 94.5571 130.72C92.7312 131.971 86.0094 135.971 89.8332 142.82Z" fill="#B5CCF9"/>
<path d="M64.1484 93.1625L65.1949 88.9509L66.4683 91.0586L64.1484 93.1625Z" fill="#B8D1FF"/>
<path d="M27.0695 163.123L25.7852 167.55L69.0832 170.624L69.0246 165.794L27.0695 163.123Z" fill="#3B1B1D"/>
<path d="M66.4767 170.638H65.1742C63.7471 170.638 62.5762 169.47 62.5762 168.04C62.5762 166.613 63.7471 165.442 65.1742 165.442H66.4767C67.9074 165.442 69.0747 166.613 69.0747 168.04C69.0747 169.47 67.9074 170.638 66.4767 170.638Z" fill="#722C1D"/>
<path d="M61.6328 91.6023L66.8945 90.9949L66.5689 96.0481L63.7477 96.4762L61.6328 91.6023Z" fill="#303030"/>
<path d="M63.4955 96.4935C63.4955 96.4935 66.13 110.058 65.991 120.325C65.8519 130.593 61.3184 161.241 61.3184 161.241L65.7202 168.482L68.9951 160.956C68.9951 160.956 71.1247 130.991 70.1477 119.791C69.1708 108.59 66.3167 96.0654 66.3167 96.0654L63.4955 96.4935Z" fill="#303030"/>
<path d="M44.9668 78.9453L48.2893 74.8398L63.6428 88.9676L61.1729 93.6878L44.9668 78.9453Z" fill="#E0F2FF"/>
<path d="M65.0918 88.9451L66.7311 83.0942L68.9851 86.0215L67.0385 92.8384L65.0918 88.9451Z" fill="#E0F2FF"/>
<path d="M138.989 112.808C138.989 112.808 141.675 112.863 145.026 112.101C145.381 112.021 145.97 112.101 146.325 112.021L147.383 111.578L148.162 111.556C148.502 111.476 148.861 111.062 149.179 110.985L150.266 110.876C151.291 110.718 151.137 110.027 151.444 109.946C152.407 109.697 152.681 109.606 152.838 109.511C153.618 109.039 155.301 105.38 155.385 104.732C155.469 104.084 156.779 100.542 156.45 100.338C156.117 100.129 154.661 100.33 153.709 102.156C152.762 103.986 151.496 106.141 151.58 105.694C151.668 105.244 151.507 102.668 151.232 101.647C151.057 100.989 150.321 101.036 149.812 101.282L148.879 103.239L147.591 102.416C146.647 102.789 146.6 104.267 146.431 104.739C146.292 105.135 145.572 103.715 145.176 103.92C143.72 104.688 144.576 108.625 142.919 108.695C142.084 108.731 138.941 110.415 138.989 112.808Z" fill="#FFBD95"/>
<path d="M48.4554 139.805C47.6467 147.471 63.6186 147.785 71.4308 147.544C79.2393 147.302 101.915 144.298 101.915 144.298L102.163 135.838C102.163 135.838 61.5073 132.68 59.2936 132.644C57.0798 132.611 49.2823 132.004 48.4554 139.805Z" fill="#CEE0FF"/>
<path d="M119.473 143.311V143.304C119.487 142.59 118.916 141.997 118.203 141.979L112.645 141.858C111.928 141.84 111.331 142.414 111.317 143.132V143.139C111.306 143.852 111.876 144.445 112.586 144.463L118.144 144.584C118.862 144.603 119.462 144.028 119.473 143.311Z" fill="#FFA47C"/>
<path d="M119.787 140.913V140.909C119.798 140.196 119.227 139.599 118.514 139.585L112.959 139.46C112.239 139.446 111.642 140.02 111.631 140.737V140.745C111.616 141.454 112.187 142.051 112.901 142.066L118.459 142.19C119.176 142.205 119.773 141.63 119.787 140.913Z" fill="#FFA47C"/>
<path d="M119.787 138.515V138.512C119.798 137.798 119.227 137.202 118.518 137.187L112.959 137.063C112.242 137.048 111.642 137.622 111.631 138.34V138.347C111.616 139.057 112.187 139.653 112.901 139.668L118.459 139.792C119.176 139.807 119.773 139.232 119.787 138.515Z" fill="#FFA47C"/>
<path d="M119.787 136.235V136.228C119.802 135.518 119.231 134.922 118.517 134.907L112.959 134.783C112.242 134.768 111.646 135.343 111.631 136.06V136.063C111.62 136.777 112.191 137.373 112.904 137.388L118.459 137.512C119.18 137.527 119.776 136.953 119.787 136.235Z" fill="#FFA47C"/>
<path d="M100.311 137.465C100.311 137.465 108.8 133.92 110.582 133.737C112.367 133.554 119.232 135.036 119.232 135.036C119.232 135.036 117.055 137.326 117.241 138.925C117.431 140.524 118.299 144.601 118.299 144.601C118.299 144.601 112.371 146.042 109.546 145.805C106.718 145.57 103.988 144.688 103.988 144.688L100.311 137.465Z" fill="#FFA47C"/>
<path d="M104.174 134.822H96.5371V145.345H104.174V134.822Z" fill="#CEE0FF"/>
<path d="M137.933 116.315L131.537 120.493L125.781 111.682L132.174 107.504L137.933 116.315Z" fill="#CEE0FF"/>
<path d="M49.4352 202.586H38.9922V276.807H49.4352V202.586Z" fill="#99A2A9"/>
<path d="M19.3065 182.697H13.5215V203.353H19.3065V182.697Z" fill="#99A2A9"/>
<path d="M18.915 209.823H76.9262C79.9047 209.823 82.316 207.408 82.316 204.434V200.233C82.316 197.258 79.9047 194.843 76.9262 194.843H18.915C15.9365 194.843 13.5215 197.258 13.5215 200.233V204.434C13.5215 207.408 15.9365 209.823 18.915 209.823Z" fill="#303030"/>
<path d="M4.0306 97.9058L5.71375 97.7082C8.20925 97.4155 10.4889 99.2157 10.7816 101.711L20.4636 184.008C20.7599 186.503 18.9597 188.783 16.4642 189.076L14.781 189.273C12.2855 189.566 10.0059 187.766 9.71314 185.274L0.0312024 102.974C-0.261525 100.482 1.53876 98.2022 4.0306 97.9058Z" fill="#303030"/>
<path d="M6.89107 100.283C7.84609 100.17 8.72058 100.862 8.83401 101.817L18.3842 183.005C18.4977 183.96 17.8061 184.834 16.8511 184.947C15.8961 185.061 15.0215 184.369 14.9081 183.414L5.35789 102.226C5.24446 101.271 5.93605 100.397 6.89107 100.283Z" fill="#424249"/>
<path d="M65.0918 285.43C65.0918 288.789 67.8105 291.508 71.1695 291.508C74.5249 291.508 77.2473 288.789 77.2473 285.43C77.2473 282.075 74.5249 279.352 71.1695 279.352C67.8105 279.352 65.0918 282.075 65.0918 285.43Z" fill="#303030"/>
<path d="M9.74805 285.43C9.74805 288.789 12.4704 291.508 15.8258 291.508C19.1848 291.508 21.9035 288.789 21.9035 285.43C21.9035 282.075 19.1848 279.352 15.8258 279.352C12.4704 279.352 9.74805 282.075 9.74805 285.43Z" fill="#303030"/>
<path d="M7.86133 281.913H80.4138C80.4138 279.088 78.1232 276.797 75.302 276.797H12.9768C10.152 276.797 7.86133 279.088 7.86133 281.913Z" fill="#99A2A9"/>
<path d="M43.1881 209.819H40.5645V276.82H43.1881V209.819Z" fill="#A2ADB5"/>
<path d="M43.1881 209.072H40.5645V209.822H43.1881V209.072Z" fill="#3C4144"/>
<path d="M246.32 145.356H79.2422V151.068H246.32V145.356Z" fill="#515151"/>
<path d="M242.336 151.016H83.0156V292.367H242.336V151.016Z" fill="#9BA4AB"/>
<path d="M83.0156 180.563V151.016H242.336V163.267L83.0156 180.563Z" fill="#8B9099"/>
</g>
<defs>
<clipPath id="clip0">
<rect width="322" height="322" fill="white"/>
</clipPath>
</defs>
</svg>
