<?xml version="1.0" encoding="UTF-8" standalone="no"?>
<!DOCTYPE svg PUBLIC "-//W3C//DTD SVG 1.1//EN" "http://www.w3.org/Graphics/SVG/1.1/DTD/svg11.dtd">
<svg width="100%" height="100%" viewBox="0 0 957 611" version="1.1" xmlns="http://www.w3.org/2000/svg" xmlns:xlink="http://www.w3.org/1999/xlink" xml:space="preserve" xmlns:serif="http://www.serif.com/" style="fill-rule:evenodd;clip-rule:evenodd;stroke-miterlimit:10;">
    <g transform="matrix(1,0,0,1,4.97494,0)">
        <g transform="matrix(1,0,0,1,-124.06,-144.92)">
            <path d="M1018.36,667.17C1016.64,660.07 1010.99,654.72 1006.83,648.71C996.662,633.64 995.483,614.166 1003.76,597.98C1007.76,590.37 1014.03,582.5 1011.76,574.19C1010.24,568.6 1005.19,564.77 1000.23,561.77C981.39,550.424 959.637,544.83 937.66,545.68C910.72,546.78 883.87,557.54 857.45,552.21C831.72,547 809.92,534.1 783,532.57C762.89,531.43 743,532.71 722.85,530.51C673.063,525.109 622.908,523.912 572.92,526.93C522.935,523.912 472.784,525.11 423,530.51C402.9,532.71 383,531.43 362.85,532.57C335.85,534.09 314.1,547.01 288.36,552.21C261.93,557.55 235.09,546.78 208.15,545.68C186.173,544.83 164.42,550.424 145.58,561.77C140.58,564.77 135.58,568.6 134.05,574.19C131.79,582.49 138.05,590.36 142.05,597.98C150.333,614.163 149.162,633.636 139,648.71C134.84,654.71 129.19,660.07 127.47,667.17C124.01,681.45 137.89,694.03 151.47,699.7C188.52,715.19 233.58,707.7 267.47,729.27C282.66,738.95 295.95,754.49 313.95,755.07C326.12,755.46 337.19,748.7 347.82,742.75C363.727,733.845 380.356,726.295 397.53,720.18C412.53,714.84 428.42,710.56 444.25,712.33C468.42,715 572.9,765.48 620,735.65C652.26,715.2 677.42,715.03 701.65,712.32C717.48,710.55 733.36,714.83 748.37,720.17C765.544,726.285 782.173,733.835 798.08,742.74C808.7,748.69 819.78,755.45 831.95,755.06C849.95,754.48 863.24,738.94 878.43,729.26C912.3,707.68 957.35,715.18 994.43,699.69C1007.94,694 1021.83,681.46 1018.36,667.17Z" style="fill:url(#_Linear1);fill-rule:nonzero;"/>
        </g>
        <g transform="matrix(1,0,0,1,-124.06,-144.92)">
            <path d="M1013.46,666.88C1011.76,659.88 1006.17,654.56 1002.06,648.62C992.024,633.706 990.873,614.453 999.06,598.45C1003.06,590.92 1009.22,583.14 1006.98,574.93C1005.47,569.4 1000.48,565.61 995.58,562.65C976.948,551.427 955.435,545.892 933.7,546.73C907.06,547.81 880.51,558.46 854.37,553.18C828.91,548.04 807.37,535.26 780.7,533.75C760.81,532.63 741.1,533.89 721.22,531.75C671.98,526.409 622.378,525.225 572.94,528.21C523.502,525.225 473.9,526.409 424.66,531.75C404.78,533.93 385.07,532.66 365.18,533.75C338.52,535.25 316.97,548.03 291.51,553.18C265.38,558.46 238.82,547.81 212.18,546.73C190.445,545.892 168.932,551.427 150.3,562.65C145.4,565.65 140.41,569.4 138.9,574.93C136.66,583.14 142.9,590.93 146.82,598.45C155.007,614.453 153.856,633.706 143.82,648.62C139.7,654.56 134.12,659.85 132.42,666.88C128.91,681 142.64,693.44 156.05,699C192.7,714.31 237.26,706.9 270.75,728.24C285.75,737.81 298.92,753.19 316.75,753.76C328.75,754.15 339.75,747.46 350.25,741.57C365.984,732.76 382.432,725.29 399.42,719.24C414.27,713.95 429.97,709.72 445.63,711.47C469.63,714.15 572.93,764.04 619.47,734.54C651.38,714.32 676.26,714.15 700.22,711.47C715.88,709.72 731.59,713.95 746.43,719.24C763.418,725.29 779.866,732.76 795.6,741.57C806.11,747.45 817.06,754.14 829.1,753.76C846.9,753.19 860.05,737.82 875.1,728.24C908.6,706.9 953.16,714.31 989.8,699C1003.16,693.44 1016.89,681 1013.46,666.88Z" style="fill:rgb(207,207,207);fill-opacity:0.0666667;fill-rule:nonzero;"/>
        </g>
        <g transform="matrix(1,0,0,1,-124.06,-144.92)">
            <path d="M159,364.14C161.86,363.14 164.9,362.19 167.89,362.71C172.89,363.58 176.4,368.32 177.89,373.19C179.38,378.06 179.33,383.19 180.28,388.19C181.23,393.19 183.5,398.36 187.98,400.75C192.46,403.14 197.75,402.2 202.72,401.62C209.239,400.868 215.819,400.808 222.35,401.44C227.83,401.97 234.27,403.82 235.88,409.09C237.2,413.39 234.58,417.78 232.88,421.93C229.62,429.69 229.36,438.86 233.09,446.4C236.82,453.94 244.38,459.56 247.54,467.52C248.455,469.511 248.721,471.74 248.3,473.89C247.833,475.396 247.064,476.791 246.04,477.99C243.56,481.18 240.6,483.99 238.34,487.35C233.63,494.35 232.34,503.05 231.8,511.46C231.261,519.73 231.308,528.027 231.94,536.29C225.8,534.29 219.02,536.07 212.69,534.76C199.22,531.98 190.81,516.04 177.09,515.07C170.6,514.61 163.62,517.67 157.83,514.7C155.064,513.106 152.899,510.646 151.67,507.7C149.223,502.486 148.665,496.58 150.09,491C151.09,487.14 153.09,483.36 152.7,479.39C152.37,475.99 150.33,472.99 147.99,470.5C141.32,463.42 131.64,459.09 126.85,450.62C122.4,442.402 123.473,432.238 129.54,425.13C131.25,423.461 132.869,421.702 134.39,419.86C136.69,416.62 137.39,412.53 137.7,408.56C138.36,399.05 136.7,388.98 139.81,379.74C142.6,371.38 151.12,366.94 159,364.14Z" style="fill:white;fill-opacity:0.367059;fill-rule:nonzero;"/>
        </g>
        <g transform="matrix(1,0,0,1,-124.06,-144.92)">
            <path d="M159.14,364.42C159.14,364.42 186.45,516.09 221.91,534.18" style="fill:none;stroke:rgb(83,84,97);stroke-opacity:0.6;stroke-width:1px;"/>
        </g>
        <g transform="matrix(1,0,0,1,-124.06,-144.92)">
            <path d="M235.12,406.4C235.12,406.4 205.87,410.4 176.65,440.45" style="fill:none;stroke:rgb(83,84,97);stroke-opacity:0.6;stroke-width:1px;"/>
        </g>
        <g transform="matrix(1,0,0,1,-124.06,-144.92)">
            <path d="M181.79,458.07C181.79,458.07 159.28,436.07 124.11,439.8" style="fill:none;stroke:rgb(83,84,97);stroke-opacity:0.6;stroke-width:1px;"/>
        </g>
        <g transform="matrix(1,0,0,1,-124.06,-144.92)">
            <path d="M248,467.64C248,467.64 206.92,471.13 191.71,486.9" style="fill:none;stroke:rgb(83,84,97);stroke-opacity:0.6;stroke-width:1px;"/>
        </g>
        <g transform="matrix(1,0,0,1,-124.06,-144.92)">
            <path d="M197.86,501.59C197.86,501.59 174.86,497.59 153.63,511.14" style="fill:none;stroke:rgb(83,84,97);stroke-opacity:0.6;stroke-width:1px;"/>
        </g>
        <g transform="matrix(1,0,0,1,-124.06,-144.92)">
            <path d="M1004.49,245C999.9,243.37 995.03,241.88 990.24,242.71C982.24,244.11 976.6,251.71 974.24,259.5C971.88,267.29 971.93,275.6 970.41,283.6C968.89,291.6 965.25,299.89 958.07,303.73C950.89,307.57 942.41,306.05 934.44,305.13C924.001,303.913 913.462,303.802 903,304.8C894.21,305.65 883.9,308.62 881.32,317.06C879.21,323.96 883.4,330.98 886.2,337.63C891.43,350.06 891.85,364.77 885.86,376.86C879.77,389.16 867.76,397.96 862.7,410.71C861.42,413.95 860.61,417.54 861.48,420.91C862.23,423.327 863.466,425.566 865.11,427.49C869.11,432.61 873.83,437.12 877.45,442.49C885,453.69 887.05,467.65 887.93,481.13C888.794,494.382 888.721,507.678 887.71,520.92C897.55,517.68 908.43,520.57 918.57,518.48C940.16,514.03 953.64,488.48 975.63,486.92C986.03,486.19 997.22,491.08 1006.5,486.32C1011.02,484 1014.23,479.67 1016.38,475.06C1020.24,466.706 1021.08,457.267 1018.77,448.36C1017.14,442.17 1013.97,436.12 1014.59,429.75C1015.12,424.3 1018.38,419.49 1022.14,415.51C1032.83,404.16 1048.35,397.22 1056.03,383.65C1063.23,370.93 1061.41,353.72 1051.72,342.79C1049.18,339.92 1046.16,337.46 1043.94,334.34C1040.25,329.15 1039.07,322.59 1038.63,316.23C1037.58,300.98 1040.17,284.85 1035.24,270.04C1030.74,256.56 1017.09,249.43 1004.49,245Z" style="fill:white;fill-opacity:0.378824;fill-rule:nonzero;"/>
        </g>
        <g transform="matrix(1,0,0,1,-124.06,-144.92)">
            <path d="M1004.23,245.4C1004.23,245.4 960.46,488.51 903.61,517.5" style="fill:none;stroke:rgb(83,84,97);stroke-opacity:0.6;stroke-width:1px;"/>
        </g>
        <g transform="matrix(1,0,0,1,-124.06,-144.92)">
            <path d="M882.44,312.69C882.44,312.69 929.32,319.13 976.16,367.28" style="fill:none;stroke:rgb(83,84,97);stroke-opacity:0.6;stroke-width:1px;"/>
        </g>
        <g transform="matrix(1,0,0,1,-124.06,-144.92)">
            <path d="M967.92,395.51C967.92,395.51 1004.01,360.22 1060.37,366.22" style="fill:none;stroke:rgb(83,84,97);stroke-opacity:0.6;stroke-width:1px;"/>
        </g>
        <g transform="matrix(1,0,0,1,-124.06,-144.92)">
            <path d="M861.85,410.85C861.85,410.85 927.69,416.44 952.07,441.73" style="fill:none;stroke:rgb(83,84,97);stroke-opacity:0.6;stroke-width:1px;"/>
        </g>
        <g transform="matrix(1,0,0,1,-124.06,-144.92)">
            <path d="M942.17,465.27C942.17,465.27 979.06,458.81 1013.07,480.57" style="fill:none;stroke:rgb(83,84,97);stroke-opacity:0.6;stroke-width:1px;"/>
        </g>
        <path d="M74.91,0L74.91,495.2L801.84,495.2L801.84,24.99L801.84,0L74.91,0Z" style="fill:url(#_Linear2);fill-rule:nonzero;"/>
        <rect x="85.69" y="22.47" width="708.45" height="463.77" style="fill:white;"/>
        <rect x="85.69" y="0.41" width="708.45" height="34.12" style="fill:rgb(238,238,238);"/>
        <circle cx="112.65" cy="16.95" r="8.27" style="fill:rgb(255,82,82);"/>
        <circle cx="135.4" cy="16.95" r="8.27" style="fill:rgb(255,255,0);"/>
        <circle cx="158.15" cy="16.95" r="8.27" style="fill:rgb(105,240,174);"/>
        <g transform="matrix(1,0,0,1,0,77)">
            <rect x="112.84" y="89.18" width="264" height="11" style="fill:rgb(15,121,209);fill-opacity:0.5;"/>
        </g>
        <g transform="matrix(1,0,0,1,0,77)">
            <rect x="112.84" y="111.18" width="264" height="11" style="fill:rgb(15,121,209);fill-opacity:0.5;"/>
        </g>
        <g transform="matrix(1,0,0,1,0,77)">
            <rect x="112.84" y="133.18" width="264" height="11" style="fill:rgb(15,121,209);fill-opacity:0.5;"/>
        </g>
        <g transform="matrix(1,0,0,1,0,77)">
            <rect x="203.84" y="155.18" width="173" height="11" style="fill:rgb(15,121,209);fill-opacity:0.5;"/>
        </g>
        <g transform="matrix(1,0,0,1,0,77)">
            <rect x="112.84" y="177.18" width="139" height="11" style="fill:rgb(15,121,209);fill-opacity:0.5;"/>
        </g>
        <g transform="matrix(1,0,0,1,0,77)">
            <rect x="187.84" y="199.18" width="107" height="11" style="fill:rgb(15,121,209);fill-opacity:0.5;"/>
        </g>
        <rect x="411.84" y="166.18" width="311" height="179" style="fill:rgb(15,121,209);fill-opacity:0.5;"/>
        <rect x="448.84" y="183.18" width="311" height="179" style="fill:rgb(238,238,238);"/>
        <g transform="matrix(1,0,0,1,-124.06,-144.92)">
            <path d="M1070.88,493.24C1071.53,492.415 1071.88,491.398 1071.88,490.35C1071.88,489.302 1071.88,490.29 1071.88,490.27C1071.88,490.25 1071.94,490.06 1071.97,489.96L1071.97,489.83C1071.97,489.733 1071.97,489.637 1071.97,489.54C1071.96,489.443 1071.97,489.46 1071.97,489.42C1071.98,489.3 1071.98,489.18 1071.97,489.06C1071.38,485.06 1047.61,459 1041.67,427.21C1041.01,423.749 1040.03,420.357 1038.74,417.08C1038.92,415.441 1038.82,413.782 1038.42,412.18C1037.42,408.11 1035.42,403.98 1036.42,399.92C1036.56,399.389 1036.74,398.871 1036.97,398.37C1038.22,396.537 1039.36,394.638 1040.4,392.68C1040.79,392.042 1041.12,391.373 1041.4,390.68C1045.05,381.06 1033.75,371.13 1035.83,361.09C1036.73,356.74 1040.1,352.94 1040.01,348.51C1039.9,343.44 1035.24,339.51 1030.4,337.63C1025.56,335.75 1020.23,335.21 1015.48,333.11C1005.07,328.5 999.37,317.37 989.87,311.18C977.8,303.33 962.05,304.73 947.58,306.76C946.614,306.902 945.78,307.518 945.36,308.4L945.22,308.4C945.11,308.72 944.98,309.03 944.84,309.34C942.84,312.75 939.47,315.34 936.14,317.73C932.08,320.59 927.73,323.41 925.25,327.65C924.88,328.28 924.57,328.88 924.3,329.46C918.9,339.09 925.39,343.25 933.3,345.56C933.063,346.937 932.943,348.332 932.94,349.73C932.94,363.73 944.65,375.16 959.08,375.16C960.22,375.159 961.359,375.085 962.49,374.94L963.33,375.49L963.52,375.49C966.2,377.42 968.52,379.84 969.52,382.72L961.14,389.12C961.14,389.12 961.48,390 961.98,391.4L929.04,406.58C916.56,407.16 896.36,367.85 896.36,367.85C896.36,367.85 893.36,345.31 882.69,341.26C879.47,340.04 878.19,342.59 877.97,346.75C873.2,351.75 881.21,379.83 881.21,379.83L906.76,424.92C909.14,429.54 909.76,432.43 921.02,434.17C930.29,435.59 959.17,425.33 969.22,421.61L969.69,425.61C968.522,428.659 968.004,431.919 968.17,435.18C968.17,442.55 971.46,453.27 987.52,461.81C987.52,461.81 1004.1,483.24 1002.26,503.47C1002.26,503.47 1003.06,504.31 1004.34,505.41C1004.16,511.11 1003.34,518.14 1000.47,520.88C1000.09,521.243 999.914,521.781 1000.02,522.3C999.894,522.912 1000.18,523.54 1000.72,523.85L979.79,560.5C979.01,561.5 978.22,562.5 977.41,563.5C973.525,568.453 969.212,573.054 964.52,577.25C961.03,580.36 957.4,583.76 956.68,585.03C955.57,587.03 952.78,593.48 953.96,598.81C955.487,605.273 956.113,611.916 955.82,618.55L953.11,665.96C952.201,671.253 950.948,676.48 949.36,681.61L948.95,681.61C948.95,681.61 938.85,693.75 922.81,696.61C906.77,699.47 907.36,707.61 912.11,708.75C916.86,709.89 974.5,707.59 974.5,707.59C974.5,707.59 976.68,703.34 976.08,699.46C994.48,697.69 1019.97,694.69 1019.97,694.69C1019.97,694.69 1023.46,686.3 1018.39,682.64C1016.48,681.174 1015.07,679.161 1014.33,676.87C1014.03,675.59 1013.7,674.13 1013.38,672.6C1013.3,671.85 1013.3,671.39 1013.3,671.39L1013.13,671.39C1012.24,666.92 1011.53,662.13 1011.94,659.62C1013.43,652.97 1017.29,614.53 1007.78,603.55C1003.46,598.55 1004.05,592.87 1005.97,588.13C1017.38,580.66 1033.34,564.59 1042.57,554.87C1043.09,555.3 1043.57,555.73 1044.02,556.16L1044.32,556.45C1044.32,556.45 1075.73,540.9 1075.86,513.45C1075.91,506.404 1074.2,499.456 1070.88,493.24ZM970.27,686.88C970.213,685.879 970.25,684.874 970.38,683.88L969.38,683.77C969.96,679.41 971.38,674.53 974.56,671.16C980.02,661.27 983.881,650.577 986,639.48L991.77,661.31C991.77,661.31 992.35,665.83 992.51,670.61L992.41,670.61C992.41,670.61 984.36,682.1 970.27,686.88Z" style="fill:url(#_Linear3);fill-rule:nonzero;"/>
        </g>
        <g transform="matrix(1,0,0,1,-124.06,-144.92)">
            <path d="M996.35,404.14C996.35,404.14 982.24,409.22 974.35,417.69C974.35,417.69 935.96,432.93 925.23,431.24C914.5,429.55 913.94,426.72 911.68,422.24L887.4,378.24C887.4,378.24 877.24,341.54 887.4,345.49C897.56,349.44 900.4,371.49 900.4,371.49C900.4,371.49 919.6,409.88 931.45,409.32L963.6,394C963.6,394 970.94,383.27 974.33,383.84C977.72,384.41 996.35,404.14 996.35,404.14Z" style="fill:rgb(253,183,151);fill-rule:nonzero;"/>
        </g>
        <g transform="matrix(1,0,0,1,-124.06,-144.92)">
            <path d="M996.35,404.14C996.35,404.14 982.24,409.22 974.35,417.69C974.35,417.69 935.96,432.93 925.23,431.24C914.5,429.55 913.94,426.72 911.68,422.24L887.4,378.24C887.4,378.24 877.24,341.54 887.4,345.49C897.56,349.44 900.4,371.49 900.4,371.49C900.4,371.49 919.6,409.88 931.45,409.32L963.6,394C963.6,394 970.94,383.27 974.33,383.84C977.72,384.41 996.35,404.14 996.35,404.14Z" style="fill-opacity:0.05;fill-rule:nonzero;"/>
        </g>
        <g transform="matrix(1,0,0,1,-124.06,-144.92)">
            <path d="M973.17,383.33L961.91,392.17C961.91,392.17 967.54,406.9 966.13,412.06C964.72,417.22 988.65,403.96 988.65,403.96L978.8,381.86L973.17,383.33Z" style="fill:rgb(249,206,67);fill-rule:nonzero;"/>
        </g>
        <g transform="matrix(1,0,0,1,-124.06,-144.92)">
            <path d="M973.17,383.33L961.91,392.17C961.91,392.17 967.54,406.9 966.13,412.06C964.72,417.22 988.65,403.96 988.65,403.96L978.8,381.86L973.17,383.33Z" style="fill-opacity:0.05;fill-rule:nonzero;"/>
        </g>
        <g transform="matrix(1,0,0,1,-124.06,-144.92)">
            <path d="M953.73,373.49C953.73,373.49 978.85,381.68 967.28,396.07L1003.41,378.57C1003.41,378.57 988.17,379.7 978.57,356.57L953.73,373.49Z" style="fill:rgb(253,183,151);fill-rule:nonzero;"/>
        </g>
        <g transform="matrix(1,0,0,1,-124.06,-144.92)">
            <path d="M1001.15,520.85L970.1,576.74L991,658C991,658 993.26,676.07 989.87,677.76L1013.58,677.76C1013.58,677.76 1009.01,661.76 1010.19,656.31C1011.6,649.82 1015.27,612.31 1006.19,601.55C997.11,590.79 1010.71,576.71 1010.71,576.71L1037.81,533.8L1001.15,520.85Z" style="fill:rgb(253,183,151);fill-rule:nonzero;"/>
        </g>
        <g transform="matrix(1,0,0,1,-124.06,-144.92)">
            <path d="M1001.15,520.85L970.1,576.74L991,658C991,658 993.26,676.07 989.87,677.76L1013.58,677.76C1013.58,677.76 1009.35,661.67 1010.19,656.31C1011.03,650.95 1015.27,612.31 1006.19,601.55C997.11,590.79 1010.71,576.71 1010.71,576.71L1037.81,533.8L1001.15,520.85Z" style="fill-opacity:0.05;fill-rule:nonzero;"/>
        </g>
        <g transform="matrix(1,0,0,1,-124.06,-144.92)">
            <path d="M991.6,667.12C991.6,667.12 983,679.79 968,683.81C953,687.83 954.22,695.67 958.81,696.43C963.4,697.19 1017.81,690.6 1017.81,690.6C1017.81,690.6 1021.12,682.41 1016.31,678.83C1011.5,675.25 1011.47,667.83 1011.47,667.83L991.6,667.12Z" style="fill:rgb(13,19,77);fill-rule:nonzero;"/>
        </g>
        <g transform="matrix(1,0,0,1,-124.06,-144.92)">
            <path d="M1002.85,498.26C1002.85,498.26 1004.19,516.62 999.3,521.44C999,521.72 998.83,522.112 998.83,522.522C998.83,523.062 999.126,523.561 999.6,523.82L1014.14,531.57L1027.14,506.73L1002.85,498.26Z" style="fill-opacity:0.1;fill-rule:nonzero;"/>
        </g>
        <g transform="matrix(1,0,0,1,-124.06,-144.92)">
            <path d="M1002.85,497.7C1002.85,497.7 1004.19,516.06 999.3,520.88C999,521.16 998.83,521.552 998.83,521.962C998.83,522.502 999.126,523.001 999.6,523.26L1014.14,531.01L1027.14,506.17L1002.85,497.7Z" style="fill:rgb(226,53,83);fill-rule:nonzero;"/>
        </g>
        <g transform="matrix(1,0,0,1,-124.06,-144.92)">
            <path d="M1002.85,498.7C1002.85,498.7 1004.19,517.06 999.3,521.88C999,522.16 998.83,522.552 998.83,522.962C998.83,523.502 999.126,524.001 999.6,524.26L1014.14,532.01L1027.14,507.17L1002.85,498.7Z" style="fill-opacity:0.1;fill-rule:nonzero;"/>
        </g>
        <g transform="matrix(1,0,0,1,-124.06,-144.92)">
            <path d="M1003.41,533.83C1003.41,533.83 995.02,539.43 977.41,562.48C973.728,567.307 969.629,571.801 965.16,575.91C961.85,578.91 958.4,582.27 957.71,583.51C956.65,585.42 954,591.77 955.13,596.97C956.582,603.288 957.178,609.773 956.9,616.25L954.33,662.56C954.33,662.56 950.94,683.45 946.43,685.71L969.58,689.71C969.58,689.71 967.89,675.03 974.66,667.71C974.66,667.71 990.47,640.61 986.52,610.12C986.52,610.12 984.83,596.57 1000.07,589.23C1015.31,581.89 1046.37,546.32 1046.37,546.32L1003.41,533.83Z" style="fill:rgb(253,183,151);fill-rule:nonzero;"/>
        </g>
        <g transform="matrix(1,0,0,1,-124.06,-144.92)">
            <path d="M950.34,677.8C950.34,677.8 940.74,689.66 925.5,692.48C910.26,695.3 910.82,703.21 915.34,704.34C919.86,705.47 974.62,703.21 974.62,703.21C974.62,703.21 978.62,695.31 974.06,691.35C969.5,687.39 970.67,680.06 970.67,680.06L950.34,677.8Z" style="fill:rgb(13,19,77);fill-rule:nonzero;"/>
        </g>
        <g transform="matrix(1,0,0,1,-124.06,-144.92)">
            <path d="M1017.53,503.91C1017.53,503.91 1010.64,527.05 1001.91,533.79C1001.63,534.001 1001.46,534.334 1001.46,534.687C1001.46,535.157 1001.76,535.58 1002.2,535.74C1009.42,538.37 1032.62,547.23 1040.68,555.29L1040.96,555.57C1040.96,555.57 1089.23,531.01 1063.26,489.23L1017.53,503.91Z" style="fill-opacity:0.1;fill-rule:nonzero;"/>
        </g>
        <g transform="matrix(1,0,0,1,-124.06,-144.92)">
            <path d="M1017.53,503.35C1017.53,503.35 1010.64,526.49 1001.91,533.23C1001.63,533.441 1001.46,533.774 1001.46,534.127C1001.46,534.597 1001.76,535.02 1002.2,535.18C1009.42,537.81 1032.62,546.67 1040.68,554.73L1040.96,555.01C1040.96,555.01 1089.23,530.45 1063.26,488.67L1017.53,503.35Z" style="fill:rgb(226,53,83);fill-rule:nonzero;"/>
        </g>
        <g transform="matrix(1,0,0,1,-124.06,-144.92)">
            <path d="M977.89,388.61C974.303,391.023 970.381,392.896 966.25,394.17L970.13,428.7C970.13,428.7 961.06,449 987,463.18C987,463.18 1002.75,484.11 1001,503.87C1001,503.87 1009.45,512.93 1015.1,510.68C1020.75,508.43 1015.66,511.81 1016.79,511.25C1017.92,510.69 1020.17,515.78 1037.68,511.3C1055.19,506.82 1067.68,495.01 1067.09,491.05C1066.5,487.09 1044.02,461.63 1038.45,430.56C1032.88,399.49 999.63,377.39 999.63,377.39C999.63,377.39 998.53,378 996.63,378.81C990.13,381.568 983.863,384.845 977.89,388.61Z" style="fill-opacity:0.1;fill-rule:nonzero;"/>
        </g>
        <g transform="matrix(1,0,0,1,-124.06,-144.92)">
            <path d="M1001.47,534C1001.43,534.497 1001.73,534.964 1002.2,535.13C1008.42,537.4 1026.5,544.29 1036.54,551.31C1027.85,544.29 1009.36,537 1001.47,534Z" style="fill-rule:nonzero;"/>
        </g>
        <g transform="matrix(1,0,0,1,-124.06,-144.92)">
            <path d="M1063.26,488.67L1062.26,489.01C1084.45,527.8 1042.66,551.23 1039.01,553.18C1039.64,553.7 1040.21,554.18 1040.73,554.73L1041.01,555.01C1041.01,555.01 1089.23,530.45 1063.26,488.67Z" style="fill-rule:nonzero;"/>
        </g>
        <g transform="matrix(1,0,0,1,-124.06,-144.92)">
            <path d="M1037.85,510.12C1020.35,514.64 1018.09,509.56 1016.96,510.12C1015.83,510.68 1020.96,507.3 1015.27,509.56C1009.58,511.82 1001.16,502.78 1001.16,502.78C1001.24,501.78 1001.28,500.85 1001.28,499.88C1001.34,481 987,462.13 987,462.13C961,448.02 970.06,427.69 970.06,427.69L969,418.43L966.09,393.17C970.216,391.889 974.131,390.009 977.71,387.59C983.674,383.816 989.931,380.525 996.42,377.75C998.33,376.93 999.42,376.32 999.42,376.32C999.42,376.32 1032.73,398.32 1038.42,429.39C1044.11,460.46 1066.65,485.85 1067.21,489.8C1067.77,493.75 1055.35,505.6 1037.85,510.12Z" style="fill:rgb(249,206,67);fill-rule:nonzero;"/>
        </g>
        <g transform="matrix(1,0,0,1,-124.06,-144.92)">
            <path d="M979.13,357.12L954.29,374.06C957.714,375.248 960.97,376.871 963.98,378.89C972.44,377.7 977.62,371.64 981.11,364.18C979.75,362 980.35,360.05 979.13,357.12Z" style="fill-opacity:0.1;fill-rule:nonzero;"/>
        </g>
        <circle cx="835.88" cy="208.82" r="24.84" style="fill:rgb(253,183,151);"/>
        <g transform="matrix(1,0,0,1,-124.06,-144.92)">
            <path d="M1041.8,507.3C1024.3,511.82 1022.04,506.74 1020.91,507.3C1019.78,507.86 1024.91,504.48 1019.22,506.74C1013.53,509 1005.11,499.96 1005.11,499.96C1005.19,498.96 1005.23,498.03 1005.23,497.06C1005.3,478.21 990.99,459.31 990.99,459.31C964.99,445.2 974.05,424.87 974.05,424.87L973,415.6L970.25,391.69C968.921,392.289 967.547,392.78 966.14,393.16L969,418.43L970.07,427.69C970.07,427.69 961.07,448.02 987.01,462.13C987.01,462.13 1001.32,481.03 1001.25,499.88C1001.25,500.88 1001.25,501.81 1001.13,502.78C1001.13,502.78 1009.6,511.78 1015.24,509.56C1020.88,507.34 1015.8,510.69 1016.93,510.12C1018.06,509.55 1020.32,514.64 1037.82,510.12C1045.76,508.066 1053.2,504.422 1059.69,499.41C1054.18,502.976 1048.15,505.64 1041.8,507.3Z" style="fill-opacity:0.1;fill-rule:nonzero;"/>
        </g>
        <g transform="matrix(1,0,0,1,-124.06,-144.92)">
            <path d="M994.94,409.06C994.94,409.06 980.83,414.14 972.94,422.61C972.94,422.61 934.55,437.85 923.82,436.16C913.09,434.47 912.53,431.64 910.27,427.16L885.99,383.16C885.99,383.16 875.83,346.46 885.99,350.41C896.15,354.36 898.99,376.41 898.99,376.41C898.99,376.41 918.19,414.8 930.04,414.24L962.2,398.9C962.2,398.9 969.54,388.17 972.93,388.74C976.32,389.31 994.94,409.06 994.94,409.06Z" style="fill:rgb(253,183,151);fill-rule:nonzero;"/>
        </g>
        <g transform="matrix(1,0,0,1,-124.06,-144.92)">
            <path d="M975.88,388.39C975.88,388.39 964.17,387.32 960.78,402C957.39,416.68 986.78,425.71 986.78,425.71L1002.59,403.71L975.88,388.39Z" style="fill-opacity:0.1;fill-rule:nonzero;"/>
        </g>
        <g transform="matrix(1,0,0,1,-124.06,-144.92)">
            <path d="M976.45,388.39C976.45,388.39 964.74,387.32 961.35,402C957.96,416.68 987.35,425.71 987.35,425.71L1003.16,403.71L976.45,388.39Z" style="fill:rgb(249,206,67);fill-rule:nonzero;"/>
        </g>
        <g transform="matrix(1,0,0,1,-124.06,-144.92)">
            <path d="M971.67,391C969.898,391.893 968.042,392.61 966.13,393.14L966.23,393.99C968.095,393.091 969.911,392.092 971.67,391Z" style="fill-rule:nonzero;"/>
        </g>
        <g transform="matrix(1,0,0,1,-124.06,-144.92)">
            <path d="M1067.21,489.8C1066.65,485.8 1044.06,460.44 1038.42,429.39C1032.78,398.34 999.42,376.32 999.42,376.32C999.42,376.32 998.32,376.93 996.42,377.75C991.346,379.93 986.41,382.418 981.64,385.2C984.807,383.533 988.04,381.993 991.34,380.58C993.25,379.76 994.34,379.15 994.34,379.15C994.34,379.15 1027.65,401.15 1033.34,432.22C1039.03,463.29 1061.57,488.68 1062.13,492.63C1062.49,495.12 1057.68,500.75 1049.69,505.71C1060.66,500.26 1067.64,492.78 1067.21,489.8Z" style="fill-rule:nonzero;"/>
        </g>
        <g transform="matrix(1,0,0,1,-124.06,-144.92)">
            <path d="M983.16,388.62C983.16,388.62 997.76,395.85 1000.51,409.75" style="fill:none;stroke:black;stroke-opacity:0.1;stroke-width:1px;"/>
        </g>
        <g transform="matrix(1,0,0,1,-124.06,-144.92)">
            <path d="M947.46,352.34C949.79,352.86 952.39,353.59 953.54,355.68C954.37,357.2 954.22,359.11 955.03,360.68C957.11,364.6 963.21,363.25 967.03,365.55C974.03,369.77 969.46,382.93 976.43,387.17C977.74,387.97 979.29,388.29 980.64,389.02C986.53,392.24 985.7,400.76 984.64,407.39C983.58,414.02 984.84,423.09 991.49,424.03C995.15,424.54 999.26,422.12 1002.34,424.15C1003.95,425.21 1004.68,427.15 1006.03,428.56C1007.92,430.447 1010.77,431.034 1013.25,430.05C1015.51,429.11 1017.14,426.96 1019.49,426.27C1023.27,425.16 1027.49,428.22 1031.13,426.81C1034.77,425.4 1035.6,420.14 1034.66,416.17C1033.72,412.2 1031.8,408.17 1032.8,404.17C1033.63,400.87 1036.33,398.35 1037.51,395.17C1040.97,385.78 1030.24,376.08 1032.22,366.27C1033.08,362.02 1036.28,358.27 1036.22,353.98C1036.12,348.98 1031.69,345.19 1027.08,343.35C1022.47,341.51 1017.41,340.99 1012.9,338.94C1003.01,334.44 997.6,323.56 988.56,317.52C984.511,314.878 979.947,313.126 975.17,312.38C962.706,310.374 949.962,313.838 940.23,321.88C939.34,322.6 938.43,323.28 937.51,323.94C933.65,326.73 929.51,329.48 927.16,333.62C918.58,348.56 938.29,350.27 947.46,352.34Z" style="fill-opacity:0.1;fill-rule:nonzero;"/>
        </g>
        <g transform="matrix(1,0,0,1,-124.06,-144.92)">
            <path d="M948.16,350.93C950.49,351.45 953.09,352.18 954.24,354.27C955.07,355.79 954.92,357.7 955.73,359.27C957.81,363.19 963.91,361.84 967.73,364.14C974.73,368.36 970.16,381.52 977.13,385.76C978.44,386.56 979.99,386.88 981.34,387.61C987.23,390.83 986.4,399.35 985.34,405.98C984.28,412.61 985.54,421.68 992.19,422.62C995.85,423.13 999.96,420.71 1003.04,422.74C1004.65,423.8 1005.38,425.74 1006.73,427.15C1008.62,429.037 1011.47,429.624 1013.95,428.64C1016.21,427.7 1017.84,425.55 1020.19,424.86C1023.97,423.75 1028.19,426.81 1031.83,425.4C1035.47,423.99 1036.3,418.73 1035.36,414.76C1034.42,410.79 1032.5,406.76 1033.5,402.76C1034.33,399.46 1037.03,396.94 1038.21,393.76C1041.67,384.37 1030.94,374.67 1032.92,364.86C1033.78,360.61 1036.98,356.86 1036.92,352.57C1036.82,347.57 1032.39,343.78 1027.78,341.94C1023.17,340.1 1018.11,339.58 1013.6,337.53C1003.71,333.03 998.3,322.15 989.26,316.11C985.587,313.699 981.476,312.034 977.16,311.21C964.302,308.744 950.992,312.15 940.9,320.49C940.02,321.2 939.11,321.88 938.21,322.49C934.35,325.28 930.21,328.03 927.86,332.17C919.28,347.15 939,348.87 948.16,350.93Z" style="fill:rgb(15,121,209);fill-rule:nonzero;"/>
        </g>
        <g transform="matrix(1,0,0,1,-124.06,-144.92)">
            <path d="M746.9,507.1L572.9,507.1L572.9,474.31C615.41,454.44 680.82,443.28 746.9,507.1Z" style="fill:rgb(15,121,209);fill-rule:nonzero;"/>
        </g>
        <g transform="matrix(1,0,0,1,-124.06,-144.92)">
            <path d="M881.9,502.41L881.9,507.1L664.9,507.1L664.9,506.1C664.9,506.1 771.68,402.13 881.9,502.41Z" style="fill-opacity:0.1;fill-rule:nonzero;"/>
        </g>
        <g transform="matrix(1,0,0,1,-124.06,-144.92)">
            <path d="M883.9,502.41L883.9,507.1L666.9,507.1L666.9,506.1C666.9,506.1 773.68,402.13 883.9,502.41Z" style="fill:rgb(15,121,209);fill-rule:nonzero;"/>
        </g>
        <circle cx="484.84" cy="215.18" r="16" style="fill:rgb(15,121,209);"/>
        <g transform="matrix(1.78422,0,0,1.78422,-723.673,-50.2957)">
            <circle cx="484.84" cy="215.18" r="16" style="fill:rgb(15,121,209);"/>
        </g>
        <g transform="matrix(1.78422,0,0,1.78422,-643.814,-50.2957)">
            <circle cx="484.84" cy="215.18" r="16" style="fill:rgb(15,121,209);"/>
        </g>
        <g transform="matrix(1.78422,0,0,1.78422,-558.965,-50.2957)">
            <circle cx="484.84" cy="215.18" r="16" style="fill:rgb(15,121,209);"/>
        </g>
        <g transform="matrix(1,0,0,1,-124.06,-144.92)">
            <path d="M745.12,348C743.29,348 741.25,348 739.86,348.11C739.239,348.144 738.625,348.269 738.04,348.48L728.63,351.86C736.23,352.05 744.16,351.99 751.95,351.93L795.63,351.59C800.09,351.59 804.77,351.51 808.48,351.25C810.97,351.07 812.8,350.81 815.1,350.61C823.37,349.87 835.42,350.01 846.19,350.05C856.96,350.09 869.96,349.81 873.75,348.73L850.63,348.73C848.14,348.73 845.52,348.73 843.32,348.61C840.75,348.46 839.18,348.18 836.92,347.98C833.18,347.66 828.02,347.62 823.22,347.6C796.87,347.49 770.85,348.11 745.12,348Z" style="fill:rgb(244,244,244);fill-rule:nonzero;"/>
        </g>
        <g transform="matrix(1,0,0,1,-124.06,-144.92)">
            <path d="M771,367.38C770.6,367.38 770.16,367.38 769.86,367.38C769.723,367.387 769.589,367.414 769.46,367.46L767.46,368.19C769.11,368.19 770.82,368.19 772.51,368.19L781.97,368.12C782.97,368.12 783.97,368.12 784.75,368.05C785.29,368.05 785.69,367.95 786.18,367.91C787.97,367.75 790.58,367.78 792.92,367.79C794.925,367.857 796.931,367.76 798.92,367.5L793.92,367.5C793.38,367.5 792.81,367.5 792.34,367.5C791.87,367.5 791.44,367.41 790.95,367.36C790.14,367.29 789.02,367.28 787.95,367.28C782.25,367.28 776.61,367.41 771,367.38Z" style="fill:rgb(244,244,244);fill-rule:nonzero;"/>
        </g>
        <g transform="matrix(1,0,0,1,-124.06,-144.92)">
            <path d="M704,395.38C703.6,395.38 703.16,395.38 702.86,395.38C702.723,395.387 702.589,395.414 702.46,395.46L700.46,396.19C702.11,396.19 703.82,396.19 705.51,396.19L714.97,396.12C715.97,396.12 716.97,396.12 717.75,396.05C718.29,396.05 718.69,395.95 719.18,395.91C720.97,395.75 723.58,395.78 725.92,395.79C727.925,395.857 729.931,395.76 731.92,395.5L726.92,395.5C726.38,395.5 725.81,395.5 725.34,395.5C724.87,395.5 724.44,395.41 723.95,395.36C723.14,395.29 722.02,395.28 720.95,395.28C715.25,395.28 709.61,395.41 704,395.38Z" style="fill:rgb(244,244,244);fill-rule:nonzero;"/>
        </g>
        <g transform="matrix(1,0,0,1,-124.06,-144.92)">
            <path d="M666.41,498.23L658.89,498.23C658.89,498.23 656.54,415.99 666.41,390.61L668.29,390.61C668.29,390.61 661.71,483.66 666.41,498.23Z" style="fill:rgb(15,121,209);fill-rule:nonzero;"/>
        </g>
        <g transform="matrix(1,0,0,1,-124.06,-144.92)">
            <path d="M661.24,386.38C661.24,386.38 655.13,403.3 657.95,410.82C657.95,410.82 662.18,395.31 667.11,392.96C672.04,390.61 677.21,410.82 677.21,410.82C677.21,410.82 680.03,398.13 674.86,387.82C674.86,387.82 685.2,393.46 690.37,404.27C690.37,404.27 691.31,397.27 679.09,382.65C679.09,382.65 689.9,385.47 696.95,392.05C696.95,392.05 699.3,386.88 684.73,378.42C684.73,378.42 686.61,372.31 697.89,375.13C697.89,375.13 697.89,367.13 680.03,368.55C680.03,368.55 680.03,363.38 691.78,364.32C691.78,364.32 691.78,357.74 678.15,360.09C678.15,360.09 680.97,355.86 682.85,354.92C680.5,354.703 678.151,355.374 676.27,356.8C674.389,358.226 676.74,348.34 669.69,345.05L668.75,356.8C668.75,356.8 660.85,347.49 662.64,349.28C663.11,349.75 664.52,355.39 664.05,358.21C664.05,358.21 656.05,351.63 646.19,358.68C646.19,358.68 658.41,359.62 660.29,363.85C660.29,363.85 649.95,361.97 647.6,363.38C647.6,363.38 655.6,366.2 655.12,368.08C655.12,368.08 641.02,368.08 639.12,373.25C639.12,373.25 653.69,375.13 654.63,376.54C654.63,376.54 637.71,388.76 636.77,392.05C636.77,392.05 654.16,381.71 656.98,381.71C659.8,381.71 644.29,396.71 645.23,400.51C645.27,400.48 658,385.44 661.24,386.38Z" style="fill:rgb(15,121,209);fill-rule:nonzero;"/>
        </g>
        <g transform="matrix(1,0,0,1,-124.06,-144.92)">
            <path d="M759.16,495.15L764.9,495.15C764.9,495.15 766.7,432.32 759.16,412.93L757.72,412.93C757.72,412.93 762.76,484 759.16,495.15Z" style="fill:rgb(15,121,209);fill-rule:nonzero;"/>
        </g>
        <g transform="matrix(1,0,0,1,-124.06,-144.92)">
            <path d="M763.11,409.7C763.11,409.7 767.78,422.63 765.62,428.37C765.62,428.37 762.39,416.52 758.62,414.73C754.85,412.94 750.9,428.37 750.9,428.37C750.9,428.37 748.75,418.68 752.7,410.78C747.646,413.771 743.538,418.129 740.85,423.35C738.162,428.571 740.13,417.96 749.47,406.83C749.47,406.83 741.21,408.98 735.83,414.01C735.83,414.01 734.03,410.06 745.17,403.6C745.17,403.6 743.73,398.93 735.12,401.09C735.12,401.09 735.12,394.99 748.76,396.09C748.76,396.09 748.76,392.14 739.76,392.86C739.76,392.86 739.76,387.86 750.17,389.63C750.17,389.63 748.02,386.4 746.58,385.68C748.367,385.522 750.151,386.036 751.58,387.12C753.009,388.204 751.22,380.66 756.58,378.12L757.3,387.12C757.3,387.12 763.3,380.01 761.97,381.38C761.11,383.545 760.741,385.875 760.89,388.2C761.039,390.525 766.99,383.2 774.53,388.56C774.53,388.56 765.19,389.28 763.76,392.51C763.76,392.51 771.66,391.07 773.45,392.15C773.45,392.15 767.35,394.3 767.71,395.74C767.71,395.74 778.48,395.74 779.92,399.69C779.92,399.69 768.79,401.13 768.07,402.2C768.07,402.2 781,411.54 781.71,414.05C781.71,414.05 768.43,406.15 766.27,406.15C764.11,406.15 775.96,417.64 775.27,420.51C775.32,420.47 765.63,409 763.11,409.7Z" style="fill:rgb(15,121,209);fill-rule:nonzero;"/>
        </g>
        <g transform="matrix(1,0,0,1,-124.06,-144.92)">
            <path d="M827.89,482.87L831.45,482.87C831.45,482.87 832.56,443.96 827.89,431.95L827,431.95C827,431.95 830.11,476 827.89,482.87Z" style="fill:rgb(15,121,209);fill-rule:nonzero;"/>
        </g>
        <g transform="matrix(1,0,0,1,-124.06,-144.92)">
            <path d="M830.34,429.95C830.34,429.95 833.23,437.95 831.9,441.51C831.9,441.51 829.9,434.17 827.56,433.06C825.22,431.95 822.78,441.51 822.78,441.51C822.78,441.51 821.45,435.51 823.89,430.61C820.761,432.461 818.216,435.158 816.55,438.39C814.884,441.622 816.11,435.05 821.89,428.16C818.788,429.023 815.907,430.541 813.44,432.61C810.973,434.679 812.33,430.16 819.22,426.16C819.22,426.16 818.33,423.27 812.99,424.6C812.99,424.6 812.99,420.82 821.44,421.49C821.44,421.49 821.44,419.04 815.88,419.49C815.88,419.49 815.88,416.38 822.33,417.49C821.735,416.553 820.984,415.725 820.11,415.04C821.221,414.938 822.331,415.256 823.22,415.93C824.109,416.604 823,411.93 826.33,410.37L826.77,415.93C826.77,415.93 830.51,411.53 829.66,412.37C829.127,413.71 828.899,415.151 828.99,416.59C831.523,414.744 835.007,414.835 837.44,416.81C839.873,418.785 831.66,417.25 830.77,419.26C830.77,419.26 835.66,418.37 836.77,419.04C836.77,419.04 832.99,420.37 833.21,421.26C833.21,421.26 839.88,421.26 840.77,423.71C840.77,423.71 833.88,424.6 833.43,425.27C833.43,425.27 841.43,431.05 841.88,432.61C841.88,432.61 833.65,427.72 832.32,427.72C830.99,427.72 838.32,434.84 837.88,436.61C837.9,436.62 831.89,429.5 830.34,429.95Z" style="fill:rgb(15,121,209);fill-rule:nonzero;"/>
        </g>
        <g transform="matrix(1,0,0,1,-124.06,-144.92)">
            <path d="M697.89,438.87L697.14,434.87C697.138,434.276 696.892,433.708 696.46,433.3L692.99,431.6C692.734,431.3 692.525,430.963 692.37,430.6L692.43,430.51C692.621,430.273 692.758,429.996 692.83,429.7C692.836,429.623 692.836,429.547 692.83,429.47L692.88,429.47C693.54,429.558 694.166,429.121 694.31,428.47L694.31,428.38C694.184,428.933 693.706,429.341 693.14,429.38C694.12,428.724 694.71,427.619 694.71,426.44C694.71,425.261 694.71,426.34 694.71,426.29C695.02,426.1 695.234,425.787 695.3,425.43L695.3,425.34C695.214,425.679 694.994,425.968 694.69,426.14C694.666,425.798 694.592,425.461 694.47,425.14L694.56,425.14C695.268,425.14 695.85,424.558 695.85,423.85C695.85,423.142 695.85,423.79 695.85,423.76C695.803,424.43 695.241,424.956 694.57,424.96L694.41,424.96L694.41,424.9C695.192,424.665 695.77,423.997 695.89,423.19C696.01,422.383 695.89,423.13 695.89,423.1C695.873,423.35 695.782,423.591 695.63,423.79C695.631,423.767 695.632,423.744 695.632,423.722C695.632,423.014 695.049,422.432 694.342,422.432C693.751,422.432 693.233,422.837 693.09,423.41L692.86,423.28C693.007,422.753 693.474,422.375 694.02,422.34L693.93,422.34C693.377,422.336 692.88,422.687 692.7,423.21C691.109,422.47 689.196,423.019 688.24,424.49C687.97,424.69 687.62,424.98 687.63,425.23C687.514,425.346 687.41,425.473 687.32,425.61C686.939,426.445 686.801,427.37 686.92,428.28C687.032,429.197 686.688,430.113 686,430.73C686.301,430.856 686.639,430.856 686.94,430.73C687.237,430.604 687.516,430.44 687.77,430.24C688.007,430.096 688.208,429.902 688.36,429.67L688.36,429.62C688.527,429.731 688.704,429.825 688.89,429.9C688.96,430.5 688.98,431.19 688.71,431.42L688.76,431.31C688.116,431.795 687.313,432.023 686.51,431.95C685.525,432.006 684.638,432.576 684.18,433.45L683.09,438L683.09,438.16C683.124,438.285 683.224,438.381 683.35,438.41L683.69,438.5C683.741,439.277 683.664,440.058 683.46,440.81C683.232,441.93 683.101,443.068 683.07,444.21C683.15,444.78 683.29,447.75 683.36,449.16C683.239,449.641 683.142,450.129 683.07,450.62L681.46,460.28C681.46,460.28 680.26,468.01 680.32,470.35L680.11,471.7C680.11,471.7 676.84,475.8 677.8,476.38C678.76,476.96 680.24,477.21 681.65,475.03C681.841,474.516 682.149,474.054 682.55,473.68C682.875,473.399 683.043,472.977 683,472.55L682.9,471.55L683.07,471.61L683.17,471.61C683.17,471.61 684.78,466.32 684.6,462.61C684.6,462.61 687.6,451.99 689.85,450.32L689.85,450.25L690.06,450.15L690.54,460.44L690.05,471.78L689.94,472.46C689.94,472.46 686.67,476.56 687.63,477.14C688.59,477.72 690.07,477.97 691.48,475.79C691.671,475.276 691.979,474.814 692.38,474.44C692.705,474.159 692.873,473.737 692.83,473.31L692.68,471.81C693.24,469.9 694.68,464.4 694.09,461.21L695.09,454.43C696.09,453.3 695.96,450.43 695.96,450.43C696.75,448.78 696.96,442.31 696.96,442.31L697.16,439.11C697.31,439.097 697.46,439.097 697.61,439.11L697.77,439.11L697.77,439.05C697.799,439.025 697.823,438.994 697.84,438.96L697.9,438.96L697.9,438.88L697.89,438.87ZM695.09,445.37C695,445.15 694.9,444.93 694.79,444.71L694.71,444.71L694.71,444.63C694.707,444.603 694.707,444.577 694.71,444.55L694.71,444.47C694.757,444.363 694.797,444.252 694.83,444.14C694.959,443.933 695.025,443.694 695.02,443.45C695.138,444.083 695.161,444.73 695.09,445.37ZM694.79,442.63L694.59,440.49L694.65,440.32L694.92,443.04L694.79,442.63ZM685.31,442.92C685.171,443.079 685.106,443.29 685.13,443.5C685.154,443.71 685.13,443.5 685.13,443.57C685.131,443.786 685.162,444.002 685.22,444.21L684.91,445.55L684.91,442.99C685.115,442.72 685.296,442.432 685.45,442.13C685.481,442.401 685.433,442.676 685.31,442.92Z" style="fill:url(#_Linear4);fill-rule:nonzero;"/>
        </g>
        <g transform="matrix(1,0,0,1,-124.06,-144.92)">
            <path d="M687.33,426.4C686.962,427.203 686.827,428.094 686.94,428.97C687.046,429.854 686.713,430.736 686.05,431.33C686.341,431.452 686.669,431.452 686.96,431.33C687.246,431.21 687.515,431.052 687.76,430.86C687.989,430.722 688.183,430.534 688.33,430.31C688.468,429.964 688.513,429.588 688.46,429.22C688.461,428.566 688.518,427.914 688.63,427.27C688.69,426.87 689.07,425.78 688.63,425.57C688.19,425.36 687.52,426.1 687.33,426.4Z" style="fill:rgb(114,53,28);fill-rule:nonzero;"/>
        </g>
        <g transform="matrix(1,0,0,1,-124.06,-144.92)">
            <path d="M680.72,468.91L680.41,470.91C680.41,470.91 677.26,474.91 678.19,475.42C679.12,475.93 680.54,476.22 681.9,474.12C682.082,473.626 682.377,473.181 682.76,472.82C683.072,472.549 683.233,472.141 683.19,471.73L682.88,468.68L680.72,468.91Z" style="fill:rgb(51,51,51);fill-rule:nonzero;"/>
        </g>
        <g transform="matrix(1,0,0,1,-124.06,-144.92)">
            <path d="M690.2,469.7L689.89,471.7C689.89,471.7 686.74,475.7 687.67,476.21C688.6,476.72 690.02,477.01 691.38,474.91C691.562,474.416 691.857,473.971 692.24,473.61C692.552,473.339 692.713,472.931 692.67,472.52L692.36,469.47L690.2,469.7Z" style="fill:rgb(51,51,51);fill-rule:nonzero;"/>
        </g>
        <g transform="matrix(1,0,0,1,-124.06,-144.92)">
            <path d="M685.29,445.79C685.29,445.79 683.81,446.86 683.29,450.58L681.74,459.89C681.74,459.89 680.43,468.33 680.67,469.95L683.29,470.85C683.29,470.85 684.84,465.75 684.67,462.2C684.67,462.2 687.82,450.98 690.03,450.2L690.5,460.11L690,471.26L692.24,471.71C692.24,471.71 694.51,464.61 693.79,460.85L694.96,452.85C694.96,452.85 696.3,448.58 694.44,444.85L685.29,445.79Z" style="fill:rgb(77,138,240);fill-rule:nonzero;"/>
        </g>
        <g transform="matrix(1,0,0,1,-124.06,-144.92)">
            <path d="M689.8,450.35L689.8,450.18C687.59,450.97 684.44,462.18 684.44,462.18C684.386,465.082 683.932,467.962 683.09,470.74L683.37,470.84C683.37,470.84 684.92,465.74 684.75,462.19C684.74,462.2 687.62,452 689.8,450.35Z" style="fill-rule:nonzero;"/>
        </g>
        <g transform="matrix(1,0,0,1,-124.06,-144.92)">
            <path d="M694.53,444.9L694.23,444.9C695.305,447.406 695.482,450.209 694.73,452.83L693.56,460.83C694.25,464.39 692.24,470.94 692.03,471.63L692.32,471.69C692.32,471.69 694.59,464.59 693.87,460.83L695.04,452.83C695.04,452.83 696.39,448.58 694.53,444.9Z" style="fill-rule:nonzero;"/>
        </g>
        <g transform="matrix(1,0,0,1,-124.06,-144.92)">
            <path d="M683.28,438.5C683.276,438.657 683.386,438.797 683.54,438.83C684.271,439.014 684.954,439.355 685.54,439.83C686.64,440.69 684.37,438.11 684.37,438.11L683.61,438.28L683.3,438.56L683.28,438.5Z" style="fill:rgb(245,95,68);fill-rule:nonzero;"/>
        </g>
        <g transform="matrix(1,0,0,1,-124.06,-144.92)">
            <path d="M683.28,438.5C683.276,438.657 683.386,438.797 683.54,438.83C684.271,439.014 684.954,439.355 685.54,439.83C686.64,440.69 684.37,438.11 684.37,438.11L683.61,438.28L683.3,438.56L683.28,438.5Z" style="fill-opacity:0.1;fill-rule:nonzero;"/>
        </g>
        <g transform="matrix(1,0,0,1,-124.06,-144.92)">
            <path d="M694.1,440.78C695.025,440.123 696.096,439.701 697.22,439.55C697.379,439.55 697.51,439.419 697.51,439.26C697.51,439.101 694.89,438.23 694.1,440.78Z" style="fill:rgb(245,95,68);fill-rule:nonzero;"/>
        </g>
        <g transform="matrix(1,0,0,1,-124.06,-144.92)">
            <path d="M697.51,439.25C697.51,439.25 694.89,438.25 694.1,440.77C694.1,440.77 696.03,439.29 697.37,439.53" style="fill-opacity:0.1;fill-rule:nonzero;"/>
        </g>
        <circle cx="567" cy="282.28" r="3.41" style="fill:rgb(114,53,28);"/>
        <g transform="matrix(1,0,0,1,-124.06,-144.92)">
            <path d="M688.71,429.59C688.71,429.59 689.19,431.59 688.71,432C688.23,432.41 687.26,433.17 687.99,433.76C688.72,434.35 691.33,435.35 692.2,434.86C693.07,434.37 694.06,434.52 693.82,433.52C693.58,432.52 691.68,432.73 691.65,427.76L688.71,429.59Z" style="fill:rgb(253,183,151);fill-rule:nonzero;"/>
        </g>
        <g transform="matrix(1,0,0,1,-124.06,-144.92)">
            <path d="M683.88,437.9C683.951,438.985 683.881,440.074 683.67,441.14C683.449,442.217 683.322,443.311 683.29,444.41C683.39,445.13 683.6,449.89 683.6,449.89C683.6,449.89 683.22,454.06 685.25,453.68C687.28,453.3 684.94,448.92 684.94,448.92L685.04,443.23C685.591,442.482 685.935,441.603 686.04,440.68C686.19,439.31 683.88,437.9 683.88,437.9Z" style="fill-opacity:0.1;fill-rule:nonzero;"/>
        </g>
        <g transform="matrix(1,0,0,1,-124.06,-144.92)">
            <path d="M683.85,437.9C683.921,438.985 683.851,440.074 683.64,441.14C683.419,442.217 683.292,443.311 683.26,444.41C683.36,445.13 683.57,449.89 683.57,449.89C683.57,449.89 683.19,454.06 685.22,453.68C687.25,453.3 684.91,448.92 684.91,448.92L685.01,443.23C685.561,442.482 685.905,441.603 686.01,440.68C686.15,439.31 683.85,437.9 683.85,437.9Z" style="fill:rgb(253,183,151);fill-rule:nonzero;"/>
        </g>
        <g transform="matrix(1,0,0,1,-124.06,-144.92)">
            <path d="M696.84,438.21L696.56,442.66C696.56,442.66 696.39,448.9 695.63,450.48C695.63,450.48 695.84,454.86 693.8,454.75C691.76,454.64 694.14,449.96 694.14,449.96C694.14,449.96 695.23,445.09 694.67,443.55L694.14,438.21L696.84,438.21Z" style="fill-opacity:0.1;fill-rule:nonzero;"/>
        </g>
        <g transform="matrix(1,0,0,1,-124.06,-144.92)">
            <path d="M696.87,438.21L696.59,442.66C696.59,442.66 696.42,448.9 695.66,450.48C695.66,450.48 695.87,454.86 693.83,454.75C691.79,454.64 694.17,449.96 694.17,449.96C694.17,449.96 695.26,445.09 694.7,443.55L694.17,438.21L696.87,438.21Z" style="fill:rgb(253,183,151);fill-rule:nonzero;"/>
        </g>
        <g transform="matrix(1,0,0,1,-124.06,-144.92)">
            <path d="M690.26,433.9C690.26,433.9 691.91,434.66 692.81,432.4L696.16,434.04C696.576,434.436 696.811,434.986 696.81,435.56L697.53,439.42C697.53,439.42 695.08,438.59 694.32,440.87L694.53,443.04C694.688,443.576 694.649,444.151 694.42,444.66C694.379,444.752 694.379,444.858 694.42,444.95C694.453,445.054 694.469,445.161 694.469,445.27C694.469,445.848 693.997,446.324 693.42,446.33C692.52,446.34 691.621,446.411 690.73,446.54C690.01,446.75 687.83,446.13 687.11,446.54C686.39,446.95 684.87,446.23 684.87,446.23L685.28,444.47C685.28,444.47 685,443.61 685.35,443.3C685.7,442.99 685.49,440.3 685.18,439.54C685.18,439.54 683.94,438.37 683.18,438.54L684.18,434.09C684.618,433.247 685.471,432.695 686.42,432.64C687.195,432.709 687.969,432.488 688.59,432.02C689.211,431.552 687.84,433.66 690.26,433.9Z" style="fill-opacity:0.1;fill-rule:nonzero;"/>
        </g>
        <g transform="matrix(1,0,0,1,-124.06,-144.92)">
            <path d="M690.43,433.82C690.88,433.94 692.08,434.07 692.8,432.26L696.15,433.9C696.566,434.296 696.801,434.846 696.8,435.42L697.52,439.28C697.52,439.28 695.07,438.45 694.31,440.73L694.52,442.9L694.66,443.33C694.782,443.703 694.719,444.112 694.49,444.43C694.394,444.54 694.367,444.694 694.42,444.83C694.453,444.934 694.469,445.041 694.469,445.15C694.469,445.728 693.997,446.204 693.42,446.21C692.52,446.22 691.621,446.291 690.73,446.42C690.01,446.63 687.83,446.01 687.11,446.42C686.39,446.83 684.87,446.11 684.87,446.11L685.28,444.35C685.28,444.35 685,443.49 685.35,443.18C685.7,442.87 685.49,440.18 685.18,439.42C685.18,439.42 683.94,438.25 683.18,438.42L684.18,433.97C684.618,433.127 685.471,432.575 686.42,432.52C687.195,432.589 687.969,432.368 688.59,431.9C689.211,431.432 687.78,433.38 689.91,433.7L690.43,433.82Z" style="fill-opacity:0.1;fill-rule:nonzero;"/>
        </g>
        <g transform="matrix(1,0,0,1,-124.06,-144.92)">
            <path d="M690.43,433.89C690.88,434.01 692.08,434.14 692.8,432.33L696.15,433.97C696.566,434.366 696.801,434.916 696.8,435.49L697.52,439.35C697.52,439.35 695.07,438.52 694.31,440.8L694.52,442.97C694.678,443.506 694.639,444.081 694.41,444.59C694.369,444.682 694.369,444.788 694.41,444.88C694.443,444.984 694.459,445.091 694.459,445.2C694.459,445.778 693.987,446.254 693.41,446.26C692.51,446.27 691.611,446.341 690.72,446.47C690,446.68 687.82,446.06 687.1,446.47C686.38,446.88 684.86,446.16 684.86,446.16L685.27,444.4C685.27,444.4 684.99,443.54 685.34,443.23C685.69,442.92 685.48,440.23 685.17,439.47C685.17,439.47 683.93,438.3 683.17,438.47L684.17,434.02C684.608,433.177 685.461,432.625 686.41,432.57C687.185,432.639 687.959,432.418 688.58,431.95C689.201,431.482 687.77,433.43 689.9,433.75L690.43,433.89Z" style="fill:rgb(245,95,68);fill-rule:nonzero;"/>
        </g>
        <g transform="matrix(1,0,0,1,-124.06,-144.92)">
            <path d="M691.7,427.94L688.77,429.77C688.844,430.1 688.901,430.434 688.94,430.77C689.274,430.903 689.63,430.971 689.99,430.97C690.706,430.92 691.38,430.615 691.89,430.11C691.757,429.394 691.694,428.668 691.7,427.94Z" style="fill-opacity:0.1;fill-rule:nonzero;"/>
        </g>
        <circle cx="565.87" cy="283" r="2.83" style="fill:rgb(253,183,151);"/>
        <circle cx="570.04" cy="279.59" r="1.24" style="fill:rgb(114,53,28);"/>
        <g transform="matrix(1,0,0,1,-124.06,-144.92)">
            <path d="M694.34,425.82C693.692,425.822 693.147,425.316 693.1,424.67C693.053,424.024 693.1,424.73 693.1,424.76C693.1,425.44 693.66,426 694.34,426C695.02,426 695.58,425.44 695.58,424.76C695.58,424.08 695.58,424.7 695.58,424.67C695.533,425.316 694.988,425.822 694.34,425.82Z" style="fill:rgb(114,53,28);fill-rule:nonzero;"/>
        </g>
        <g transform="matrix(1,0,0,1,-124.06,-144.92)">
            <path d="M693.63,427C692.995,426.879 692.556,426.282 692.63,425.64L692.63,425.72C692.616,425.794 692.609,425.87 692.609,425.945C692.609,426.626 693.169,427.186 693.85,427.186C694.446,427.186 694.962,426.756 695.07,426.17L695.07,426.08C694.913,426.717 694.275,427.125 693.63,427Z" style="fill:rgb(114,53,28);fill-rule:nonzero;"/>
        </g>
        <g transform="matrix(1,0,0,1,-124.06,-144.92)">
            <path d="M692.67,430C692.035,429.879 691.596,429.282 691.67,428.64L691.67,428.72C691.656,428.794 691.649,428.87 691.649,428.945C691.649,429.626 692.209,430.186 692.89,430.186C693.486,430.186 694.002,429.756 694.11,429.17L694.11,429.08C693.953,429.717 693.315,430.125 692.67,430Z" style="fill:rgb(114,53,28);fill-rule:nonzero;"/>
        </g>
        <g transform="matrix(1,0,0,1,-124.06,-144.92)">
            <path d="M694.34,425.16C693.689,425.161 693.142,424.65 693.1,424C693.058,423.35 693.1,424.06 693.1,424.09C693.1,424.77 693.66,425.33 694.34,425.33C695.02,425.33 695.58,424.77 695.58,424.09C695.58,423.41 695.58,424.03 695.58,424C695.538,424.65 694.991,425.161 694.34,425.16Z" style="fill:rgb(114,53,28);fill-rule:nonzero;"/>
        </g>
        <g transform="matrix(1,0,0,1,-124.06,-144.92)">
            <path d="M692.61,424.49C692.614,423.839 693.13,423.297 693.78,423.26L693.69,423.26C693.01,423.26 692.45,423.82 692.45,424.5C692.45,425.18 693.01,425.74 693.69,425.74L693.78,425.74C693.123,425.703 692.604,425.148 692.61,424.49Z" style="fill:rgb(114,53,28);fill-rule:nonzero;"/>
        </g>
        <g transform="matrix(1,0,0,1,-124.06,-144.92)">
            <path d="M693.86,436.19C693.99,436.803 693.99,437.437 693.86,438.05C693.73,438.663 693.69,439.67 693.96,439.95" style="fill-opacity:0.1;fill-rule:nonzero;"/>
        </g>
        <g transform="matrix(1,0,0,1,-124.06,-144.92)">
            <path d="M685.48,436.57C685.61,437.183 685.61,437.817 685.48,438.43C685.35,439.043 685.31,440.05 685.58,440.33" style="fill-opacity:0.1;fill-rule:nonzero;"/>
        </g>
        <g transform="matrix(1,0,0,1,-124.06,-144.92)">
            <path d="M685.41,443.22C685.678,443.316 685.972,443.316 686.24,443.22C686.566,443.121 686.914,443.121 687.24,443.22" style="fill-opacity:0.1;fill-rule:nonzero;"/>
        </g>
        <g transform="matrix(1,0,0,1,-124.06,-144.92)">
            <path d="M685.83,440.78C686.804,440.827 687.777,440.673 688.69,440.33C689.603,439.987 692.21,441.19 693.21,440.57" style="fill-opacity:0.1;fill-rule:nonzero;"/>
        </g>
        <path d="M561.38,311.39C561.38,311.02 561.08,310.72 560.71,310.72L559.88,310.72C559.51,310.72 559.21,311.02 559.21,311.39C559.21,311.76 559.51,312.06 559.88,312.06L560.71,312.06C561.08,312.06 561.38,311.76 561.38,311.39Z" style="fill:rgb(253,183,151);"/>
        <g transform="matrix(1,0,0,1,-124.06,-144.92)">
            <path d="M683.28,456L684.44,455.95L685.44,456.11L685.09,456.11L683.28,456Z" style="fill:rgb(240,228,228);fill-rule:nonzero;"/>
        </g>
        <g transform="matrix(1,0,0,1,-124.06,-144.92)">
            <path d="M691.1,450.39L692.26,450.39L693.26,450.49L692.91,450.49L691.1,450.39Z" style="fill:rgb(240,228,228);fill-rule:nonzero;"/>
        </g>
        <g transform="matrix(1,0,0,1,-124.06,-144.92)">
            <path d="M691.1,450.63L692.26,450.63L693.26,450.73L692.91,450.73L691.1,450.63Z" style="fill:rgb(240,228,228);fill-rule:nonzero;"/>
        </g>
        <g transform="matrix(1,0,0,1,-124.06,-144.92)">
            <path d="M691.1,450.88L692.26,450.88L693.26,450.98L692.91,450.98L691.1,450.88Z" style="fill:rgb(240,228,228);fill-rule:nonzero;"/>
        </g>
        <g transform="matrix(1,0,0,1,-124.06,-144.92)">
            <path d="M691.1,451.12L692.26,451.12L693.26,451.22L692.91,451.22L691.1,451.12Z" style="fill:rgb(240,228,228);fill-rule:nonzero;"/>
        </g>
        <g transform="matrix(1,0,0,1,-124.06,-144.92)">
            <path d="M683.28,456.93L684.44,456.93L685.44,457.05L685.09,457.05L683.28,456.93Z" style="fill:rgb(240,228,228);fill-rule:nonzero;"/>
        </g>
        <g transform="matrix(1,0,0,1,-124.06,-144.92)">
            <path d="M683.28,456.81L684.44,456.81L685.44,456.93L685.09,456.93L683.28,456.81Z" style="fill:rgb(240,228,228);fill-rule:nonzero;"/>
        </g>
        <g transform="matrix(1,0,0,1,-124.06,-144.92)">
            <path d="M683.28,456.69L684.44,456.69L685.44,456.81L685.09,456.81L683.28,456.69Z" style="fill:rgb(240,228,228);fill-rule:nonzero;"/>
        </g>
        <g transform="matrix(1,0,0,1,-124.06,-144.92)">
            <path d="M683.28,456.57L684.44,456.57L685.44,456.69L685.09,456.69L683.28,456.57Z" style="fill:rgb(240,228,228);fill-rule:nonzero;"/>
        </g>
        <g transform="matrix(1,0,0,1,-124.06,-144.92)">
            <path d="M683.28,455.82L684.44,455.77L685.44,455.93L685.09,455.93L683.28,455.82Z" style="fill:rgb(240,228,228);fill-rule:nonzero;"/>
        </g>
        <g transform="matrix(1,0,0,1,-124.06,-144.92)">
            <path d="M683.28,455.61L684.44,455.56L685.44,455.72L685.09,455.72L683.28,455.61Z" style="fill:rgb(240,228,228);fill-rule:nonzero;"/>
        </g>
        <g transform="matrix(1,0,0,1,-124.06,-144.92)">
            <path d="M690.41,426.11C690.299,427.167 690.436,428.235 690.81,429.23C691.185,430.206 691.13,431.296 690.66,432.23C690.971,432.302 691.299,432.22 691.54,432.01C691.789,431.792 692.004,431.54 692.18,431.26C692.366,431.032 692.499,430.766 692.57,430.48C692.6,430.031 692.532,429.58 692.37,429.16C692.176,428.394 692.036,427.615 691.95,426.83C691.89,426.35 691.95,424.97 691.41,424.83C690.87,424.69 690.51,425.71 690.41,426.11Z" style="fill-opacity:0.1;fill-rule:nonzero;"/>
        </g>
        <g transform="matrix(1,0,0,1,-124.06,-144.92)">
            <path d="M690.48,426.08C690.369,427.137 690.506,428.205 690.88,429.2C691.255,430.176 691.2,431.266 690.73,432.2C691.041,432.272 691.369,432.19 691.61,431.98C691.859,431.762 692.074,431.51 692.25,431.23C692.436,431.002 692.569,430.736 692.64,430.45C692.67,430.001 692.602,429.55 692.44,429.13C692.246,428.364 692.106,427.585 692.02,426.8C691.96,426.32 692.02,424.94 691.48,424.8C690.94,424.66 690.58,425.67 690.48,426.08Z" style="fill:rgb(114,53,28);fill-rule:nonzero;"/>
        </g>
        <g transform="matrix(1,0,0,1,-124.06,-144.92)">
            <path d="M689.26,426.82C689.5,427.07 689.55,427.44 689.75,427.72C690.11,428.106 690.624,428.311 691.15,428.28C691.292,428.272 691.434,428.304 691.56,428.37C691.78,428.51 691.79,428.83 691.93,429.05C692.081,429.212 692.293,429.304 692.515,429.304C692.737,429.304 692.949,429.212 693.1,429.05C693.389,428.705 693.548,428.27 693.55,427.82C693.598,427.325 693.598,426.825 693.55,426.33C693.537,425.763 693.312,425.22 692.92,424.81C692.592,424.567 692.212,424.403 691.81,424.33C691.262,424.136 690.671,424.091 690.1,424.2C689.823,424.292 689.56,424.424 689.32,424.59C688.98,424.81 688.647,425.033 688.32,425.26C687.95,425.52 687.25,426.04 687.93,426.32C688.36,426.52 688.9,426.43 689.26,426.82Z" style="fill-opacity:0.1;fill-rule:nonzero;"/>
        </g>
        <g transform="matrix(1,0,0,1,-124.06,-144.92)">
            <path d="M689.33,426.78C689.57,427.03 689.62,427.4 689.82,427.68C690.18,428.066 690.694,428.271 691.22,428.24C691.362,428.232 691.504,428.264 691.63,428.33C691.85,428.47 691.86,428.79 692,429.01C692.151,429.172 692.363,429.264 692.585,429.264C692.807,429.264 693.019,429.172 693.17,429.01C693.459,428.665 693.618,428.23 693.62,427.78C693.668,427.285 693.668,426.785 693.62,426.29C693.607,425.723 693.382,425.18 692.99,424.77C692.662,424.527 692.282,424.363 691.88,424.29C691.332,424.096 690.741,424.051 690.17,424.16C689.893,424.252 689.63,424.384 689.39,424.55C689.05,424.77 688.717,424.993 688.39,425.22C688.02,425.48 687.32,426 688,426.28C688.43,426.48 689,426.4 689.33,426.78Z" style="fill:rgb(114,53,28);fill-rule:nonzero;"/>
        </g>
        <g transform="matrix(1,0,0,1,-124.06,-144.92)">
            <path d="M691.17,450.39L692.33,450.39L693.33,450.49L693,450.49L691.17,450.39Z" style="fill:rgb(240,228,228);fill-rule:nonzero;"/>
        </g>
        <g transform="matrix(1,0,0,1,-124.06,-144.92)">
            <path d="M691.17,450.63L692.33,450.63L693.33,450.73L693,450.73L691.17,450.63Z" style="fill:rgb(240,228,228);fill-rule:nonzero;"/>
        </g>
        <g transform="matrix(1,0,0,1,-124.06,-144.92)">
            <path d="M691.17,450.88L692.33,450.88L693.33,450.98L693,450.98L691.17,450.88Z" style="fill:rgb(240,228,228);fill-rule:nonzero;"/>
        </g>
        <g transform="matrix(1,0,0,1,-124.06,-144.92)">
            <path d="M691.17,451.12L692.33,451.12L693.33,451.22L693,451.22L691.17,451.12Z" style="fill:rgb(240,228,228);fill-rule:nonzero;"/>
        </g>
        <g transform="matrix(1,0,0,1,-124.06,-144.92)">
            <path d="M690.67,464.39L691.83,464.39L692.83,464.49L692.48,464.49L690.67,464.39Z" style="fill:rgb(240,228,228);fill-rule:nonzero;"/>
        </g>
        <g transform="matrix(1,0,0,1,-124.06,-144.92)">
            <path d="M690.67,464.64L691.83,464.64L692.83,464.74L692.48,464.74L690.67,464.64Z" style="fill:rgb(240,228,228);fill-rule:nonzero;"/>
        </g>
        <g transform="matrix(1,0,0,1,-124.06,-144.92)">
            <path d="M690.67,464.88L691.83,464.88L692.83,464.98L692.48,464.98L690.67,464.88Z" style="fill:rgb(240,228,228);fill-rule:nonzero;"/>
        </g>
        <g transform="matrix(1,0,0,1,-124.06,-144.92)">
            <path d="M690.67,465.12L691.83,465.12L692.83,465.22L692.48,465.22L690.67,465.12Z" style="fill:rgb(240,228,228);fill-rule:nonzero;"/>
        </g>
        <rect x="114.684" y="34.53" width="645.156" height="47.824" style="fill:rgb(15,121,209);fill-opacity:0.729412;"/>
    </g>
    <defs>
        <linearGradient id="_Linear1" x1="0" y1="0" x2="1" y2="0" gradientUnits="userSpaceOnUse" gradientTransform="matrix(1.40675e-14,-229.74,229.74,1.40675e-14,572.9,755.08)"><stop offset="0" style="stop-color:rgb(128,128,128);stop-opacity:0.123529"/><stop offset="0.54" style="stop-color:rgb(128,128,128);stop-opacity:0.0588235"/><stop offset="1" style="stop-color:rgb(128,128,128);stop-opacity:0.0490196"/></linearGradient>
        <linearGradient id="_Linear2" x1="0" y1="0" x2="1" y2="0" gradientUnits="userSpaceOnUse" gradientTransform="matrix(3.03223e-14,-495.2,495.2,3.03223e-14,438.37,495.2)"><stop offset="0" style="stop-color:rgb(128,128,128);stop-opacity:0.247059"/><stop offset="0.54" style="stop-color:rgb(128,128,128);stop-opacity:0.117647"/><stop offset="1" style="stop-color:rgb(128,128,128);stop-opacity:0.0980392"/></linearGradient>
        <linearGradient id="_Linear3" x1="0" y1="0" x2="1" y2="0" gradientUnits="userSpaceOnUse" gradientTransform="matrix(2.47299e-14,-403.87,403.87,2.47299e-14,976.2,709.03)"><stop offset="0" style="stop-color:rgb(128,128,128);stop-opacity:0.123529"/><stop offset="0.54" style="stop-color:rgb(128,128,128);stop-opacity:0.0588235"/><stop offset="1" style="stop-color:rgb(128,128,128);stop-opacity:0.0490196"/></linearGradient>
        <linearGradient id="_Linear4" x1="0" y1="0" x2="1" y2="0" gradientUnits="userSpaceOnUse" gradientTransform="matrix(3.3886e-15,-55.34,55.34,3.3886e-15,687.77,477.59)"><stop offset="0" style="stop-color:rgb(128,128,128);stop-opacity:0.247059"/><stop offset="0.54" style="stop-color:rgb(128,128,128);stop-opacity:0.117647"/><stop offset="1" style="stop-color:rgb(128,128,128);stop-opacity:0.0980392"/></linearGradient>
    </defs>
</svg>
