<svg width="37" height="30" viewBox="0 0 37 30" fill="none" xmlns="http://www.w3.org/2000/svg">
<path d="M37 4.23969C34.6725 4.34406 34.7233 4.33555 34.4603 4.35697L35.8387 0.52686C35.8387 0.52686 31.536 2.06687 30.4453 2.34235C27.5806 -0.162807 23.3226 -0.273494 20.2784 1.54694C17.7855 3.03806 16.4475 5.5987 16.8938 8.59165C12.0421 7.93659 7.9543 5.69895 4.72691 1.92679L3.70615 0.733952L2.94341 2.09681C1.9794 3.81891 1.65929 5.78794 2.04179 7.64106C2.19874 8.40131 2.4655 9.12641 2.83501 9.80536L1.95936 9.47522L1.85548 10.8988C1.75018 12.3449 2.24503 14.0329 3.1794 15.4139C3.4425 15.8028 3.78124 16.2299 4.2106 16.6512L3.75809 16.5837L4.31025 18.2148C5.03601 20.358 6.54343 22.0161 8.49968 22.9379C6.54597 23.7445 4.9677 24.2592 2.37347 25.0895L0 25.8487L2.19225 27.0149C3.0281 27.4596 5.98167 28.9446 8.89996 29.3901C15.3869 30.38 22.6906 29.5739 27.6074 25.2653C31.7489 21.6363 33.1078 16.4741 32.8255 11.102C32.7829 10.2888 33.0118 9.51258 33.4703 8.91684C34.3886 7.724 36.9944 4.24765 37 4.23969ZM31.7367 7.65342C30.9754 8.64246 30.594 9.90561 30.6624 11.2097C30.9472 16.6284 29.4319 20.8307 26.1582 23.6992C22.334 27.0503 16.1658 28.3657 9.2356 27.308C7.98055 27.1165 6.68344 26.6878 5.6099 26.2596C7.78493 25.5315 9.46454 24.8824 12.177 23.6333L15.9636 21.8895L11.783 21.6291C9.78042 21.5044 8.11294 20.5602 7.08796 19.027C7.63221 18.9962 8.15698 18.9106 8.6795 18.7688L12.6668 17.6883L8.64619 16.7303C6.69247 16.2648 5.57885 15.1274 4.98859 14.2551C4.60101 13.6819 4.34779 13.0947 4.19592 12.5533C4.59903 12.6585 5.06904 12.7335 5.82698 12.8066L9.54838 13.1647L6.59988 10.9268C4.47539 9.31455 3.62401 6.89234 4.24815 4.56379C10.8785 11.255 18.6634 10.7521 19.4471 10.929C19.2746 9.29889 19.2701 9.29505 19.2249 9.13987C18.2214 5.68824 20.4207 3.93564 21.4126 3.34238C23.4846 2.1034 26.7736 1.91663 29.0516 3.95789C29.5437 4.39844 30.209 4.57175 30.8317 4.42124C31.3907 4.28611 31.8494 4.14301 32.2985 3.98728L31.3636 6.585L32.5571 6.58582C32.3318 6.8797 32.0617 7.23154 31.7367 7.65342Z" fill="#CCCCCC"/>
</svg>
